<svg width="420" height="152" xmlns="http://www.w3.org/2000/svg" xmlns:xlink="http://www.w3.org/1999/xlink" overflow="hidden"><defs><clipPath id="clip0"><rect x="0" y="0" width="420" height="152"/></clipPath></defs><g clip-path="url(#clip0)"><path d="M0 0 420 0 420 151.639 0 151.639Z" fill="#FFFFFF" fill-rule="evenodd" transform="scale(1 1.00238)"/><path d="M117.906 73.4969 117.906 73.4677C117.906 73.3069 117.952 73.1888 118.044 73.1133 118.137 73.0378 118.281 73 118.475 73 118.675 73 118.813 73.0585 118.888 73.1754 118.964 73.2923 119.002 73.5334 119.002 73.8988L119.002 75.2578C119.002 75.4381 118.955 75.5732 118.863 75.6634 118.77 75.7535 118.631 75.7985 118.446 75.7985 118.315 75.7985 118.201 75.7608 118.106 75.6853 118.011 75.6098 117.896 75.4527 117.759 75.214 117.526 74.8194 117.242 74.5211 116.908 74.3189 116.574 74.1167 116.191 74.0157 115.757 74.0157 114.997 74.0157 114.38 74.2397 113.905 74.6879 113.43 75.136 113.193 75.7157 113.193 76.4269 113.193 77.1527 113.42 77.7458 113.876 78.2061 114.331 78.6665 114.917 78.8966 115.633 78.8966 115.96 78.8966 116.27 78.8516 116.565 78.7614 116.859 78.6713 117.138 78.5362 117.401 78.3559 117.494 78.2975 117.618 78.2073 117.774 78.0856 118.091 77.8274 118.339 77.6983 118.519 77.6983 118.67 77.6983 118.793 77.7458 118.888 77.8408 118.983 77.9358 119.031 78.0588 119.031 78.2098 119.031 78.5946 118.667 78.988 117.938 79.3898 117.21 79.7917 116.437 79.9926 115.619 79.9926 114.561 79.9926 113.681 79.6541 112.977 78.977 112.273 78.2999 111.921 77.4548 111.921 76.4415 111.921 75.4283 112.272 74.5819 112.973 73.9024 113.675 73.2229 114.552 72.8831 115.604 72.8831 115.974 72.8831 116.346 72.933 116.718 73.0329 117.091 73.1328 117.487 73.2874 117.906 73.4969ZM126.308 76.5804C126.04 76.4927 125.781 76.4281 125.53 76.3867 125.279 76.3453 125.03 76.3246 124.781 76.3246 124.031 76.3246 123.439 76.4513 123.006 76.7046 122.572 76.9579 122.355 77.2989 122.355 77.7275 122.355 78.0588 122.491 78.3316 122.761 78.5459 123.031 78.7602 123.376 78.8674 123.795 78.8674 124.413 78.8674 124.987 78.7054 125.516 78.3815 126.044 78.0576 126.308 77.7202 126.308 77.3695L126.308 76.5804ZM126.367 78.882C125.967 79.2425 125.533 79.5177 125.063 79.7077 124.593 79.8977 124.109 79.9926 123.612 79.9926 122.886 79.9926 122.301 79.7905 121.855 79.3862 121.409 78.9819 121.186 78.4558 121.186 77.8079 121.186 77.0382 121.482 76.4415 122.074 76.0177 122.666 75.5939 123.498 75.382 124.569 75.382 124.852 75.382 125.137 75.4003 125.424 75.4368 125.712 75.4734 126.006 75.5306 126.308 75.6086L126.308 75.5574C126.308 74.9972 126.174 74.5832 125.907 74.3152 125.639 74.0473 125.222 73.9134 124.657 73.9134 124.277 73.9134 123.853 74.0157 123.386 74.2203 122.918 74.4249 122.609 74.5271 122.458 74.5271 122.316 74.5271 122.2 74.4699 122.107 74.3554 122.014 74.241 121.968 74.0936 121.968 73.9134 121.968 73.626 122.237 73.3824 122.776 73.1827 123.314 72.983 124.002 72.8831 124.84 72.8831 125.697 72.8831 126.345 73.1011 126.783 73.5371 127.222 73.973 127.441 74.6173 127.441 75.4697L127.441 78.7797 127.799 78.7797C128.145 78.7797 128.376 78.8162 128.493 78.8893 128.61 78.9624 128.669 79.0939 128.669 79.2839 128.669 79.4593 128.62 79.5908 128.522 79.6785 128.425 79.7661 128.279 79.81 128.084 79.81L126.937 79.81C126.8 79.81 126.688 79.7686 126.601 79.6858 126.513 79.603 126.455 79.4836 126.425 79.3277L126.367 78.882ZM133.177 71.2975 131.935 71.2975C131.462 71.2975 131.166 71.2598 131.047 71.1843 130.928 71.1088 130.868 70.9712 130.868 70.7714 130.868 70.5961 130.918 70.4646 131.018 70.3769 131.118 70.2892 131.262 70.2453 131.452 70.2453L133.864 70.2453C133.995 70.2453 134.097 70.2721 134.171 70.3257 134.244 70.3793 134.28 70.4524 134.28 70.5449L134.28 78.7797 136.574 78.7797C136.76 78.7797 136.895 78.8199 136.98 78.9003 137.065 78.9807 137.108 79.1085 137.108 79.2839 137.108 79.4836 137.066 79.6212 136.984 79.6967 136.901 79.7722 136.745 79.81 136.516 79.81L131.124 79.81C130.934 79.81 130.789 79.7661 130.689 79.6785 130.589 79.5908 130.539 79.4593 130.539 79.2839 130.539 79.1134 130.59 78.9867 130.692 78.9039 130.795 78.8211 130.948 78.7797 131.153 78.7797L133.177 78.7797 133.177 71.2975ZM144.846 73.4969 144.846 73.4677C144.846 73.3069 144.892 73.1888 144.985 73.1133 145.077 73.0378 145.221 73 145.416 73 145.615 73 145.753 73.0585 145.829 73.1754 145.904 73.2923 145.942 73.5334 145.942 73.8988L145.942 75.2578C145.942 75.4381 145.896 75.5732 145.803 75.6634 145.71 75.7535 145.572 75.7985 145.387 75.7985 145.255 75.7985 145.142 75.7608 145.047 75.6853 144.952 75.6098 144.836 75.4527 144.7 75.214 144.466 74.8194 144.182 74.5211 143.848 74.3189 143.515 74.1167 143.131 74.0157 142.698 74.0157 141.938 74.0157 141.32 74.2397 140.845 74.6879 140.37 75.136 140.133 75.7157 140.133 76.4269 140.133 77.1527 140.361 77.7458 140.816 78.2061 141.272 78.6665 141.857 78.8966 142.573 78.8966 142.9 78.8966 143.21 78.8516 143.505 78.7614 143.8 78.6713 144.079 78.5362 144.342 78.3559 144.434 78.2975 144.558 78.2073 144.714 78.0856 145.031 77.8274 145.279 77.6983 145.46 77.6983 145.611 77.6983 145.734 77.7458 145.829 77.8408 145.924 77.9358 145.971 78.0588 145.971 78.2098 145.971 78.5946 145.607 78.988 144.879 79.3898 144.15 79.7917 143.377 79.9926 142.559 79.9926 141.502 79.9926 140.621 79.6541 139.917 78.977 139.213 78.2999 138.862 77.4548 138.862 76.4415 138.862 75.4283 139.212 74.5819 139.914 73.9024 140.615 73.2229 141.492 72.8831 142.544 72.8831 142.914 72.8831 143.286 72.933 143.658 73.0329 144.031 73.1328 144.427 73.2874 144.846 73.4969ZM149.807 77.1138C149.807 77.7275 149.936 78.1757 150.194 78.4582 150.453 78.7407 150.862 78.882 151.422 78.882 151.953 78.882 152.407 78.714 152.785 78.3778 153.162 78.0417 153.351 77.6204 153.351 77.1138L153.351 74.096 152.35 74.096C152.16 74.096 152.022 74.0559 151.937 73.9755 151.852 73.8951 151.809 73.7697 151.809 73.5992 151.809 73.4141 151.855 73.2777 151.948 73.19 152.041 73.1023 152.189 73.0585 152.394 73.0585L153.95 73.0585C154.135 73.0585 154.266 73.0987 154.341 73.179 154.417 73.2594 154.454 73.4555 154.454 73.7672L154.454 78.7797 154.79 78.7797C155.029 78.7797 155.201 78.8187 155.306 78.8966 155.41 78.9746 155.463 79.1037 155.463 79.2839 155.463 79.4593 155.413 79.5908 155.313 79.6785 155.213 79.7661 155.068 79.81 154.878 79.81L153.767 79.81C153.636 79.81 153.534 79.7832 153.461 79.7296 153.387 79.676 153.351 79.603 153.351 79.5104L153.351 79.0135C152.883 79.374 152.483 79.6212 152.149 79.7552 151.815 79.8891 151.463 79.9561 151.093 79.9561 150.289 79.9561 149.687 79.743 149.285 79.3168 148.883 78.8905 148.682 78.2463 148.682 77.3841L148.682 74.096 148.528 74.096C148.197 74.096 147.971 74.0571 147.849 73.9791 147.727 73.9012 147.666 73.7648 147.666 73.5699 147.666 73.3995 147.714 73.2716 147.809 73.1863 147.904 73.1011 148.051 73.0585 148.251 73.0585L149.354 73.0585C149.525 73.0585 149.643 73.0926 149.708 73.1608 149.774 73.229 149.807 73.38 149.807 73.6138L149.807 77.1138ZM160.117 71.2975 158.875 71.2975C158.402 71.2975 158.106 71.2598 157.987 71.1843 157.868 71.1088 157.808 70.9712 157.808 70.7714 157.808 70.5961 157.858 70.4646 157.958 70.3769 158.058 70.2892 158.203 70.2453 158.393 70.2453L160.804 70.2453C160.935 70.2453 161.038 70.2721 161.111 70.3257 161.184 70.3793 161.22 70.4524 161.22 70.5449L161.22 78.7797 163.515 78.7797C163.7 78.7797 163.835 78.8199 163.92 78.9003 164.006 78.9807 164.048 79.1085 164.048 79.2839 164.048 79.4836 164.007 79.6212 163.924 79.6967 163.841 79.7722 163.685 79.81 163.456 79.81L158.064 79.81C157.874 79.81 157.729 79.7661 157.629 79.6785 157.529 79.5908 157.479 79.4593 157.479 79.2839 157.479 79.1134 157.53 78.9867 157.633 78.9039 157.735 78.8211 157.888 78.7797 158.093 78.7797L160.117 78.7797 160.117 71.2975ZM171.209 76.5804C170.941 76.4927 170.682 76.4281 170.431 76.3867 170.18 76.3453 169.93 76.3246 169.682 76.3246 168.932 76.3246 168.34 76.4513 167.906 76.7046 167.473 76.9579 167.256 77.2989 167.256 77.7275 167.256 78.0588 167.391 78.3316 167.661 78.5459 167.932 78.7602 168.276 78.8674 168.695 78.8674 169.314 78.8674 169.887 78.7054 170.416 78.3815 170.945 78.0576 171.209 77.7202 171.209 77.3695L171.209 76.5804ZM171.267 78.882C170.868 79.2425 170.433 79.5177 169.963 79.7077 169.493 79.8977 169.009 79.9926 168.513 79.9926 167.787 79.9926 167.201 79.7905 166.755 79.3862 166.31 78.9819 166.087 78.4558 166.087 77.8079 166.087 77.0382 166.383 76.4415 166.975 76.0177 167.566 75.5939 168.398 75.382 169.47 75.382 169.752 75.382 170.037 75.4003 170.325 75.4368 170.612 75.4734 170.907 75.5306 171.209 75.6086L171.209 75.5574C171.209 74.9972 171.075 74.5832 170.807 74.3152 170.539 74.0473 170.123 73.9134 169.557 73.9134 169.178 73.9134 168.754 74.0157 168.286 74.2203 167.818 74.4249 167.509 74.5271 167.358 74.5271 167.217 74.5271 167.1 74.4699 167.007 74.3554 166.915 74.241 166.869 74.0936 166.869 73.9134 166.869 73.626 167.138 73.3824 167.676 73.1827 168.214 72.983 168.902 72.8831 169.74 72.8831 170.597 72.8831 171.245 73.1011 171.684 73.5371 172.122 73.973 172.341 74.6173 172.341 75.4697L172.341 78.7797 172.699 78.7797C173.045 78.7797 173.277 78.8162 173.394 78.8893 173.51 78.9624 173.569 79.0939 173.569 79.2839 173.569 79.4593 173.52 79.5908 173.423 79.6785 173.325 79.7661 173.179 79.81 172.984 79.81L171.837 79.81C171.701 79.81 171.589 79.7686 171.501 79.6858 171.413 79.603 171.355 79.4836 171.326 79.3277L171.267 78.882ZM180.562 73.4677C180.8 73.4677 180.974 73.5091 181.084 73.5919 181.194 73.6747 181.248 73.8062 181.248 73.9864 181.248 74.1569 181.197 74.2848 181.095 74.37 180.993 74.4553 180.839 74.4979 180.635 74.4979L177.675 74.4979 177.675 76.9384C177.675 77.7373 177.779 78.2634 177.986 78.5167 178.193 78.77 178.547 78.8966 179.049 78.8966 179.492 78.8966 180.023 78.7675 180.642 78.5094 181.261 78.2512 181.643 78.1221 181.789 78.1221 181.925 78.1221 182.041 78.1708 182.136 78.2682 182.231 78.3657 182.279 78.485 182.279 78.6263 182.279 78.787 182.219 78.9271 182.1 79.0464 181.98 79.1658 181.777 79.2814 181.49 79.3935 181.012 79.5835 180.582 79.7223 180.2 79.81 179.817 79.8977 179.458 79.9415 179.122 79.9415 178.552 79.9415 178.074 79.8502 177.686 79.6675 177.299 79.4848 177.01 79.2132 176.82 78.8528 176.723 78.6823 176.654 78.4801 176.612 78.2463 176.571 78.0125 176.55 77.652 176.55 77.1649L176.55 74.4979 175.308 74.4979C175.103 74.4979 174.955 74.4577 174.862 74.3774 174.77 74.297 174.723 74.1667 174.723 73.9864 174.723 73.7867 174.787 73.6503 174.913 73.5773 175.04 73.5042 175.31 73.4677 175.724 73.4677L176.55 73.4677 176.55 71.5825C176.55 71.373 176.595 71.2184 176.685 71.1185 176.775 71.0187 176.915 70.9687 177.105 70.9687 177.32 70.9687 177.468 71.0296 177.551 71.1514 177.634 71.2732 177.675 71.5508 177.675 71.9844L177.675 73.4677 180.562 73.4677ZM185.077 76.7557C185.116 77.4572 185.354 77.9991 185.79 78.3815 186.226 78.7639 186.821 78.9551 187.576 78.9551 188.146 78.9551 188.767 78.8028 189.439 78.4984 190.112 78.1939 190.518 78.0417 190.66 78.0417 190.806 78.0417 190.927 78.088 191.025 78.1806 191.122 78.2731 191.171 78.3876 191.171 78.524 191.171 78.6652 191.12 78.7943 191.018 78.9112 190.915 79.0281 190.752 79.1426 190.528 79.2547 190.041 79.4933 189.538 79.676 189.019 79.8027 188.5 79.9293 187.985 79.9926 187.474 79.9926 186.363 79.9926 185.474 79.6724 184.807 79.0318 184.139 78.3912 183.806 77.5424 183.806 76.4854 183.806 75.4088 184.159 74.5369 184.865 73.8695 185.572 73.2022 186.492 72.8685 187.627 72.8685 188.655 72.8685 189.508 73.1803 190.185 73.8038 190.862 74.4273 191.2 75.1823 191.2 76.0689 191.2 76.3417 191.143 76.5243 191.029 76.6169 190.914 76.7094 190.604 76.7557 190.097 76.7557L185.077 76.7557ZM185.114 75.7985 189.87 75.7985C189.797 75.2189 189.555 74.7524 189.143 74.3993 188.732 74.0461 188.226 73.8695 187.627 73.8695 186.979 73.8695 186.434 74.04 185.991 74.381 185.547 74.722 185.255 75.1945 185.114 75.7985ZM195.022 76.0689 198.01 76.0689 196.439 72.1963 195.022 76.0689ZM195.394 72.1963 194.328 72.1963C194.03 72.1963 193.822 72.1561 193.703 72.0757 193.584 71.9953 193.524 71.8602 193.524 71.6702 193.524 71.4705 193.576 71.3328 193.681 71.2573 193.786 71.1818 194.072 71.1441 194.539 71.1441L196.622 71.1441C196.89 71.1441 197.071 71.1794 197.166 71.25 197.261 71.3207 197.348 71.451 197.426 71.6409L200.283 78.7797 200.407 78.7797C200.67 78.7797 200.85 78.8162 200.948 78.8893 201.045 78.9624 201.094 79.0939 201.094 79.2839 201.094 79.4836 201.047 79.6212 200.955 79.6967 200.862 79.7722 200.689 79.81 200.436 79.81L198.449 79.81C198.078 79.81 197.841 79.7722 197.736 79.6967 197.632 79.6212 197.579 79.4836 197.579 79.2839 197.579 79.0988 197.636 78.9685 197.751 78.893 197.865 78.8175 198.081 78.7797 198.397 78.7797L199.077 78.7797 198.368 77.0407 194.656 77.0407 194.028 78.7797 194.737 78.7797C195.058 78.7797 195.277 78.8175 195.394 78.893 195.511 78.9685 195.57 79.0988 195.57 79.2839 195.57 79.4836 195.517 79.6212 195.413 79.6967 195.308 79.7722 195.078 79.81 194.722 79.81L192.8 79.81C192.489 79.81 192.282 79.7722 192.179 79.6967 192.077 79.6212 192.026 79.4836 192.026 79.2839 192.026 79.0939 192.077 78.9624 192.179 78.8893 192.282 78.8162 192.479 78.7797 192.771 78.7797L192.91 78.7797 195.394 72.1963ZM204.791 78.7797 207.217 78.7797C207.407 78.7797 207.547 78.8199 207.637 78.9003 207.727 78.9807 207.772 79.1085 207.772 79.2839 207.772 79.4836 207.73 79.6212 207.644 79.6967 207.559 79.7722 207.402 79.81 207.173 79.81L202.394 79.81C202.204 79.81 202.061 79.7661 201.963 79.6785 201.866 79.5908 201.817 79.4593 201.817 79.2839 201.817 79.1134 201.867 78.9867 201.967 78.9039 202.067 78.8211 202.221 78.7797 202.431 78.7797L203.702 78.7797 203.702 74.096 203.205 74.096C202.733 74.096 202.438 74.0583 202.321 73.9828 202.204 73.9073 202.146 73.7697 202.146 73.5699 202.146 73.3995 202.193 73.2716 202.288 73.1863 202.383 73.1011 202.528 73.0585 202.723 73.0585L204.389 73.0585C204.521 73.0585 204.62 73.084 204.689 73.1352 204.757 73.1863 204.791 73.2606 204.791 73.3581L204.791 74.6002C205.254 74.0205 205.736 73.5894 206.238 73.3069 206.739 73.0244 207.28 72.8831 207.86 72.8831 208.293 72.8831 208.644 72.9708 208.912 73.1462 209.18 73.3215 209.314 73.548 209.314 73.8257 209.314 74.0059 209.247 74.1655 209.113 74.3043 208.979 74.4431 208.832 74.5125 208.671 74.5125 208.559 74.5125 208.37 74.4382 208.105 74.2897 207.839 74.1411 207.602 74.0668 207.392 74.0668 207.012 74.0668 206.612 74.202 206.19 74.4723 205.769 74.7427 205.302 75.1701 204.791 75.7547L204.791 78.7797ZM212.017 76.7557C212.056 77.4572 212.294 77.9991 212.73 78.3815 213.166 78.7639 213.761 78.9551 214.516 78.9551 215.086 78.9551 215.707 78.8028 216.38 78.4984 217.052 78.1939 217.459 78.0417 217.6 78.0417 217.746 78.0417 217.868 78.088 217.965 78.1806 218.063 78.2731 218.111 78.3876 218.111 78.524 218.111 78.6652 218.06 78.7943 217.958 78.9112 217.856 79.0281 217.692 79.1426 217.468 79.2547 216.981 79.4933 216.478 79.676 215.959 79.8027 215.441 79.9293 214.926 79.9926 214.414 79.9926 213.303 79.9926 212.414 79.6724 211.747 79.0318 211.08 78.3912 210.746 77.5424 210.746 76.4854 210.746 75.4088 211.099 74.5369 211.806 73.8695 212.512 73.2022 213.432 72.8685 214.567 72.8685 215.595 72.8685 216.448 73.1803 217.125 73.8038 217.802 74.4273 218.141 75.1823 218.141 76.0689 218.141 76.3417 218.083 76.5243 217.969 76.6169 217.854 76.7094 217.544 76.7557 217.037 76.7557L212.017 76.7557ZM212.054 75.7985 216.811 75.7985C216.738 75.2189 216.495 74.7524 216.084 74.3993 215.672 74.0461 215.167 73.8695 214.567 73.8695 213.92 73.8695 213.374 74.04 212.931 74.381 212.487 74.722 212.195 75.1945 212.054 75.7985ZM225.089 76.5804C224.821 76.4927 224.562 76.4281 224.311 76.3867 224.06 76.3453 223.811 76.3246 223.562 76.3246 222.812 76.3246 222.22 76.4513 221.787 76.7046 221.353 76.9579 221.136 77.2989 221.136 77.7275 221.136 78.0588 221.271 78.3316 221.542 78.5459 221.812 78.7602 222.157 78.8674 222.576 78.8674 223.194 78.8674 223.768 78.7054 224.297 78.3815 224.825 78.0576 225.089 77.7202 225.089 77.3695L225.089 76.5804ZM225.148 78.882C224.748 79.2425 224.314 79.5177 223.844 79.7077 223.373 79.8977 222.89 79.9926 222.393 79.9926 221.667 79.9926 221.082 79.7905 220.636 79.3862 220.19 78.9819 219.967 78.4558 219.967 77.8079 219.967 77.0382 220.263 76.4415 220.855 76.0177 221.447 75.5939 222.279 75.382 223.35 75.382 223.633 75.382 223.918 75.4003 224.205 75.4368 224.493 75.4734 224.787 75.5306 225.089 75.6086L225.089 75.5574C225.089 74.9972 224.955 74.5832 224.687 74.3152 224.42 74.0473 224.003 73.9134 223.438 73.9134 223.058 73.9134 222.634 74.0157 222.167 74.2203 221.699 74.4249 221.39 74.5271 221.239 74.5271 221.097 74.5271 220.98 74.4699 220.888 74.3554 220.795 74.241 220.749 74.0936 220.749 73.9134 220.749 73.626 221.018 73.3824 221.556 73.1827 222.095 72.983 222.783 72.8831 223.621 72.8831 224.478 72.8831 225.126 73.1011 225.564 73.5371 226.003 73.973 226.222 74.6173 226.222 75.4697L226.222 78.7797 226.58 78.7797C226.926 78.7797 227.157 78.8162 227.274 78.8893 227.391 78.9624 227.449 79.0939 227.449 79.2839 227.449 79.4593 227.401 79.5908 227.303 79.6785 227.206 79.7661 227.06 79.81 226.865 79.81L225.718 79.81C225.581 79.81 225.469 79.7686 225.382 79.6858 225.294 79.603 225.235 79.4836 225.206 79.3277L225.148 78.882Z" fill="#EF95EF" fill-rule="evenodd" transform="scale(1 1.00238)"/><path d="M198.037 33.9192 200.925 26.0639 202.506 26.0639 205.351 33.9192 203.861 33.9192 203.084 31.7009 200.336 31.7009 199.553 33.9192 198.037 33.9192ZM200.7 30.6185 202.715 30.6185C202.072 28.5573 201.741 27.4928 201.723 27.4249L200.7 30.6185ZM206.096 33.9192 206.096 26.0478 209.005 26.0478C209.402 26.0478 209.746 26.0657 210.037 26.1014 210.328 26.1371 210.605 26.2023 210.867 26.297 211.13 26.3917 211.342 26.5194 211.505 26.6801 211.667 26.8409 211.796 27.0507 211.891 27.3097 211.985 27.5687 212.033 27.875 212.033 28.2287 212.033 29.2718 211.559 29.9576 210.613 30.2863 210.806 30.5042 211.045 30.9079 211.331 31.4973L212.499 33.9192 210.913 33.9192 209.997 31.867C209.65 31.1311 209.436 30.6953 209.354 30.5596 209.293 30.556 209.091 30.5542 208.748 30.5542L207.532 30.5435 207.532 33.9192 206.096 33.9192ZM209.134 29.504C209.691 29.504 210.091 29.4048 210.334 29.2066 210.577 29.0083 210.699 28.6895 210.699 28.2501 210.699 27.8643 210.575 27.5803 210.329 27.3981 210.082 27.216 209.705 27.1249 209.198 27.1249L207.532 27.1249 207.532 29.4986C207.585 29.4986 207.851 29.4995 208.33 29.5013 208.809 29.5031 209.077 29.504 209.134 29.504ZM217.086 34.0318C215.889 34.0318 214.954 33.671 214.281 32.9494 213.607 32.2278 213.271 31.2401 213.271 29.9862 213.271 29.1896 213.428 28.4886 213.742 27.8831 214.056 27.2776 214.519 26.8052 215.13 26.4658 215.741 26.1264 216.462 25.9568 217.295 25.9568 218.248 25.9568 219.066 26.1622 219.749 26.573L219.277 27.6553C218.627 27.3053 217.975 27.1302 217.321 27.1302 216.528 27.1302 215.905 27.3874 215.451 27.9018 214.998 28.4162 214.771 29.1164 214.771 30.0023 214.771 30.8811 214.973 31.5759 215.376 32.0867 215.78 32.5975 216.371 32.8529 217.15 32.8529 217.65 32.8529 218.104 32.7743 218.511 32.6172L218.511 30.7953 216.866 30.7953 216.877 29.654 219.877 29.654 219.877 33.4423C219.392 33.6424 218.932 33.7906 218.498 33.8871 218.064 33.9835 217.593 34.0318 217.086 34.0318ZM224.502 34.0318C223.473 34.0318 222.692 33.7755 222.16 33.2628 221.628 32.7502 221.362 32.0278 221.362 31.0954L221.362 26.0693 222.819 26.0693 222.819 30.9722C222.819 31.6259 222.952 32.1028 223.218 32.4028 223.484 32.7029 223.921 32.8529 224.528 32.8529 225.125 32.8529 225.557 32.702 225.825 32.4002 226.093 32.0983 226.227 31.6205 226.227 30.9668L226.227 26.0693 227.679 26.0693 227.679 31.1061C227.679 32.0313 227.408 32.7502 226.865 33.2628 226.322 33.7755 225.534 34.0318 224.502 34.0318ZM229.303 33.9192 229.303 26.0693 231.017 26.0693 233.391 31.7384 235.781 26.0693 237.474 26.0693 237.474 33.9192 236.135 33.9192 236.135 30.0398 236.177 27.8161 235.979 28.4055 233.97 33.3834 232.727 33.3834 230.76 28.3787 230.562 27.7893 230.61 30.0612 230.61 33.9192 229.303 33.9192ZM239.167 33.9192 239.167 26.0693 243.926 26.0693 243.867 27.2213 240.619 27.2213 240.619 29.2468 243.706 29.2468 243.706 30.3988 240.619 30.3988 240.619 32.7618 243.985 32.7618 243.936 33.9192 239.167 33.9192ZM245.34 33.9192 245.34 26.0693 246.883 26.0693C247.162 26.5051 247.728 27.3838 248.582 28.7056 249.436 30.0273 249.955 30.8311 250.141 31.1168 250.195 31.199 250.287 31.3374 250.417 31.5321 250.548 31.7268 250.64 31.8652 250.693 31.9474 250.668 30.7221 250.656 30.0862 250.656 30.0398L250.656 26.0693 251.979 26.0693 251.979 33.9192 250.415 33.9192 246.873 28.4002 246.615 27.9768C246.644 28.9199 246.658 29.5826 246.658 29.9648L246.658 33.9192 245.34 33.9192ZM255.183 33.9192 255.183 27.232 252.895 27.232 252.895 26.0693 258.918 26.0693 258.918 27.232 256.641 27.232 256.641 33.9192 255.183 33.9192ZM262.042 34.0264C261.095 34.0264 260.247 33.8085 259.497 33.3727L259.851 32.2206C260.186 32.4064 260.552 32.5564 260.946 32.6707 261.341 32.7851 261.726 32.8422 262.101 32.8422 262.562 32.8422 262.91 32.7431 263.146 32.5448 263.382 32.3466 263.5 32.0617 263.5 31.6902 263.5 31.1972 263.171 30.8561 262.514 30.6667 262.467 30.6524 262.337 30.614 262.122 30.5515 261.908 30.489 261.707 30.4283 261.52 30.3693 261.332 30.3104 261.197 30.2649 261.115 30.2327 260.061 29.8612 259.534 29.1682 259.534 28.1537 259.534 27.4428 259.787 26.8945 260.293 26.5087 260.798 26.1229 261.469 25.93 262.305 25.93 263.251 25.93 264.068 26.1246 264.753 26.514L264.314 27.575C263.614 27.2606 262.964 27.1034 262.364 27.1034 261.931 27.1034 261.605 27.1793 261.386 27.3312 261.166 27.483 261.049 27.7357 261.035 28.0894 261.035 28.5252 261.251 28.8092 261.683 28.9413 261.769 28.9735 261.98 29.0432 262.315 29.1503 262.651 29.2575 262.869 29.3271 262.969 29.3593 263.687 29.5951 264.201 29.888 264.51 30.2381 264.819 30.5881 264.973 31.0757 264.973 31.7009 264.973 32.4475 264.709 33.0217 264.18 33.4236 263.651 33.8255 262.939 34.0264 262.042 34.0264ZM268.247 33.9192 271.135 26.0639 272.716 26.0639 275.561 33.9192 274.072 33.9192 273.295 31.7009 270.546 31.7009 269.763 33.9192 268.247 33.9192ZM270.91 30.6185 272.925 30.6185C272.282 28.5573 271.951 27.4928 271.934 27.4249L270.91 30.6185ZM278.594 34.0264C277.647 34.0264 276.799 33.8085 276.049 33.3727L276.402 32.2206C276.738 32.4064 277.104 32.5564 277.498 32.6707 277.893 32.7851 278.278 32.8422 278.653 32.8422 279.114 32.8422 279.462 32.7431 279.698 32.5448 279.934 32.3466 280.051 32.0617 280.051 31.6902 280.051 31.1972 279.723 30.8561 279.066 30.6667 279.019 30.6524 278.889 30.614 278.674 30.5515 278.46 30.489 278.259 30.4283 278.072 30.3693 277.884 30.3104 277.749 30.2649 277.667 30.2327 276.613 29.8612 276.086 29.1682 276.086 28.1537 276.086 27.4428 276.339 26.8945 276.845 26.5087 277.35 26.1229 278.021 25.93 278.857 25.93 279.803 25.93 280.619 26.1246 281.305 26.514L280.866 27.575C280.166 27.2606 279.516 27.1034 278.915 27.1034 278.483 27.1034 278.157 27.1793 277.938 27.3312 277.718 27.483 277.601 27.7357 277.587 28.0894 277.587 28.5252 277.803 28.8092 278.235 28.9413 278.321 28.9735 278.531 29.0432 278.867 29.1503 279.203 29.2575 279.421 29.3271 279.521 29.3593 280.239 29.5951 280.753 29.888 281.062 30.2381 281.371 30.5881 281.525 31.0757 281.525 31.7009 281.525 32.4475 281.261 33.0217 280.732 33.4236 280.203 33.8255 279.491 34.0264 278.594 34.0264ZM287.639 33.9192 284.783 26.0693 286.278 26.0693 287.939 30.9186C288.003 31.0865 288.151 31.5776 288.384 32.3921 288.398 32.335 288.464 32.1001 288.582 31.6875 288.7 31.2749 288.777 31.0222 288.812 30.9293 288.855 30.8078 289.127 30.0014 289.627 28.51 290.127 27.0186 290.4 26.205 290.447 26.0693L291.926 26.0693 289.107 33.9192 287.639 33.9192ZM291.304 33.9192 294.192 26.0639 295.773 26.0639 298.618 33.9192 297.128 33.9192 296.352 31.7009 293.603 31.7009 292.82 33.9192 291.304 33.9192ZM293.967 30.6185 295.982 30.6185C295.339 28.5573 295.008 27.4928 294.991 27.4249L293.967 30.6185ZM299.4 33.9192 299.4 26.0693 300.853 26.0693 300.853 32.7618 304.137 32.7618 304.094 33.9192 299.4 33.9192ZM308.204 34.0318C307.175 34.0318 306.395 33.7755 305.863 33.2628 305.33 32.7502 305.064 32.0278 305.064 31.0954L305.064 26.0693 306.522 26.0693 306.522 30.9722C306.522 31.6259 306.655 32.1028 306.921 32.4028 307.187 32.7029 307.624 32.8529 308.231 32.8529 308.828 32.8529 309.26 32.702 309.528 32.4002 309.796 32.0983 309.93 31.6205 309.93 30.9668L309.93 26.0693 311.382 26.0693 311.382 31.1061C311.382 32.0313 311.11 32.7502 310.567 33.2628 310.024 33.7755 309.237 34.0318 308.204 34.0318ZM313.005 33.9192 313.005 26.0693 317.763 26.0693 317.704 27.2213 314.457 27.2213 314.457 29.2468 317.544 29.2468 317.544 30.3988 314.457 30.3988 314.457 32.7618 317.822 32.7618 317.774 33.9192 313.005 33.9192ZM321.38 34.0264C320.434 34.0264 319.585 33.8085 318.835 33.3727L319.189 32.2206C319.525 32.4064 319.89 32.5564 320.285 32.6707 320.679 32.7851 321.064 32.8422 321.439 32.8422 321.9 32.8422 322.248 32.7431 322.484 32.5448 322.72 32.3466 322.838 32.0617 322.838 31.6902 322.838 31.1972 322.509 30.8561 321.852 30.6667 321.805 30.6524 321.675 30.614 321.461 30.5515 321.246 30.489 321.045 30.4283 320.858 30.3693 320.67 30.3104 320.535 30.2649 320.453 30.2327 319.4 29.8612 318.873 29.1682 318.873 28.1537 318.873 27.4428 319.125 26.8945 319.631 26.5087 320.136 26.1229 320.807 25.93 321.643 25.93 322.59 25.93 323.406 26.1246 324.092 26.514L323.652 27.575C322.952 27.2606 322.302 27.1034 321.702 27.1034 321.27 27.1034 320.944 27.1793 320.724 27.3312 320.504 27.483 320.387 27.7357 320.373 28.0894 320.373 28.5252 320.589 28.8092 321.021 28.9413 321.107 28.9735 321.318 29.0432 321.654 29.1503 321.989 29.2575 322.207 29.3271 322.307 29.3593 323.025 29.5951 323.539 29.888 323.848 30.2381 324.157 30.5881 324.311 31.0757 324.311 31.7009 324.311 32.4475 324.047 33.0217 323.518 33.4236 322.99 33.8255 322.277 34.0264 321.38 34.0264Z" fill="#4A4A4A" fill-rule="evenodd" transform="scale(1 1.00238)"/><path d="M43.8955 11.9715 43.8955 22.4466" stroke="#4A4A4A" stroke-width="0.997625" stroke-linecap="square" fill="none" fill-rule="evenodd" transform="matrix(-1 0 0 -1.00238 326.223 74.5)"/><path d="M0.997625 11.9715 0.997625 22.4466" stroke="#4A4A4A" stroke-width="0.997625" stroke-linecap="square" fill="none" fill-rule="evenodd" transform="matrix(-1 0 0 -1.00238 240.428 74.5)"/><path d="M0.997625 10.9739 43.8955 10.9739" stroke="#4A4A4A" stroke-width="0.997625" stroke-linecap="square" fill="none" fill-rule="evenodd" transform="matrix(-1 0 0 -1.00238 283.325 62)"/><path d="M22.9454 0.498812 22.9454 10.9739" stroke="#4A4A4A" stroke-width="0.997625" stroke-linecap="square" fill="none" fill-rule="evenodd" transform="matrix(-1 0 0 -1.00238 284.323 51.5)"/><path d="M114.727 12.9691 114.727 23.943" stroke="#4A4A4A" stroke-width="0.997625" stroke-linecap="square" fill="none" fill-rule="evenodd" transform="matrix(1 0 0 1.00238 -1.99525 74)"/><path d="M0.997625 12.9691C0.997625 12.9691 0.997625 16.6271 0.997625 23.943" stroke="#4A4A4A" stroke-width="0.997625" stroke-linecap="square" fill="none" fill-rule="evenodd" transform="matrix(1 0 0 1.00238 225.463 74)"/><path d="M1.99525 11.9715 114.727 11.9715" stroke="#4A4A4A" stroke-width="0.997625" stroke-linecap="square" fill="none" fill-rule="evenodd" transform="matrix(1 0 0 1.00238 110.736 87)"/><path d="M58.8599 0 58.8599 11.9715" stroke="#4A4A4A" stroke-width="0.997625" stroke-linecap="square" fill="none" fill-rule="evenodd" transform="matrix(1 0 0 1.00238 109.739 99)"/><path d="M140.974 124.703 140.974 116.853 142.426 116.853 142.426 124.703 140.974 124.703ZM145.62 123.54 146.659 123.54C147.556 123.54 148.238 123.305 148.706 122.836 149.174 122.366 149.408 121.681 149.408 120.781 149.408 119.816 149.167 119.115 148.685 118.678 148.203 118.24 147.476 118.021 146.504 118.021L145.62 118.021 145.62 123.54ZM144.168 124.703 144.168 116.853 146.44 116.853C147.126 116.853 147.74 116.932 148.283 117.089 148.826 117.246 149.293 117.483 149.684 117.799 150.075 118.115 150.375 118.522 150.584 119.021 150.793 119.519 150.898 120.095 150.898 120.749 150.898 122.017 150.516 122.993 149.751 123.677 148.987 124.361 147.928 124.703 146.574 124.703L144.168 124.703ZM152.275 124.703 152.275 116.853 157.033 116.853 156.974 118.005 153.727 118.005 153.727 120.031 156.813 120.031 156.813 121.183 153.727 121.183 153.727 123.546 157.092 123.546 157.044 124.703 152.275 124.703ZM158.448 124.703 158.448 116.853 159.991 116.853C160.27 117.289 160.836 118.168 161.689 119.489 162.543 120.811 163.063 121.615 163.249 121.901 163.302 121.983 163.394 122.121 163.525 122.316 163.655 122.511 163.747 122.649 163.801 122.731 163.776 121.506 163.763 120.87 163.763 120.824L163.763 116.853 165.087 116.853 165.087 124.703 163.522 124.703 159.98 119.184 159.723 118.761C159.752 119.704 159.766 120.366 159.766 120.749L159.766 124.703 158.448 124.703ZM168.291 124.703 168.291 118.016 166.003 118.016 166.003 116.853 172.026 116.853 172.026 118.016 169.748 118.016 169.748 124.703 168.291 124.703ZM172.985 124.703 172.985 116.853 174.437 116.853 174.437 124.703 172.985 124.703ZM176.173 124.703 176.173 116.853 180.819 116.853 180.765 118.005 177.614 118.005 177.614 120.234 180.61 120.234 180.61 121.376 177.614 121.376 177.614 124.703 176.173 124.703ZM182.121 124.703 182.121 116.853 183.573 116.853 183.573 124.703 182.121 124.703ZM185.309 124.703 185.309 116.853 190.067 116.853 190.008 118.005 186.761 118.005 186.761 120.031 189.848 120.031 189.848 121.183 186.761 121.183 186.761 123.546 190.126 123.546 190.078 124.703 185.309 124.703ZM191.444 124.703 191.444 116.832 194.354 116.832C194.75 116.832 195.094 116.85 195.385 116.885 195.677 116.921 195.953 116.986 196.216 117.081 196.478 117.176 196.691 117.303 196.854 117.464 197.016 117.625 197.145 117.835 197.239 118.094 197.334 118.353 197.381 118.659 197.381 119.013 197.381 120.056 196.908 120.741 195.961 121.07 196.154 121.288 196.394 121.692 196.679 122.281L197.848 124.703 196.261 124.703 195.345 122.651C194.999 121.915 194.784 121.479 194.702 121.343 194.641 121.34 194.44 121.338 194.097 121.338L192.88 121.327 192.88 124.703 191.444 124.703ZM194.482 120.288C195.04 120.288 195.44 120.189 195.683 119.99 195.926 119.792 196.047 119.473 196.047 119.034 196.047 118.648 195.924 118.364 195.677 118.182 195.431 118 195.054 117.909 194.547 117.909L192.88 117.909 192.88 120.282C192.934 120.282 193.2 120.283 193.679 120.285 194.157 120.287 194.425 120.288 194.482 120.288Z" fill="#4A4A4A" fill-rule="evenodd" transform="scale(1 1.00238)"/><path d="M239.681 71.9698 239.539 71.9917C239.507 71.9966 239.479 71.999 239.455 71.999 239.304 71.999 239.181 71.9564 239.086 71.8711 238.991 71.7859 238.943 71.6726 238.943 71.5313 238.943 71.4144 238.984 71.3121 239.067 71.2245 239.15 71.1368 239.269 71.071 239.425 71.0272L241.595 70.4426C241.649 70.428 241.701 70.4171 241.753 70.4098 241.804 70.4024 241.856 70.3988 241.91 70.3988 242.002 70.3988 242.075 70.4414 242.129 70.5267 242.182 70.6119 242.209 70.7276 242.209 70.8737L242.209 78.7797 243.378 78.7797C243.812 78.7797 244.087 78.815 244.204 78.8857 244.321 78.9563 244.379 79.089 244.379 79.2839 244.379 79.4593 244.331 79.5908 244.233 79.6785 244.136 79.7661 243.99 79.81 243.795 79.81L239.425 79.81C239.23 79.81 239.084 79.7661 238.987 79.6785 238.889 79.5908 238.841 79.4593 238.841 79.2839 238.841 79.089 238.899 78.9563 239.016 78.8857 239.133 78.815 239.408 78.7797 239.842 78.7797L241.055 78.7797 241.055 71.6409 239.681 71.9698Z" fill="#72DC7A" transform="scale(1 1.00238)"/><path d="M250.407 80.0511C249.492 80.0511 248.765 79.6188 248.226 78.7541 247.688 77.8895 247.419 76.7046 247.419 75.1994 247.419 73.699 247.688 72.5166 248.226 71.6519 248.765 70.7873 249.492 70.3549 250.407 70.3549 251.323 70.3549 252.051 70.7885 252.592 71.6556 253.133 72.5226 253.403 73.7039 253.403 75.1994 253.403 76.6948 253.133 77.8773 252.592 78.7468 252.051 79.6164 251.323 80.0511 250.407 80.0511ZM250.407 71.3998C249.847 71.3998 249.411 71.7311 249.1 72.3936 248.788 73.056 248.632 73.9913 248.632 75.1994 248.632 76.4123 248.788 77.3512 249.1 78.0162 249.411 78.6811 249.847 79.0135 250.407 79.0135 250.973 79.0135 251.411 78.6811 251.723 78.0162 252.034 77.3512 252.19 76.4123 252.19 75.1994 252.19 73.9913 252.034 73.056 251.723 72.3936 251.411 71.7311 250.973 71.3998 250.407 71.3998Z" fill="#72DC7A" transform="scale(1 1.00238)"/><path d="M275.616 75.024C275.879 74.683 276.171 74.4273 276.493 74.2568 276.814 74.0863 277.165 74.0011 277.545 74.0011 278.315 74.0011 278.969 74.2909 279.507 74.8706 280.045 75.4502 280.314 76.1639 280.314 77.0115 280.314 77.898 280.054 78.6263 279.532 79.1962 279.011 79.7661 278.344 80.0511 277.53 80.0511 276.571 80.0511 275.802 79.6699 275.225 78.9076 274.648 78.1452 274.359 77.1284 274.359 75.857 274.359 74.2008 274.785 72.8697 275.638 71.8638 276.49 70.8579 277.616 70.3549 279.014 70.3549 279.486 70.3549 279.798 70.389 279.949 70.4572 280.1 70.5254 280.175 70.6545 280.175 70.8445 280.175 71.1563 279.888 71.317 279.313 71.3268 278.933 71.3316 278.629 71.356 278.4 71.3998 277.63 71.546 277.005 71.932 276.526 72.558 276.046 73.1839 275.743 74.0059 275.616 75.024ZM275.777 76.9676C275.777 77.5668 275.935 78.0551 276.252 78.4326 276.568 78.8102 276.975 78.9989 277.472 78.9989 277.94 78.9989 278.323 78.8211 278.623 78.4655 278.922 78.1099 279.072 77.6447 279.072 77.0699 279.072 76.4756 278.917 75.9934 278.608 75.6232 278.299 75.253 277.901 75.0678 277.413 75.0678 276.941 75.0678 276.55 75.2457 276.241 75.6012 275.931 75.9568 275.777 76.4123 275.777 76.9676Z" fill="#72DC7A" transform="scale(1 1.00238)"/><path d="M233.931 71.2172C233.931 71.3195 233.849 71.5399 233.686 71.8784 233.523 72.217 233.4 72.4861 233.317 72.6858 232.986 73.4604 232.751 74.1691 232.612 74.8121 232.473 75.4551 232.403 76.1225 232.403 76.8142 232.403 77.4523 232.462 78.0697 232.579 78.6665 232.696 79.2632 232.874 79.8587 233.112 80.453 233.234 80.7745 233.401 81.1532 233.613 81.5892 233.825 82.0252 233.931 82.2943 233.931 82.3966 233.931 82.5038 233.907 82.5878 233.861 82.6487 233.815 82.7096 233.753 82.74 233.675 82.74 233.524 82.74 233.356 82.6609 233.171 82.5025 232.986 82.3442 232.771 82.0897 232.528 81.739 232.006 80.9937 231.617 80.2119 231.359 79.3935 231.1 78.5751 230.971 77.7154 230.971 76.8142 230.971 75.9909 231.077 75.2055 231.289 74.4577 231.501 73.71 231.824 72.9854 232.257 72.284 232.54 71.8212 232.8 71.4729 233.039 71.2391 233.278 71.0053 233.49 70.8883 233.675 70.8883 233.753 70.8883 233.815 70.9188 233.861 70.9797 233.907 71.0406 233.931 71.1197 233.931 71.2172Z" fill="#9B9B9B" transform="scale(1 1.00238)"/><path d="M258.525 77.7714C258.564 77.6058 258.615 77.4998 258.679 77.4535 258.742 77.4072 258.849 77.3841 259 77.3841L260.6 77.3841C260.674 77.3841 260.732 77.3987 260.776 77.428 260.82 77.4572 260.842 77.4937 260.842 77.5376 260.842 77.5619 260.837 77.5936 260.827 77.6325 260.817 77.6715 260.803 77.708 260.783 77.7421L258.774 81.9216C258.74 81.9947 258.693 82.0532 258.635 82.097 258.576 82.1409 258.513 82.1628 258.445 82.1628 258.43 82.1628 258.415 82.1603 258.397 82.1555 258.38 82.1506 258.352 82.1409 258.313 82.1262L257.802 81.9363C257.724 81.9022 257.666 81.8632 257.627 81.8194 257.588 81.7755 257.568 81.7244 257.568 81.6659L257.568 81.5527C257.568 81.5307 257.573 81.5076 257.583 81.4832L258.525 77.7714Z" fill="#9B9B9B" transform="scale(1 1.00238)"/><path d="M284.837 82.3966C284.837 82.2992 284.92 82.0836 285.086 81.7499 285.251 81.4163 285.378 81.1496 285.466 80.9498 285.792 80.1704 286.026 79.458 286.167 78.8126 286.308 78.1672 286.379 77.501 286.379 76.8142 286.379 76.1907 286.319 75.5781 286.2 74.9765 286.081 74.3749 285.899 73.7721 285.656 73.1681 285.529 72.8466 285.361 72.4678 285.151 72.0319 284.942 71.5959 284.837 71.3243 284.837 71.2172 284.837 71.1197 284.862 71.0406 284.91 70.9797 284.959 70.9188 285.022 70.8883 285.1 70.8883 285.261 70.8883 285.433 70.9675 285.615 71.1258 285.798 71.2841 286.011 71.5362 286.255 71.8821 286.776 72.6225 287.166 73.4043 287.424 74.2276 287.682 75.0508 287.811 75.913 287.811 76.8142 287.811 77.6374 287.703 78.4241 287.486 79.1743 287.269 79.9244 286.944 80.6503 286.51 81.3517 286.208 81.8291 285.944 82.1798 285.718 82.4039 285.491 82.628 285.285 82.74 285.1 82.74 285.022 82.74 284.959 82.7084 284.91 82.645 284.862 82.5817 284.837 82.4989 284.837 82.3966Z" fill="#9B9B9B" transform="scale(1 1.00238)"/><path d="M294.395 78.0271C294.438 77.8664 294.49 77.7641 294.548 77.7202 294.606 77.6764 294.706 77.6545 294.848 77.6545L296.36 77.6545C296.423 77.6545 296.476 77.6691 296.517 77.6983 296.559 77.7275 296.579 77.7641 296.579 77.8079 296.579 77.8225 296.574 77.8493 296.565 77.8883 296.555 77.9273 296.54 77.9638 296.521 77.9979L294.636 81.9216C294.597 81.9996 294.554 82.0556 294.508 82.0897 294.461 82.1238 294.404 82.1409 294.336 82.1409 294.297 82.1409 294.267 82.1396 294.245 82.1372 294.223 82.1348 294.205 82.1311 294.19 82.1262L293.708 81.9509C293.635 81.9216 293.58 81.8851 293.543 81.8413 293.507 81.7974 293.488 81.7487 293.488 81.6951 293.488 81.6757 293.49 81.6537 293.492 81.6294 293.495 81.605 293.503 81.566 293.518 81.5125L294.395 78.0271Z" fill="#9B9B9B" transform="scale(1 1.00238)"/><path d="M293.832 74.571C293.832 74.191 293.965 73.8793 294.23 73.6357 294.496 73.3922 294.84 73.2704 295.264 73.2704 295.698 73.2704 296.048 73.3909 296.316 73.6321 296.584 73.8732 296.718 74.1862 296.718 74.571 296.718 74.9558 296.584 75.2688 296.316 75.5099 296.048 75.751 295.698 75.8716 295.264 75.8716 294.835 75.8716 294.49 75.7523 294.226 75.5136 293.963 75.2749 293.832 74.9607 293.832 74.571Z" fill="#9B9B9B" transform="scale(1 1.00238)"/></g></svg>