<svg width="420" height="215" xmlns="http://www.w3.org/2000/svg" xmlns:xlink="http://www.w3.org/1999/xlink" overflow="hidden"><defs><clipPath id="clip0"><rect x="0" y="0" width="420" height="215"/></clipPath></defs><g clip-path="url(#clip0)"><path d="M0 0 420 0 420 214.489 0 214.489Z" fill="#FFFFFF" fill-rule="evenodd" transform="scale(1 1.00238)"/><path d="M158.622 63.848 158.622 73.8242" stroke="#4A4A4A" stroke-width="0.997625" stroke-linecap="square" fill="none" fill-rule="evenodd" transform="matrix(-1 0 0 -1.00238 317.245 138)"/><path d="M243.42 63.848 243.42 73.8242" stroke="#4A4A4A" stroke-width="0.997625" stroke-linecap="square" fill="none" fill-rule="evenodd" transform="matrix(-1 0 0 -1.00238 486.841 138)"/><path d="M99.7625 63.848 99.7625 73.8242" stroke="#4A4A4A" stroke-width="0.997625" stroke-linecap="square" fill="none" fill-rule="evenodd" transform="matrix(-1 0 0 -1.00238 199.525 138)"/><path d="M167.601 63.848 167.601 73.8242" stroke="#4A4A4A" stroke-width="0.997625" stroke-linecap="square" fill="none" fill-rule="evenodd" transform="matrix(-1 0 0 -1.00238 335.202 138)"/><path d="M99.7625 62.8504 158.622 62.8504" stroke="#4A4A4A" stroke-width="0.997625" stroke-linecap="square" fill="none" fill-rule="evenodd" transform="matrix(-1 0 0 -1.00238 258.385 126)"/><path d="M168.599 62.8504 243.42 62.8504" stroke="#4A4A4A" stroke-width="0.997625" stroke-linecap="square" fill="none" fill-rule="evenodd" transform="matrix(-1 0 0 -1.00238 412.019 126)"/><path d="M128.694 62.8504 128.694 50.8789 128.694 62.8504Z" stroke="#4A4A4A" stroke-width="0.997625" stroke-linecap="square" fill="none" fill-rule="evenodd" transform="scale(1 1.00238)"/><path d="M205.511 62.8504 205.511 50.8789 205.511 62.8504Z" stroke="#4A4A4A" stroke-width="0.997625" stroke-linecap="square" fill="none" fill-rule="evenodd" transform="scale(1 1.00238)"/><path d="M178.385 43.8955 178.385 36.0455 179.837 36.0455 179.837 43.8955 178.385 43.8955ZM183.031 42.7327 184.07 42.7327C184.967 42.7327 185.649 42.4979 186.117 42.0281 186.585 41.5584 186.819 40.8734 186.819 39.9732 186.819 39.0087 186.578 38.3076 186.096 37.87 185.613 37.4324 184.887 37.2136 183.915 37.2136L183.031 37.2136 183.031 42.7327ZM181.579 43.8955 181.579 36.0455 183.851 36.0455C184.536 36.0455 185.151 36.1241 185.694 36.2813 186.237 36.4385 186.704 36.6751 187.095 36.9913 187.486 37.3074 187.786 37.7146 187.995 38.213 188.204 38.7113 188.309 39.2873 188.309 39.941 188.309 41.2092 187.926 42.1853 187.162 42.8694 186.398 43.5535 185.338 43.8955 183.985 43.8955L181.579 43.8955ZM189.686 43.8955 189.686 36.0455 194.444 36.0455 194.385 37.1976 191.138 37.1976 191.138 39.223 194.224 39.223 194.224 40.3751 191.138 40.3751 191.138 42.7381 194.503 42.7381 194.455 43.8955 189.686 43.8955ZM195.859 43.8955 195.859 36.0455 197.402 36.0455C197.68 36.4813 198.247 37.3601 199.1 38.6818 199.954 40.0036 200.474 40.8073 200.66 41.0931 200.713 41.1752 200.805 41.3137 200.936 41.5083 201.066 41.703 201.158 41.8415 201.212 41.9236 201.187 40.6983 201.174 40.0625 201.174 40.0161L201.174 36.0455 202.498 36.0455 202.498 43.8955 200.933 43.8955 197.391 38.3764 197.134 37.9531C197.162 38.8962 197.177 39.5588 197.177 39.941L197.177 43.8955 195.859 43.8955ZM205.702 43.8955 205.702 37.2083 203.414 37.2083 203.414 36.0455 209.437 36.0455 209.437 37.2083 207.159 37.2083 207.159 43.8955 205.702 43.8955ZM210.396 43.8955 210.396 36.0455 211.848 36.0455 211.848 43.8955 210.396 43.8955ZM213.584 43.8955 213.584 36.0455 218.23 36.0455 218.176 37.1976 215.025 37.1976 215.025 39.4266 218.021 39.4266 218.021 40.568 215.025 40.568 215.025 43.8955 213.584 43.8955ZM219.532 43.8955 219.532 36.0455 220.984 36.0455 220.984 43.8955 219.532 43.8955ZM222.72 43.8955 222.72 36.0455 227.478 36.0455 227.419 37.1976 224.172 37.1976 224.172 39.223 227.258 39.223 227.258 40.3751 224.172 40.3751 224.172 42.7381 227.537 42.7381 227.489 43.8955 222.72 43.8955ZM228.855 43.8955 228.855 36.0241 231.765 36.0241C232.161 36.0241 232.505 36.042 232.796 36.0777 233.087 36.1134 233.364 36.1786 233.627 36.2733 233.889 36.3679 234.102 36.4956 234.264 36.6564 234.427 36.8171 234.556 37.027 234.65 37.286 234.745 37.545 234.792 37.8513 234.792 38.2049 234.792 39.248 234.319 39.9339 233.372 40.2625 233.565 40.4804 233.805 40.8841 234.09 41.4735L235.258 43.8955 233.672 43.8955 232.756 41.8432C232.41 41.1074 232.195 40.6716 232.113 40.5358 232.052 40.5322 231.851 40.5305 231.508 40.5305L230.291 40.5197 230.291 43.8955 228.855 43.8955ZM231.893 39.4802C232.451 39.4802 232.851 39.3811 233.094 39.1828 233.337 38.9846 233.458 38.6658 233.458 38.2264 233.458 37.8406 233.335 37.5566 233.088 37.3744 232.842 37.1922 232.465 37.1011 231.958 37.1011L230.291 37.1011 230.291 39.4749C230.345 39.4749 230.611 39.4758 231.09 39.4775 231.568 39.4793 231.836 39.4802 231.893 39.4802Z" fill="#4A4A4A" fill-rule="evenodd" transform="scale(1 1.00238)"/><path d="M266.366 75.8195 278.337 75.8195 278.337 94.7743 266.366 94.7743Z" fill="#FFF57A" transform="scale(1 1.00238)"/><path d="M94.7743 115.724 106.746 115.724 106.746 134.679 94.7743 134.679Z" fill="#FFF57A" transform="scale(1 1.00238)"/><path d="M121.71 95.772 353.159 95.772 353.159 114.727 121.71 114.727Z" fill="#FFF57A" transform="scale(1 1.00238)"/><path d="M102.283 30.9264 102.283 23.0764 106.929 23.0764 106.875 24.2284 103.724 24.2284 103.724 26.4575 106.72 26.4575 106.72 27.5988 103.724 27.5988 103.724 30.9264 102.283 30.9264ZM111.258 31.0389C110.229 31.0389 109.449 30.7826 108.916 30.27 108.384 29.7574 108.118 29.0349 108.118 28.1025L108.118 23.0764 109.576 23.0764 109.576 27.9793C109.576 28.633 109.709 29.1099 109.975 29.41 110.241 29.71 110.678 29.8601 111.285 29.8601 111.881 29.8601 112.314 29.7091 112.582 29.4073 112.849 29.1054 112.983 28.6276 112.983 27.9739L112.983 23.0764 114.436 23.0764 114.436 28.1132C114.436 29.0385 114.164 29.7574 113.621 30.27 113.078 30.7826 112.29 31.0389 111.258 31.0389ZM116.059 30.9264 116.059 23.0764 117.602 23.0764C117.881 23.5122 118.447 24.391 119.301 25.7127 120.155 27.0344 120.674 27.8382 120.86 28.124 120.914 28.2061 121.006 28.3445 121.136 28.5392 121.267 28.7339 121.359 28.8723 121.412 28.9545 121.387 27.7292 121.375 27.0934 121.375 27.0469L121.375 23.0764 122.698 23.0764 122.698 30.9264 121.133 30.9264 117.592 25.4073 117.334 24.984C117.363 25.927 117.377 26.5897 117.377 26.9719L117.377 30.9264 116.059 30.9264ZM127.81 31.0389C126.663 31.0389 125.754 30.6781 125.083 29.9565 124.411 29.2349 124.075 28.2383 124.075 26.9666 124.075 25.7591 124.426 24.7902 125.128 24.0597 125.83 23.3291 126.749 22.9639 127.885 22.9639 128.803 22.9639 129.58 23.1764 130.216 23.6015L129.76 24.7C129.15 24.3249 128.535 24.1374 127.917 24.1374 127.196 24.1374 126.625 24.3972 126.205 24.917 125.785 25.4368 125.576 26.1342 125.576 27.0094 125.576 27.9168 125.778 28.6187 126.184 29.1152 126.589 29.6118 127.167 29.8601 127.917 29.8601 128.574 29.8601 129.226 29.6957 129.873 29.3671L130.066 30.5031C129.466 30.8603 128.714 31.0389 127.81 31.0389ZM132.874 30.9264 132.874 24.2392 130.586 24.2392 130.586 23.0764 136.608 23.0764 136.608 24.2392 134.331 24.2392 134.331 30.9264 132.874 30.9264ZM137.567 30.9264 137.567 23.0764 139.02 23.0764 139.02 30.9264 137.567 30.9264ZM144.271 29.8547C145.032 29.8547 145.606 29.6073 145.993 29.1126 146.381 28.6178 146.575 27.9186 146.575 27.0148 146.575 26.1003 146.381 25.3912 145.993 24.8875 145.606 24.3838 145.033 24.132 144.276 24.132 143.515 24.132 142.939 24.3847 142.548 24.8902 142.157 25.3957 141.961 26.1039 141.961 27.0148 141.961 27.915 142.156 28.6133 142.545 29.1099 142.935 29.6064 143.51 29.8547 144.271 29.8547ZM144.265 31.0389C143.083 31.0389 142.15 30.6808 141.466 29.9645 140.782 29.2483 140.44 28.2597 140.44 26.9987 140.44 25.7306 140.782 24.7411 141.468 24.0302 142.154 23.3193 143.088 22.9639 144.271 22.9639 145.453 22.9639 146.385 23.3202 147.068 24.0329 147.75 24.7455 148.091 25.7359 148.091 27.0041 148.091 28.2579 147.748 29.2438 147.062 29.9619 146.377 30.6799 145.444 31.0389 144.265 31.0389ZM149.468 30.9264 149.468 23.0764 151.012 23.0764C151.29 23.5122 151.856 24.391 152.71 25.7127 153.564 27.0344 154.084 27.8382 154.269 28.124 154.323 28.2061 154.415 28.3445 154.545 28.5392 154.676 28.7339 154.768 28.8723 154.821 28.9545 154.796 27.7292 154.784 27.0934 154.784 27.0469L154.784 23.0764 156.107 23.0764 156.107 30.9264 154.543 30.9264 151.001 25.4073 150.744 24.984C150.772 25.927 150.786 26.5897 150.786 26.9719L150.786 30.9264 149.468 30.9264ZM102.511 44.8931 102.511 37.0431 103.968 37.0431 103.968 40.5797C104.222 40.2439 104.741 39.6169 105.525 38.6989 106.309 37.7808 106.776 37.2289 106.926 37.0431L108.646 37.0431 105.677 40.5743 108.833 44.8931 107.129 44.8931 104.568 41.3727 103.968 41.8764 103.968 44.8931 102.511 44.8931ZM109.434 44.8931 109.434 37.0431 114.192 37.0431 114.133 38.1952 110.886 38.1952 110.886 40.2206 113.972 40.2206 113.972 41.3727 110.886 41.3727 110.886 43.7357 114.251 43.7357 114.202 44.8931 109.434 44.8931ZM117.396 44.8931 117.396 41.7799 114.679 37.0431 116.255 37.0431 118.125 40.4403 120.006 37.0431 121.559 37.0431 118.853 41.7531 118.853 44.8931 117.396 44.8931ZM123.676 44.8931 121.543 37.0431 122.99 37.0431 124.512 43.1517 126.302 37.0807 127.689 37.0807 129.388 43.1731 130.942 37.0431 132.389 37.0431 130.192 44.8931 128.686 44.8931 127.009 39.1436 125.171 44.8931 123.676 44.8931ZM136.841 43.8214C137.602 43.8214 138.177 43.5741 138.564 43.0793 138.952 42.5846 139.146 41.8853 139.146 40.9815 139.146 40.067 138.952 39.358 138.564 38.8543 138.177 38.3506 137.604 38.0987 136.847 38.0987 136.086 38.0987 135.51 38.3515 135.119 38.8569 134.728 39.3624 134.532 40.0706 134.532 40.9815 134.532 41.8817 134.727 42.5801 135.116 43.0766 135.505 43.5732 136.081 43.8214 136.841 43.8214ZM136.836 45.0056C135.654 45.0056 134.72 44.6475 134.036 43.9313 133.352 43.2151 133.01 42.2265 133.01 40.9655 133.01 39.6973 133.353 38.7078 134.039 37.9969 134.725 37.2861 135.659 36.9306 136.841 36.9306 138.024 36.9306 138.956 37.2869 139.638 37.9996 140.321 38.7123 140.662 39.7027 140.662 40.9708 140.662 42.2247 140.319 43.2106 139.633 43.9286 138.947 44.6466 138.015 45.0056 136.836 45.0056ZM142.001 44.8931 142.001 37.0217 144.911 37.0217C145.308 37.0217 145.651 37.0396 145.943 37.0753 146.234 37.111 146.511 37.1762 146.773 37.2709 147.036 37.3655 147.248 37.4932 147.411 37.654 147.573 37.8148 147.702 38.0246 147.797 38.2836 147.891 38.5426 147.939 38.8489 147.939 39.2026 147.939 40.2457 147.465 40.9315 146.519 41.2602 146.711 41.4781 146.951 41.8817 147.237 42.4711L148.405 44.8931 146.819 44.8931 145.902 42.8409C145.556 42.105 145.342 41.6692 145.259 41.5334 145.199 41.5299 144.997 41.5281 144.654 41.5281L143.438 41.5174 143.438 44.8931 142.001 44.8931ZM145.04 40.4778C145.597 40.4778 145.997 40.3787 146.24 40.1805 146.483 39.9822 146.604 39.6634 146.604 39.224 146.604 38.8382 146.481 38.5542 146.235 38.372 145.988 38.1898 145.611 38.0987 145.104 38.0987L143.438 38.0987 143.438 40.4725C143.491 40.4725 143.757 40.4734 144.236 40.4752 144.715 40.4769 144.983 40.4778 145.04 40.4778ZM150.907 43.7304 151.947 43.7304C152.843 43.7304 153.525 43.4955 153.993 43.0257 154.461 42.556 154.695 41.871 154.695 40.9708 154.695 40.0063 154.454 39.3053 153.972 38.8677 153.49 38.4301 152.763 38.2113 151.791 38.2113L150.907 38.2113 150.907 43.7304ZM149.455 44.8931 149.455 37.0431 151.727 37.0431C152.413 37.0431 153.027 37.1217 153.57 37.2789 154.113 37.4361 154.58 37.6728 154.971 37.9889 155.363 38.305 155.663 38.7123 155.872 39.2106 156.081 39.7089 156.185 40.2849 156.185 40.9387 156.185 42.2068 155.803 43.1829 155.038 43.867 154.274 44.5511 153.215 44.8931 151.861 44.8931L149.455 44.8931Z" fill="#4A4A4A" fill-rule="evenodd" transform="scale(1 1.00238)"/><path d="M102.608 87.883C102.781 87.883 102.913 87.921 103.004 87.997 103.095 88.073 103.14 88.1849 103.14 88.3326 103.14 88.4846 103.097 88.5986 103.01 88.6746 102.924 88.7506 102.798 88.7886 102.634 88.7886L98.4921 88.7886C98.319 88.7886 98.187 88.7506 98.0963 88.6746 98.0055 88.5986 97.9601 88.4846 97.9601 88.3326 97.9601 88.1849 98.0034 88.073 98.0899 87.997 98.1765 87.921 98.3021 87.883 98.4667 87.883L99.5433 87.883 99.5433 84.0138 98.5047 84.0138C98.3316 84.0138 98.1976 83.9737 98.1026 83.8935 98.0076 83.8133 97.9601 83.6993 97.9601 83.5516 97.9601 83.3996 98.0044 83.2856 98.0931 83.2096 98.1818 83.1336 98.3105 83.0956 98.4794 83.0956L99.4799 83.0956 99.4799 82.665C99.4799 81.9009 99.6974 81.3468 100.132 81.0027 100.567 80.6586 101.27 80.4866 102.241 80.4866 102.714 80.4866 103.063 80.5394 103.289 80.6449 103.515 80.7505 103.628 80.9151 103.628 81.1388 103.628 81.2697 103.579 81.3774 103.482 81.4618 103.385 81.5462 103.26 81.5885 103.109 81.5885 103.033 81.5885 102.85 81.5631 102.561 81.5125 102.272 81.4618 102.024 81.4365 101.817 81.4365 101.34 81.4365 100.998 81.5367 100.791 81.7373 100.584 81.9378 100.48 82.2703 100.48 82.7346L100.48 83.0956 102.722 83.0956C102.895 83.0956 103.027 83.1336 103.118 83.2096 103.209 83.2856 103.254 83.3996 103.254 83.5516 103.254 83.6951 103.208 83.808 103.115 83.8904 103.022 83.9727 102.895 84.0138 102.735 84.0138L100.544 84.0138 100.544 87.883 102.608 87.883ZM106.864 86.4519C106.864 86.9838 106.976 87.3722 107.199 87.6171 107.423 87.8619 107.778 87.9844 108.263 87.9844 108.723 87.9844 109.117 87.8387 109.444 87.5474 109.771 87.2561 109.935 86.8909 109.935 86.4519L109.935 83.8365 109.067 83.8365C108.903 83.8365 108.784 83.8017 108.71 83.732 108.636 83.6624 108.599 83.5537 108.599 83.4059 108.599 83.2455 108.639 83.1273 108.719 83.0513 108.799 82.9753 108.928 82.9373 109.105 82.9373L110.454 82.9373C110.615 82.9373 110.728 82.9721 110.793 83.0418 110.859 83.1114 110.891 83.2814 110.891 83.5516L110.891 87.8957 111.183 87.8957C111.389 87.8957 111.538 87.9295 111.629 87.997 111.72 88.0646 111.765 88.1764 111.765 88.3326 111.765 88.4846 111.722 88.5986 111.635 88.6746 111.549 88.7506 111.423 88.7886 111.259 88.7886L110.296 88.7886C110.182 88.7886 110.093 88.7654 110.03 88.7189 109.967 88.6725 109.935 88.6092 109.935 88.529L109.935 88.0984C109.53 88.4108 109.183 88.625 108.893 88.7411 108.604 88.8572 108.299 88.9153 107.978 88.9153 107.282 88.9153 106.759 88.7306 106.411 88.3611 106.063 87.9917 105.889 87.4334 105.889 86.6862L105.889 83.8365 105.756 83.8365C105.468 83.8365 105.272 83.8027 105.167 83.7352 105.061 83.6676 105.008 83.5494 105.008 83.3806 105.008 83.2328 105.049 83.122 105.132 83.0481 105.214 82.9742 105.342 82.9373 105.515 82.9373L106.471 82.9373C106.619 82.9373 106.721 82.9669 106.778 83.0259 106.835 83.0851 106.864 83.2159 106.864 83.4186L106.864 86.4519ZM113.868 87.8957 113.868 83.8365 113.747 83.8365C113.46 83.8365 113.263 83.8027 113.155 83.7352 113.047 83.6676 112.994 83.5494 112.994 83.3806 112.994 83.2244 113.038 83.1114 113.127 83.0418 113.215 82.9721 113.359 82.9373 113.557 82.9373L114.463 82.9373C114.577 82.9373 114.665 82.9605 114.729 83.007 114.792 83.0534 114.824 83.1167 114.824 83.1969L114.824 83.6275C115.132 83.3405 115.437 83.1283 115.739 82.9911 116.041 82.8539 116.354 82.7853 116.679 82.7853 117.317 82.7853 117.818 82.9837 118.183 83.3806 118.548 83.7774 118.731 84.3262 118.731 85.027L118.731 87.8957 119.029 87.8957C119.24 87.8957 119.392 87.9305 119.485 88.0002 119.577 88.0698 119.624 88.1807 119.624 88.3326 119.624 88.4973 119.574 88.6144 119.475 88.6841 119.376 88.7538 119.2 88.7886 118.946 88.7886L117.547 88.7886C117.277 88.7886 117.104 88.7569 117.028 88.6936 116.952 88.6303 116.914 88.51 116.914 88.3326 116.914 88.168 116.958 88.054 117.047 87.9907 117.135 87.9274 117.302 87.8957 117.547 87.8957L117.768 87.8957 117.768 85.2614C117.768 84.7674 117.657 84.3906 117.433 84.131 117.209 83.8714 116.884 83.7415 116.458 83.7415 116.027 83.7415 115.647 83.8872 115.318 84.1785 114.988 84.4698 114.824 84.8307 114.824 85.2614L114.824 87.8957 115.045 87.8957C115.299 87.8957 115.47 87.9274 115.558 87.9907 115.647 88.054 115.691 88.168 115.691 88.3326 115.691 88.51 115.653 88.6303 115.577 88.6936 115.501 88.7569 115.316 88.7886 115.02 88.7886L113.526 88.7886C113.353 88.7886 113.223 88.7517 113.136 88.6778 113.05 88.6039 113.006 88.4889 113.006 88.3326 113.006 88.1638 113.056 88.0487 113.155 87.9875 113.254 87.9263 113.447 87.8957 113.735 87.8957L113.868 87.8957ZM125.912 83.3173 125.912 83.2919C125.912 83.1526 125.952 83.0502 126.032 82.9848 126.113 82.9194 126.237 82.8866 126.406 82.8866 126.579 82.8866 126.698 82.9373 126.764 83.0386 126.829 83.1399 126.862 83.3489 126.862 83.6655L126.862 84.8434C126.862 84.9996 126.822 85.1168 126.742 85.1949 126.661 85.273 126.541 85.312 126.381 85.312 126.267 85.312 126.169 85.2793 126.086 85.2139 126.004 85.1484 125.904 85.0123 125.785 84.8054 125.583 84.4634 125.337 84.2049 125.048 84.0297 124.759 83.8545 124.426 83.7669 124.05 83.7669 123.392 83.7669 122.857 83.9611 122.445 84.3495 122.033 84.7379 121.828 85.2402 121.828 85.8566 121.828 86.4857 122.025 86.9996 122.42 87.3986 122.814 87.7975 123.322 87.997 123.943 87.997 124.226 87.997 124.495 87.958 124.75 87.8799 125.006 87.8018 125.247 87.6846 125.475 87.5284 125.555 87.4778 125.663 87.3997 125.798 87.2941 126.073 87.0704 126.288 86.9585 126.444 86.9585 126.575 86.9585 126.682 86.9996 126.764 87.082 126.846 87.1643 126.887 87.2709 126.887 87.4018 126.887 87.7353 126.572 88.0762 125.941 88.4245 125.309 88.7728 124.639 88.9469 123.93 88.9469 123.014 88.9469 122.251 88.6535 121.641 88.0667 121.031 87.4799 120.726 86.7474 120.726 85.8693 120.726 84.9912 121.03 84.2576 121.638 83.6687 122.246 83.0798 123.005 82.7853 123.917 82.7853 124.238 82.7853 124.56 82.8286 124.883 82.9151 125.206 83.0017 125.549 83.1357 125.912 83.3173ZM133.518 83.2919C133.724 83.2919 133.875 83.3278 133.97 83.3996 134.065 83.4713 134.113 83.5853 134.113 83.7415 134.113 83.8893 134.068 84.0001 133.98 84.074 133.891 84.1479 133.758 84.1848 133.581 84.1848L131.016 84.1848 131.016 86.2999C131.016 86.9923 131.106 87.4482 131.285 87.6677 131.465 87.8873 131.772 87.997 132.207 87.997 132.591 87.997 133.051 87.8851 133.587 87.6614 134.123 87.4377 134.455 87.3258 134.581 87.3258 134.7 87.3258 134.8 87.368 134.882 87.4524 134.965 87.5369 135.006 87.6403 135.006 87.7627 135.006 87.902 134.954 88.0234 134.851 88.1268 134.747 88.2303 134.571 88.3305 134.322 88.4276 133.908 88.5923 133.535 88.7126 133.204 88.7886 132.873 88.8646 132.561 88.9026 132.27 88.9026 131.776 88.9026 131.361 88.8234 131.026 88.6651 130.69 88.5068 130.44 88.2714 130.275 87.959 130.191 87.8113 130.131 87.6361 130.095 87.4334 130.059 87.2308 130.041 86.9184 130.041 86.4962L130.041 84.1848 128.964 84.1848C128.787 84.1848 128.658 84.15 128.578 84.0803 128.498 84.0107 128.458 83.8977 128.458 83.7415 128.458 83.5684 128.513 83.4502 128.622 83.3869 128.732 83.3236 128.967 83.2919 129.325 83.2919L130.041 83.2919 130.041 81.6581C130.041 81.4766 130.08 81.3425 130.158 81.256 130.236 81.1694 130.358 81.1262 130.522 81.1262 130.708 81.1262 130.837 81.1789 130.909 81.2845 130.98 81.39 131.016 81.6307 131.016 82.0064L131.016 83.2919 133.518 83.2919ZM138.989 81.1135C138.989 80.6576 139.03 80.3705 139.112 80.2523 139.195 80.1341 139.371 80.075 139.641 80.075 139.903 80.075 140.076 80.1246 140.16 80.2238 140.245 80.323 140.287 80.5584 140.287 80.9299 140.287 81.2929 140.248 81.5177 140.17 81.6043 140.092 81.6908 139.916 81.7341 139.641 81.7341 139.371 81.7341 139.195 81.694 139.112 81.6138 139.03 81.5336 138.989 81.3668 138.989 81.1135ZM140.16 87.8957 142.193 87.8957C142.358 87.8957 142.479 87.9305 142.557 88.0002 142.635 88.0698 142.674 88.1807 142.674 88.3326 142.674 88.5057 142.638 88.625 142.564 88.6904 142.49 88.7559 142.354 88.7886 142.155 88.7886L137.241 88.7886C137.072 88.7886 136.946 88.7506 136.861 88.6746 136.777 88.5986 136.734 88.4846 136.734 88.3326 136.734 88.1849 136.779 88.0751 136.867 88.0034 136.956 87.9316 137.089 87.8957 137.266 87.8957L139.198 87.8957 139.198 83.8365 137.963 83.8365C137.79 83.8365 137.658 83.7975 137.567 83.7194 137.476 83.6413 137.431 83.5283 137.431 83.3806 137.431 83.2328 137.473 83.122 137.558 83.0481 137.642 82.9742 137.769 82.9373 137.938 82.9373L139.793 82.9373C139.907 82.9373 139.997 82.9605 140.062 83.007 140.128 83.0534 140.16 83.1167 140.16 83.1969L140.16 87.8957ZM147.354 88.0603C148.004 88.0603 148.537 87.8545 148.953 87.4429 149.369 87.0313 149.577 86.5068 149.577 85.8693 149.577 85.2318 149.368 84.7051 148.95 84.2893 148.532 83.8735 148 83.6655 147.354 83.6655 146.708 83.6655 146.177 83.8735 145.762 84.2893 145.346 84.7051 145.138 85.2318 145.138 85.8693 145.138 86.511 145.345 87.0366 145.758 87.4461 146.172 87.8556 146.704 88.0603 147.354 88.0603ZM150.679 85.8693C150.679 86.7727 150.371 87.5115 149.754 88.0857 149.138 88.6598 148.338 88.9469 147.354 88.9469 146.375 88.9469 145.577 88.6598 144.961 88.0857 144.344 87.5115 144.036 86.7727 144.036 85.8693 144.036 84.9658 144.344 84.2281 144.961 83.656 145.577 83.084 146.375 82.798 147.354 82.798 148.334 82.798 149.133 83.0851 149.751 83.6592 150.37 84.2334 150.679 84.97 150.679 85.8693ZM152.781 87.8957 152.781 83.8365 152.661 83.8365C152.374 83.8365 152.176 83.8027 152.069 83.7352 151.961 83.6676 151.907 83.5494 151.907 83.3806 151.907 83.2244 151.952 83.1114 152.04 83.0418 152.129 82.9721 152.273 82.9373 152.471 82.9373L153.377 82.9373C153.491 82.9373 153.579 82.9605 153.642 83.007 153.706 83.0534 153.737 83.1167 153.737 83.1969L153.737 83.6275C154.046 83.3405 154.351 83.1283 154.653 82.9911 154.954 82.8539 155.268 82.7853 155.593 82.7853 156.23 82.7853 156.732 82.9837 157.097 83.3806 157.462 83.7774 157.645 84.3262 157.645 85.027L157.645 87.8957 157.942 87.8957C158.153 87.8957 158.305 87.9305 158.398 88.0002 158.491 88.0698 158.538 88.1807 158.538 88.3326 158.538 88.4973 158.488 88.6144 158.389 88.6841 158.29 88.7538 158.113 88.7886 157.86 88.7886L156.46 88.7886C156.19 88.7886 156.017 88.7569 155.941 88.6936 155.865 88.6303 155.827 88.51 155.827 88.3326 155.827 88.168 155.872 88.054 155.96 87.9907 156.049 87.9274 156.216 87.8957 156.46 87.8957L156.682 87.8957 156.682 85.2614C156.682 84.7674 156.57 84.3906 156.346 84.131 156.123 83.8714 155.798 83.7415 155.371 83.7415 154.941 83.7415 154.561 83.8872 154.231 84.1785 153.902 84.4698 153.737 84.8307 153.737 85.2614L153.737 87.8957 153.959 87.8957C154.212 87.8957 154.383 87.9274 154.472 87.9907 154.561 88.054 154.605 88.168 154.605 88.3326 154.605 88.51 154.567 88.6303 154.491 88.6936 154.415 88.7569 154.229 88.7886 153.934 88.7886L152.439 88.7886C152.266 88.7886 152.136 88.7517 152.05 88.6778 151.963 88.6039 151.92 88.4889 151.92 88.3326 151.92 88.1638 151.97 88.0487 152.069 87.9875 152.168 87.9263 152.361 87.8957 152.648 87.8957L152.781 87.8957Z" fill="#4A90E2" fill-rule="evenodd" transform="scale(1 1.00238)"/><path d="M108.59 192.542 108.59 184.692 113.236 184.692 113.182 185.844 110.031 185.844 110.031 188.073 113.027 188.073 113.027 189.214 110.031 189.214 110.031 192.542 108.59 192.542ZM116.767 192.654C116.002 192.654 115.387 192.463 114.921 192.081 114.455 191.699 114.222 191.138 114.222 190.398L114.222 186.653 115.631 186.653 115.631 190.345C115.631 190.784 115.723 191.102 115.907 191.298 116.091 191.495 116.383 191.593 116.783 191.593 117.176 191.593 117.463 191.496 117.643 191.301 117.823 191.106 117.914 190.788 117.914 190.345L117.914 186.653 119.317 186.653 119.317 190.398C119.317 191.134 119.083 191.694 118.616 192.078 118.148 192.462 117.531 192.654 116.767 192.654ZM120.598 192.542 120.598 186.653 121.729 186.653 121.884 187.398C122.484 186.805 123.15 186.508 123.883 186.508 124.569 186.508 125.082 186.705 125.423 187.1 125.764 187.495 125.935 188.067 125.935 188.818L125.935 192.542 124.526 192.542 124.526 188.989C124.522 188.514 124.445 188.158 124.295 187.923 124.145 187.687 123.876 187.569 123.486 187.569 123.183 187.569 122.905 187.647 122.653 187.802 122.401 187.958 122.218 188.153 122.104 188.389 122.036 188.667 122.002 189.096 122.002 189.675L122.002 192.542 120.598 192.542ZM129.895 192.654C128.995 192.654 128.294 192.386 127.792 191.85 127.29 191.315 127.039 190.548 127.039 189.552 127.039 188.587 127.302 187.839 127.829 187.306 128.356 186.774 129.05 186.508 129.911 186.508 130.6 186.508 131.183 186.656 131.658 186.953L131.326 187.955C130.84 187.701 130.388 187.574 129.97 187.574 129.495 187.574 129.121 187.744 128.847 188.083 128.574 188.423 128.437 188.918 128.437 189.568 128.437 190.225 128.572 190.725 128.842 191.068 129.112 191.411 129.493 191.582 129.986 191.582 130.5 191.582 130.995 191.431 131.47 191.127L131.604 192.193C131.358 192.358 131.102 192.475 130.838 192.547 130.574 192.618 130.259 192.654 129.895 192.654ZM135.071 192.622C134.671 192.622 134.338 192.575 134.072 192.48 133.806 192.385 133.597 192.236 133.447 192.033 133.297 191.829 133.191 191.589 133.129 191.312 133.066 191.035 133.035 190.693 133.035 190.286L133.035 187.505 132.07 187.505 132.124 186.744 133.131 186.653 133.581 185.056 134.439 185.051 134.439 186.653 135.902 186.653 135.902 187.505 134.439 187.505 134.439 190.312C134.439 190.759 134.503 191.077 134.632 191.266 134.76 191.456 134.998 191.55 135.344 191.55 135.548 191.55 135.766 191.532 135.998 191.497L136.035 192.504C136.028 192.504 135.985 192.512 135.904 192.528 135.824 192.544 135.747 192.559 135.674 192.571 135.601 192.584 135.507 192.595 135.392 192.606 135.278 192.617 135.171 192.622 135.071 192.622ZM137.054 192.542 137.054 186.653 138.457 186.653 138.457 192.542 137.054 192.542ZM137.054 185.795 137.054 184.595 138.463 184.595 138.463 185.795 137.054 185.795ZM142.487 191.588C142.962 191.588 143.319 191.415 143.559 191.068 143.798 190.722 143.918 190.225 143.918 189.578 143.918 188.925 143.798 188.426 143.559 188.083 143.319 187.74 142.958 187.569 142.476 187.569 142.001 187.569 141.643 187.741 141.402 188.086 141.161 188.431 141.04 188.93 141.04 189.584 141.04 190.227 141.162 190.722 141.405 191.068 141.647 191.415 142.008 191.588 142.487 191.588ZM142.449 192.654C141.578 192.654 140.892 192.372 140.392 191.807 139.892 191.243 139.642 190.5 139.642 189.578 139.642 188.628 139.892 187.879 140.392 187.331 140.892 186.782 141.597 186.508 142.508 186.508 143.387 186.508 144.076 186.788 144.574 187.347 145.072 187.906 145.321 188.65 145.321 189.578 145.321 190.518 145.07 191.265 144.566 191.821 144.062 192.376 143.357 192.654 142.449 192.654ZM146.468 192.542 146.468 186.653 147.599 186.653 147.754 187.398C148.354 186.805 149.021 186.508 149.753 186.508 150.439 186.508 150.952 186.705 151.293 187.1 151.634 187.495 151.805 188.067 151.805 188.818L151.805 192.542 150.396 192.542 150.396 188.989C150.392 188.514 150.315 188.158 150.165 187.923 150.015 187.687 149.746 187.569 149.356 187.569 149.053 187.569 148.775 187.647 148.523 187.802 148.271 187.958 148.088 188.153 147.974 188.389 147.906 188.667 147.872 189.096 147.872 189.675L147.872 192.542 146.468 192.542ZM159.242 192.654C158.842 192.654 158.479 192.566 158.152 192.389 157.825 192.212 157.588 192.011 157.442 191.786L157.303 192.536 156.086 192.536 156.086 184.483 157.49 184.392 157.49 186.213C157.49 186.567 157.48 186.969 157.458 187.419 157.923 186.812 158.528 186.508 159.275 186.508 160.025 186.508 160.613 186.787 161.04 187.344 161.467 187.901 161.68 188.63 161.68 189.53 161.68 190.466 161.46 191.221 161.019 191.794 160.578 192.367 159.985 192.654 159.242 192.654ZM158.905 191.588C159.323 191.588 159.657 191.411 159.907 191.057 160.157 190.704 160.282 190.202 160.282 189.552 160.282 188.898 160.16 188.403 159.915 188.067 159.67 187.732 159.339 187.564 158.921 187.564 157.971 187.564 157.49 188.205 157.48 189.487 157.48 190.209 157.599 190.739 157.839 191.079 158.078 191.418 158.433 191.588 158.905 191.588ZM165.394 191.588C165.869 191.588 166.226 191.415 166.465 191.068 166.705 190.722 166.824 190.225 166.824 189.578 166.824 188.925 166.705 188.426 166.465 188.083 166.226 187.74 165.865 187.569 165.383 187.569 164.908 187.569 164.55 187.741 164.309 188.086 164.068 188.431 163.947 188.93 163.947 189.584 163.947 190.227 164.069 190.722 164.311 191.068 164.554 191.415 164.915 191.588 165.394 191.588ZM165.356 192.654C164.485 192.654 163.799 192.372 163.299 191.807 162.799 191.243 162.549 190.5 162.549 189.578 162.549 188.628 162.799 187.879 163.299 187.331 163.799 186.782 164.504 186.508 165.415 186.508 166.294 186.508 166.983 186.788 167.481 187.347 167.979 187.906 168.228 188.65 168.228 189.578 168.228 190.518 167.977 191.265 167.473 191.821 166.969 192.376 166.264 192.654 165.356 192.654ZM171.567 192.654C170.799 192.654 170.195 192.372 169.755 191.807 169.316 191.243 169.096 190.489 169.096 189.546 169.096 188.632 169.315 187.897 169.753 187.341 170.19 186.786 170.793 186.508 171.561 186.508 172.397 186.508 172.988 186.805 173.335 187.398 173.299 187.047 173.281 186.71 173.281 186.385L173.281 184.483 174.685 184.392 174.685 192.542 173.469 192.542 173.313 191.738C173.253 191.834 173.196 191.917 173.145 191.987 173.093 192.057 173.017 192.137 172.917 192.228 172.817 192.319 172.709 192.392 172.593 192.448 172.477 192.503 172.33 192.551 172.153 192.592 171.977 192.634 171.781 192.654 171.567 192.654ZM171.899 191.588C172.842 191.588 173.321 190.947 173.335 189.664 173.335 188.939 173.213 188.41 172.97 188.078 172.728 187.746 172.365 187.58 171.883 187.58 171.461 187.58 171.125 187.749 170.873 188.086 170.621 188.424 170.495 188.921 170.495 189.578 170.495 190.232 170.621 190.73 170.873 191.073 171.125 191.416 171.467 191.588 171.899 191.588ZM176.432 195.022C176.203 195.022 175.96 195.008 175.703 194.98L175.634 193.892C175.798 193.91 176.007 193.919 176.261 193.919 176.586 193.919 176.846 193.854 177.043 193.726 177.239 193.597 177.402 193.369 177.53 193.04 177.545 193.004 177.616 192.802 177.745 192.434L175.376 186.653 176.877 186.653 178.425 190.923C178.54 190.498 178.796 189.709 179.194 188.555 179.592 187.401 179.811 186.767 179.851 186.653L181.351 186.653C179.718 190.968 178.895 193.143 178.881 193.179 178.627 193.84 178.307 194.312 177.922 194.596 177.536 194.88 177.039 195.022 176.432 195.022Z" fill="#4A4A4A" fill-rule="evenodd" transform="scale(1 1.00238)"/><path d="M95.6156 173.587 95.6156 165.737 97.0731 165.737 97.0731 169.273C97.3267 168.937 97.8456 168.311 98.6297 167.392 99.4138 166.474 99.8808 165.923 100.031 165.737L101.751 165.737 98.7824 169.268 101.938 173.587 100.234 173.587 97.6732 170.066 97.0731 170.57 97.0731 173.587 95.6156 173.587ZM102.539 173.587 102.539 165.737 107.297 165.737 107.238 166.889 103.991 166.889 103.991 168.914 107.077 168.914 107.077 170.066 103.991 170.066 103.991 172.429 107.356 172.429 107.307 173.587 102.539 173.587ZM110.501 173.587 110.501 170.474 107.784 165.737 109.36 165.737 111.23 169.134 113.111 165.737 114.664 165.737 111.959 170.447 111.959 173.587 110.501 173.587Z" fill="#4A4A4A" fill-rule="evenodd" transform="scale(1 1.00238)"/><path d="M103.753 188.052C103.753 190.532 101.743 192.542 99.2637 192.542 96.7843 192.542 94.7743 190.532 94.7743 188.052 94.7743 185.573 96.7843 183.563 99.2637 183.563 101.743 183.563 103.753 185.573 103.753 188.052Z" fill="#FFF57A" transform="scale(1 1.00238)"/><path d="M173.273 88.453C173.273 89.044 173.244 89.463 173.185 89.71 173.126 89.957 173.024 90.1733 172.881 90.3591 172.644 90.6715 172.313 90.909 171.887 91.0715 171.46 91.234 170.958 91.3153 170.379 91.3153 169.898 91.3153 169.547 91.2689 169.325 91.176 169.103 91.0831 168.993 90.9353 168.993 90.7327 168.993 90.6018 169.046 90.4868 169.154 90.3876 169.262 90.2884 169.389 90.2388 169.537 90.2388 169.651 90.2388 169.826 90.2546 170.063 90.2863 170.299 90.3179 170.479 90.3337 170.601 90.3337 171.226 90.3337 171.669 90.1902 171.931 89.9031 172.193 89.6161 172.324 89.1242 172.324 88.4276L172.324 87.6614C172.066 87.9611 171.781 88.1807 171.469 88.32 171.156 88.4593 170.797 88.529 170.392 88.529 169.603 88.529 168.949 88.2662 168.432 87.7406 167.915 87.215 167.656 86.549 167.656 85.7426 167.656 84.9321 167.922 84.2598 168.454 83.7257 168.986 83.1917 169.645 82.9246 170.43 82.9246 170.755 82.9246 171.073 82.9848 171.383 83.1051 171.693 83.2254 172.007 83.408 172.324 83.6529L172.324 83.1969C172.324 83.1083 172.352 83.0428 172.409 83.0006 172.466 82.9584 172.556 82.9373 172.678 82.9373L173.634 82.9373C173.803 82.9373 173.93 82.9742 174.014 83.0481 174.099 83.122 174.141 83.2328 174.141 83.3806 174.141 83.5494 174.088 83.6676 173.983 83.7352 173.877 83.8027 173.679 83.8365 173.387 83.8365L173.273 83.8365 173.273 88.453ZM170.525 83.8745C169.972 83.8745 169.52 84.0455 169.17 84.3875 168.82 84.7294 168.644 85.1727 168.644 85.7173 168.644 86.2535 168.82 86.6936 169.17 87.0376 169.52 87.3817 169.972 87.5537 170.525 87.5537 171.074 87.5537 171.525 87.3817 171.877 87.0376 172.23 86.6936 172.406 86.2535 172.406 85.7173 172.406 85.1811 172.23 84.74 171.877 84.3938 171.525 84.0476 171.074 83.8745 170.525 83.8745Z" fill="#EF95EF" transform="scale(1 1.00238)"/><path d="M177.865 87.8957 179.967 87.8957C180.132 87.8957 180.253 87.9305 180.331 88.0002 180.409 88.0698 180.448 88.1807 180.448 88.3326 180.448 88.5057 180.411 88.625 180.337 88.6904 180.264 88.7559 180.127 88.7886 179.929 88.7886L175.788 88.7886C175.623 88.7886 175.498 88.7506 175.414 88.6746 175.329 88.5986 175.287 88.4846 175.287 88.3326 175.287 88.1849 175.331 88.0751 175.417 88.0034 175.504 87.9316 175.638 87.8957 175.819 87.8957L176.921 87.8957 176.921 83.8365 176.49 83.8365C176.081 83.8365 175.826 83.8038 175.724 83.7384 175.623 83.6729 175.572 83.5537 175.572 83.3806 175.572 83.2328 175.613 83.122 175.696 83.0481 175.778 82.9742 175.904 82.9373 176.072 82.9373L177.516 82.9373C177.63 82.9373 177.717 82.9595 177.776 83.0038 177.835 83.0481 177.865 83.1125 177.865 83.1969L177.865 84.2735C178.266 83.7711 178.684 83.3975 179.118 83.1526 179.553 82.9077 180.022 82.7853 180.524 82.7853 180.9 82.7853 181.204 82.8613 181.436 83.0133 181.668 83.1653 181.784 83.3616 181.784 83.6022 181.784 83.7584 181.726 83.8967 181.61 84.017 181.494 84.1373 181.367 84.1975 181.227 84.1975 181.13 84.1975 180.967 84.1331 180.736 84.0043 180.506 83.8756 180.301 83.8112 180.119 83.8112 179.79 83.8112 179.442 83.9283 179.077 84.1627 178.712 84.397 178.308 84.7674 177.865 85.274L177.865 87.8957Z" fill="#EF95EF" transform="scale(1 1.00238)"/><path d="M184.128 86.1416C184.161 86.7495 184.367 87.2192 184.745 87.5506 185.123 87.882 185.639 88.0477 186.293 88.0477 186.787 88.0477 187.325 87.9158 187.908 87.6519 188.491 87.388 188.843 87.2561 188.966 87.2561 189.092 87.2561 189.198 87.2962 189.282 87.3764 189.367 87.4566 189.409 87.5559 189.409 87.6741 189.409 87.7965 189.365 87.9084 189.276 88.0097 189.187 88.111 189.046 88.2102 188.852 88.3073 188.429 88.5142 187.994 88.6725 187.544 88.7823 187.094 88.892 186.648 88.9469 186.205 88.9469 185.242 88.9469 184.472 88.6693 183.893 88.1142 183.315 87.559 183.026 86.8234 183.026 85.9073 183.026 84.9743 183.332 84.2186 183.944 83.6402 184.556 83.0618 185.354 82.7727 186.338 82.7727 187.228 82.7727 187.967 83.0428 188.554 83.5832 189.141 84.1236 189.434 84.778 189.434 85.5463 189.434 85.7827 189.385 85.941 189.285 86.0213 189.186 86.1015 188.917 86.1416 188.478 86.1416L184.128 86.1416ZM184.159 85.312 188.282 85.312C188.218 84.8096 188.008 84.4054 187.652 84.0993 187.295 83.7932 186.857 83.6402 186.338 83.6402 185.776 83.6402 185.303 83.788 184.919 84.0835 184.535 84.379 184.282 84.7885 184.159 85.312Z" fill="#EF95EF" transform="scale(1 1.00238)"/><path d="M191.91 86.1416C191.944 86.7495 192.15 87.2192 192.528 87.5506 192.906 87.882 193.422 88.0477 194.076 88.0477 194.57 88.0477 195.108 87.9158 195.691 87.6519 196.273 87.388 196.626 87.2561 196.748 87.2561 196.875 87.2561 196.981 87.2962 197.065 87.3764 197.149 87.4566 197.192 87.5559 197.192 87.6741 197.192 87.7965 197.147 87.9084 197.059 88.0097 196.97 88.111 196.829 88.2102 196.634 88.3073 196.212 88.5142 195.776 88.6725 195.327 88.7823 194.877 88.892 194.431 88.9469 193.987 88.9469 193.025 88.9469 192.254 88.6693 191.676 88.1142 191.098 87.559 190.808 86.8234 190.808 85.9073 190.808 84.9743 191.114 84.2186 191.727 83.6402 192.339 83.0618 193.137 82.7727 194.12 82.7727 195.011 82.7727 195.75 83.0428 196.337 83.5832 196.924 84.1236 197.217 84.778 197.217 85.5463 197.217 85.7827 197.167 85.941 197.068 86.0213 196.969 86.1015 196.7 86.1416 196.261 86.1416L191.91 86.1416ZM191.942 85.312 196.064 85.312C196.001 84.8096 195.791 84.4054 195.434 84.0993 195.078 83.7932 194.64 83.6402 194.12 83.6402 193.559 83.6402 193.086 83.788 192.702 84.0835 192.318 84.379 192.064 84.7885 191.942 85.312Z" fill="#EF95EF" transform="scale(1 1.00238)"/><path d="M203.562 83.2919C203.769 83.2919 203.92 83.3278 204.015 83.3996 204.11 83.4713 204.157 83.5853 204.157 83.7415 204.157 83.8893 204.113 84.0001 204.024 84.074 203.936 84.1479 203.803 84.1848 203.626 84.1848L201.061 84.1848 201.061 86.2999C201.061 86.9923 201.151 87.4482 201.33 87.6677 201.509 87.8873 201.817 87.997 202.251 87.997 202.636 87.997 203.096 87.8851 203.632 87.6614 204.168 87.4377 204.499 87.3258 204.626 87.3258 204.744 87.3258 204.845 87.368 204.927 87.4524 205.009 87.5369 205.05 87.6403 205.05 87.7627 205.05 87.902 204.999 88.0234 204.895 88.1268 204.792 88.2303 204.616 88.3305 204.366 88.4276 203.953 88.5923 203.58 88.7126 203.249 88.7886 202.917 88.8646 202.606 88.9026 202.315 88.9026 201.821 88.9026 201.406 88.8234 201.07 88.6651 200.735 88.5068 200.485 88.2714 200.32 87.959 200.235 87.8113 200.175 87.6361 200.139 87.4334 200.104 87.2308 200.086 86.9184 200.086 86.4962L200.086 84.1848 199.009 84.1848C198.832 84.1848 198.703 84.15 198.623 84.0803 198.543 84.0107 198.502 83.8977 198.502 83.7415 198.502 83.5684 198.557 83.4502 198.667 83.3869 198.777 83.3236 199.011 83.2919 199.37 83.2919L200.086 83.2919 200.086 81.6581C200.086 81.4766 200.125 81.3425 200.203 81.256 200.281 81.1694 200.402 81.1262 200.567 81.1262 200.753 81.1262 200.881 81.1789 200.953 81.2845 201.025 81.39 201.061 81.6307 201.061 82.0064L201.061 83.2919 203.562 83.2919Z" fill="#EF95EF" transform="scale(1 1.00238)"/><path d="M207.982 87.1675 209.072 83.3806C209.11 83.2455 209.153 83.16 209.201 83.1241 209.25 83.0882 209.338 83.0703 209.464 83.0703L209.749 83.0703C209.872 83.0703 209.959 83.0893 210.012 83.1273 210.065 83.1653 210.11 83.2413 210.148 83.3552L211.383 87.1675 212.004 82.1331 211.009 82.1331C210.815 82.1331 210.673 82.0993 210.582 82.0317 210.491 81.9642 210.446 81.8565 210.446 81.7088 210.446 81.5484 210.489 81.4365 210.576 81.3731 210.662 81.3098 210.824 81.2782 211.06 81.2782L213.105 81.2782C213.198 81.2782 213.281 81.3193 213.352 81.4016 213.424 81.484 213.46 81.5863 213.46 81.7088 213.46 81.8523 213.42 81.9589 213.34 82.0286 213.259 82.0982 213.139 82.1331 212.979 82.1331L212.903 82.1331 212.004 88.4656C211.991 88.5965 211.967 88.6831 211.931 88.7253 211.895 88.7675 211.837 88.7886 211.757 88.7886L211.307 88.7886C211.21 88.7886 211.136 88.7696 211.085 88.7316 211.035 88.6936 210.99 88.6218 210.952 88.5163L209.578 84.1595 208.362 88.529C208.333 88.6345 208.295 88.7042 208.248 88.7379 208.202 88.7717 208.126 88.7886 208.02 88.7886L207.545 88.7886C207.461 88.7886 207.399 88.7685 207.359 88.7284 207.318 88.6883 207.29 88.5965 207.273 88.453L206.311 82.1331 206.235 82.1331C206.07 82.1331 205.946 82.0972 205.864 82.0254 205.782 81.9536 205.741 81.8481 205.741 81.7088 205.741 81.5821 205.774 81.4787 205.842 81.3985 205.909 81.3183 205.992 81.2782 206.089 81.2782L208.141 81.2782C208.373 81.2782 208.532 81.3098 208.619 81.3731 208.705 81.4365 208.749 81.5484 208.749 81.7088 208.749 81.8565 208.703 81.9642 208.612 82.0317 208.522 82.0993 208.381 82.1331 208.191 82.1331L207.298 82.1331 207.982 87.1675Z" fill="#EF95EF" transform="scale(1 1.00238)"/><path d="M220.723 85.8693C220.723 86.7727 220.415 87.5115 219.799 88.0857 219.183 88.6598 218.383 88.9469 217.399 88.9469 216.419 88.9469 215.622 88.6598 215.005 88.0857 214.389 87.5115 214.081 86.7727 214.081 85.8693 214.081 84.9658 214.389 84.2281 215.005 83.656 215.622 83.084 216.419 82.798 217.399 82.798 218.378 82.798 219.177 83.0851 219.796 83.6592 220.414 84.2334 220.723 84.97 220.723 85.8693ZM217.399 88.0603C218.049 88.0603 218.582 87.8545 218.998 87.4429 219.414 87.0313 219.622 86.5068 219.622 85.8693 219.622 85.2318 219.413 84.7051 218.995 84.2893 218.577 83.8735 218.045 83.6655 217.399 83.6655 216.753 83.6655 216.222 83.8735 215.806 84.2893 215.39 84.7051 215.182 85.2318 215.182 85.8693 215.182 86.511 215.389 87.0366 215.803 87.4461 216.217 87.8556 216.749 88.0603 217.399 88.0603Z" fill="#EF95EF" transform="scale(1 1.00238)"/><path d="M224.561 87.8957 226.663 87.8957C226.828 87.8957 226.949 87.9305 227.028 88.0002 227.106 88.0698 227.145 88.1807 227.145 88.3326 227.145 88.5057 227.108 88.625 227.034 88.6904 226.96 88.7559 226.824 88.7886 226.625 88.7886L222.484 88.7886C222.319 88.7886 222.195 88.7506 222.11 88.6746 222.026 88.5986 221.984 88.4846 221.984 88.3326 221.984 88.1849 222.027 88.0751 222.113 88.0034 222.2 87.9316 222.334 87.8957 222.516 87.8957L223.617 87.8957 223.617 83.8365 223.187 83.8365C222.777 83.8365 222.522 83.8038 222.421 83.7384 222.319 83.6729 222.269 83.5537 222.269 83.3806 222.269 83.2328 222.31 83.122 222.392 83.0481 222.474 82.9742 222.6 82.9373 222.769 82.9373L224.213 82.9373C224.327 82.9373 224.413 82.9595 224.472 83.0038 224.531 83.0481 224.561 83.1125 224.561 83.1969L224.561 84.2735C224.962 83.7711 225.38 83.3975 225.815 83.1526 226.25 82.9077 226.718 82.7853 227.221 82.7853 227.596 82.7853 227.9 82.8613 228.133 83.0133 228.365 83.1653 228.481 83.3616 228.481 83.6022 228.481 83.7584 228.423 83.8967 228.307 84.017 228.191 84.1373 228.063 84.1975 227.924 84.1975 227.827 84.1975 227.663 84.1331 227.433 84.0043 227.203 83.8756 226.997 83.8112 226.815 83.8112 226.486 83.8112 226.139 83.9283 225.774 84.1627 225.409 84.397 225.004 84.7674 224.561 85.274L224.561 87.8957Z" fill="#EF95EF" transform="scale(1 1.00238)"/><path d="M232.54 81.4111 231.464 81.4111C231.054 81.4111 230.798 81.3784 230.694 81.313 230.591 81.2476 230.539 81.1283 230.539 80.9552 230.539 80.8032 230.582 80.6892 230.669 80.6132 230.755 80.5372 230.881 80.4993 231.046 80.4993L233.135 80.4993C233.249 80.4993 233.338 80.5225 233.401 80.5689 233.465 80.6153 233.496 80.6787 233.496 80.7589L233.496 87.8957 235.485 87.8957C235.645 87.8957 235.762 87.9305 235.836 88.0002 235.91 88.0698 235.947 88.1807 235.947 88.3326 235.947 88.5057 235.911 88.625 235.839 88.6904 235.768 88.7559 235.632 88.7886 235.434 88.7886L230.761 88.7886C230.596 88.7886 230.47 88.7506 230.384 88.6746 230.297 88.5986 230.254 88.4846 230.254 88.3326 230.254 88.1849 230.298 88.0751 230.387 88.0034 230.476 87.9316 230.609 87.8957 230.786 87.8957L232.54 87.8957 232.54 81.4111Z" fill="#EF95EF" transform="scale(1 1.00238)"/><path d="M242.653 88.7886C242.565 88.7886 242.502 88.7664 242.466 88.7221 242.431 88.6778 242.413 88.5923 242.413 88.4656L242.413 87.9464C242.159 88.263 241.843 88.5089 241.463 88.6841 241.083 88.8593 240.671 88.9469 240.228 88.9469 239.43 88.9469 238.762 88.663 238.224 88.0952 237.685 87.5274 237.416 86.8213 237.416 85.9769 237.416 85.103 237.703 84.3758 238.277 83.7954 238.852 83.2149 239.567 82.9246 240.424 82.9246 240.859 82.9246 241.249 83.0017 241.596 83.1558 241.942 83.3099 242.239 83.5368 242.489 83.8365L242.489 81.4111 242.153 81.4111C241.786 81.4111 241.548 81.3784 241.441 81.313 241.333 81.2476 241.279 81.1283 241.279 80.9552 241.279 80.8032 241.322 80.6892 241.409 80.6132 241.495 80.5372 241.621 80.4993 241.786 80.4993L243.084 80.4993C243.21 80.4993 243.302 80.5204 243.359 80.5626 243.416 80.6048 243.445 80.6702 243.445 80.7589L243.445 87.8957 243.73 87.8957C243.937 87.8957 244.086 87.9305 244.179 88.0002 244.272 88.0698 244.319 88.1807 244.319 88.3326 244.319 88.4762 244.279 88.5881 244.198 88.6683 244.118 88.7485 244.01 88.7886 243.875 88.7886L242.653 88.7886ZM238.505 85.9453C238.505 86.5279 238.693 87.0049 239.069 87.3764 239.445 87.7479 239.922 87.9337 240.5 87.9337 241.083 87.9337 241.562 87.7406 241.938 87.3543 242.313 86.968 242.501 86.4772 242.501 85.8819 242.501 85.2951 242.314 84.8117 241.941 84.4318 241.567 84.0518 241.087 83.8619 240.5 83.8619 239.905 83.8619 239.424 84.0539 239.056 84.4381 238.689 84.8223 238.505 85.3247 238.505 85.9453Z" fill="#EF95EF" transform="scale(1 1.00238)"/><path d="M249.815 81.3415C249.815 81.4301 249.745 81.6212 249.603 81.9146 249.462 82.208 249.355 82.4412 249.283 82.6143 248.996 83.2856 248.793 83.8998 248.672 84.4571 248.552 85.0144 248.492 85.5928 248.492 86.1922 248.492 86.7453 248.543 87.2804 248.644 87.7975 248.745 88.3147 248.899 88.8308 249.106 89.3459 249.212 89.6245 249.356 89.9527 249.54 90.3306 249.724 90.7084 249.815 90.9417 249.815 91.0303 249.815 91.1232 249.795 91.196 249.755 91.2488 249.715 91.3016 249.661 91.328 249.594 91.328 249.463 91.328 249.317 91.2594 249.157 91.1222 248.996 90.9849 248.811 90.7644 248.6 90.4604 248.148 89.8145 247.81 89.1369 247.586 88.4276 247.363 87.7184 247.251 86.9733 247.251 86.1922 247.251 85.4788 247.342 84.798 247.526 84.15 247.71 83.5019 247.989 82.874 248.365 82.266 248.61 81.865 248.836 81.5631 249.043 81.3605 249.25 81.1578 249.433 81.0565 249.594 81.0565 249.661 81.0565 249.715 81.0829 249.755 81.1357 249.795 81.1884 249.815 81.2571 249.815 81.3415Z" fill="#9B9B9B" transform="scale(1 1.00238)"/><path d="M255.021 91.0303C255.021 90.9459 255.093 90.7591 255.236 90.4699 255.38 90.1807 255.489 89.9496 255.565 89.7765 255.848 89.101 256.051 88.4836 256.173 87.9242 256.296 87.3648 256.357 86.7875 256.357 86.1922 256.357 85.6519 256.305 85.121 256.202 84.5996 256.098 84.0782 255.941 83.5558 255.73 83.0323 255.62 82.7536 255.475 82.4254 255.293 82.0476 255.112 81.6697 255.021 81.4344 255.021 81.3415 255.021 81.2571 255.042 81.1884 255.084 81.1357 255.126 81.0829 255.181 81.0565 255.249 81.0565 255.388 81.0565 255.537 81.1251 255.695 81.2623 255.853 81.3995 256.038 81.618 256.249 81.9177 256.701 82.5595 257.039 83.237 257.262 83.9505 257.486 84.664 257.598 85.4112 257.598 86.1922 257.598 86.9057 257.504 87.5875 257.316 88.2377 257.128 88.8878 256.847 89.5168 256.471 90.1248 256.209 90.5385 255.98 90.8425 255.784 91.0367 255.587 91.2309 255.409 91.328 255.249 91.328 255.181 91.328 255.126 91.3005 255.084 91.2456 255.042 91.1908 255.021 91.119 255.021 91.0303Z" fill="#9B9B9B" transform="scale(1 1.00238)"/><path d="M271.403 85.8693C271.825 86.0002 272.121 86.2144 272.29 86.512 272.459 86.8097 272.543 87.3089 272.543 88.0097L272.543 88.9469C272.543 89.386 272.589 89.6794 272.682 89.8271 272.775 89.9749 272.944 90.0783 273.189 90.1374 273.244 90.1501 273.322 90.1628 273.423 90.1754 273.795 90.2261 273.98 90.3992 273.98 90.6947 273.98 90.8382 273.932 90.9501 273.835 91.0303 273.738 91.1105 273.601 91.1507 273.423 91.1507 272.71 91.1507 272.207 90.9733 271.916 90.6187 271.625 90.2641 271.479 89.5971 271.479 88.6176L271.479 87.883C271.479 87.3891 271.409 87.0397 271.27 86.835 271.131 86.6302 270.789 86.4814 270.244 86.3885 270.08 86.3632 269.961 86.3115 269.89 86.2334 269.818 86.1553 269.782 86.0339 269.782 85.8693 269.782 85.7342 269.812 85.6286 269.871 85.5527 269.93 85.4767 270.025 85.4218 270.156 85.388 270.219 85.3753 270.31 85.3542 270.428 85.3247 271.129 85.1769 271.479 84.6935 271.479 83.8745L271.479 83.1209C271.479 82.1457 271.627 81.4787 271.922 81.1198 272.218 80.761 272.722 80.5816 273.436 80.5816 273.609 80.5816 273.743 80.6227 273.838 80.7051 273.933 80.7874 273.98 80.9003 273.98 81.0439 273.98 81.3352 273.795 81.504 273.423 81.5505 273.351 81.5631 273.294 81.5716 273.252 81.5758 272.986 81.6264 272.802 81.7309 272.698 81.8893 272.595 82.0476 272.543 82.3547 272.543 82.8106L272.543 83.7415C272.543 84.4466 272.459 84.9468 272.29 85.2424 272.121 85.5379 271.825 85.7468 271.403 85.8693Z" fill="#9B9B9B" transform="scale(1 1.00238)"/><path d="M181.829 107.703C181.829 107.373 181.944 107.103 182.174 106.892 182.404 106.681 182.703 106.575 183.07 106.575 183.446 106.575 183.748 106.679 183.976 106.886 184.204 107.093 184.318 107.365 184.318 107.703 184.318 108.04 184.203 108.313 183.973 108.519 183.743 108.726 183.442 108.83 183.07 108.83 182.699 108.83 182.399 108.726 182.171 108.519 181.943 108.313 181.829 108.04 181.829 107.703Z" fill="#9B9B9B" transform="scale(1 1.00238)"/><path d="M215.487 101.294C215.487 101.383 215.416 101.574 215.275 101.867 215.133 102.16 215.027 102.394 214.955 102.567 214.668 103.238 214.464 103.852 214.344 104.41 214.224 104.967 214.163 105.545 214.163 106.145 214.163 106.698 214.214 107.233 214.315 107.75 214.417 108.267 214.571 108.783 214.778 109.298 214.883 109.577 215.028 109.905 215.211 110.283 215.395 110.661 215.487 110.894 215.487 110.983 215.487 111.076 215.467 111.149 215.427 111.201 215.387 111.254 215.333 111.28 215.265 111.28 215.134 111.28 214.989 111.212 214.828 111.075 214.668 110.937 214.482 110.717 214.271 110.413 213.819 109.767 213.482 109.089 213.258 108.38 213.034 107.671 212.922 106.926 212.922 106.145 212.922 105.431 213.014 104.751 213.198 104.102 213.381 103.454 213.661 102.826 214.037 102.219 214.282 101.817 214.508 101.516 214.714 101.313 214.921 101.11 215.105 101.009 215.265 101.009 215.333 101.009 215.387 101.035 215.427 101.088 215.467 101.141 215.487 101.21 215.487 101.294Z" fill="#9B9B9B" transform="scale(1 1.00238)"/><path d="M337.433 110.983C337.433 110.898 337.505 110.712 337.649 110.422 337.792 110.133 337.902 109.902 337.978 109.729 338.261 109.053 338.464 108.436 338.586 107.877 338.708 107.317 338.77 106.74 338.77 106.145 338.77 105.604 338.718 105.073 338.614 104.552 338.511 104.031 338.354 103.508 338.143 102.985 338.033 102.706 337.887 102.378 337.706 102 337.524 101.622 337.433 101.387 337.433 101.294 337.433 101.21 337.454 101.141 337.497 101.088 337.539 101.035 337.594 101.009 337.661 101.009 337.801 101.009 337.949 101.078 338.108 101.215 338.266 101.352 338.451 101.571 338.662 101.87 339.114 102.512 339.451 103.19 339.675 103.903 339.899 104.616 340.011 105.364 340.011 106.145 340.011 106.858 339.917 107.54 339.729 108.19 339.541 108.84 339.259 109.469 338.884 110.077 338.622 110.491 338.393 110.795 338.196 110.989 338 111.183 337.822 111.28 337.661 111.28 337.594 111.28 337.539 111.253 337.497 111.198 337.454 111.143 337.433 111.071 337.433 110.983Z" fill="#9B9B9B" transform="scale(1 1.00238)"/><path d="M345.716 107.196C345.754 107.057 345.799 106.968 345.849 106.93 345.9 106.892 345.987 106.873 346.109 106.873L347.42 106.873C347.475 106.873 347.52 106.886 347.556 106.911 347.592 106.936 347.61 106.968 347.61 107.006 347.61 107.019 347.606 107.042 347.597 107.076 347.589 107.109 347.576 107.141 347.559 107.171L345.925 110.571C345.892 110.639 345.855 110.687 345.815 110.717 345.774 110.746 345.725 110.761 345.666 110.761 345.632 110.761 345.606 110.76 345.587 110.758 345.568 110.756 345.552 110.753 345.539 110.749L345.121 110.597C345.058 110.571 345.01 110.54 344.979 110.502 344.947 110.464 344.931 110.421 344.931 110.375 344.931 110.358 344.932 110.339 344.934 110.318 344.936 110.297 344.944 110.263 344.957 110.217L345.716 107.196Z" fill="#9B9B9B" transform="scale(1 1.00238)"/><path d="M345.229 104.201C345.229 103.871 345.344 103.601 345.574 103.39 345.804 103.179 346.103 103.073 346.47 103.073 346.846 103.073 347.15 103.178 347.382 103.387 347.614 103.596 347.73 103.867 347.73 104.201 347.73 104.534 347.614 104.805 347.382 105.014 347.15 105.223 346.846 105.328 346.47 105.328 346.098 105.328 345.799 105.224 345.571 105.018 345.343 104.811 345.229 104.538 345.229 104.201Z" fill="#9B9B9B" transform="scale(1 1.00238)"/><path d="M101.139 125.774C100.713 125.652 100.414 125.442 100.243 125.144 100.072 124.847 99.9865 124.347 99.9865 123.647L99.9865 122.716C99.9865 122.268 99.9401 121.967 99.8472 121.813 99.7543 121.659 99.5897 121.553 99.3533 121.493 99.2984 121.481 99.2161 121.468 99.1063 121.455 98.7432 121.405 98.5617 121.244 98.5617 120.974 98.5617 120.814 98.606 120.692 98.6947 120.61 98.7834 120.528 98.9163 120.487 99.0937 120.487 99.8071 120.487 100.312 120.666 100.607 121.025 100.903 121.384 101.05 122.051 101.05 123.026L101.05 123.78C101.05 124.603 101.392 125.086 102.076 125.23 102.207 125.255 102.306 125.276 102.374 125.293 102.509 125.331 102.607 125.387 102.668 125.461 102.73 125.535 102.76 125.639 102.76 125.774 102.76 125.918 102.727 126.032 102.662 126.116 102.597 126.201 102.496 126.256 102.361 126.281 102.315 126.289 102.249 126.302 102.165 126.319 101.422 126.462 101.05 126.952 101.05 127.788L101.05 128.523C101.05 129.502 100.905 130.169 100.613 130.524 100.322 130.878 99.8198 131.056 99.1063 131.056 98.9248 131.056 98.7886 131.014 98.6979 130.932 98.6071 130.85 98.5617 130.726 98.5617 130.562 98.5617 130.292 98.7432 130.131 99.1063 130.08 99.1823 130.072 99.2372 130.064 99.271 130.055 99.5454 130.009 99.7332 129.912 99.8346 129.764 99.9359 129.616 99.9865 129.312 99.9865 128.852L99.9865 127.915C99.9865 127.222 100.072 126.725 100.243 126.423 100.414 126.121 100.713 125.905 101.139 125.774Z" fill="#9B9B9B" transform="scale(1 1.00238)"/><path d="M130.497 103.27 130.497 103.244C130.497 103.105 130.538 103.003 130.618 102.937 130.698 102.872 130.822 102.839 130.991 102.839 131.164 102.839 131.284 102.89 131.349 102.991 131.415 103.092 131.447 103.301 131.447 103.618L131.447 104.796C131.447 104.952 131.407 105.069 131.327 105.147 131.247 105.225 131.126 105.265 130.966 105.265 130.852 105.265 130.754 105.232 130.672 105.166 130.589 105.101 130.489 104.965 130.371 104.758 130.168 104.416 129.922 104.157 129.633 103.982 129.344 103.807 129.011 103.719 128.636 103.719 127.977 103.719 127.442 103.914 127.03 104.302 126.619 104.69 126.413 105.193 126.413 105.809 126.413 106.438 126.61 106.952 127.005 107.351 127.4 107.75 127.907 107.95 128.528 107.95 128.811 107.95 129.08 107.91 129.335 107.832 129.591 107.754 129.832 107.637 130.06 107.481 130.141 107.43 130.248 107.352 130.383 107.247 130.658 107.023 130.873 106.911 131.029 106.911 131.16 106.911 131.267 106.952 131.349 107.034 131.431 107.117 131.473 107.223 131.473 107.354 131.473 107.688 131.157 108.029 130.526 108.377 129.895 108.725 129.225 108.899 128.515 108.899 127.599 108.899 126.836 108.606 126.226 108.019 125.616 107.432 125.311 106.7 125.311 105.822 125.311 104.944 125.615 104.21 126.223 103.621 126.831 103.032 127.591 102.738 128.503 102.738 128.823 102.738 129.145 102.781 129.468 102.868 129.791 102.954 130.134 103.088 130.497 103.27Z" fill="#77DC70" transform="scale(1 1.00238)"/><path d="M139.699 105.822C139.699 106.725 139.39 107.464 138.774 108.038 138.158 108.612 137.358 108.899 136.374 108.899 135.395 108.899 134.597 108.612 133.98 108.038 133.364 107.464 133.056 106.725 133.056 105.822 133.056 104.918 133.364 104.181 133.98 103.609 134.597 103.036 135.395 102.75 136.374 102.75 137.353 102.75 138.152 103.038 138.771 103.612 139.389 104.186 139.699 104.923 139.699 105.822ZM136.374 108.013C137.024 108.013 137.557 107.807 137.973 107.395 138.389 106.984 138.597 106.459 138.597 105.822 138.597 105.184 138.388 104.658 137.97 104.242 137.552 103.826 137.02 103.618 136.374 103.618 135.728 103.618 135.197 103.826 134.781 104.242 134.366 104.658 134.158 105.184 134.158 105.822 134.158 106.463 134.364 106.989 134.778 107.399 135.192 107.808 135.724 108.013 136.374 108.013Z" fill="#77DC70" transform="scale(1 1.00238)"/><path d="M141.801 107.848 141.801 103.789 141.681 103.789C141.394 103.789 141.196 103.755 141.089 103.688 140.981 103.62 140.927 103.502 140.927 103.333 140.927 103.177 140.971 103.064 141.06 102.994 141.149 102.925 141.292 102.89 141.491 102.89L142.396 102.89C142.51 102.89 142.599 102.913 142.662 102.959 142.726 103.006 142.757 103.069 142.757 103.149L142.757 103.58C143.065 103.293 143.37 103.081 143.672 102.944 143.974 102.806 144.288 102.738 144.613 102.738 145.25 102.738 145.752 102.936 146.117 103.333 146.482 103.73 146.664 104.279 146.664 104.98L146.664 107.848 146.962 107.848C147.173 107.848 147.325 107.883 147.418 107.953 147.511 108.022 147.557 108.133 147.557 108.285 147.557 108.45 147.508 108.567 147.409 108.637 147.309 108.706 147.133 108.741 146.88 108.741L145.48 108.741C145.21 108.741 145.037 108.709 144.961 108.646 144.885 108.583 144.847 108.462 144.847 108.285 144.847 108.12 144.891 108.007 144.98 107.943 145.069 107.88 145.235 107.848 145.48 107.848L145.702 107.848 145.702 105.214C145.702 104.72 145.59 104.343 145.366 104.083 145.143 103.824 144.817 103.694 144.391 103.694 143.96 103.694 143.581 103.84 143.251 104.131 142.922 104.422 142.757 104.783 142.757 105.214L142.757 107.848 142.979 107.848C143.232 107.848 143.403 107.88 143.492 107.943 143.581 108.007 143.625 108.12 143.625 108.285 143.625 108.462 143.587 108.583 143.511 108.646 143.435 108.709 143.249 108.741 142.954 108.741L141.459 108.741C141.286 108.741 141.156 108.704 141.07 108.63 140.983 108.556 140.94 108.441 140.94 108.285 140.94 108.116 140.989 108.001 141.089 107.94 141.188 107.879 141.381 107.848 141.668 107.848L141.801 107.848Z" fill="#77DC70" transform="scale(1 1.00238)"/><path d="M149.178 108.285 149.178 107.158C149.178 106.972 149.213 106.839 149.283 106.759 149.353 106.679 149.466 106.639 149.622 106.639 149.795 106.639 149.932 106.757 150.033 106.993 150.101 107.137 150.162 107.244 150.217 107.316 150.394 107.544 150.656 107.727 151.002 107.864 151.348 108.001 151.731 108.07 152.148 108.07 152.596 108.07 152.955 107.979 153.225 107.798 153.495 107.616 153.63 107.377 153.63 107.082 153.63 106.782 153.522 106.569 153.304 106.442 153.087 106.316 152.714 106.252 152.186 106.252L151.838 106.252C150.977 106.252 150.32 106.103 149.869 105.803 149.417 105.503 149.191 105.068 149.191 104.498 149.191 103.941 149.412 103.508 149.853 103.2 150.294 102.892 150.914 102.738 151.712 102.738 152.037 102.738 152.368 102.783 152.706 102.874 153.043 102.965 153.221 103.01 153.238 103.01 153.284 103.01 153.373 102.969 153.504 102.887 153.635 102.804 153.763 102.763 153.89 102.763 154.033 102.763 154.14 102.816 154.21 102.921 154.279 103.027 154.314 103.185 154.314 103.396L154.314 104.137C154.314 104.361 154.28 104.523 154.213 104.622 154.145 104.721 154.038 104.771 153.89 104.771 153.763 104.771 153.607 104.663 153.421 104.448 153.29 104.3 153.183 104.188 153.098 104.112 152.875 103.905 152.636 103.756 152.383 103.666 152.129 103.575 151.832 103.529 151.49 103.529 151.093 103.529 150.773 103.617 150.531 103.792 150.288 103.967 150.166 104.19 150.166 104.46 150.166 104.726 150.291 104.916 150.54 105.03 150.789 105.144 151.325 105.21 152.148 105.227 153.027 105.248 153.668 105.401 154.074 105.686 154.479 105.971 154.682 106.411 154.682 107.006 154.682 107.576 154.458 108.032 154.01 108.374 153.563 108.716 152.959 108.887 152.199 108.887 151.959 108.887 151.69 108.865 151.395 108.82 151.099 108.776 150.728 108.701 150.28 108.595 150.133 108.693 150.006 108.765 149.9 108.814 149.795 108.862 149.706 108.887 149.634 108.887 149.487 108.887 149.374 108.835 149.296 108.732 149.218 108.628 149.178 108.479 149.178 108.285Z" fill="#77DC70" transform="scale(1 1.00238)"/><path d="M163.047 105.822C163.047 106.725 162.739 107.464 162.122 108.038 161.506 108.612 160.706 108.899 159.722 108.899 158.743 108.899 157.945 108.612 157.329 108.038 156.712 107.464 156.404 106.725 156.404 105.822 156.404 104.918 156.712 104.181 157.329 103.609 157.945 103.036 158.743 102.75 159.722 102.75 160.702 102.75 161.501 103.038 162.119 103.612 162.738 104.186 163.047 104.923 163.047 105.822ZM159.722 108.013C160.372 108.013 160.905 107.807 161.321 107.395 161.737 106.984 161.945 106.459 161.945 105.822 161.945 105.184 161.736 104.658 161.318 104.242 160.9 103.826 160.368 103.618 159.722 103.618 159.076 103.618 158.545 103.826 158.13 104.242 157.714 104.658 157.506 105.184 157.506 105.822 157.506 106.463 157.713 106.989 158.126 107.399 158.54 107.808 159.072 108.013 159.722 108.013Z" fill="#77DC70" transform="scale(1 1.00238)"/><path d="M167.081 101.364 166.004 101.364C165.595 101.364 165.338 101.331 165.235 101.265 165.131 101.2 165.08 101.081 165.08 100.908 165.08 100.756 165.123 100.642 165.209 100.566 165.296 100.49 165.422 100.452 165.586 100.452L167.676 100.452C167.79 100.452 167.879 100.475 167.942 100.521 168.005 100.568 168.037 100.631 168.037 100.711L168.037 107.848 170.025 107.848C170.186 107.848 170.303 107.883 170.377 107.953 170.451 108.022 170.488 108.133 170.488 108.285 170.488 108.458 170.452 108.577 170.38 108.643 170.308 108.708 170.173 108.741 169.975 108.741L165.301 108.741C165.137 108.741 165.011 108.703 164.924 108.627 164.838 108.551 164.795 108.437 164.795 108.285 164.795 108.137 164.839 108.028 164.928 107.956 165.016 107.884 165.149 107.848 165.327 107.848L167.081 107.848 167.081 101.364Z" fill="#77DC70" transform="scale(1 1.00238)"/><path d="M173.147 106.094C173.181 106.702 173.387 107.172 173.765 107.503 174.143 107.834 174.659 108 175.313 108 175.807 108 176.345 107.868 176.928 107.604 177.51 107.341 177.863 107.209 177.985 107.209 178.112 107.209 178.218 107.249 178.302 107.329 178.386 107.409 178.429 107.508 178.429 107.627 178.429 107.749 178.384 107.861 178.296 107.962 178.207 108.064 178.066 108.163 177.871 108.26 177.449 108.467 177.013 108.625 176.564 108.735 176.114 108.845 175.668 108.899 175.224 108.899 174.262 108.899 173.491 108.622 172.913 108.067 172.335 107.512 172.045 106.776 172.045 105.86 172.045 104.927 172.352 104.171 172.964 103.593 173.576 103.014 174.374 102.725 175.357 102.725 176.248 102.725 176.987 102.995 177.574 103.536 178.161 104.076 178.454 104.73 178.454 105.499 178.454 105.735 178.404 105.894 178.305 105.974 178.206 106.054 177.937 106.094 177.498 106.094L173.147 106.094ZM173.179 105.265 177.301 105.265C177.238 104.762 177.028 104.358 176.671 104.052 176.315 103.746 175.877 103.593 175.357 103.593 174.796 103.593 174.323 103.74 173.939 104.036 173.555 104.332 173.301 104.741 173.179 105.265Z" fill="#77DC70" transform="scale(1 1.00238)"/><path d="M190.429 101.364 189.352 101.364C188.943 101.364 188.686 101.331 188.583 101.265 188.48 101.2 188.428 101.081 188.428 100.908 188.428 100.756 188.471 100.642 188.558 100.566 188.644 100.49 188.77 100.452 188.934 100.452L191.024 100.452C191.138 100.452 191.227 100.475 191.29 100.521 191.353 100.568 191.385 100.631 191.385 100.711L191.385 107.848 193.374 107.848C193.534 107.848 193.651 107.883 193.725 107.953 193.799 108.022 193.836 108.133 193.836 108.285 193.836 108.458 193.8 108.577 193.728 108.643 193.656 108.708 193.521 108.741 193.323 108.741L188.649 108.741C188.485 108.741 188.359 108.703 188.273 108.627 188.186 108.551 188.143 108.437 188.143 108.285 188.143 108.137 188.187 108.028 188.276 107.956 188.365 107.884 188.497 107.848 188.675 107.848L190.429 107.848 190.429 101.364Z" fill="#EF95EF" transform="scale(1 1.00238)"/><path d="M201.961 105.822C201.961 106.725 201.652 107.464 201.036 108.038 200.42 108.612 199.62 108.899 198.636 108.899 197.656 108.899 196.859 108.612 196.242 108.038 195.626 107.464 195.318 106.725 195.318 105.822 195.318 104.918 195.626 104.181 196.242 103.609 196.859 103.036 197.656 102.75 198.636 102.75 199.615 102.75 200.414 103.038 201.033 103.612 201.651 104.186 201.961 104.923 201.961 105.822ZM198.636 108.013C199.286 108.013 199.819 107.807 200.235 107.395 200.651 106.984 200.859 106.459 200.859 105.822 200.859 105.184 200.65 104.658 200.232 104.242 199.814 103.826 199.282 103.618 198.636 103.618 197.99 103.618 197.459 103.826 197.043 104.242 196.627 104.658 196.42 105.184 196.42 105.822 196.42 106.463 196.626 106.989 197.04 107.399 197.454 107.808 197.986 108.013 198.636 108.013Z" fill="#EF95EF" transform="scale(1 1.00238)"/><path d="M208.99 108.405C208.99 108.997 208.96 109.416 208.901 109.662 208.842 109.909 208.741 110.126 208.597 110.312 208.361 110.624 208.029 110.861 207.603 111.024 207.176 111.187 206.674 111.268 206.096 111.268 205.614 111.268 205.263 111.221 205.041 111.128 204.82 111.036 204.709 110.888 204.709 110.685 204.709 110.554 204.763 110.439 204.87 110.34 204.978 110.241 205.106 110.191 205.253 110.191 205.367 110.191 205.543 110.207 205.779 110.239 206.016 110.27 206.195 110.286 206.317 110.286 206.942 110.286 207.385 110.143 207.647 109.856 207.909 109.569 208.04 109.077 208.04 108.38L208.04 107.614C207.782 107.914 207.497 108.133 207.185 108.272 206.873 108.412 206.514 108.481 206.108 108.481 205.319 108.481 204.666 108.219 204.148 107.693 203.631 107.167 203.373 106.501 203.373 105.695 203.373 104.885 203.639 104.212 204.171 103.678 204.703 103.144 205.361 102.877 206.146 102.877 206.471 102.877 206.789 102.937 207.099 103.058 207.41 103.178 207.723 103.361 208.04 103.605L208.04 103.149C208.04 103.061 208.068 102.995 208.125 102.953 208.182 102.911 208.272 102.89 208.394 102.89L209.351 102.89C209.52 102.89 209.646 102.927 209.731 103.001 209.815 103.074 209.857 103.185 209.857 103.333 209.857 103.502 209.804 103.62 209.699 103.688 209.593 103.755 209.395 103.789 209.104 103.789L208.99 103.789 208.99 108.405ZM206.241 103.827C205.688 103.827 205.237 103.998 204.886 104.34 204.536 104.682 204.361 105.125 204.361 105.67 204.361 106.206 204.536 106.646 204.886 106.99 205.237 107.334 205.688 107.506 206.241 107.506 206.79 107.506 207.241 107.334 207.593 106.99 207.946 106.646 208.122 106.206 208.122 105.67 208.122 105.134 207.946 104.692 207.593 104.346 207.241 104 206.79 103.827 206.241 103.827Z" fill="#EF95EF" transform="scale(1 1.00238)"/><path d="M222.465 104.125C222.44 104.243 222.404 104.32 222.358 104.356 222.311 104.392 222.235 104.41 222.13 104.41L220.99 104.41C220.939 104.41 220.898 104.398 220.866 104.375 220.835 104.352 220.819 104.319 220.819 104.277 220.819 104.268 220.822 104.254 220.828 104.235L220.857 104.15 222.288 101.193C222.318 101.134 222.352 101.088 222.393 101.057 222.433 101.025 222.474 101.009 222.516 101.009 222.537 101.009 222.565 101.013 222.598 101.022 222.607 101.03 222.615 101.034 222.624 101.034L222.985 101.18C223.035 101.201 223.077 101.229 223.108 101.262 223.14 101.296 223.156 101.334 223.156 101.376 223.156 101.393 223.154 101.411 223.149 101.43 223.145 101.449 223.139 101.473 223.13 101.503L222.465 104.125Z" fill="#F5A623" transform="scale(1 1.00238)"/><path d="M228.253 107.848 228.678 107.848C228.927 107.848 229.102 107.882 229.203 107.95 229.305 108.017 229.355 108.129 229.355 108.285 229.355 108.458 229.311 108.577 229.222 108.643 229.134 108.708 228.939 108.741 228.64 108.741L226.968 108.741C226.812 108.741 226.695 108.703 226.616 108.627 226.538 108.551 226.499 108.437 226.499 108.285 226.499 108.12 226.545 108.007 226.635 107.943 226.726 107.88 226.898 107.848 227.152 107.848L227.266 107.848 227.266 102.143 227.164 102.143C226.911 102.143 226.737 102.109 226.642 102.041 226.547 101.974 226.499 101.855 226.499 101.687 226.499 101.53 226.538 101.415 226.616 101.341 226.695 101.268 226.816 101.231 226.981 101.231L228.576 101.231C228.914 101.231 229.128 101.263 229.219 101.329 229.31 101.394 229.355 101.514 229.355 101.687 229.355 101.855 229.298 101.974 229.184 102.041 229.07 102.109 228.855 102.143 228.538 102.143L228.253 102.143 228.253 104.346 231.287 104.346 231.287 102.143 230.856 102.143C230.615 102.143 230.443 102.107 230.34 102.035 230.237 101.963 230.185 101.847 230.185 101.687 230.185 101.514 230.232 101.394 230.327 101.329 230.422 101.263 230.656 101.231 231.027 101.231L232.572 101.231C232.724 101.231 232.839 101.269 232.917 101.345 232.995 101.421 233.035 101.535 233.035 101.687 233.035 101.851 232.99 101.968 232.902 102.038 232.813 102.108 232.655 102.143 232.427 102.143L232.275 102.143 232.275 107.848 232.376 107.848C232.629 107.848 232.802 107.881 232.895 107.946 232.988 108.012 233.035 108.125 233.035 108.285 233.035 108.458 232.99 108.577 232.902 108.643 232.813 108.708 232.608 108.741 232.287 108.741L230.976 108.741C230.634 108.741 230.417 108.708 230.324 108.643 230.231 108.577 230.185 108.458 230.185 108.285 230.185 108.12 230.24 108.007 230.35 107.943 230.459 107.88 230.668 107.848 230.976 107.848L231.287 107.848 231.287 105.214 228.253 105.214 228.253 107.848Z" fill="#F5A623" transform="scale(1 1.00238)"/><path d="M235.409 106.094C235.443 106.702 235.649 107.172 236.027 107.503 236.404 107.834 236.921 108 237.575 108 238.069 108 238.607 107.868 239.19 107.604 239.772 107.341 240.125 107.209 240.247 107.209 240.374 107.209 240.48 107.249 240.564 107.329 240.648 107.409 240.691 107.508 240.691 107.627 240.691 107.749 240.646 107.861 240.558 107.962 240.469 108.064 240.328 108.163 240.133 108.26 239.711 108.467 239.275 108.625 238.826 108.735 238.376 108.845 237.93 108.899 237.486 108.899 236.524 108.899 235.753 108.622 235.175 108.067 234.597 107.512 234.307 106.776 234.307 105.86 234.307 104.927 234.613 104.171 235.226 103.593 235.838 103.014 236.636 102.725 237.619 102.725 238.51 102.725 239.249 102.995 239.836 103.536 240.423 104.076 240.716 104.73 240.716 105.499 240.716 105.735 240.666 105.894 240.567 105.974 240.468 106.054 240.199 106.094 239.76 106.094L235.409 106.094ZM235.441 105.265 239.563 105.265C239.5 104.762 239.29 104.358 238.933 104.052 238.577 103.746 238.139 103.593 237.619 103.593 237.058 103.593 236.585 103.74 236.201 104.036 235.817 104.332 235.563 104.741 235.441 105.265Z" fill="#F5A623" transform="scale(1 1.00238)"/><path d="M244.908 101.364 243.832 101.364C243.422 101.364 243.166 101.331 243.062 101.265 242.959 101.2 242.907 101.081 242.907 100.908 242.907 100.756 242.95 100.642 243.037 100.566 243.123 100.49 243.249 100.452 243.414 100.452L245.503 100.452C245.617 100.452 245.706 100.475 245.769 100.521 245.833 100.568 245.864 100.631 245.864 100.711L245.864 107.848 247.853 107.848C248.013 107.848 248.13 107.883 248.204 107.953 248.278 108.022 248.315 108.133 248.315 108.285 248.315 108.458 248.279 108.577 248.207 108.643 248.136 108.708 248.001 108.741 247.802 108.741L243.129 108.741C242.964 108.741 242.838 108.703 242.752 108.627 242.665 108.551 242.622 108.437 242.622 108.285 242.622 108.137 242.666 108.028 242.755 107.956 242.844 107.884 242.977 107.848 243.154 107.848L244.908 107.848 244.908 101.364Z" fill="#F5A623" transform="scale(1 1.00238)"/><path d="M252.691 101.364 251.614 101.364C251.205 101.364 250.948 101.331 250.845 101.265 250.741 101.2 250.69 101.081 250.69 100.908 250.69 100.756 250.733 100.642 250.82 100.566 250.906 100.49 251.032 100.452 251.196 100.452L253.286 100.452C253.4 100.452 253.489 100.475 253.552 100.521 253.615 100.568 253.647 100.631 253.647 100.711L253.647 107.848 255.635 107.848C255.796 107.848 255.913 107.883 255.987 107.953 256.061 108.022 256.098 108.133 256.098 108.285 256.098 108.458 256.062 108.577 255.99 108.643 255.918 108.708 255.783 108.741 255.585 108.741L250.911 108.741C250.747 108.741 250.621 108.703 250.535 108.627 250.448 108.551 250.405 108.437 250.405 108.285 250.405 108.137 250.449 108.028 250.538 107.956 250.626 107.884 250.759 107.848 250.937 107.848L252.691 107.848 252.691 101.364Z" fill="#F5A623" transform="scale(1 1.00238)"/><path d="M264.222 105.822C264.222 106.725 263.914 107.464 263.298 108.038 262.682 108.612 261.882 108.899 260.898 108.899 259.918 108.899 259.121 108.612 258.504 108.038 257.888 107.464 257.58 106.725 257.58 105.822 257.58 104.918 257.888 104.181 258.504 103.609 259.121 103.036 259.918 102.75 260.898 102.75 261.877 102.75 262.676 103.038 263.295 103.612 263.913 104.186 264.222 104.923 264.222 105.822ZM260.898 108.013C261.548 108.013 262.081 107.807 262.497 107.395 262.913 106.984 263.121 106.459 263.121 105.822 263.121 105.184 262.912 104.658 262.494 104.242 262.076 103.826 261.544 103.618 260.898 103.618 260.252 103.618 259.721 103.826 259.305 104.242 258.889 104.658 258.681 105.184 258.681 105.822 258.681 106.463 258.888 106.989 259.302 107.399 259.716 107.808 260.248 108.013 260.898 108.013Z" fill="#F5A623" transform="scale(1 1.00238)"/><path d="M267.933 106.974C267.967 106.831 268.011 106.739 268.066 106.699 268.121 106.659 268.214 106.639 268.345 106.639L269.732 106.639C269.795 106.639 269.846 106.651 269.884 106.677 269.922 106.702 269.941 106.734 269.941 106.772 269.941 106.793 269.937 106.82 269.928 106.854 269.92 106.888 269.907 106.919 269.89 106.949L268.149 110.571C268.119 110.635 268.079 110.685 268.028 110.723 267.978 110.761 267.923 110.78 267.864 110.78 267.851 110.78 267.837 110.778 267.823 110.774 267.808 110.77 267.783 110.761 267.75 110.749L267.306 110.584C267.239 110.554 267.188 110.521 267.154 110.483 267.121 110.445 267.104 110.4 267.104 110.35L267.104 110.251C267.104 110.232 267.108 110.212 267.116 110.191L267.933 106.974Z" fill="#F5A623" transform="scale(1 1.00238)"/><path d="M282.612 107.12 283.701 103.333C283.739 103.198 283.783 103.112 283.831 103.077 283.88 103.041 283.967 103.023 284.094 103.023L284.379 103.023C284.501 103.023 284.589 103.042 284.642 103.08 284.695 103.118 284.74 103.194 284.778 103.308L286.013 107.12 286.633 102.086 285.639 102.086C285.445 102.086 285.303 102.052 285.212 101.984 285.121 101.917 285.076 101.809 285.076 101.661 285.076 101.501 285.119 101.389 285.205 101.326 285.292 101.262 285.453 101.231 285.69 101.231L287.735 101.231C287.828 101.231 287.911 101.272 287.982 101.354 288.054 101.436 288.09 101.539 288.09 101.661 288.09 101.805 288.05 101.911 287.97 101.981 287.889 102.051 287.769 102.086 287.609 102.086L287.533 102.086 286.633 108.418C286.621 108.549 286.597 108.636 286.561 108.678 286.525 108.72 286.467 108.741 286.386 108.741L285.937 108.741C285.84 108.741 285.766 108.722 285.715 108.684 285.665 108.646 285.62 108.574 285.582 108.469L284.208 104.112 282.992 108.481C282.963 108.587 282.925 108.657 282.878 108.69 282.832 108.724 282.756 108.741 282.65 108.741L282.175 108.741C282.091 108.741 282.029 108.721 281.988 108.681 281.948 108.641 281.92 108.549 281.903 108.405L280.94 102.086 280.864 102.086C280.7 102.086 280.576 102.05 280.494 101.978 280.412 101.906 280.371 101.801 280.371 101.661 280.371 101.535 280.404 101.431 280.472 101.351 280.539 101.271 280.622 101.231 280.719 101.231L282.771 101.231C283.003 101.231 283.162 101.262 283.249 101.326 283.335 101.389 283.379 101.501 283.379 101.661 283.379 101.809 283.333 101.917 283.242 101.984 283.152 102.052 283.011 102.086 282.821 102.086L281.928 102.086 282.612 107.12Z" fill="#F5A623" transform="scale(1 1.00238)"/><path d="M295.353 105.822C295.353 106.725 295.045 107.464 294.429 108.038 293.812 108.612 293.012 108.899 292.029 108.899 291.049 108.899 290.251 108.612 289.635 108.038 289.019 107.464 288.711 106.725 288.711 105.822 288.711 104.918 289.019 104.181 289.635 103.609 290.251 103.036 291.049 102.75 292.029 102.75 293.008 102.75 293.807 103.038 294.426 103.612 295.044 104.186 295.353 104.923 295.353 105.822ZM292.029 108.013C292.679 108.013 293.212 107.807 293.628 107.395 294.044 106.984 294.252 106.459 294.252 105.822 294.252 105.184 294.043 104.658 293.625 104.242 293.207 103.826 292.675 103.618 292.029 103.618 291.383 103.618 290.852 103.826 290.436 104.242 290.02 104.658 289.812 105.184 289.812 105.822 289.812 106.463 290.019 106.989 290.433 107.399 290.847 107.808 291.379 108.013 292.029 108.013Z" fill="#F5A623" transform="scale(1 1.00238)"/><path d="M299.191 107.848 301.293 107.848C301.458 107.848 301.579 107.883 301.658 107.953 301.736 108.022 301.775 108.133 301.775 108.285 301.775 108.458 301.738 108.577 301.664 108.643 301.59 108.708 301.454 108.741 301.255 108.741L297.114 108.741C296.949 108.741 296.825 108.703 296.74 108.627 296.656 108.551 296.614 108.437 296.614 108.285 296.614 108.137 296.657 108.028 296.743 107.956 296.83 107.884 296.964 107.848 297.146 107.848L298.247 107.848 298.247 103.789 297.817 103.789C297.407 103.789 297.152 103.756 297.051 103.691 296.949 103.625 296.899 103.506 296.899 103.333 296.899 103.185 296.94 103.074 297.022 103.001 297.104 102.927 297.23 102.89 297.399 102.89L298.843 102.89C298.957 102.89 299.043 102.912 299.102 102.956 299.161 103.001 299.191 103.065 299.191 103.149L299.191 104.226C299.592 103.724 300.01 103.35 300.445 103.105 300.88 102.86 301.348 102.738 301.851 102.738 302.226 102.738 302.53 102.814 302.763 102.966 302.995 103.118 303.111 103.314 303.111 103.555 303.111 103.711 303.053 103.849 302.937 103.969 302.821 104.09 302.693 104.15 302.554 104.15 302.456 104.15 302.293 104.086 302.063 103.957 301.833 103.828 301.627 103.764 301.445 103.764 301.116 103.764 300.769 103.881 300.404 104.115 300.038 104.349 299.634 104.72 299.191 105.227L299.191 107.848Z" fill="#F5A623" transform="scale(1 1.00238)"/><path d="M307.17 101.364 306.093 101.364C305.684 101.364 305.427 101.331 305.324 101.265 305.221 101.2 305.169 101.081 305.169 100.908 305.169 100.756 305.212 100.642 305.299 100.566 305.385 100.49 305.511 100.452 305.676 100.452L307.765 100.452C307.879 100.452 307.968 100.475 308.031 100.521 308.095 100.568 308.126 100.631 308.126 100.711L308.126 107.848 310.115 107.848C310.275 107.848 310.392 107.883 310.466 107.953 310.54 108.022 310.577 108.133 310.577 108.285 310.577 108.458 310.541 108.577 310.469 108.643 310.398 108.708 310.262 108.741 310.064 108.741L305.391 108.741C305.226 108.741 305.1 108.703 305.014 108.627 304.927 108.551 304.884 108.437 304.884 108.285 304.884 108.137 304.928 108.028 305.017 107.956 305.106 107.884 305.239 107.848 305.416 107.848L307.17 107.848 307.17 101.364Z" fill="#F5A623" transform="scale(1 1.00238)"/><path d="M317.283 108.741C317.194 108.741 317.132 108.719 317.096 108.675 317.06 108.63 317.043 108.545 317.043 108.418L317.043 107.899C316.789 108.215 316.473 108.461 316.093 108.637 315.713 108.812 315.301 108.899 314.858 108.899 314.06 108.899 313.392 108.616 312.853 108.048 312.315 107.48 312.046 106.774 312.046 105.929 312.046 105.056 312.333 104.328 312.907 103.748 313.481 103.167 314.197 102.877 315.054 102.877 315.489 102.877 315.879 102.954 316.226 103.108 316.572 103.262 316.869 103.489 317.118 103.789L317.118 101.364 316.783 101.364C316.416 101.364 316.178 101.331 316.07 101.265 315.963 101.2 315.909 101.081 315.909 100.908 315.909 100.756 315.952 100.642 316.039 100.566 316.125 100.49 316.251 100.452 316.416 100.452L317.714 100.452C317.84 100.452 317.932 100.473 317.989 100.515 318.046 100.557 318.075 100.623 318.075 100.711L318.075 107.848 318.36 107.848C318.567 107.848 318.716 107.883 318.809 107.953 318.902 108.022 318.949 108.133 318.949 108.285 318.949 108.429 318.909 108.541 318.828 108.621 318.748 108.701 318.64 108.741 318.505 108.741L317.283 108.741ZM313.135 105.898C313.135 106.48 313.323 106.957 313.699 107.329 314.075 107.7 314.552 107.886 315.13 107.886 315.713 107.886 316.192 107.693 316.568 107.307 316.943 106.92 317.131 106.43 317.131 105.834 317.131 105.248 316.944 104.764 316.571 104.384 316.197 104.004 315.717 103.814 315.13 103.814 314.535 103.814 314.054 104.006 313.686 104.391 313.319 104.775 313.135 105.277 313.135 105.898Z" fill="#F5A623" transform="scale(1 1.00238)"/><path d="M323.901 101.661 323.679 105.771C323.675 105.91 323.624 106.025 323.527 106.116 323.43 106.207 323.308 106.252 323.16 106.252 323.016 106.252 322.896 106.207 322.799 106.116 322.702 106.025 322.649 105.91 322.641 105.771L322.425 101.661 322.425 101.598C322.425 101.353 322.491 101.16 322.621 101.019 322.752 100.877 322.932 100.806 323.16 100.806 323.392 100.806 323.573 100.877 323.704 101.019 323.835 101.16 323.901 101.353 323.901 101.598L323.901 101.661Z" fill="#F5A623" transform="scale(1 1.00238)"/><path d="M321.982 107.874C321.982 107.578 322.091 107.337 322.308 107.152 322.525 106.966 322.809 106.873 323.16 106.873 323.514 106.873 323.8 106.966 324.018 107.152 324.235 107.337 324.344 107.578 324.344 107.874 324.344 108.173 324.235 108.417 324.018 108.605 323.8 108.793 323.514 108.887 323.16 108.887 322.809 108.887 322.525 108.792 322.308 108.602 322.091 108.412 321.982 108.169 321.982 107.874Z" fill="#F5A623" transform="scale(1 1.00238)"/><path d="M330.531 101.516C330.56 101.397 330.597 101.32 330.642 101.284 330.686 101.249 330.761 101.231 330.867 101.231L331.994 101.231C332.044 101.231 332.086 101.242 332.117 101.265 332.149 101.289 332.165 101.317 332.165 101.351 332.165 101.376 332.162 101.401 332.155 101.424 332.149 101.447 332.139 101.469 332.127 101.49L330.696 104.448C330.674 104.502 330.645 104.545 330.607 104.574 330.569 104.604 330.527 104.619 330.48 104.619 330.451 104.619 330.43 104.618 330.417 104.615 330.404 104.613 330.389 104.61 330.373 104.606L330.012 104.46C329.953 104.443 329.907 104.419 329.875 104.387 329.844 104.356 329.828 104.319 329.828 104.277 329.828 104.251 329.836 104.213 329.853 104.163L329.853 104.137 330.531 101.516Z" fill="#F5A623" transform="scale(1 1.00238)"/></g></svg>