<svg width="420" height="108" xmlns="http://www.w3.org/2000/svg" xmlns:xlink="http://www.w3.org/1999/xlink" overflow="hidden"><defs><clipPath id="clip0"><rect x="0" y="0" width="420" height="108"/></clipPath></defs><g clip-path="url(#clip0)"><path d="M0 0 420 0 420 107.743 0 107.743Z" fill="#FFFFFF" fill-rule="evenodd" transform="scale(1 1.00238)"/><path d="M155.911 76.1351C155.273 76.1351 154.752 76.3324 154.348 76.727 153.943 77.1216 153.741 77.633 153.741 78.2614 153.741 78.8801 153.943 79.3879 154.348 79.7849 154.752 80.1819 155.273 80.3804 155.911 80.3804 156.545 80.3804 157.065 80.1819 157.471 79.7849 157.878 79.3879 158.081 78.8801 158.081 78.2614 158.081 77.6428 157.878 77.1337 157.471 76.7343 157.065 76.3349 156.545 76.1351 155.911 76.1351ZM159.082 81.418C159.082 82.0999 159.048 82.5834 158.98 82.8684 158.912 83.1533 158.795 83.403 158.629 83.6173 158.357 83.9778 157.974 84.2518 157.482 84.4393 156.99 84.6269 156.411 84.7206 155.743 84.7206 155.188 84.7206 154.782 84.6671 154.527 84.5599 154.271 84.4527 154.143 84.2822 154.143 84.0484 154.143 83.8974 154.205 83.7647 154.329 83.6502 154.454 83.5357 154.601 83.4785 154.771 83.4785 154.903 83.4785 155.105 83.4968 155.378 83.5333 155.651 83.5698 155.858 83.5881 155.999 83.5881 156.72 83.5881 157.231 83.4225 157.533 83.0912 157.835 82.76 157.986 82.1925 157.986 81.3887L157.986 80.5046C157.689 80.8505 157.36 81.1038 157 81.2645 156.639 81.4253 156.225 81.5056 155.758 81.5056 154.847 81.5056 154.093 81.2024 153.496 80.5959 152.9 79.9895 152.601 79.2211 152.601 78.2906 152.601 77.3554 152.908 76.5796 153.522 75.9634 154.136 75.3472 154.896 75.0391 155.802 75.0391 156.177 75.0391 156.543 75.1085 156.901 75.2474 157.259 75.3862 157.621 75.5969 157.986 75.8794L157.986 75.3533C157.986 75.251 158.019 75.1755 158.085 75.1268 158.151 75.0781 158.254 75.0537 158.396 75.0537L159.499 75.0537C159.694 75.0537 159.84 75.0963 159.937 75.1816 160.035 75.2668 160.083 75.3947 160.083 75.5652 160.083 75.76 160.023 75.8964 159.901 75.9744 159.779 76.0523 159.55 76.0913 159.214 76.0913L159.082 76.0913 159.082 81.418ZM164.38 80.775 166.806 80.775C166.996 80.775 167.136 80.8151 167.226 80.8955 167.316 80.9759 167.361 81.1038 167.361 81.2791 167.361 81.4789 167.318 81.6165 167.233 81.692 167.148 81.7675 166.991 81.8052 166.762 81.8052L161.983 81.8052C161.793 81.8052 161.65 81.7614 161.552 81.6737 161.455 81.586 161.406 81.4545 161.406 81.2791 161.406 81.1086 161.456 80.982 161.556 80.8992 161.656 80.8164 161.81 80.775 162.02 80.775L163.291 80.775 163.291 76.0913 162.794 76.0913C162.322 76.0913 162.027 76.0535 161.91 75.978 161.793 75.9025 161.735 75.7649 161.735 75.5652 161.735 75.3947 161.782 75.2668 161.877 75.1816 161.972 75.0963 162.117 75.0537 162.312 75.0537L163.978 75.0537C164.11 75.0537 164.209 75.0793 164.278 75.1304 164.346 75.1816 164.38 75.2559 164.38 75.3533L164.38 76.5955C164.843 76.0158 165.325 75.5847 165.827 75.3022 166.328 75.0196 166.869 74.8784 167.449 74.8784 167.882 74.8784 168.233 74.966 168.501 75.1414 168.769 75.3168 168.903 75.5433 168.903 75.8209 168.903 76.0012 168.836 76.1607 168.702 76.2995 168.568 76.4384 168.421 76.5078 168.26 76.5078 168.148 76.5078 167.959 76.4335 167.693 76.2849 167.428 76.1364 167.191 76.0621 166.981 76.0621 166.601 76.0621 166.2 76.1972 165.779 76.4676 165.358 76.7379 164.891 77.1654 164.38 77.7499L164.38 80.775ZM171.606 78.751C171.645 79.4524 171.883 79.9944 172.319 80.3767 172.755 80.7591 173.35 80.9503 174.105 80.9503 174.675 80.9503 175.296 80.7981 175.968 80.4937 176.641 80.1892 177.047 80.037 177.189 80.037 177.335 80.037 177.457 80.0833 177.554 80.1758 177.651 80.2684 177.7 80.3828 177.7 80.5192 177.7 80.6605 177.649 80.7896 177.547 80.9065 177.444 81.0234 177.281 81.1379 177.057 81.2499 176.57 81.4886 176.067 81.6713 175.548 81.7979 175.03 81.9246 174.514 81.9879 174.003 81.9879 172.892 81.9879 172.003 81.6676 171.336 81.027 170.669 80.3865 170.335 79.5377 170.335 78.4806 170.335 77.4041 170.688 76.5321 171.394 75.8648 172.101 75.1974 173.021 74.8637 174.156 74.8637 175.184 74.8637 176.037 75.1755 176.714 75.799 177.391 76.4225 177.729 77.1776 177.729 78.0641 177.729 78.3369 177.672 78.5196 177.558 78.6121 177.443 78.7047 177.133 78.751 176.626 78.751L171.606 78.751ZM171.643 77.7938 176.4 77.7938C176.327 77.2141 176.084 76.7477 175.673 76.3945 175.261 76.0414 174.756 75.8648 174.156 75.8648 173.509 75.8648 172.963 76.0353 172.52 76.3763 172.076 76.7172 171.784 77.1898 171.643 77.7938ZM180.586 78.751C180.625 79.4524 180.863 79.9944 181.299 80.3767 181.735 80.7591 182.33 80.9503 183.085 80.9503 183.655 80.9503 184.276 80.7981 184.949 80.4937 185.621 80.1892 186.028 80.037 186.169 80.037 186.315 80.037 186.437 80.0833 186.534 80.1758 186.632 80.2684 186.68 80.3828 186.68 80.5192 186.68 80.6605 186.629 80.7896 186.527 80.9065 186.425 81.0234 186.261 81.1379 186.037 81.2499 185.55 81.4886 185.047 81.6713 184.528 81.7979 184.01 81.9246 183.495 81.9879 182.983 81.9879 181.872 81.9879 180.983 81.6676 180.316 81.027 179.649 80.3865 179.315 79.5377 179.315 78.4806 179.315 77.4041 179.668 76.5321 180.374 75.8648 181.081 75.1974 182.001 74.8637 183.136 74.8637 184.164 74.8637 185.017 75.1755 185.694 75.799 186.371 76.4225 186.71 77.1776 186.71 78.0641 186.71 78.3369 186.652 78.5196 186.538 78.6121 186.423 78.7047 186.113 78.751 185.606 78.751L180.586 78.751ZM180.623 77.7938 185.38 77.7938C185.307 77.2141 185.064 76.7477 184.653 76.3945 184.241 76.0414 183.736 75.8648 183.136 75.8648 182.489 75.8648 181.943 76.0353 181.5 76.3763 181.056 76.7172 180.764 77.1898 180.623 77.7938ZM194.031 75.4629C194.27 75.4629 194.444 75.5043 194.553 75.5871 194.663 75.6699 194.718 75.8015 194.718 75.9817 194.718 76.1522 194.667 76.2801 194.564 76.3653 194.462 76.4505 194.309 76.4932 194.104 76.4932L191.145 76.4932 191.145 78.9336C191.145 79.7325 191.248 80.2586 191.455 80.5119 191.662 80.7652 192.017 80.8919 192.518 80.8919 192.962 80.8919 193.493 80.7628 194.111 80.5046 194.73 80.2464 195.112 80.1173 195.258 80.1173 195.395 80.1173 195.511 80.1661 195.606 80.2635 195.701 80.3609 195.748 80.4803 195.748 80.6215 195.748 80.7823 195.688 80.9223 195.569 81.0417 195.45 81.161 195.246 81.2767 194.959 81.3887 194.482 81.5787 194.052 81.7175 193.669 81.8052 193.287 81.8929 192.928 81.9367 192.591 81.9367 192.022 81.9367 191.543 81.8454 191.156 81.6627 190.768 81.4801 190.48 81.2085 190.29 80.848 190.192 80.6775 190.123 80.4754 190.082 80.2416 190.04 80.0077 190.02 79.6473 190.02 79.1602L190.02 76.4932 188.777 76.4932C188.573 76.4932 188.424 76.453 188.332 76.3726 188.239 76.2922 188.193 76.1619 188.193 75.9817 188.193 75.782 188.256 75.6456 188.383 75.5725 188.509 75.4994 188.78 75.4629 189.194 75.4629L190.02 75.4629 190.02 73.5777C190.02 73.3683 190.065 73.2136 190.155 73.1138 190.245 73.0139 190.385 72.964 190.575 72.964 190.789 72.964 190.938 73.0249 191.021 73.1466 191.103 73.2684 191.145 73.5461 191.145 73.9796L191.145 75.4629 194.031 75.4629ZM199.131 79.9347 200.388 75.5652C200.432 75.4093 200.482 75.3107 200.538 75.2693 200.594 75.2279 200.695 75.2072 200.841 75.2072L201.17 75.2072C201.311 75.2072 201.412 75.2291 201.473 75.2729 201.534 75.3168 201.586 75.4044 201.63 75.536L203.055 79.9347 203.771 74.1258 202.624 74.1258C202.4 74.1258 202.235 74.0868 202.131 74.0089 202.026 73.9309 201.973 73.8067 201.973 73.6362 201.973 73.4511 202.023 73.322 202.123 73.2489 202.223 73.1759 202.409 73.1393 202.682 73.1393L205.042 73.1393C205.149 73.1393 205.244 73.1868 205.327 73.2818 205.41 73.3768 205.452 73.4949 205.452 73.6362 205.452 73.8018 205.405 73.9248 205.313 74.0052 205.22 74.0856 205.081 74.1258 204.896 74.1258L204.809 74.1258 203.771 81.4326C203.756 81.5836 203.728 81.6834 203.687 81.7322 203.645 81.7809 203.579 81.8052 203.486 81.8052L202.967 81.8052C202.855 81.8052 202.77 81.7833 202.711 81.7395 202.653 81.6956 202.602 81.6128 202.558 81.491L200.972 76.4639 199.57 81.5056C199.535 81.6274 199.492 81.7078 199.438 81.7468 199.384 81.7857 199.297 81.8052 199.175 81.8052L198.627 81.8052C198.53 81.8052 198.458 81.7821 198.411 81.7358 198.365 81.6895 198.332 81.5836 198.313 81.418L197.202 74.1258 197.114 74.1258C196.924 74.1258 196.782 74.0844 196.687 74.0015 196.592 73.9187 196.544 73.797 196.544 73.6362 196.544 73.4901 196.583 73.3707 196.661 73.2782 196.739 73.1856 196.834 73.1393 196.946 73.1393L199.314 73.1393C199.582 73.1393 199.766 73.1759 199.865 73.2489 199.965 73.322 200.015 73.4511 200.015 73.6362 200.015 73.8067 199.963 73.9309 199.858 74.0089 199.753 74.0868 199.591 74.1258 199.372 74.1258L198.342 74.1258 199.131 79.9347ZM209.996 80.9649C210.747 80.9649 211.361 80.7275 211.841 80.2525 212.321 79.7776 212.561 79.1723 212.561 78.4368 212.561 77.7012 212.32 77.0935 211.838 76.6137 211.355 76.1339 210.742 75.894 209.996 75.894 209.251 75.894 208.638 76.1339 208.159 76.6137 207.679 77.0935 207.439 77.7012 207.439 78.4368 207.439 79.1772 207.678 79.7837 208.155 80.2562 208.632 80.7287 209.246 80.9649 209.996 80.9649ZM213.832 78.4368C213.832 79.4792 213.477 80.3317 212.766 80.9942 212.054 81.6567 211.131 81.9879 209.996 81.9879 208.866 81.9879 207.946 81.6567 207.234 80.9942 206.523 80.3317 206.168 79.4792 206.168 78.4368 206.168 77.3943 206.523 76.5431 207.234 75.883 207.946 75.223 208.866 74.893 209.996 74.893 211.126 74.893 212.048 75.2242 212.762 75.8867 213.476 76.5492 213.832 77.3992 213.832 78.4368ZM218.26 80.775 220.686 80.775C220.876 80.775 221.016 80.8151 221.106 80.8955 221.196 80.9759 221.242 81.1038 221.242 81.2791 221.242 81.4789 221.199 81.6165 221.114 81.692 221.028 81.7675 220.871 81.8052 220.642 81.8052L215.864 81.8052C215.674 81.8052 215.53 81.7614 215.433 81.6737 215.335 81.586 215.286 81.4545 215.286 81.2791 215.286 81.1086 215.336 80.982 215.436 80.8992 215.536 80.8164 215.691 80.775 215.9 80.775L217.172 80.775 217.172 76.0913 216.675 76.0913C216.202 76.0913 215.908 76.0535 215.791 75.978 215.674 75.9025 215.615 75.7649 215.615 75.5652 215.615 75.3947 215.663 75.2668 215.758 75.1816 215.853 75.0963 215.998 75.0537 216.193 75.0537L217.858 75.0537C217.99 75.0537 218.09 75.0793 218.158 75.1304 218.226 75.1816 218.26 75.2559 218.26 75.3533L218.26 76.5955C218.723 76.0158 219.205 75.5847 219.707 75.3022 220.209 75.0196 220.75 74.8784 221.329 74.8784 221.763 74.8784 222.113 74.966 222.381 75.1414 222.649 75.3168 222.783 75.5433 222.783 75.8209 222.783 76.0012 222.716 76.1607 222.582 76.2995 222.448 76.4384 222.301 76.5078 222.14 76.5078 222.028 76.5078 221.839 76.4335 221.574 76.2849 221.309 76.1364 221.071 76.0621 220.862 76.0621 220.482 76.0621 220.081 76.1972 219.66 76.4676 219.238 76.7379 218.772 77.1654 218.26 77.7499L218.26 80.775ZM227.467 73.2928 226.225 73.2928C225.752 73.2928 225.456 73.255 225.337 73.1795 225.218 73.104 225.158 72.9664 225.158 72.7667 225.158 72.5913 225.208 72.4598 225.308 72.3721 225.408 72.2844 225.553 72.2406 225.743 72.2406L228.154 72.2406C228.285 72.2406 228.388 72.2674 228.461 72.321 228.534 72.3746 228.57 72.4476 228.57 72.5402L228.57 80.775 230.865 80.775C231.05 80.775 231.185 80.8151 231.27 80.8955 231.355 80.9759 231.398 81.1038 231.398 81.2791 231.398 81.4789 231.357 81.6165 231.274 81.692 231.191 81.7675 231.035 81.8052 230.806 81.8052L225.414 81.8052C225.224 81.8052 225.079 81.7614 224.979 81.6737 224.879 81.586 224.829 81.4545 224.829 81.2791 224.829 81.1086 224.88 80.982 224.983 80.8992 225.085 80.8164 225.238 80.775 225.443 80.775L227.467 80.775 227.467 73.2928ZM239.136 81.8052C239.034 81.8052 238.962 81.7796 238.92 81.7285 238.879 81.6774 238.858 81.5787 238.858 81.4326L238.858 80.8334C238.566 81.1988 238.201 81.4825 237.762 81.6847 237.324 81.8868 236.849 81.9879 236.337 81.9879 235.417 81.9879 234.646 81.6603 234.025 81.0051 233.404 80.35 233.093 79.5352 233.093 78.561 233.093 77.5527 233.424 76.7136 234.087 76.0438 234.749 75.374 235.575 75.0391 236.564 75.0391 237.066 75.0391 237.516 75.128 237.916 75.3058 238.315 75.4836 238.659 75.7454 238.946 76.0913L238.946 73.2928 238.559 73.2928C238.135 73.2928 237.861 73.255 237.737 73.1795 237.612 73.104 237.55 72.9664 237.55 72.7667 237.55 72.5913 237.6 72.4598 237.7 72.3721 237.8 72.2844 237.945 72.2406 238.135 72.2406L239.633 72.2406C239.779 72.2406 239.885 72.265 239.951 72.3137 240.016 72.3624 240.049 72.4379 240.049 72.5402L240.049 80.775 240.378 80.775C240.617 80.775 240.79 80.8151 240.897 80.8955 241.004 80.9759 241.058 81.1038 241.058 81.2791 241.058 81.4448 241.011 81.5738 240.919 81.6664 240.826 81.7589 240.702 81.8052 240.546 81.8052L239.136 81.8052ZM234.35 78.5245C234.35 79.1967 234.567 79.7471 235 80.1758 235.434 80.6045 235.984 80.8188 236.652 80.8188 237.324 80.8188 237.877 80.5959 238.31 80.1502 238.744 79.7045 238.961 79.1382 238.961 78.4514 238.961 77.7743 238.745 77.2165 238.314 76.7781 237.883 76.3397 237.329 76.1205 236.652 76.1205 235.965 76.1205 235.409 76.3422 234.986 76.7854 234.562 77.2287 234.35 77.8084 234.35 78.5245Z" fill="#EF95EF" fill-rule="evenodd" transform="scale(1 1.00238)"/><path d="M244.418 51.8765 244.418 60.8551" stroke="#4A4A4A" stroke-width="0.997625" stroke-linecap="square" fill="none" fill-rule="evenodd" transform="matrix(-1 0 0 -1.00238 488.836 113)"/><path d="M150.641 51.8765 150.641 60.8551" stroke="#4A4A4A" stroke-width="0.997625" stroke-linecap="square" fill="none" fill-rule="evenodd" transform="matrix(-1 0 0 -1.00238 301.283 113)"/><path d="M151.639 50.8789 245.416 50.8789" stroke="#4A4A4A" stroke-width="0.997625" stroke-linecap="square" fill="none" fill-rule="evenodd" transform="matrix(-1 0 0 -1.00238 397.055 102)"/><path d="M198.527 39.905 198.527 50.8789" stroke="#4A4A4A" stroke-width="0.997625" stroke-linecap="square" fill="none" fill-rule="evenodd" transform="matrix(-1 0 0 -1.00238 397.055 91)"/><path d="M169.905 31.924 169.905 24.074 171.357 24.074 171.357 31.924 169.905 31.924ZM174.551 30.7612 175.59 30.7612C176.487 30.7612 177.169 30.5264 177.637 30.0566 178.105 29.5869 178.339 28.9019 178.339 28.0017 178.339 27.0372 178.098 26.3361 177.616 25.8985 177.134 25.4609 176.407 25.2421 175.435 25.2421L174.551 25.2421 174.551 30.7612ZM173.099 31.924 173.099 24.074 175.371 24.074C176.057 24.074 176.671 24.1526 177.214 24.3098 177.757 24.467 178.224 24.7036 178.615 25.0198 179.006 25.3359 179.306 25.7431 179.515 26.2415 179.724 26.7398 179.829 27.3158 179.829 27.9695 179.829 29.2377 179.447 30.2138 178.682 30.8979 177.918 31.582 176.859 31.924 175.505 31.924L173.099 31.924ZM181.206 31.924 181.206 24.074 185.964 24.074 185.905 25.2261 182.658 25.2261 182.658 27.2515 185.745 27.2515 185.745 28.4036 182.658 28.4036 182.658 30.7666 186.023 30.7666 185.975 31.924 181.206 31.924ZM187.379 31.924 187.379 24.074 188.922 24.074C189.201 24.5098 189.767 25.3886 190.621 26.7103 191.474 28.0321 191.994 28.8358 192.18 29.1216 192.233 29.2037 192.325 29.3422 192.456 29.5369 192.586 29.7315 192.678 29.87 192.732 29.9521 192.707 28.7268 192.694 28.091 192.694 28.0446L192.694 24.074 194.018 24.074 194.018 31.924 192.453 31.924 188.911 26.4049 188.654 25.9816C188.683 26.9247 188.697 27.5873 188.697 27.9695L188.697 31.924 187.379 31.924ZM197.222 31.924 197.222 25.2368 194.934 25.2368 194.934 24.074 200.957 24.074 200.957 25.2368 198.68 25.2368 198.68 31.924 197.222 31.924ZM201.916 31.924 201.916 24.074 203.368 24.074 203.368 31.924 201.916 31.924ZM205.104 31.924 205.104 24.074 209.75 24.074 209.696 25.2261 206.546 25.2261 206.546 27.4551 209.541 27.4551 209.541 28.5965 206.546 28.5965 206.546 31.924 205.104 31.924ZM211.052 31.924 211.052 24.074 212.504 24.074 212.504 31.924 211.052 31.924ZM214.24 31.924 214.24 24.074 218.998 24.074 218.939 25.2261 215.692 25.2261 215.692 27.2515 218.779 27.2515 218.779 28.4036 215.692 28.4036 215.692 30.7666 219.057 30.7666 219.009 31.924 214.24 31.924ZM220.375 31.924 220.375 24.0526 223.285 24.0526C223.682 24.0526 224.025 24.0705 224.316 24.1062 224.608 24.1419 224.884 24.2071 225.147 24.3018 225.41 24.3964 225.622 24.5241 225.785 24.6849 225.947 24.8456 226.076 25.0555 226.17 25.3145 226.265 25.5735 226.312 25.8798 226.312 26.2334 226.312 27.2765 225.839 27.9624 224.893 28.291 225.085 28.5089 225.325 28.9126 225.611 29.502L226.779 31.924 225.193 31.924 224.276 29.8717C223.93 29.1359 223.715 28.7001 223.633 28.5643 223.573 28.5607 223.371 28.559 223.028 28.559L221.811 28.5482 221.811 31.924 220.375 31.924ZM223.414 27.5087C223.971 27.5087 224.371 27.4096 224.614 27.2113 224.857 27.0131 224.978 26.6943 224.978 26.2549 224.978 25.8691 224.855 25.5851 224.609 25.4029 224.362 25.2207 223.985 25.1296 223.478 25.1296L221.811 25.1296 221.811 27.5034C221.865 27.5034 222.131 27.5043 222.61 27.506 223.089 27.5078 223.356 27.5087 223.414 27.5087Z" fill="#4A4A4A" fill-rule="evenodd" transform="scale(1 1.00238)"/><path d="M247.4 73.2124C247.4 73.3147 247.318 73.5351 247.155 73.8737 246.992 74.2122 246.869 74.4814 246.786 74.6811 246.455 75.4556 246.22 76.1644 246.081 76.8074 245.942 77.4504 245.873 78.1177 245.873 78.8094 245.873 79.4476 245.931 80.065 246.048 80.6617 246.165 81.2584 246.343 81.8539 246.582 82.4482 246.703 82.7697 246.87 83.1485 247.082 83.5844 247.294 84.0204 247.4 84.2895 247.4 84.3918 247.4 84.499 247.377 84.583 247.331 84.6439 247.284 84.7048 247.222 84.7353 247.144 84.7353 246.993 84.7353 246.825 84.6561 246.64 84.4978 246.455 84.3395 246.241 84.085 245.997 83.7342 245.476 82.9889 245.086 82.2071 244.828 81.3887 244.57 80.5704 244.441 79.7106 244.441 78.8094 244.441 77.9862 244.547 77.2007 244.759 76.453 244.97 75.7052 245.293 74.9807 245.727 74.2792 246.009 73.8164 246.27 73.4681 246.509 73.2343 246.747 73.0005 246.959 72.8836 247.144 72.8836 247.222 72.8836 247.284 72.914 247.331 72.9749 247.377 73.0358 247.4 73.115 247.4 73.2124Z" fill="#9B9B9B" transform="scale(1 1.00238)"/><path d="M253.406 84.3918C253.406 84.2944 253.489 84.0789 253.655 83.7452 253.82 83.4115 253.947 83.1448 254.035 82.9451 254.361 82.1657 254.595 81.4533 254.736 80.8078 254.877 80.1624 254.948 79.4963 254.948 78.8094 254.948 78.1859 254.888 77.5734 254.769 76.9718 254.65 76.3702 254.468 75.7674 254.225 75.1633 254.098 74.8418 253.93 74.4631 253.72 74.0271 253.511 73.5911 253.406 73.3196 253.406 73.2124 253.406 73.115 253.431 73.0358 253.479 72.9749 253.528 72.914 253.591 72.8836 253.669 72.8836 253.83 72.8836 254.002 72.9628 254.184 73.1211 254.367 73.2794 254.58 73.5315 254.824 73.8773 255.345 74.6178 255.735 75.3996 255.993 76.2228 256.251 77.0461 256.38 77.9082 256.38 78.8094 256.38 79.6327 256.272 80.4194 256.055 81.1695 255.838 81.9197 255.513 82.6455 255.079 83.347 254.777 83.8243 254.513 84.1751 254.287 84.3991 254.06 84.6232 253.854 84.7353 253.669 84.7353 253.591 84.7353 253.528 84.7036 253.479 84.6403 253.431 84.5769 253.406 84.4941 253.406 84.3918Z" fill="#9B9B9B" transform="scale(1 1.00238)"/><path d="M262.964 80.0224C263.007 79.8616 263.058 79.7593 263.117 79.7155 263.175 79.6716 263.275 79.6497 263.417 79.6497L264.929 79.6497C264.992 79.6497 265.045 79.6643 265.086 79.6936 265.128 79.7228 265.148 79.7593 265.148 79.8032 265.148 79.8178 265.143 79.8446 265.134 79.8835 265.124 79.9225 265.109 79.959 265.09 79.9931L263.205 83.9169C263.166 83.9948 263.123 84.0509 263.077 84.085 263.03 84.119 262.973 84.1361 262.905 84.1361 262.866 84.1361 262.836 84.1349 262.814 84.1324 262.792 84.13 262.774 84.1264 262.759 84.1215L262.277 83.9461C262.204 83.9169 262.149 83.8804 262.112 83.8365 262.076 83.7927 262.057 83.744 262.057 83.6904 262.057 83.6709 262.059 83.649 262.061 83.6246 262.064 83.6003 262.072 83.5613 262.087 83.5077L262.964 80.0224Z" fill="#9B9B9B" transform="scale(1 1.00238)"/><path d="M262.401 76.5662C262.401 76.1863 262.534 75.8745 262.799 75.631 263.065 75.3874 263.409 75.2656 263.833 75.2656 264.267 75.2656 264.617 75.3862 264.885 75.6273 265.153 75.8684 265.287 76.1814 265.287 76.5662 265.287 76.9511 265.153 77.264 264.885 77.5052 264.617 77.7463 264.267 77.8669 263.833 77.8669 263.404 77.8669 263.058 77.7475 262.795 77.5088 262.532 77.2701 262.401 76.9559 262.401 76.5662Z" fill="#9B9B9B" transform="scale(1 1.00238)"/></g></svg>