<svg width="420" height="187" xmlns="http://www.w3.org/2000/svg" xmlns:xlink="http://www.w3.org/1999/xlink" overflow="hidden"><defs><clipPath id="clip0"><rect x="0" y="0" width="420" height="187"/></clipPath></defs><g clip-path="url(#clip0)"><path d="M0 0 420 0 420 186.556 0 186.556Z" fill="#FFFFFF" fill-rule="evenodd" transform="scale(1 1.00238)"/><path d="M84.056 91.5983 85.2835 91.5983C85.4248 91.5983 85.5393 91.6373 85.6269 91.7152 85.7146 91.7932 85.7585 91.8979 85.7585 92.0294 85.7585 92.1707 85.7171 92.2839 85.6342 92.3692 85.5514 92.4544 85.4394 92.4971 85.2981 92.4971L83.3326 92.4971C83.1816 92.4971 83.0549 92.4508 82.9526 92.3582 82.8503 92.2657 82.7992 92.1512 82.7992 92.0148L82.7992 81.6026C82.7992 81.4662 82.8503 81.3517 82.9526 81.2592 83.0549 81.1666 83.1816 81.1203 83.3326 81.1203L85.2981 81.1203C85.4394 81.1203 85.5514 81.1605 85.6342 81.2409 85.7171 81.3213 85.7585 81.4321 85.7585 81.5734 85.7585 81.7049 85.7146 81.812 85.6269 81.8949 85.5393 81.9777 85.4248 82.0191 85.2835 82.0191L84.056 82.0191 84.056 91.5983ZM245.054 87.7476C245.093 87.582 245.145 87.4761 245.208 87.4298 245.271 87.3835 245.378 87.3604 245.529 87.3604L247.13 87.3604C247.203 87.3604 247.261 87.375 247.305 87.4042 247.349 87.4334 247.371 87.47 247.371 87.5138 247.371 87.5382 247.366 87.5698 247.356 87.6088 247.346 87.6478 247.332 87.6843 247.312 87.7184L245.303 91.8979C245.269 91.971 245.223 92.0294 245.164 92.0733 245.106 92.1171 245.042 92.139 244.974 92.139 244.959 92.139 244.944 92.1366 244.927 92.1317 244.91 92.1268 244.882 92.1171 244.843 92.1025L244.331 91.9125C244.253 91.8784 244.195 91.8394 244.156 91.7956 244.117 91.7518 244.097 91.7006 244.097 91.6422L244.097 91.5289C244.097 91.507 244.102 91.4838 244.112 91.4595L245.054 87.7476ZM280.975 87.7476C281.014 87.582 281.065 87.4761 281.128 87.4298 281.192 87.3835 281.299 87.3604 281.45 87.3604L283.05 87.3604C283.123 87.3604 283.181 87.375 283.225 87.4042 283.269 87.4334 283.291 87.47 283.291 87.5138 283.291 87.5382 283.286 87.5698 283.276 87.6088 283.267 87.6478 283.252 87.6843 283.233 87.7184L281.223 91.8979C281.189 91.971 281.143 92.0294 281.084 92.0733 281.026 92.1171 280.963 92.139 280.894 92.139 280.88 92.139 280.864 92.1366 280.847 92.1317 280.83 92.1268 280.802 92.1171 280.763 92.1025L280.251 91.9125C280.173 91.8784 280.115 91.8394 280.076 91.7956 280.037 91.7518 280.018 91.7006 280.018 91.6422L280.018 91.5289C280.018 91.507 280.022 91.4838 280.032 91.4595L280.975 87.7476ZM335.944 82.0191 334.716 82.0191C334.57 82.0191 334.455 81.9789 334.369 81.8985 334.284 81.8181 334.242 81.7097 334.242 81.5734 334.242 81.4321 334.282 81.3213 334.362 81.2409 334.442 81.1605 334.556 81.1203 334.702 81.1203L336.66 81.1203C336.816 81.1203 336.945 81.1666 337.047 81.2592 337.15 81.3517 337.201 81.4662 337.201 81.6026L337.201 92.0148C337.201 92.1512 337.15 92.2657 337.047 92.3582 336.945 92.4508 336.816 92.4971 336.66 92.4971L334.702 92.4971C334.561 92.4971 334.449 92.4544 334.366 92.3692 334.283 92.2839 334.242 92.1707 334.242 92.0294 334.242 91.893 334.284 91.7871 334.369 91.7116 334.455 91.6361 334.57 91.5983 334.716 91.5983L335.944 91.5983 335.944 82.0191Z" fill="#9B9B9B" fill-rule="evenodd" transform="scale(1 1.00238)"/><path d="M14.9644 11.9715 14.9644 22.9454" stroke="#4A4A4A" stroke-width="0.997625" stroke-linecap="square" fill="none" fill-rule="evenodd" transform="matrix(-1 0 0 -1.00238 290.309 85)"/><path d="M0.997625 11.9715C0.997625 11.9715 0.997625 15.6295 0.997625 22.9454" stroke="#4A4A4A" stroke-width="0.997625" stroke-linecap="square" fill="none" fill-rule="evenodd" transform="matrix(-1 0 0 -1.00238 262.375 85)"/><path d="M0.997625 10.9739 14.9644 10.9739" stroke="#4A4A4A" stroke-width="0.997625" stroke-linecap="square" fill="none" fill-rule="evenodd" transform="matrix(-1 0 0 -1.00238 276.342 72)"/><path d="M7.981 0.498812 7.981 10.9739" stroke="#4A4A4A" stroke-width="0.997625" stroke-linecap="square" fill="none" fill-rule="evenodd" transform="matrix(-1 0 0 -1.00238 276.342 61.5)"/><path d="M160.064 43.8955 160.064 36.0455 161.516 36.0455 161.516 43.8955 160.064 43.8955ZM163.252 43.8955 163.252 36.0455 164.795 36.0455C165.074 36.4813 165.64 37.3601 166.494 38.6818 167.348 40.0036 167.867 40.8073 168.053 41.0931 168.107 41.1752 168.199 41.3137 168.329 41.5083 168.46 41.703 168.552 41.8415 168.605 41.9236 168.58 40.6983 168.568 40.0625 168.568 40.0161L168.568 36.0455 169.891 36.0455 169.891 43.8955 168.327 43.8955 164.785 38.3764 164.527 37.9531C164.556 38.8962 164.57 39.5588 164.57 39.941L164.57 43.8955 163.252 43.8955ZM173.036 42.7327 174.076 42.7327C174.973 42.7327 175.655 42.4979 176.123 42.0281 176.591 41.5584 176.825 40.8734 176.825 39.9732 176.825 39.0087 176.584 38.3076 176.101 37.87 175.619 37.4324 174.892 37.2136 173.921 37.2136L173.036 37.2136 173.036 42.7327ZM171.584 43.8955 171.584 36.0455 173.856 36.0455C174.542 36.0455 175.157 36.1241 175.7 36.2813 176.243 36.4385 176.71 36.6751 177.101 36.9913 177.492 37.3074 177.792 37.7146 178.001 38.213 178.21 38.7113 178.314 39.2873 178.314 39.941 178.314 41.2092 177.932 42.1853 177.168 42.8694 176.403 43.5535 175.344 43.8955 173.99 43.8955L171.584 43.8955ZM179.729 43.8955 179.729 36.0455 181.181 36.0455 181.181 43.8955 179.729 43.8955ZM184.894 43.8955 182.038 36.0455 183.533 36.0455 185.195 40.8948C185.259 41.0627 185.407 41.5539 185.639 42.3684 185.654 42.3112 185.72 42.0763 185.838 41.6637 185.955 41.2511 186.032 40.9984 186.068 40.9055 186.111 40.7841 186.382 39.9777 186.882 38.4862 187.383 36.9948 187.656 36.1813 187.702 36.0455L189.181 36.0455 186.363 43.8955 184.894 43.8955ZM190.033 43.8955 190.033 36.0455 191.485 36.0455 191.485 43.8955 190.033 43.8955ZM194.679 42.7327 195.718 42.7327C196.615 42.7327 197.297 42.4979 197.765 42.0281 198.233 41.5584 198.467 40.8734 198.467 39.9732 198.467 39.0087 198.226 38.3076 197.744 37.87 197.262 37.4324 196.535 37.2136 195.563 37.2136L194.679 37.2136 194.679 42.7327ZM193.227 43.8955 193.227 36.0455 195.499 36.0455C196.185 36.0455 196.799 36.1241 197.342 36.2813 197.885 36.4385 198.352 36.6751 198.743 36.9913 199.134 37.3074 199.434 37.7146 199.643 38.213 199.852 38.7113 199.957 39.2873 199.957 39.941 199.957 41.2092 199.575 42.1853 198.81 42.8694 198.046 43.5535 196.986 43.8955 195.633 43.8955L193.227 43.8955ZM204.399 44.008C203.37 44.008 202.589 43.7517 202.057 43.2391 201.525 42.7265 201.259 42.004 201.259 41.0716L201.259 36.0455 202.716 36.0455 202.716 40.9484C202.716 41.6021 202.849 42.079 203.116 42.3791 203.382 42.6791 203.818 42.8292 204.426 42.8292 205.022 42.8292 205.454 42.6783 205.722 42.3764 205.99 42.0745 206.124 41.5968 206.124 40.943L206.124 36.0455 207.576 36.0455 207.576 41.0824C207.576 42.0076 207.305 42.7265 206.762 43.2391 206.219 43.7517 205.431 44.008 204.399 44.008ZM208.241 43.8955 211.129 36.0402 212.71 36.0402 215.555 43.8955 214.065 43.8955 213.288 41.6771 210.539 41.6771 209.757 43.8955 208.241 43.8955ZM210.904 40.5948 212.919 40.5948C212.276 38.5336 211.945 37.4691 211.927 37.4012L210.904 40.5948ZM216.337 43.8955 216.337 36.0455 217.789 36.0455 217.789 42.7381 221.074 42.7381 221.031 43.8955 216.337 43.8955ZM224.112 43.8955 227 36.0402 228.581 36.0402 231.426 43.8955 229.937 43.8955 229.16 41.6771 226.411 41.6771 225.629 43.8955 224.112 43.8955ZM226.775 40.5948 228.79 40.5948C228.147 38.5336 227.817 37.4691 227.799 37.4012L226.775 40.5948ZM232.171 43.8955 232.171 36.0241 235.081 36.0241C235.477 36.0241 235.821 36.042 236.112 36.0777 236.403 36.1134 236.68 36.1786 236.943 36.2733 237.205 36.3679 237.418 36.4956 237.58 36.6564 237.743 36.8171 237.871 37.027 237.966 37.286 238.061 37.545 238.108 37.8513 238.108 38.2049 238.108 39.248 237.635 39.9339 236.688 40.2625 236.881 40.4804 237.12 40.8841 237.406 41.4735L238.574 43.8955 236.988 43.8955 236.072 41.8432C235.725 41.1074 235.511 40.6716 235.429 40.5358 235.368 40.5322 235.166 40.5305 234.823 40.5305L233.607 40.5197 233.607 43.8955 232.171 43.8955ZM235.209 39.4802C235.767 39.4802 236.167 39.3811 236.41 39.1828 236.652 38.9846 236.774 38.6658 236.774 38.2264 236.774 37.8406 236.651 37.5566 236.404 37.3744 236.158 37.1922 235.781 37.1011 235.274 37.1011L233.607 37.1011 233.607 39.4749C233.661 39.4749 233.927 39.4758 234.406 39.4775 234.884 39.4793 235.152 39.4802 235.209 39.4802ZM239.582 43.8955 239.582 36.0241 242.491 36.0241C242.888 36.0241 243.232 36.042 243.523 36.0777 243.814 36.1134 244.091 36.1786 244.353 36.2733 244.616 36.3679 244.828 36.4956 244.991 36.6564 245.153 36.8171 245.282 37.027 245.377 37.286 245.471 37.545 245.519 37.8513 245.519 38.2049 245.519 39.248 245.045 39.9339 244.099 40.2625 244.292 40.4804 244.531 40.8841 244.817 41.4735L245.985 43.8955 244.399 43.8955 243.483 41.8432C243.136 41.1074 242.922 40.6716 242.84 40.5358 242.779 40.5322 242.577 40.5305 242.234 40.5305L241.018 40.5197 241.018 43.8955 239.582 43.8955ZM242.62 39.4802C243.177 39.4802 243.577 39.3811 243.82 39.1828 244.063 38.9846 244.184 38.6658 244.184 38.2264 244.184 37.8406 244.061 37.5566 243.815 37.3744 243.568 37.1922 243.191 37.1011 242.684 37.1011L241.018 37.1011 241.018 39.4749C241.071 39.4749 241.337 39.4758 241.816 39.4775 242.295 39.4793 242.563 39.4802 242.62 39.4802ZM246.226 43.8955 249.114 36.0402 250.695 36.0402 253.54 43.8955 252.051 43.8955 251.274 41.6771 248.525 41.6771 247.742 43.8955 246.226 43.8955ZM248.889 40.5948 250.904 40.5948C250.261 38.5336 249.93 37.4691 249.913 37.4012L248.889 40.5948ZM255.7 43.8955 255.7 40.7823 252.983 36.0455 254.558 36.0455 256.428 39.4427 258.309 36.0455 259.863 36.0455 257.157 40.7555 257.157 43.8955 255.7 43.8955ZM263.539 43.8955 263.539 36.0455 268.297 36.0455 268.238 37.1976 264.991 37.1976 264.991 39.223 268.077 39.223 268.077 40.3751 264.991 40.3751 264.991 42.7381 268.356 42.7381 268.308 43.8955 263.539 43.8955ZM269.712 43.8955 269.712 36.0455 271.164 36.0455 271.164 42.7381 274.448 42.7381 274.405 43.8955 269.712 43.8955ZM275.45 43.8955 275.45 36.0455 280.209 36.0455 280.15 37.1976 276.902 37.1976 276.902 39.223 279.989 39.223 279.989 40.3751 276.902 40.3751 276.902 42.7381 280.268 42.7381 280.219 43.8955 275.45 43.8955ZM281.623 43.8955 281.623 36.0455 283.338 36.0455 285.712 41.7146 288.101 36.0455 289.795 36.0455 289.795 43.8955 288.455 43.8955 288.455 40.0161 288.498 37.7923 288.3 38.3818 286.29 43.3597 285.047 43.3597 283.081 38.355 282.882 37.7655 282.931 40.0375 282.931 43.8955 281.623 43.8955ZM291.488 43.8955 291.488 36.0455 296.246 36.0455 296.187 37.1976 292.94 37.1976 292.94 39.223 296.026 39.223 296.026 40.3751 292.94 40.3751 292.94 42.7381 296.305 42.7381 296.257 43.8955 291.488 43.8955ZM297.661 43.8955 297.661 36.0455 299.204 36.0455C299.483 36.4813 300.049 37.3601 300.902 38.6818 301.756 40.0036 302.276 40.8073 302.462 41.0931 302.515 41.1752 302.607 41.3137 302.738 41.5083 302.868 41.703 302.96 41.8415 303.014 41.9236 302.989 40.6983 302.976 40.0625 302.976 40.0161L302.976 36.0455 304.3 36.0455 304.3 43.8955 302.735 43.8955 299.193 38.3764 298.936 37.9531C298.965 38.8962 298.979 39.5588 298.979 39.941L298.979 43.8955 297.661 43.8955ZM307.504 43.8955 307.504 37.2083 305.216 37.2083 305.216 36.0455 311.239 36.0455 311.239 37.2083 308.961 37.2083 308.961 43.8955 307.504 43.8955ZM314.363 44.0027C313.416 44.0027 312.568 43.7848 311.817 43.3489L312.171 42.1969C312.507 42.3827 312.872 42.5327 313.267 42.647 313.662 42.7613 314.046 42.8185 314.422 42.8185 314.882 42.8185 315.231 42.7193 315.466 42.5211 315.702 42.3228 315.82 42.0379 315.82 41.6664 315.82 41.1734 315.491 40.8323 314.834 40.643 314.788 40.6287 314.657 40.5903 314.443 40.5278 314.229 40.4653 314.028 40.4045 313.84 40.3456 313.653 40.2866 313.518 40.2411 313.436 40.209 312.382 39.8374 311.855 39.1444 311.855 38.1299 311.855 37.419 312.108 36.8707 312.613 36.4849 313.119 36.0991 313.789 35.9062 314.625 35.9062 315.572 35.9062 316.388 36.1009 317.074 36.4903L316.635 37.5512C315.934 37.2369 315.284 37.0797 314.684 37.0797 314.252 37.0797 313.926 37.1556 313.706 37.3074 313.487 37.4592 313.37 37.712 313.355 38.0656 313.355 38.5014 313.571 38.7854 314.004 38.9176 314.089 38.9497 314.3 39.0194 314.636 39.1266 314.972 39.2337 315.19 39.3034 315.29 39.3355 316.008 39.5713 316.521 39.8642 316.83 40.2143 317.139 40.5644 317.294 41.052 317.294 41.6771 317.294 42.4237 317.029 42.998 316.501 43.3998 315.972 43.8017 315.259 44.0027 314.363 44.0027Z" fill="#4A4A4A" fill-rule="evenodd" transform="scale(1 1.00238)"/><path d="M36.9121 10.9739 36.9121 21.4489" stroke="#4A4A4A" stroke-width="0.997625" stroke-linecap="square" fill="none" fill-rule="evenodd" transform="matrix(-1 0 0 -1.00238 369.121 83.5)"/><path d="M0.997625 10.9739 0.997625 21.4489" stroke="#4A4A4A" stroke-width="0.997625" stroke-linecap="square" fill="none" fill-rule="evenodd" transform="matrix(-1 0 0 -1.00238 297.292 83.5)"/><path d="M0.997625 9.97625 36.9121 9.97625" stroke="#4A4A4A" stroke-width="0.997625" stroke-linecap="square" fill="none" fill-rule="evenodd" transform="matrix(-1 0 0 -1.00238 333.207 71)"/><path d="M18.9549 0 18.9549 10.4751" stroke="#4A4A4A" stroke-width="0.997625" stroke-linecap="square" fill="none" fill-rule="evenodd" transform="matrix(-1 0 0 -1.00238 333.207 61.5)"/><path d="M151.639 11.9715 151.639 22.4466" stroke="#4A4A4A" stroke-width="0.997625" stroke-linecap="square" fill="none" fill-rule="evenodd" transform="matrix(-1 0 0 -1.00238 392.066 84.5)"/><path d="M0.997625 11.9715 0.997625 22.4466" stroke="#4A4A4A" stroke-width="0.997625" stroke-linecap="square" fill="none" fill-rule="evenodd" transform="matrix(-1 0 0 -1.00238 90.7839 84.5)"/><path d="M1.07556 10.9739 151.653 10.9739" stroke="#4A4A4A" stroke-width="0.997625" stroke-linecap="square" fill="none" fill-rule="evenodd" transform="matrix(-1 0 0 -1.00238 241.517 72)"/><path d="M75.8195 0.498812 75.8195 10.9739" stroke="#4A4A4A" stroke-width="0.997625" stroke-linecap="square" fill="none" fill-rule="evenodd" transform="matrix(-1 0 0 -1.00238 240.428 61.5)"/><path d="M162.547 153.741C161.6 153.741 160.752 153.523 160.001 153.088L160.355 151.936C160.691 152.121 161.056 152.271 161.451 152.386 161.846 152.5 162.23 152.557 162.606 152.557 163.066 152.557 163.415 152.458 163.65 152.26 163.886 152.062 164.004 151.777 164.004 151.405 164.004 150.912 163.675 150.571 163.018 150.382 162.972 150.367 162.841 150.329 162.627 150.266 162.413 150.204 162.212 150.143 162.024 150.084 161.837 150.025 161.702 149.98 161.62 149.948 160.566 149.576 160.039 148.883 160.039 147.869 160.039 147.158 160.292 146.609 160.797 146.224 161.303 145.838 161.973 145.645 162.809 145.645 163.756 145.645 164.572 145.84 165.258 146.229L164.819 147.29C164.118 146.976 163.468 146.818 162.868 146.818 162.436 146.818 162.11 146.894 161.89 147.046 161.67 147.198 161.553 147.451 161.539 147.804 161.539 148.24 161.755 148.524 162.188 148.656 162.273 148.688 162.484 148.758 162.82 148.865 163.156 148.972 163.374 149.042 163.474 149.074 164.192 149.31 164.705 149.603 165.014 149.953 165.323 150.303 165.478 150.791 165.478 151.416 165.478 152.162 165.213 152.737 164.685 153.139 164.156 153.54 163.443 153.741 162.547 153.741ZM172.577 156.195C172.281 155.981 171.946 155.628 171.573 155.135 171.199 154.642 170.895 154.172 170.659 153.725 170.473 153.74 170.329 153.747 170.225 153.747 169.043 153.747 168.109 153.389 167.425 152.672 166.741 151.956 166.399 150.968 166.399 149.707 166.399 148.438 166.742 147.449 167.428 146.738 168.114 146.027 169.048 145.672 170.23 145.672 171.413 145.672 172.345 146.028 173.027 146.741 173.71 147.453 174.051 148.444 174.051 149.712 174.051 150.612 173.871 151.379 173.51 152.013 173.149 152.647 172.638 153.111 171.977 153.404 172.524 154.29 173.035 154.951 173.51 155.386L172.577 156.195ZM170.23 152.563C170.991 152.563 171.566 152.315 171.953 151.82 172.341 151.326 172.535 150.626 172.535 149.723 172.535 148.808 172.341 148.099 171.953 147.595 171.566 147.092 170.993 146.84 170.236 146.84 169.475 146.84 168.899 147.093 168.508 147.598 168.117 148.104 167.921 148.812 167.921 149.723 167.921 150.623 168.116 151.321 168.505 151.818 168.894 152.314 169.47 152.563 170.23 152.563ZM178.493 153.747C177.464 153.747 176.684 153.49 176.151 152.978 175.619 152.465 175.353 151.743 175.353 150.81L175.353 145.784 176.81 145.784 176.81 150.687C176.81 151.341 176.944 151.818 177.21 152.118 177.476 152.418 177.912 152.568 178.52 152.568 179.116 152.568 179.549 152.417 179.816 152.115 180.084 151.813 180.218 151.335 180.218 150.682L180.218 145.784 181.67 145.784 181.67 150.821C181.67 151.746 181.399 152.465 180.856 152.978 180.313 153.49 179.525 153.747 178.493 153.747ZM182.335 153.634 185.223 145.779 186.804 145.779 189.649 153.634 188.159 153.634 187.382 151.416 184.634 151.416 183.851 153.634 182.335 153.634ZM184.998 150.333 187.013 150.333C186.37 148.272 186.039 147.208 186.021 147.14L184.998 150.333ZM190.394 153.634 190.394 145.763 193.303 145.763C193.7 145.763 194.044 145.781 194.335 145.816 194.626 145.852 194.903 145.917 195.165 146.012 195.428 146.107 195.641 146.234 195.803 146.395 195.966 146.556 196.094 146.766 196.189 147.025 196.284 147.284 196.331 147.59 196.331 147.944 196.331 148.987 195.858 149.673 194.911 150.001 195.104 150.219 195.343 150.623 195.629 151.212L196.797 153.634 195.211 153.634 194.295 151.582C193.948 150.846 193.734 150.41 193.652 150.275 193.591 150.271 193.389 150.269 193.046 150.269L191.83 150.258 191.83 153.634 190.394 153.634ZM193.432 149.219C193.989 149.219 194.389 149.12 194.632 148.922 194.875 148.723 194.997 148.404 194.997 147.965 194.997 147.579 194.873 147.295 194.627 147.113 194.38 146.931 194.004 146.84 193.496 146.84L191.83 146.84 191.83 149.214C191.883 149.214 192.15 149.214 192.628 149.216 193.107 149.218 193.375 149.219 193.432 149.219ZM197.842 153.634 197.842 145.784 202.6 145.784 202.541 146.936 199.294 146.936 199.294 148.962 202.38 148.962 202.38 150.114 199.294 150.114 199.294 152.477 202.659 152.477 202.611 153.634 197.842 153.634ZM206.914 153.634 206.914 145.784 209.362 145.784C210.402 145.784 211.177 145.936 211.688 146.24 212.199 146.543 212.454 147.049 212.454 147.756 212.454 147.87 212.447 147.983 212.433 148.094 212.418 148.204 212.386 148.33 212.336 148.471 212.286 148.613 212.22 148.74 212.138 148.855 212.056 148.969 211.941 149.081 211.795 149.189 211.649 149.298 211.477 149.383 211.281 149.444 211.766 149.562 212.138 149.788 212.395 150.122 212.652 150.456 212.781 150.868 212.781 151.357 212.781 152.096 212.519 152.661 211.996 153.05 211.473 153.44 210.748 153.634 209.823 153.634L206.914 153.634ZM208.366 152.584 209.625 152.584C210.739 152.584 211.297 152.148 211.297 151.277 211.297 150.837 211.157 150.521 210.879 150.328 210.6 150.135 210.17 150.039 209.587 150.039L208.366 150.039 208.366 152.584ZM208.366 149.026 209.609 149.026C210.57 149.026 211.05 148.66 211.05 147.928 211.05 147.517 210.912 147.235 210.635 147.081 210.358 146.927 209.918 146.851 209.314 146.851L208.366 146.851 208.366 149.026ZM214.019 153.634 214.019 145.763 216.928 145.763C217.325 145.763 217.669 145.781 217.96 145.816 218.251 145.852 218.528 145.917 218.79 146.012 219.053 146.107 219.265 146.234 219.428 146.395 219.591 146.556 219.719 146.766 219.814 147.025 219.908 147.284 219.956 147.59 219.956 147.944 219.956 148.987 219.482 149.673 218.536 150.001 218.729 150.219 218.968 150.623 219.254 151.212L220.422 153.634 218.836 153.634 217.92 151.582C217.573 150.846 217.359 150.41 217.277 150.275 217.216 150.271 217.014 150.269 216.671 150.269L215.455 150.258 215.455 153.634 214.019 153.634ZM217.057 149.219C217.614 149.219 218.014 149.12 218.257 148.922 218.5 148.723 218.622 148.404 218.622 147.965 218.622 147.579 218.498 147.295 218.252 147.113 218.005 146.931 217.628 146.84 217.121 146.84L215.455 146.84 215.455 149.214C215.508 149.214 215.774 149.214 216.253 149.216 216.732 149.218 217 149.219 217.057 149.219ZM220.663 153.634 223.551 145.779 225.132 145.779 227.977 153.634 226.488 153.634 225.711 151.416 222.962 151.416 222.179 153.634 220.663 153.634ZM223.326 150.333 225.341 150.333C224.698 148.272 224.367 147.208 224.35 147.14L223.326 150.333ZM232.167 153.747C231.021 153.747 230.112 153.386 229.44 152.664 228.768 151.943 228.433 150.946 228.433 149.674 228.433 148.467 228.784 147.498 229.486 146.768 230.188 146.037 231.106 145.672 232.242 145.672 233.161 145.672 233.937 145.884 234.573 146.309L234.118 147.408C233.507 147.033 232.893 146.845 232.275 146.845 231.553 146.845 230.982 147.105 230.563 147.625 230.143 148.145 229.933 148.842 229.933 149.717 229.933 150.625 230.136 151.327 230.541 151.823 230.947 152.32 231.524 152.568 232.275 152.568 232.932 152.568 233.584 152.404 234.23 152.075L234.423 153.211C233.823 153.568 233.071 153.747 232.167 153.747ZM235.709 153.634 235.709 145.784 237.167 145.784 237.167 149.321C237.42 148.985 237.939 148.358 238.723 147.44 239.507 146.522 239.975 145.97 240.125 145.784L241.845 145.784 238.876 149.315 242.032 153.634 240.328 153.634 237.767 150.114 237.167 150.617 237.167 153.634 235.709 153.634ZM242.632 153.634 242.632 145.784 247.39 145.784 247.332 146.936 244.084 146.936 244.084 148.962 247.171 148.962 247.171 150.114 244.084 150.114 244.084 152.477 247.449 152.477 247.401 153.634 242.632 153.634ZM250.321 153.634 250.321 146.947 248.033 146.947 248.033 145.784 254.056 145.784 254.056 146.947 251.779 146.947 251.779 153.634 250.321 153.634ZM257.18 153.741C256.233 153.741 255.385 153.523 254.635 153.088L254.989 151.936C255.324 152.121 255.69 152.271 256.084 152.386 256.479 152.5 256.864 152.557 257.239 152.557 257.7 152.557 258.048 152.458 258.284 152.26 258.52 152.062 258.638 151.777 258.638 151.405 258.638 150.912 258.309 150.571 257.652 150.382 257.605 150.367 257.475 150.329 257.261 150.266 257.046 150.204 256.845 150.143 256.658 150.084 256.47 150.025 256.335 149.98 256.253 149.948 255.199 149.576 254.672 148.883 254.672 147.869 254.672 147.158 254.925 146.609 255.431 146.224 255.936 145.838 256.607 145.645 257.443 145.645 258.389 145.645 259.206 145.84 259.891 146.229L259.452 147.29C258.752 146.976 258.102 146.818 257.502 146.818 257.069 146.818 256.743 146.894 256.524 147.046 256.304 147.198 256.187 147.451 256.173 147.804 256.173 148.24 256.389 148.524 256.821 148.656 256.907 148.688 257.118 148.758 257.453 148.865 257.789 148.972 258.007 149.042 258.107 149.074 258.825 149.31 259.339 149.603 259.648 149.953 259.957 150.303 260.111 150.791 260.111 151.416 260.111 152.162 259.847 152.737 259.318 153.139 258.789 153.54 258.077 153.741 257.18 153.741Z" fill="#4A4A4A" fill-rule="evenodd" transform="scale(1 1.00238)"/><path d="M336.2 125.701 82.8028 125.701" stroke="#4A4A4A" stroke-width="0.997625" stroke-linecap="square" fill="none" fill-rule="evenodd" transform="scale(1 1.00238)"/><path d="M210.499 126.698 210.499 138.67" stroke="#4A4A4A" stroke-width="0.997625" stroke-linecap="square" fill="none" fill-rule="evenodd" transform="matrix(-1 0 0 -1.00238 420.998 266)"/><path d="M83.3017 100.76 78.8123 109.739 87.791 109.739 83.3017 100.76ZM83.8005 124.204 83.8005 109.24 83.8005 108.741 82.8028 108.741 82.8028 109.24 82.8028 124.204 82.8028 124.703 83.8005 124.703 83.8005 124.204Z" fill="#4A4A4A" transform="scale(1 1.00238)"/><path d="M336.449 100.76 331.96 109.739 340.938 109.739 336.449 100.76ZM336.948 124.204 336.948 109.24 336.948 108.741 335.95 108.741 335.95 109.24 335.95 124.204 335.95 124.703 336.948 124.703 336.948 124.204Z" fill="#4A4A4A" transform="scale(1 1.00238)"/><path d="M301.792 83.4439C302.031 83.4439 302.205 83.4853 302.314 83.5681 302.424 83.6509 302.479 83.7824 302.479 83.9627 302.479 84.1332 302.428 84.261 302.325 84.3463 302.223 84.4315 302.07 84.4742 301.865 84.4742L298.906 84.4742 298.906 86.9146C298.906 87.7135 299.009 88.2396 299.216 88.4929 299.423 88.7462 299.778 88.8729 300.279 88.8729 300.723 88.8729 301.254 88.7438 301.872 88.4856 302.491 88.2274 302.873 88.0984 303.02 88.0984 303.156 88.0984 303.272 88.1471 303.367 88.2445 303.462 88.3419 303.509 88.4613 303.509 88.6025 303.509 88.7633 303.449 88.9033 303.33 89.0227 303.211 89.142 303.007 89.2577 302.72 89.3697 302.243 89.5597 301.813 89.6985 301.43 89.7862 301.048 89.8739 300.689 89.9177 300.353 89.9177 299.783 89.9177 299.304 89.8264 298.917 89.6437 298.529 89.4611 298.241 89.1895 298.051 88.829 297.953 88.6585 297.884 88.4564 297.843 88.2226 297.801 87.9887 297.78 87.6283 297.78 87.1412L297.78 84.4742 296.538 84.4742C296.334 84.4742 296.185 84.434 296.093 84.3536 296 84.2732 295.954 84.1429 295.954 83.9627 295.954 83.763 296.017 83.6266 296.144 83.5535 296.27 83.4804 296.541 83.4439 296.955 83.4439L297.78 83.4439 297.78 81.5587C297.78 81.3493 297.826 81.1946 297.916 81.0948 298.006 80.9949 298.146 80.945 298.336 80.945 298.55 80.945 298.699 81.0059 298.782 81.1276 298.864 81.2494 298.906 81.5271 298.906 81.9606L298.906 83.4439 301.792 83.4439Z" fill="#EF95EF" transform="scale(1 1.00238)"/><path d="M308.061 88.756 310.487 88.756C310.677 88.756 310.817 88.7962 310.907 88.8765 310.997 88.9569 311.042 89.0848 311.042 89.2601 311.042 89.4599 311 89.5975 310.915 89.673 310.829 89.7485 310.672 89.7862 310.443 89.7862L305.665 89.7862C305.475 89.7862 305.331 89.7424 305.233 89.6547 305.136 89.567 305.087 89.4355 305.087 89.2601 305.087 89.0896 305.137 88.963 305.237 88.8802 305.337 88.7974 305.492 88.756 305.701 88.756L306.972 88.756 306.972 84.0723 306.476 84.0723C306.003 84.0723 305.708 84.0345 305.591 83.959 305.475 83.8835 305.416 83.7459 305.416 83.5462 305.416 83.3757 305.464 83.2478 305.559 83.1626 305.654 83.0773 305.799 83.0347 305.993 83.0347L307.659 83.0347C307.791 83.0347 307.891 83.0603 307.959 83.1114 308.027 83.1626 308.061 83.2369 308.061 83.3343L308.061 84.5765C308.524 83.9968 309.006 83.5657 309.508 83.2831 310.01 83.0006 310.55 82.8594 311.13 82.8594 311.564 82.8594 311.914 82.947 312.182 83.1224 312.45 83.2978 312.584 83.5243 312.584 83.8019 312.584 83.9822 312.517 84.1417 312.383 84.2805 312.249 84.4194 312.102 84.4888 311.941 84.4888 311.829 84.4888 311.64 84.4145 311.375 84.2659 311.109 84.1173 310.872 84.0431 310.662 84.0431 310.282 84.0431 309.882 84.1782 309.46 84.4486 309.039 84.7189 308.573 85.1464 308.061 85.7309L308.061 88.756Z" fill="#EF95EF" transform="scale(1 1.00238)"/><path d="M315.938 87.09C315.938 87.7038 316.067 88.1519 316.325 88.4345 316.583 88.717 316.993 88.8583 317.553 88.8583 318.084 88.8583 318.538 88.6902 318.915 88.3541 319.293 88.018 319.482 87.5966 319.482 87.09L319.482 84.0723 318.481 84.0723C318.291 84.0723 318.153 84.0321 318.068 83.9517 317.983 83.8714 317.94 83.7459 317.94 83.5754 317.94 83.3903 317.986 83.2539 318.079 83.1662 318.171 83.0786 318.32 83.0347 318.525 83.0347L320.081 83.0347C320.266 83.0347 320.396 83.0749 320.472 83.1553 320.547 83.2357 320.585 83.4317 320.585 83.7435L320.585 88.756 320.921 88.756C321.16 88.756 321.332 88.7949 321.436 88.8729 321.541 88.9508 321.593 89.0799 321.593 89.2601 321.593 89.4355 321.543 89.567 321.444 89.6547 321.344 89.7424 321.199 89.7862 321.009 89.7862L319.898 89.7862C319.767 89.7862 319.664 89.7594 319.591 89.7058 319.518 89.6523 319.482 89.5792 319.482 89.4866L319.482 88.9898C319.014 89.3503 318.613 89.5975 318.28 89.7314 317.946 89.8654 317.594 89.9324 317.224 89.9324 316.42 89.9324 315.817 89.7192 315.416 89.293 315.014 88.8668 314.813 88.2226 314.813 87.3604L314.813 84.0723 314.659 84.0723C314.328 84.0723 314.102 84.0333 313.98 83.9554 313.858 83.8774 313.797 83.741 313.797 83.5462 313.797 83.3757 313.845 83.2478 313.94 83.1626 314.035 83.0773 314.182 83.0347 314.382 83.0347L315.485 83.0347C315.655 83.0347 315.774 83.0688 315.839 83.137 315.905 83.2052 315.938 83.3562 315.938 83.59L315.938 87.09Z" fill="#EF95EF" transform="scale(1 1.00238)"/><path d="M324.268 86.732C324.307 87.4334 324.544 87.9753 324.98 88.3577 325.416 88.7401 326.012 88.9313 326.767 88.9313 327.337 88.9313 327.958 88.7791 328.63 88.4746 329.302 88.1702 329.709 88.018 329.85 88.018 329.996 88.018 330.118 88.0642 330.215 88.1568 330.313 88.2494 330.362 88.3638 330.362 88.5002 330.362 88.6415 330.31 88.7706 330.208 88.8875 330.106 89.0044 329.943 89.1189 329.719 89.2309 329.232 89.4696 328.729 89.6523 328.21 89.7789 327.691 89.9056 327.176 89.9689 326.664 89.9689 325.554 89.9689 324.665 89.6486 323.997 89.008 323.33 88.3675 322.996 87.5187 322.996 86.4616 322.996 85.3851 323.349 84.5131 324.056 83.8458 324.762 83.1784 325.683 82.8447 326.818 82.8447 327.846 82.8447 328.698 83.1565 329.375 83.78 330.052 84.4035 330.391 85.1586 330.391 86.0451 330.391 86.3179 330.334 86.5006 330.219 86.5931 330.105 86.6857 329.794 86.732 329.288 86.732L324.268 86.732Z" fill="#EF95EF" transform="scale(1 1.00238)"/><path d="M324.304 85.7748 329.061 85.7748C328.988 85.1951 328.746 84.7287 328.334 84.3755 327.922 84.0224 327.417 83.8458 326.818 83.8458 326.17 83.8458 325.624 84.0163 325.181 84.3573 324.738 84.6982 324.446 85.1707 324.304 85.7748Z" fill="#EF95EF" transform="scale(1 1.00238)"/><path d="M262.131 81.946 261.988 81.9679C261.956 81.9728 261.928 81.9752 261.904 81.9752 261.753 81.9752 261.63 81.9326 261.535 81.8474 261.44 81.7621 261.393 81.6489 261.393 81.5076 261.393 81.3907 261.434 81.2884 261.517 81.2007 261.6 81.113 261.719 81.0473 261.875 81.0034L264.045 80.4189C264.098 80.4043 264.151 80.3933 264.202 80.386 264.253 80.3787 264.306 80.375 264.359 80.375 264.452 80.375 264.525 80.4177 264.578 80.5029 264.632 80.5882 264.659 80.7038 264.659 80.85L264.659 88.756 265.828 88.756C266.261 88.756 266.537 88.7913 266.653 88.8619 266.77 88.9325 266.829 89.0653 266.829 89.2601 266.829 89.4355 266.78 89.567 266.683 89.6547 266.585 89.7424 266.439 89.7862 266.244 89.7862L261.875 89.7862C261.68 89.7862 261.534 89.7424 261.436 89.6547 261.339 89.567 261.29 89.4355 261.29 89.2601 261.29 89.0653 261.349 88.9325 261.466 88.8619 261.583 88.7913 261.858 88.756 262.291 88.756L263.504 88.756 263.504 81.6172 262.131 81.946Z" fill="#619EE6" transform="scale(1 1.00238)"/><path d="M272.857 90.0274C271.941 90.0274 271.214 89.595 270.676 88.7304 270.138 87.8657 269.868 86.6808 269.868 85.1756 269.868 83.6753 270.138 82.4928 270.676 81.6282 271.214 80.7635 271.941 80.3312 272.857 80.3312 273.773 80.3312 274.501 80.7647 275.042 81.6318 275.582 82.4989 275.853 83.6801 275.853 85.1756 275.853 86.6711 275.582 87.8536 275.042 88.7231 274.501 89.5926 273.773 90.0274 272.857 90.0274ZM272.857 81.3761C272.297 81.3761 271.861 81.7073 271.549 82.3698 271.237 83.0323 271.081 83.9676 271.081 85.1756 271.081 86.3886 271.237 87.3275 271.549 87.9924 271.861 88.6573 272.297 88.9898 272.857 88.9898 273.422 88.9898 273.86 88.6573 274.172 87.9924 274.484 87.3275 274.64 86.3886 274.64 85.1756 274.64 83.9676 274.484 83.0323 274.172 82.3698 273.86 81.7073 273.422 81.3761 272.857 81.3761Z" fill="#619EE6" transform="scale(1 1.00238)"/><path d="M92.7803 81.4491C92.8144 81.3127 92.857 81.2238 92.9082 81.1824 92.9593 81.141 93.0458 81.1203 93.1676 81.1203L94.4682 81.1203C94.5266 81.1203 94.5741 81.1337 94.6107 81.1605 94.6472 81.1873 94.6655 81.2202 94.6655 81.2592 94.6655 81.2884 94.6618 81.3164 94.6545 81.3432 94.6472 81.37 94.6362 81.3956 94.6216 81.4199L92.9703 84.8322C92.9459 84.8955 92.9118 84.9442 92.868 84.9783 92.8242 85.0124 92.7754 85.0295 92.7219 85.0295 92.6878 85.0295 92.6634 85.0283 92.6488 85.0258 92.6342 85.0234 92.6171 85.0197 92.5976 85.0149L92.1812 84.8468C92.113 84.8273 92.0606 84.7993 92.0241 84.7628 91.9875 84.7262 91.9693 84.6836 91.9693 84.6349 91.9693 84.6057 91.979 84.5618 91.9985 84.5034L91.9985 84.4742 92.7803 81.4491Z" fill="#F5A623" transform="scale(1 1.00238)"/><path d="M99.7656 86.732C99.8046 87.4334 100.042 87.9753 100.478 88.3577 100.914 88.7401 101.51 88.9313 102.265 88.9313 102.835 88.9313 103.456 88.7791 104.128 88.4746 104.8 88.1702 105.207 88.018 105.348 88.018 105.494 88.018 105.616 88.0642 105.713 88.1568 105.811 88.2494 105.86 88.3638 105.86 88.5002 105.86 88.6415 105.808 88.7706 105.706 88.8875 105.604 89.0044 105.441 89.1189 105.217 89.2309 104.729 89.4696 104.226 89.6523 103.708 89.7789 103.189 89.9056 102.674 89.9689 102.162 89.9689 101.052 89.9689 100.163 89.6486 99.4953 89.008 98.8279 88.3675 98.4942 87.5187 98.4942 86.4616 98.4942 85.3851 98.8474 84.5131 99.5537 83.8458 100.26 83.1784 101.181 82.8447 102.316 82.8447 103.344 82.8447 104.196 83.1565 104.873 83.78 105.55 84.4035 105.889 85.1586 105.889 86.0451 105.889 86.3179 105.832 86.5006 105.717 86.5931 105.603 86.6857 105.292 86.732 104.785 86.732L99.7656 86.732ZM99.8022 85.7748 104.559 85.7748C104.486 85.1951 104.243 84.7287 103.832 84.3755 103.42 84.0224 102.915 83.8458 102.316 83.8458 101.668 83.8458 101.122 84.0163 100.679 84.3573 100.236 84.6982 99.9434 85.1707 99.8022 85.7748Z" fill="#F5A623" transform="scale(1 1.00238)"/><path d="M110.726 81.2738 109.484 81.2738C109.011 81.2738 108.715 81.236 108.596 81.1605 108.477 81.085 108.417 80.9474 108.417 80.7477 108.417 80.5723 108.467 80.4408 108.567 80.3531 108.667 80.2654 108.811 80.2216 109.001 80.2216L111.413 80.2216C111.544 80.2216 111.647 80.2484 111.72 80.302 111.793 80.3556 111.829 80.4286 111.829 80.5212L111.829 88.756 114.124 88.756C114.309 88.756 114.444 88.7962 114.529 88.8765 114.614 88.9569 114.657 89.0848 114.657 89.2601 114.657 89.4599 114.616 89.5975 114.533 89.673 114.45 89.7485 114.294 89.7862 114.065 89.7862L108.673 89.7862C108.483 89.7862 108.338 89.7424 108.238 89.6547 108.138 89.567 108.088 89.4355 108.088 89.2601 108.088 89.0896 108.139 88.963 108.242 88.8802 108.344 88.7974 108.497 88.756 108.702 88.756L110.726 88.756 110.726 81.2738Z" fill="#F5A623" transform="scale(1 1.00238)"/><path d="M117.726 86.732C117.765 87.4334 118.002 87.9753 118.438 88.3577 118.874 88.7401 119.47 88.9313 120.225 88.9313 120.795 88.9313 121.416 88.7791 122.088 88.4746 122.76 88.1702 123.167 88.018 123.308 88.018 123.454 88.018 123.576 88.0642 123.674 88.1568 123.771 88.2494 123.82 88.3638 123.82 88.5002 123.82 88.6415 123.769 88.7706 123.666 88.8875 123.564 89.0044 123.401 89.1189 123.177 89.2309 122.69 89.4696 122.187 89.6523 121.668 89.7789 121.149 89.9056 120.634 89.9689 120.122 89.9689 119.012 89.9689 118.123 89.6486 117.455 89.008 116.788 88.3675 116.454 87.5187 116.454 86.4616 116.454 85.3851 116.808 84.5131 117.514 83.8458 118.22 83.1784 119.141 82.8447 120.276 82.8447 121.304 82.8447 122.156 83.1565 122.833 83.78 123.51 84.4035 123.849 85.1586 123.849 86.0451 123.849 86.3179 123.792 86.5006 123.677 86.5931 123.563 86.6857 123.252 86.732 122.746 86.732L117.726 86.732ZM117.762 85.7748 122.519 85.7748C122.446 85.1951 122.204 84.7287 121.792 84.3755 121.38 84.0224 120.875 83.8458 120.276 83.8458 119.628 83.8458 119.082 84.0163 118.639 84.3573 118.196 84.6982 117.904 85.1707 117.762 85.7748Z" fill="#F5A623" transform="scale(1 1.00238)"/><path d="M131.886 85.7163C131.886 85.0295 131.824 84.5655 131.7 84.3244 131.576 84.0833 131.363 83.9627 131.061 83.9627 130.7 83.9627 130.414 84.1186 130.202 84.4303 129.99 84.7421 129.884 85.1707 129.884 85.7163L129.884 88.756 130.016 88.756C130.313 88.756 130.512 88.7913 130.611 88.8619 130.711 88.9325 130.761 89.0653 130.761 89.2601 130.761 89.4355 130.72 89.567 130.637 89.6547 130.554 89.7424 130.427 89.7862 130.257 89.7862L129.329 89.7862C129.12 89.7862 128.977 89.7375 128.902 89.6401 128.826 89.5427 128.788 89.3332 128.788 89.0117L128.788 85.1464C128.788 84.7811 128.706 84.4924 128.54 84.2805 128.374 84.0686 128.148 83.9627 127.86 83.9627 127.641 83.9627 127.44 84.0272 127.258 84.1563 127.075 84.2854 126.918 84.4766 126.786 84.7299L126.786 88.756 127.057 88.756C127.349 88.756 127.546 88.7925 127.648 88.8656 127.751 88.9386 127.802 89.0702 127.802 89.2601 127.802 89.4599 127.761 89.5975 127.678 89.673 127.595 89.7485 127.437 89.7862 127.203 89.7862L125.259 89.7862C125.069 89.7862 124.929 89.7436 124.839 89.6584 124.749 89.5731 124.704 89.4404 124.704 89.2601 124.704 89.0653 124.761 88.9325 124.876 88.8619 124.99 88.7913 125.213 88.756 125.544 88.756L125.69 88.756 125.69 84.0723 125.559 84.0723C125.218 84.0723 124.985 84.0333 124.861 83.9554 124.737 83.8774 124.675 83.741 124.675 83.5462 124.675 83.3757 124.723 83.2478 124.821 83.1626 124.918 83.0773 125.064 83.0347 125.259 83.0347L126.377 83.0347C126.538 83.0347 126.644 83.0627 126.695 83.1188 126.746 83.1748 126.777 83.2929 126.786 83.4731 126.986 83.2588 127.2 83.1005 127.429 82.9982 127.658 82.8959 127.916 82.8447 128.204 82.8447 128.545 82.8447 128.826 82.919 129.048 83.0676 129.269 83.2162 129.434 83.4415 129.541 83.7435 129.746 83.4366 129.982 83.2101 130.25 83.0639 130.518 82.9178 130.824 82.8447 131.17 82.8447 131.799 82.8447 132.258 83.0493 132.548 83.4585 132.838 83.8677 132.982 84.5302 132.982 85.446L132.982 88.756 133.099 88.756C133.401 88.756 133.604 88.7925 133.706 88.8656 133.808 88.9386 133.859 89.0702 133.859 89.2601 133.859 89.4355 133.815 89.567 133.728 89.6547 133.64 89.7424 133.511 89.7862 133.34 89.7862L132.456 89.7862C132.262 89.7862 132.118 89.7278 132.025 89.6109 131.933 89.4939 131.886 89.3088 131.886 89.0555L131.886 85.7163Z" fill="#F5A623" transform="scale(1 1.00238)"/><path d="M135.686 86.732C135.725 87.4334 135.962 87.9753 136.398 88.3577 136.834 88.7401 137.43 88.9313 138.185 88.9313 138.755 88.9313 139.376 88.7791 140.048 88.4746 140.72 88.1702 141.127 88.018 141.268 88.018 141.415 88.018 141.536 88.0642 141.634 88.1568 141.731 88.2494 141.78 88.3638 141.78 88.5002 141.78 88.6415 141.729 88.7706 141.626 88.8875 141.524 89.0044 141.361 89.1189 141.137 89.2309 140.65 89.4696 140.147 89.6523 139.628 89.7789 139.109 89.9056 138.594 89.9689 138.083 89.9689 136.972 89.9689 136.083 89.6486 135.416 89.008 134.748 88.3675 134.415 87.5187 134.415 86.4616 134.415 85.3851 134.768 84.5131 135.474 83.8458 136.18 83.1784 137.101 82.8447 138.236 82.8447 139.264 82.8447 140.116 83.1565 140.793 83.78 141.471 84.4035 141.809 85.1586 141.809 86.0451 141.809 86.3179 141.752 86.5006 141.637 86.5931 141.523 86.6857 141.212 86.732 140.706 86.732L135.686 86.732ZM135.723 85.7748 140.479 85.7748C140.406 85.1951 140.164 84.7287 139.752 84.3755 139.341 84.0224 138.835 83.8458 138.236 83.8458 137.588 83.8458 137.043 84.0163 136.599 84.3573 136.156 84.6982 135.864 85.1707 135.723 85.7748Z" fill="#F5A623" transform="scale(1 1.00238)"/><path d="M144.418 88.756 144.418 84.0723 144.279 84.0723C143.948 84.0723 143.72 84.0333 143.596 83.9554 143.471 83.8774 143.409 83.741 143.409 83.5462 143.409 83.366 143.46 83.2357 143.563 83.1553 143.665 83.0749 143.831 83.0347 144.06 83.0347L145.104 83.0347C145.236 83.0347 145.338 83.0615 145.411 83.1151 145.484 83.1687 145.521 83.2417 145.521 83.3343L145.521 83.8312C145.877 83.4999 146.229 83.2551 146.577 83.0968 146.925 82.9385 147.287 82.8594 147.662 82.8594 148.397 82.8594 148.976 83.0883 149.397 83.5462 149.819 84.0041 150.029 84.6373 150.029 85.446L150.029 88.756 150.373 88.756C150.616 88.756 150.792 88.7962 150.899 88.8765 151.006 88.9569 151.06 89.0848 151.06 89.2601 151.06 89.4501 151.002 89.5853 150.888 89.6657 150.773 89.746 150.57 89.7862 150.278 89.7862L148.663 89.7862C148.351 89.7862 148.151 89.7497 148.064 89.6766 147.976 89.6036 147.932 89.4647 147.932 89.2601 147.932 89.0702 147.983 88.9386 148.086 88.8656 148.188 88.7925 148.38 88.756 148.663 88.756L148.919 88.756 148.919 85.7163C148.919 85.1464 148.79 84.7116 148.531 84.4121 148.273 84.1125 147.898 83.9627 147.406 83.9627 146.909 83.9627 146.471 84.1307 146.091 84.4669 145.711 84.803 145.521 85.2195 145.521 85.7163L145.521 88.756 145.777 88.756C146.069 88.756 146.266 88.7925 146.369 88.8656 146.471 88.9386 146.522 89.0702 146.522 89.2601 146.522 89.4647 146.478 89.6036 146.39 89.6766 146.303 89.7497 146.088 89.7862 145.747 89.7862L144.023 89.7862C143.823 89.7862 143.674 89.7436 143.574 89.6584 143.474 89.5731 143.424 89.4404 143.424 89.2601 143.424 89.0653 143.481 88.9325 143.596 88.8619 143.71 88.7913 143.933 88.756 144.264 88.756L144.418 88.756Z" fill="#F5A623" transform="scale(1 1.00238)"/><path d="M158.111 83.4439C158.349 83.4439 158.523 83.4853 158.633 83.5681 158.743 83.6509 158.797 83.7824 158.797 83.9627 158.797 84.1332 158.746 84.261 158.644 84.3463 158.542 84.4315 158.388 84.4742 158.184 84.4742L155.224 84.4742 155.224 86.9146C155.224 87.7135 155.328 88.2396 155.535 88.4929 155.742 88.7462 156.096 88.8729 156.598 88.8729 157.041 88.8729 157.572 88.7438 158.191 88.4856 158.81 88.2274 159.192 88.0984 159.338 88.0984 159.475 88.0984 159.59 88.1471 159.685 88.2445 159.78 88.3419 159.828 88.4613 159.828 88.6025 159.828 88.7633 159.768 88.9033 159.649 89.0227 159.529 89.142 159.326 89.2577 159.039 89.3697 158.561 89.5597 158.131 89.6985 157.749 89.7862 157.367 89.8739 157.007 89.9177 156.671 89.9177 156.101 89.9177 155.623 89.8264 155.235 89.6437 154.848 89.4611 154.559 89.1895 154.37 88.829 154.272 88.6585 154.203 88.4564 154.161 88.2226 154.12 87.9887 154.099 87.6283 154.099 87.1412L154.099 84.4742 152.857 84.4742C152.652 84.4742 152.504 84.434 152.411 84.3536 152.319 84.2732 152.272 84.1429 152.272 83.9627 152.272 83.763 152.336 83.6266 152.462 83.5535 152.589 83.4804 152.859 83.4439 153.273 83.4439L154.099 83.4439 154.099 81.5587C154.099 81.3493 154.144 81.1946 154.234 81.0948 154.324 80.9949 154.465 80.945 154.654 80.945 154.869 80.945 155.017 81.0059 155.1 81.1276 155.183 81.2494 155.224 81.5271 155.224 81.9606L155.224 83.4439 158.111 83.4439Z" fill="#F5A623" transform="scale(1 1.00238)"/><path d="M171.606 86.732C171.645 87.4334 171.883 87.9753 172.319 88.3577 172.755 88.7401 173.35 88.9313 174.105 88.9313 174.675 88.9313 175.296 88.7791 175.968 88.4746 176.641 88.1702 177.047 88.018 177.189 88.018 177.335 88.018 177.457 88.0642 177.554 88.1568 177.651 88.2494 177.7 88.3638 177.7 88.5002 177.7 88.6415 177.649 88.7706 177.547 88.8875 177.444 89.0044 177.281 89.1189 177.057 89.2309 176.57 89.4696 176.067 89.6523 175.548 89.7789 175.03 89.9056 174.514 89.9689 174.003 89.9689 172.892 89.9689 172.003 89.6486 171.336 89.008 170.669 88.3675 170.335 87.5187 170.335 86.4616 170.335 85.3851 170.688 84.5131 171.394 83.8458 172.101 83.1784 173.021 82.8447 174.156 82.8447 175.184 82.8447 176.037 83.1565 176.714 83.78 177.391 84.4035 177.729 85.1586 177.729 86.0451 177.729 86.3179 177.672 86.5006 177.558 86.5931 177.443 86.6857 177.133 86.732 176.626 86.732L171.606 86.732ZM171.643 85.7748 176.4 85.7748C176.327 85.1951 176.084 84.7287 175.673 84.3755 175.261 84.0224 174.756 83.8458 174.156 83.8458 173.509 83.8458 172.963 84.0163 172.52 84.3573 172.076 84.6982 171.784 85.1707 171.643 85.7748Z" fill="#F5A623" transform="scale(1 1.00238)"/><path d="M181.456 88.756 181.668 88.756C181.911 88.756 182.101 88.801 182.238 88.8911 182.374 88.9813 182.442 89.1091 182.442 89.2747 182.442 89.4501 182.383 89.5792 182.263 89.662 182.144 89.7448 181.955 89.7862 181.697 89.7862L179.68 89.7862C179.534 89.7862 179.412 89.7375 179.315 89.6401 179.218 89.5427 179.169 89.4209 179.169 89.2747 179.169 89.0945 179.235 88.963 179.366 88.8802 179.498 88.7974 179.707 88.756 179.995 88.756L180.141 88.756 182.508 86.3301 180.185 84.0723 180.082 84.0723C179.8 84.0723 179.604 84.0345 179.494 83.959 179.384 83.8835 179.33 83.7508 179.33 83.5608 179.33 83.3611 179.392 83.2235 179.516 83.148 179.64 83.0725 179.878 83.0347 180.228 83.0347L181.726 83.0347C181.989 83.0347 182.18 83.0773 182.3 83.1626 182.419 83.2478 182.479 83.3806 182.479 83.5608 182.479 83.7264 182.412 83.8531 182.278 83.9408 182.144 84.0285 181.95 84.0723 181.697 84.0723L181.639 84.0723 183.21 85.614 184.707 84.0723 184.554 84.0723C184.281 84.0723 184.079 84.0321 183.948 83.9517 183.816 83.8714 183.75 83.7459 183.75 83.5754 183.75 83.3854 183.809 83.2478 183.926 83.1626 184.043 83.0773 184.232 83.0347 184.496 83.0347L186.395 83.0347C186.546 83.0347 186.669 83.0822 186.764 83.1772 186.859 83.2722 186.907 83.3952 186.907 83.5462 186.907 83.7264 186.846 83.8592 186.724 83.9444 186.602 84.0297 186.407 84.0723 186.14 84.0723L185.935 84.0723 183.838 86.257 186.395 88.756 186.468 88.756C186.653 88.756 186.797 88.801 186.899 88.8911 187.002 88.9813 187.053 89.1091 187.053 89.2747 187.053 89.4696 186.994 89.6036 186.878 89.6766 186.761 89.7497 186.52 89.7862 186.154 89.7862L184.664 89.7862C184.405 89.7862 184.215 89.7448 184.094 89.662 183.972 89.5792 183.911 89.4501 183.911 89.2747 183.911 89.114 183.969 88.9873 184.086 88.8948 184.203 88.8022 184.364 88.756 184.569 88.756L184.978 88.756 183.136 86.9585 181.456 88.756Z" fill="#F5A623" transform="scale(1 1.00238)"/><path d="M193.717 88.8583C193.317 89.2187 192.883 89.4939 192.412 89.6839 191.942 89.8739 191.459 89.9689 190.962 89.9689 190.236 89.9689 189.65 89.7667 189.205 89.3624 188.759 88.9581 188.536 88.432 188.536 87.7842 188.536 87.0145 188.832 86.4178 189.424 85.994 190.016 85.5702 190.848 85.3583 191.919 85.3583 192.202 85.3583 192.487 85.3766 192.774 85.4131 193.062 85.4496 193.356 85.5069 193.658 85.5848L193.658 85.5337C193.658 84.9735 193.524 84.5594 193.256 84.2915 192.988 84.0236 192.572 83.8896 192.007 83.8896 191.627 83.8896 191.203 83.9919 190.736 84.1965 190.268 84.4011 189.959 84.5034 189.808 84.5034 189.666 84.5034 189.549 84.4462 189.457 84.3317 189.364 84.2172 189.318 84.0699 189.318 83.8896 189.318 83.6022 189.587 83.3587 190.125 83.1589 190.664 82.9592 191.352 82.8594 192.19 82.8594 193.047 82.8594 193.695 83.0773 194.133 83.5133 194.572 83.9493 194.791 84.5935 194.791 85.446L194.791 88.756 195.149 88.756C195.495 88.756 195.726 88.7925 195.843 88.8656 195.96 88.9386 196.018 89.0702 196.018 89.2601 196.018 89.4355 195.97 89.567 195.872 89.6547 195.775 89.7424 195.629 89.7862 195.434 89.7862L194.287 89.7862C194.15 89.7862 194.038 89.7448 193.951 89.662 193.863 89.5792 193.804 89.4599 193.775 89.304L193.717 88.8583ZM193.658 86.5566C193.39 86.4689 193.131 86.4044 192.88 86.363 192.629 86.3216 192.38 86.3009 192.131 86.3009 191.381 86.3009 190.789 86.4275 190.356 86.6808 189.922 86.9341 189.705 87.2751 189.705 87.7038 189.705 88.035 189.84 88.3078 190.111 88.5221 190.381 88.7365 190.726 88.8436 191.145 88.8436 191.763 88.8436 192.337 88.6817 192.866 88.3577 193.394 88.0338 193.658 87.6965 193.658 87.3457L193.658 86.5566Z" fill="#F5A623" transform="scale(1 1.00238)"/><path d="M203.727 85.7163C203.727 85.0295 203.665 84.5655 203.541 84.3244 203.417 84.0833 203.203 83.9627 202.901 83.9627 202.541 83.9627 202.255 84.1186 202.043 84.4303 201.831 84.7421 201.725 85.1707 201.725 85.7163L201.725 88.756 201.857 88.756C202.154 88.756 202.352 88.7913 202.452 88.8619 202.552 88.9325 202.602 89.0653 202.602 89.2601 202.602 89.4355 202.56 89.567 202.478 89.6547 202.395 89.7424 202.268 89.7862 202.098 89.7862L201.17 89.7862C200.96 89.7862 200.818 89.7375 200.742 89.6401 200.667 89.5427 200.629 89.3332 200.629 89.0117L200.629 85.1464C200.629 84.7811 200.546 84.4924 200.381 84.2805 200.215 84.0686 199.988 83.9627 199.701 83.9627 199.482 83.9627 199.281 84.0272 199.098 84.1563 198.916 84.2854 198.758 84.4766 198.627 84.7299L198.627 88.756 198.897 88.756C199.19 88.756 199.387 88.7925 199.489 88.8656 199.591 88.9386 199.643 89.0702 199.643 89.2601 199.643 89.4599 199.601 89.5975 199.518 89.673 199.436 89.7485 199.277 89.7862 199.043 89.7862L197.1 89.7862C196.91 89.7862 196.77 89.7436 196.68 89.6584 196.59 89.5731 196.544 89.4404 196.544 89.2601 196.544 89.0653 196.602 88.9325 196.716 88.8619 196.831 88.7913 197.054 88.756 197.385 88.756L197.531 88.756 197.531 84.0723 197.399 84.0723C197.058 84.0723 196.826 84.0333 196.702 83.9554 196.577 83.8774 196.515 83.741 196.515 83.5462 196.515 83.3757 196.564 83.2478 196.661 83.1626 196.759 83.0773 196.905 83.0347 197.1 83.0347L198.218 83.0347C198.378 83.0347 198.484 83.0627 198.536 83.1188 198.587 83.1748 198.617 83.2929 198.627 83.4731 198.827 83.2588 199.041 83.1005 199.27 82.9982 199.499 82.8959 199.757 82.8447 200.044 82.8447 200.385 82.8447 200.667 82.919 200.888 83.0676 201.11 83.2162 201.274 83.4415 201.382 83.7435 201.586 83.4366 201.822 83.2101 202.09 83.0639 202.358 82.9178 202.665 82.8447 203.011 82.8447 203.639 82.8447 204.099 83.0493 204.388 83.4585 204.678 83.8677 204.823 84.5302 204.823 85.446L204.823 88.756 204.94 88.756C205.242 88.756 205.444 88.7925 205.546 88.8656 205.649 88.9386 205.7 89.0702 205.7 89.2601 205.7 89.4355 205.656 89.567 205.568 89.6547 205.481 89.7424 205.352 89.7862 205.181 89.7862L204.297 89.7862C204.102 89.7862 203.958 89.7278 203.866 89.6109 203.773 89.4939 203.727 89.3088 203.727 89.0555L203.727 85.7163Z" fill="#F5A623" transform="scale(1 1.00238)"/><path d="M208.111 91.6568 209.865 91.6568C210.05 91.6568 210.189 91.7006 210.281 91.7883 210.374 91.876 210.42 92.0075 210.42 92.1829 210.42 92.3728 210.375 92.5068 210.285 92.5847 210.195 92.6627 210.035 92.7016 209.806 92.7016L206.584 92.7016C206.389 92.7016 206.242 92.6578 206.142 92.5701 206.042 92.4824 205.992 92.3534 205.992 92.1829 205.992 91.988 206.054 91.8516 206.179 91.7737 206.303 91.6957 206.533 91.6568 206.869 91.6568L207.008 91.6568 207.008 84.0723 206.869 84.0723C206.533 84.0723 206.303 84.0333 206.179 83.9554 206.054 83.8774 205.992 83.741 205.992 83.5462 205.992 83.3757 206.042 83.2478 206.142 83.1626 206.242 83.0773 206.389 83.0347 206.584 83.0347L207.695 83.0347C207.841 83.0347 207.947 83.0591 208.013 83.1078 208.078 83.1565 208.111 83.232 208.111 83.3343L208.111 84.0431C208.442 83.7021 208.809 83.4463 209.211 83.2758 209.613 83.1054 210.045 83.0201 210.508 83.0201 211.487 83.0201 212.305 83.3513 212.963 84.0138 213.621 84.6763 213.949 85.5069 213.949 86.5055 213.949 87.4651 213.638 88.2542 213.014 88.8729 212.391 89.4915 211.594 89.8008 210.625 89.8008 210.108 89.8008 209.633 89.7095 209.2 89.5268 208.766 89.3442 208.403 89.0823 208.111 88.7413L208.111 91.6568ZM210.376 88.7267C211.053 88.7267 211.609 88.5136 212.042 88.0874 212.476 87.6612 212.693 87.1095 212.693 86.4324 212.693 85.7699 212.475 85.2231 212.039 84.792 211.603 84.3609 211.049 84.1454 210.376 84.1454 209.704 84.1454 209.154 84.3597 208.725 84.7884 208.296 85.217 208.082 85.765 208.082 86.4324 208.082 87.1046 208.295 87.6551 208.721 88.0837 209.148 88.5124 209.699 88.7267 210.376 88.7267Z" fill="#F5A623" transform="scale(1 1.00238)"/><path d="M218.487 81.2738 217.245 81.2738C216.772 81.2738 216.476 81.236 216.357 81.1605 216.238 81.085 216.178 80.9474 216.178 80.7477 216.178 80.5723 216.228 80.4408 216.328 80.3531 216.428 80.2654 216.572 80.2216 216.762 80.2216L219.174 80.2216C219.305 80.2216 219.408 80.2484 219.481 80.302 219.554 80.3556 219.59 80.4286 219.59 80.5212L219.59 88.756 221.885 88.756C222.07 88.756 222.205 88.7962 222.29 88.8765 222.375 88.9569 222.418 89.0848 222.418 89.2601 222.418 89.4599 222.377 89.5975 222.294 89.673 222.211 89.7485 222.055 89.7862 221.826 89.7862L216.434 89.7862C216.244 89.7862 216.099 89.7424 215.999 89.6547 215.899 89.567 215.849 89.4355 215.849 89.2601 215.849 89.0896 215.9 88.963 216.003 88.8802 216.105 88.7974 216.258 88.756 216.463 88.756L218.487 88.756 218.487 81.2738Z" fill="#F5A623" transform="scale(1 1.00238)"/><path d="M225.487 86.732C225.526 87.4334 225.763 87.9753 226.199 88.3577 226.635 88.7401 227.231 88.9313 227.986 88.9313 228.556 88.9313 229.177 88.7791 229.849 88.4746 230.521 88.1702 230.928 88.018 231.069 88.018 231.215 88.018 231.337 88.0642 231.435 88.1568 231.532 88.2494 231.581 88.3638 231.581 88.5002 231.581 88.6415 231.53 88.7706 231.427 88.8875 231.325 89.0044 231.162 89.1189 230.938 89.2309 230.451 89.4696 229.948 89.6523 229.429 89.7789 228.91 89.9056 228.395 89.9689 227.883 89.9689 226.773 89.9689 225.884 89.6486 225.216 89.008 224.549 88.3675 224.215 87.5187 224.215 86.4616 224.215 85.3851 224.569 84.5131 225.275 83.8458 225.981 83.1784 226.902 82.8447 228.037 82.8447 229.065 82.8447 229.917 83.1565 230.594 83.78 231.271 84.4035 231.61 85.1586 231.61 86.0451 231.61 86.3179 231.553 86.5006 231.438 86.5931 231.324 86.6857 231.013 86.732 230.507 86.732L225.487 86.732ZM225.523 85.7748 230.28 85.7748C230.207 85.1951 229.965 84.7287 229.553 84.3755 229.141 84.0224 228.636 83.8458 228.037 83.8458 227.389 83.8458 226.843 84.0163 226.4 84.3573 225.957 84.6982 225.665 85.1707 225.523 85.7748Z" fill="#F5A623" transform="scale(1 1.00238)"/><path d="M236.462 81.4491C236.496 81.3127 236.538 81.2238 236.59 81.1824 236.641 81.141 236.727 81.1203 236.849 81.1203L238.15 81.1203C238.208 81.1203 238.255 81.1337 238.292 81.1605 238.329 81.1873 238.347 81.2202 238.347 81.2592 238.347 81.2884 238.343 81.3164 238.336 81.3432 238.329 81.37 238.318 81.3956 238.303 81.4199L236.652 84.8322C236.627 84.8955 236.593 84.9442 236.549 84.9783 236.505 85.0124 236.457 85.0295 236.403 85.0295 236.369 85.0295 236.345 85.0283 236.33 85.0258 236.316 85.0234 236.298 85.0197 236.279 85.0149L235.862 84.8468C235.794 84.8273 235.742 84.7993 235.705 84.7628 235.669 84.7262 235.651 84.6836 235.651 84.6349 235.651 84.6057 235.66 84.5618 235.68 84.5034L235.68 84.4742 236.462 81.4491Z" fill="#F5A623" transform="scale(1 1.00238)"/></g></svg>