<svg width="420" height="215" xmlns="http://www.w3.org/2000/svg" xmlns:xlink="http://www.w3.org/1999/xlink" overflow="hidden"><defs><clipPath id="clip0"><rect x="0" y="0" width="420" height="215"/></clipPath></defs><g clip-path="url(#clip0)"><path d="M0 0 420 0 420 214.489 0 214.489Z" fill="#FFFFFF" fill-rule="evenodd" transform="scale(1 1.00238)"/><path d="M110.555 54.2001 116.672 54.2001C116.809 54.2001 116.915 54.2444 116.99 54.333 117.065 54.4217 117.102 54.5456 117.102 54.7047 117.102 54.8684 117.065 54.9934 116.99 55.0798 116.915 55.1662 116.809 55.2094 116.672 55.2094L110.555 55.2094C110.414 55.2094 110.306 55.1662 110.231 55.0798 110.156 54.9934 110.119 54.8684 110.119 54.7047 110.119 54.541 110.156 54.416 110.231 54.3296 110.306 54.2432 110.414 54.2001 110.555 54.2001ZM110.555 51.9155 116.672 51.9155C116.809 51.9155 116.915 51.9586 116.99 52.045 117.065 52.1314 117.102 52.2542 117.102 52.4133 117.102 52.577 117.065 52.702 116.99 52.7884 116.915 52.8748 116.809 52.9179 116.672 52.9179L110.555 52.9179C110.414 52.9179 110.306 52.8759 110.231 52.7918 110.156 52.7077 110.119 52.5815 110.119 52.4133 110.119 52.2496 110.156 52.1257 110.231 52.0416 110.306 51.9575 110.414 51.9155 110.555 51.9155ZM130.169 59.5535 131.314 59.5535C131.446 59.5535 131.553 59.5899 131.635 59.6626 131.717 59.7354 131.758 59.8331 131.758 59.9559 131.758 60.0877 131.719 60.1934 131.642 60.273 131.564 60.3526 131.46 60.3923 131.328 60.3923L129.493 60.3923C129.352 60.3923 129.234 60.3492 129.139 60.2628 129.043 60.1764 128.996 60.0695 128.996 59.9422L128.996 50.2242C128.996 50.0969 129.043 49.99 129.139 49.9036 129.234 49.8173 129.352 49.7741 129.493 49.7741L131.328 49.7741C131.46 49.7741 131.564 49.8116 131.642 49.8866 131.719 49.9616 131.758 50.065 131.758 50.1969 131.758 50.3196 131.717 50.4197 131.635 50.497 131.553 50.5742 131.446 50.6129 131.314 50.6129L130.169 50.6129 130.169 59.5535ZM221.764 55.9595C221.8 55.805 221.848 55.7061 221.907 55.6629 221.966 55.6197 222.066 55.5981 222.207 55.5981L223.701 55.5981C223.769 55.5981 223.824 55.6117 223.864 55.639 223.905 55.6663 223.926 55.7004 223.926 55.7413 223.926 55.764 223.921 55.7936 223.912 55.83 223.903 55.8663 223.889 55.9004 223.871 55.9323L221.996 59.8331C221.964 59.9013 221.921 59.9559 221.866 59.9968 221.812 60.0377 221.753 60.0582 221.689 60.0582 221.675 60.0582 221.661 60.0559 221.645 60.0514 221.629 60.0468 221.603 60.0377 221.566 60.0241L221.089 59.8468C221.016 59.8149 220.962 59.7786 220.925 59.7376 220.889 59.6967 220.871 59.649 220.871 59.5944L220.871 59.4887C220.871 59.4683 220.875 59.4467 220.884 59.4239L221.764 55.9595ZM305.578 55.9595C305.614 55.805 305.662 55.7061 305.721 55.6629 305.78 55.6197 305.88 55.5981 306.021 55.5981L307.515 55.5981C307.583 55.5981 307.638 55.6117 307.679 55.639 307.719 55.6663 307.74 55.7004 307.74 55.7413 307.74 55.764 307.735 55.7936 307.726 55.83 307.717 55.8663 307.704 55.9004 307.685 55.9323L305.81 59.8331C305.778 59.9013 305.735 59.9559 305.68 59.9968 305.626 60.0377 305.567 60.0582 305.503 60.0582 305.489 60.0582 305.475 60.0559 305.459 60.0514 305.443 60.0468 305.417 60.0377 305.38 60.0241L304.903 59.8468C304.83 59.8149 304.776 59.7786 304.739 59.7376 304.703 59.6967 304.685 59.649 304.685 59.5944L304.685 59.4887C304.685 59.4683 304.689 59.4467 304.698 59.4239L305.578 55.9595ZM390.408 50.6129 389.263 50.6129C389.126 50.6129 389.018 50.5754 388.939 50.5004 388.859 50.4254 388.819 50.3242 388.819 50.1969 388.819 50.065 388.857 49.9616 388.932 49.8866 389.007 49.8116 389.113 49.7741 389.249 49.7741L391.077 49.7741C391.222 49.7741 391.343 49.8173 391.438 49.9036 391.534 49.99 391.581 50.0969 391.581 50.2242L391.581 59.9422C391.581 60.0695 391.534 60.1764 391.438 60.2628 391.343 60.3492 391.222 60.3923 391.077 60.3923L389.249 60.3923C389.117 60.3923 389.013 60.3526 388.935 60.273 388.858 60.1934 388.819 60.0877 388.819 59.9559 388.819 59.8286 388.859 59.7297 388.939 59.6592 389.018 59.5888 389.126 59.5535 389.263 59.5535L390.408 59.5535 390.408 50.6129ZM397.726 56.1982C397.767 56.0482 397.815 55.9527 397.869 55.9118 397.924 55.8709 398.017 55.8504 398.149 55.8504L399.56 55.8504C399.619 55.8504 399.668 55.8641 399.707 55.8913 399.746 55.9186 399.765 55.9527 399.765 55.9936 399.765 56.0073 399.76 56.0323 399.751 56.0687 399.742 56.105 399.729 56.1391 399.71 56.1709L397.951 59.8331C397.915 59.9059 397.875 59.9582 397.832 59.99 397.788 60.0218 397.735 60.0377 397.671 60.0377 397.635 60.0377 397.607 60.0366 397.586 60.0343 397.566 60.032 397.549 60.0286 397.535 60.0241L397.085 59.8604C397.017 59.8331 396.965 59.799 396.931 59.7581 396.897 59.7172 396.88 59.6717 396.88 59.6217 396.88 59.6035 396.881 59.5831 396.884 59.5603 396.886 59.5376 396.894 59.5012 396.908 59.4512L397.726 56.1982ZM397.201 52.9725C397.201 52.6179 397.325 52.3269 397.572 52.0996 397.82 51.8723 398.142 51.7586 398.537 51.7586 398.942 51.7586 399.269 51.8711 399.519 52.0962 399.77 52.3212 399.895 52.6133 399.895 52.9725 399.895 53.3317 399.77 53.6238 399.519 53.8488 399.269 54.0739 398.942 54.1864 398.537 54.1864 398.137 54.1864 397.815 54.075 397.569 53.8522 397.324 53.6295 397.201 53.3362 397.201 52.9725Z" fill="#9B9B9B" fill-rule="evenodd" transform="scale(1 1.00238)"/><path d="M156.077 135.77 156.077 135.743C156.077 135.593 156.12 135.483 156.207 135.412 156.293 135.342 156.427 135.307 156.609 135.307 156.795 135.307 156.924 135.361 156.994 135.47 157.065 135.58 157.1 135.805 157.1 136.146L157.1 137.414C157.1 137.582 157.057 137.708 156.971 137.793 156.884 137.877 156.755 137.919 156.582 137.919 156.459 137.919 156.353 137.883 156.265 137.813 156.176 137.743 156.068 137.596 155.941 137.373 155.722 137.005 155.458 136.726 155.146 136.538 154.835 136.349 154.477 136.255 154.072 136.255 153.363 136.255 152.787 136.464 152.343 136.882 151.9 137.3 151.678 137.841 151.678 138.505 151.678 139.183 151.891 139.736 152.316 140.166 152.741 140.595 153.288 140.81 153.956 140.81 154.261 140.81 154.551 140.768 154.826 140.684 155.101 140.6 155.361 140.474 155.607 140.306 155.693 140.251 155.809 140.167 155.954 140.053 156.25 139.812 156.482 139.692 156.65 139.692 156.791 139.692 156.906 139.736 156.994 139.825 157.083 139.913 157.127 140.028 157.127 140.169 157.127 140.528 156.788 140.895 156.108 141.271 155.428 141.646 154.706 141.833 153.943 141.833 152.956 141.833 152.134 141.517 151.477 140.885 150.82 140.253 150.492 139.464 150.492 138.519 150.492 137.573 150.819 136.783 151.474 136.149 152.129 135.515 152.947 135.198 153.929 135.198 154.274 135.198 154.621 135.244 154.969 135.337 155.317 135.431 155.686 135.575 156.077 135.77ZM161.778 133.397C161.778 132.906 161.823 132.597 161.911 132.47 162 132.342 162.19 132.279 162.481 132.279 162.763 132.279 162.949 132.332 163.04 132.439 163.131 132.546 163.176 132.799 163.176 133.199 163.176 133.59 163.134 133.833 163.05 133.926 162.966 134.019 162.776 134.066 162.481 134.066 162.19 134.066 162 134.022 161.911 133.936 161.823 133.85 161.778 133.67 161.778 133.397ZM163.04 140.701 165.229 140.701C165.406 140.701 165.537 140.739 165.621 140.814 165.705 140.889 165.747 141.008 165.747 141.172 165.747 141.358 165.708 141.487 165.628 141.557 165.549 141.627 165.402 141.663 165.188 141.663L159.896 141.663C159.714 141.663 159.578 141.622 159.487 141.54 159.396 141.458 159.351 141.335 159.351 141.172 159.351 141.013 159.398 140.894 159.494 140.817 159.589 140.74 159.732 140.701 159.923 140.701L162.003 140.701 162.003 136.33 160.674 136.33C160.487 136.33 160.345 136.288 160.247 136.204 160.15 136.119 160.101 135.998 160.101 135.839 160.101 135.68 160.146 135.56 160.237 135.481 160.328 135.401 160.464 135.361 160.646 135.361L162.644 135.361C162.767 135.361 162.864 135.386 162.934 135.436 163.005 135.486 163.04 135.555 163.04 135.641L163.04 140.701ZM172.649 135.743C172.872 135.743 173.034 135.782 173.137 135.859 173.239 135.936 173.29 136.059 173.29 136.227 173.29 136.387 173.242 136.506 173.147 136.585 173.051 136.665 172.908 136.705 172.717 136.705L169.955 136.705 169.955 138.983C169.955 139.728 170.052 140.219 170.245 140.456 170.438 140.692 170.769 140.81 171.237 140.81 171.651 140.81 172.147 140.69 172.724 140.449 173.301 140.208 173.658 140.087 173.795 140.087 173.922 140.087 174.03 140.133 174.119 140.224 174.207 140.315 174.252 140.426 174.252 140.558 174.252 140.708 174.196 140.839 174.085 140.95 173.973 141.061 173.783 141.169 173.515 141.274 173.07 141.451 172.668 141.581 172.311 141.663 171.955 141.745 171.619 141.785 171.306 141.785 170.774 141.785 170.327 141.7 169.965 141.53 169.604 141.359 169.335 141.106 169.157 140.769 169.066 140.61 169.002 140.422 168.963 140.203 168.924 139.985 168.905 139.649 168.905 139.194L168.905 136.705 167.746 136.705C167.555 136.705 167.416 136.667 167.33 136.592 167.243 136.517 167.2 136.396 167.2 136.227 167.2 136.041 167.259 135.914 167.377 135.846 167.496 135.777 167.748 135.743 168.134 135.743L168.905 135.743 168.905 133.984C168.905 133.788 168.947 133.644 169.031 133.551 169.115 133.457 169.246 133.411 169.423 133.411 169.623 133.411 169.762 133.468 169.839 133.581 169.917 133.695 169.955 133.954 169.955 134.359L169.955 135.743 172.649 135.743ZM178.541 133.397C178.541 132.906 178.586 132.597 178.674 132.47 178.763 132.342 178.953 132.279 179.244 132.279 179.526 132.279 179.712 132.332 179.803 132.439 179.894 132.546 179.939 132.799 179.939 133.199 179.939 133.59 179.897 133.833 179.813 133.926 179.729 134.019 179.539 134.066 179.244 134.066 178.953 134.066 178.763 134.022 178.674 133.936 178.586 133.85 178.541 133.67 178.541 133.397ZM179.803 140.701 181.992 140.701C182.169 140.701 182.3 140.739 182.384 140.814 182.468 140.889 182.51 141.008 182.51 141.172 182.51 141.358 182.471 141.487 182.391 141.557 182.311 141.627 182.165 141.663 181.951 141.663L176.659 141.663C176.477 141.663 176.341 141.622 176.25 141.54 176.159 141.458 176.113 141.335 176.113 141.172 176.113 141.013 176.161 140.894 176.257 140.817 176.352 140.74 176.495 140.701 176.686 140.701L178.766 140.701 178.766 136.33 177.436 136.33C177.25 136.33 177.108 136.288 177.01 136.204 176.912 136.119 176.864 135.998 176.864 135.839 176.864 135.68 176.909 135.56 177 135.481 177.091 135.401 177.227 135.361 177.409 135.361L179.407 135.361C179.53 135.361 179.627 135.386 179.697 135.436 179.768 135.486 179.803 135.555 179.803 135.641L179.803 140.701ZM185.245 138.812C185.281 139.467 185.503 139.973 185.91 140.329 186.317 140.686 186.873 140.865 187.577 140.865 188.109 140.865 188.689 140.723 189.316 140.439 189.944 140.154 190.323 140.012 190.455 140.012 190.592 140.012 190.705 140.056 190.796 140.142 190.887 140.228 190.933 140.335 190.933 140.462 190.933 140.594 190.885 140.715 190.789 140.824 190.694 140.933 190.542 141.04 190.332 141.144 189.878 141.367 189.408 141.538 188.924 141.656 188.44 141.774 187.959 141.833 187.482 141.833 186.445 141.833 185.616 141.534 184.993 140.936 184.37 140.339 184.058 139.546 184.058 138.56 184.058 137.555 184.388 136.741 185.047 136.118 185.706 135.495 186.566 135.184 187.625 135.184 188.584 135.184 189.38 135.475 190.012 136.057 190.644 136.639 190.96 137.344 190.96 138.171 190.96 138.426 190.906 138.596 190.8 138.682 190.693 138.769 190.403 138.812 189.93 138.812L185.245 138.812ZM185.279 137.919 189.719 137.919C189.65 137.378 189.424 136.942 189.04 136.613 188.656 136.283 188.184 136.118 187.625 136.118 187.02 136.118 186.511 136.277 186.097 136.596 185.684 136.914 185.411 137.355 185.279 137.919ZM192.958 141.172 192.958 139.958C192.958 139.758 192.996 139.615 193.071 139.528 193.146 139.442 193.267 139.399 193.435 139.399 193.622 139.399 193.77 139.526 193.879 139.78 193.951 139.935 194.017 140.051 194.076 140.128 194.267 140.374 194.549 140.57 194.922 140.718 195.295 140.866 195.706 140.94 196.156 140.94 196.638 140.94 197.025 140.842 197.316 140.647 197.607 140.451 197.752 140.194 197.752 139.876 197.752 139.553 197.635 139.324 197.401 139.187 197.167 139.051 196.766 138.983 196.197 138.983L195.822 138.983C194.895 138.983 194.188 138.821 193.701 138.498 193.215 138.176 192.972 137.707 192.972 137.094 192.972 136.493 193.209 136.027 193.684 135.695 194.159 135.364 194.827 135.198 195.686 135.198 196.036 135.198 196.393 135.247 196.757 135.344 197.12 135.442 197.311 135.491 197.329 135.491 197.379 135.491 197.475 135.447 197.616 135.358 197.757 135.269 197.896 135.225 198.032 135.225 198.186 135.225 198.301 135.282 198.376 135.395 198.451 135.509 198.489 135.68 198.489 135.907L198.489 136.705C198.489 136.946 198.452 137.12 198.38 137.226 198.307 137.333 198.191 137.387 198.032 137.387 197.896 137.387 197.727 137.271 197.527 137.039 197.386 136.88 197.27 136.759 197.179 136.678 196.938 136.455 196.682 136.294 196.409 136.197 196.136 136.099 195.816 136.05 195.447 136.05 195.02 136.05 194.675 136.144 194.414 136.333 194.153 136.522 194.022 136.762 194.022 137.053 194.022 137.339 194.156 137.544 194.424 137.666 194.693 137.789 195.27 137.86 196.156 137.878 197.102 137.9 197.793 138.065 198.23 138.372 198.666 138.679 198.884 139.153 198.884 139.794 198.884 140.408 198.643 140.899 198.161 141.267 197.68 141.635 197.029 141.82 196.211 141.82 195.952 141.82 195.663 141.796 195.345 141.748 195.027 141.7 194.627 141.62 194.145 141.506 193.986 141.61 193.849 141.689 193.736 141.741 193.622 141.793 193.526 141.82 193.449 141.82 193.29 141.82 193.168 141.764 193.084 141.652 193 141.541 192.958 141.381 192.958 141.172Z" fill="#6EDB76" fill-rule="evenodd" transform="scale(1 1.00238)"/><path d="M212.993 103.753 267.862 103.753" stroke="#4A4A4A" stroke-width="0.997625" stroke-linecap="square" fill="none" fill-rule="evenodd" transform="scale(1 1.00238)"/><path d="M212.494 127.197 216.983 118.219 208.005 118.219 212.494 127.197ZM211.995 103.753 211.995 118.717 211.995 119.216 212.993 119.216 212.993 118.717 212.993 103.753 212.993 103.254 211.995 103.254 211.995 103.753Z" fill="#4A4A4A" transform="scale(1 1.00238)"/><path d="M175.582 71.829 171.093 80.8076 180.071 80.8076 175.582 71.829ZM176.081 126.698 176.081 80.3088 176.081 79.81 175.083 79.81 175.083 80.3088 175.083 126.698 175.083 127.197 176.081 127.197 176.081 126.698Z" fill="#4A4A4A" transform="scale(1 1.00238)"/><path d="M154.545 37.9097 154.545 30.0598 155.997 30.0598 155.997 37.9097 154.545 37.9097ZM157.733 37.9097 157.733 30.0598 159.276 30.0598C159.555 30.4956 160.121 31.3743 160.975 32.6961 161.828 34.0178 162.348 34.8215 162.534 35.1073 162.587 35.1895 162.679 35.3279 162.81 35.5226 162.94 35.7173 163.032 35.8557 163.086 35.9379 163.061 34.7126 163.048 34.0767 163.048 34.0303L163.048 30.0598 164.372 30.0598 164.372 37.9097 162.807 37.9097 159.265 32.3907 159.008 31.9673C159.037 32.9104 159.051 33.5731 159.051 33.9553L159.051 37.9097 157.733 37.9097ZM167.517 36.747 168.557 36.747C169.453 36.747 170.136 36.5121 170.604 36.0424 171.072 35.5726 171.306 34.8876 171.306 33.9874 171.306 33.0229 171.064 32.3219 170.582 31.8843 170.1 31.4467 169.373 31.2279 168.401 31.2279L167.517 31.2279 167.517 36.747ZM166.065 37.9097 166.065 30.0598 168.337 30.0598C169.023 30.0598 169.637 30.1384 170.18 30.2955 170.723 30.4527 171.19 30.6894 171.581 31.0055 171.973 31.3217 172.273 31.7289 172.482 32.2272 172.691 32.7256 172.795 33.3016 172.795 33.9553 172.795 35.2234 172.413 36.1995 171.648 36.8836 170.884 37.5677 169.825 37.9097 168.471 37.9097L166.065 37.9097ZM174.172 37.9097 174.172 30.0598 178.93 30.0598 178.871 31.2118 175.624 31.2118 175.624 33.2373 178.711 33.2373 178.711 34.3893 175.624 34.3893 175.624 36.7523 178.989 36.7523 178.941 37.9097 174.172 37.9097ZM179.439 37.9097 182.188 33.891 179.643 30.0598 181.277 30.0598 183.126 32.9854 185.028 30.0598 186.577 30.0598 183.978 33.9124 186.716 37.9097 185.039 37.9097 183.056 34.8555 181.031 37.9097 179.439 37.9097ZM193.039 36.9077C193.325 36.9077 193.568 36.8256 193.77 36.6612 193.972 36.4969 194.126 36.2692 194.231 35.9781 194.337 35.6869 194.412 35.3761 194.459 35.0457 194.505 34.7153 194.529 34.3482 194.529 33.9446 194.529 32.0084 194.032 31.0404 193.039 31.0404 192.053 31.0404 191.553 32.0013 191.539 33.9231 191.539 34.3304 191.562 34.7001 191.608 35.0323 191.655 35.3645 191.731 35.678 191.839 35.9727 191.946 36.2674 192.101 36.4969 192.305 36.6612 192.508 36.8256 192.753 36.9077 193.039 36.9077ZM193.039 38.0223C192.614 38.0223 192.232 37.9499 191.892 37.8053 191.553 37.6606 191.272 37.4641 191.051 37.2158 190.829 36.9676 190.645 36.6702 190.496 36.3237 190.348 35.9772 190.243 35.611 190.18 35.2252 190.118 34.8394 190.086 34.4268 190.086 33.9874 190.086 33.5409 190.119 33.1221 190.183 32.7309 190.247 32.3397 190.354 31.97 190.504 31.6217 190.654 31.2734 190.841 30.9761 191.064 30.7296 191.288 30.4831 191.567 30.2875 191.903 30.1428 192.239 29.9982 192.617 29.9258 193.039 29.9258 193.46 29.9258 193.839 29.9982 194.175 30.1428 194.511 30.2875 194.789 30.484 195.011 30.7322 195.232 30.9805 195.417 31.2788 195.565 31.6271 195.714 31.9754 195.82 32.3442 195.884 32.7336 195.948 33.123 195.981 33.5409 195.981 33.9874 195.981 34.4268 195.949 34.8394 195.887 35.2252 195.824 35.611 195.72 35.9781 195.573 36.3264 195.427 36.6746 195.243 36.972 195.021 37.2185 194.8 37.465 194.52 37.6606 194.183 37.8053 193.845 37.9499 193.464 38.0223 193.039 38.0223Z" fill="#4A4A4A" fill-rule="evenodd" transform="scale(1 1.00238)"/><path d="M242.972 37.9097 242.972 30.0598 244.424 30.0598 244.424 37.9097 242.972 37.9097ZM246.16 37.9097 246.16 30.0598 247.704 30.0598C247.982 30.4956 248.549 31.3743 249.402 32.6961 250.256 34.0178 250.776 34.8215 250.962 35.1073 251.015 35.1895 251.107 35.3279 251.238 35.5226 251.368 35.7173 251.46 35.8557 251.513 35.9379 251.488 34.7126 251.476 34.0767 251.476 34.0303L251.476 30.0598 252.799 30.0598 252.799 37.9097 251.235 37.9097 247.693 32.3907 247.436 31.9673C247.464 32.9104 247.479 33.5731 247.479 33.9553L247.479 37.9097 246.16 37.9097ZM255.945 36.747 256.984 36.747C257.881 36.747 258.563 36.5121 259.031 36.0424 259.499 35.5726 259.733 34.8876 259.733 33.9874 259.733 33.0229 259.492 32.3219 259.01 31.8843 258.528 31.4467 257.801 31.2279 256.829 31.2279L255.945 31.2279 255.945 36.747ZM254.493 37.9097 254.493 30.0598 256.765 30.0598C257.451 30.0598 258.065 30.1384 258.608 30.2955 259.151 30.4527 259.618 30.6894 260.009 31.0055 260.4 31.3217 260.7 31.7289 260.909 32.2272 261.118 32.7256 261.223 33.3016 261.223 33.9553 261.223 35.2234 260.841 36.1995 260.076 36.8836 259.312 37.5677 258.252 37.9097 256.899 37.9097L254.493 37.9097ZM262.6 37.9097 262.6 30.0598 267.358 30.0598 267.299 31.2118 264.052 31.2118 264.052 33.2373 267.138 33.2373 267.138 34.3893 264.052 34.3893 264.052 36.7523 267.417 36.7523 267.369 37.9097 262.6 37.9097ZM267.867 37.9097 270.616 33.891 268.071 30.0598 269.705 30.0598 271.554 32.9854 273.456 30.0598 275.004 30.0598 272.406 33.9124 275.144 37.9097 273.467 37.9097 271.484 34.8555 269.459 37.9097 267.867 37.9097ZM279.613 37.9044 279.613 31.3726C279.563 31.4047 279.331 31.5074 278.919 31.6807 278.506 31.8539 278.273 31.9477 278.219 31.962L278.219 30.8903C278.305 30.851 278.577 30.7162 279.034 30.4858 279.491 30.2554 279.743 30.1241 279.789 30.0919L280.968 30.0919 280.968 37.9044 279.613 37.9044Z" fill="#4A4A4A" fill-rule="evenodd" transform="scale(1 1.00238)"/><path d="M326.784 37.9097 326.784 30.0598 328.237 30.0598 328.237 37.9097 326.784 37.9097ZM329.973 37.9097 329.973 30.0598 331.516 30.0598C331.794 30.4956 332.361 31.3743 333.214 32.6961 334.068 34.0178 334.588 34.8215 334.774 35.1073 334.827 35.1895 334.919 35.3279 335.05 35.5226 335.18 35.7173 335.272 35.8557 335.326 35.9379 335.301 34.7126 335.288 34.0767 335.288 34.0303L335.288 30.0598 336.612 30.0598 336.612 37.9097 335.047 37.9097 331.505 32.3907 331.248 31.9673C331.277 32.9104 331.291 33.5731 331.291 33.9553L331.291 37.9097 329.973 37.9097ZM339.757 36.747 340.796 36.747C341.693 36.747 342.375 36.5121 342.843 36.0424 343.311 35.5726 343.545 34.8876 343.545 33.9874 343.545 33.0229 343.304 32.3219 342.822 31.8843 342.34 31.4467 341.613 31.2279 340.641 31.2279L339.757 31.2279 339.757 36.747ZM338.305 37.9097 338.305 30.0598 340.577 30.0598C341.263 30.0598 341.877 30.1384 342.42 30.2955 342.963 30.4527 343.43 30.6894 343.821 31.0055 344.212 31.3217 344.512 31.7289 344.721 32.2272 344.93 32.7256 345.035 33.3016 345.035 33.9553 345.035 35.2234 344.653 36.1995 343.888 36.8836 343.124 37.5677 342.065 37.9097 340.711 37.9097L338.305 37.9097ZM346.412 37.9097 346.412 30.0598 351.17 30.0598 351.111 31.2118 347.864 31.2118 347.864 33.2373 350.951 33.2373 350.951 34.3893 347.864 34.3893 347.864 36.7523 351.229 36.7523 351.181 37.9097 346.412 37.9097ZM351.679 37.9097 354.428 33.891 351.883 30.0598 353.517 30.0598 355.366 32.9854 357.268 30.0598 358.817 30.0598 356.218 33.9124 358.956 37.9097 357.279 37.9097 355.296 34.8555 353.271 37.9097 351.679 37.9097ZM362.257 37.9097 362.224 36.7523 364.705 33.9446C365.013 33.6159 365.237 33.3132 365.378 33.0363 365.519 32.7595 365.59 32.4675 365.59 32.1602 365.59 31.8209 365.479 31.5503 365.257 31.3485 365.036 31.1466 364.745 31.0457 364.384 31.0457 364.052 31.0457 363.724 31.1073 363.401 31.2306 363.077 31.3538 362.812 31.5083 362.605 31.6941L362.203 30.6331C362.739 30.1616 363.493 29.9258 364.464 29.9258 365.236 29.9258 365.857 30.1196 366.326 30.5072 366.796 30.8948 367.031 31.4422 367.031 32.1495 367.031 32.6496 366.898 33.1265 366.632 33.5802 366.366 34.0339 366.002 34.5 365.541 34.9787L363.773 36.8541 366.94 36.8541 366.843 37.9097 362.257 37.9097Z" fill="#4A4A4A" fill-rule="evenodd" transform="scale(1 1.00238)"/><path d="M17.9572 11.9715 17.9572 22.9454" stroke="#4A4A4A" stroke-width="0.997625" stroke-linecap="square" fill="none" fill-rule="evenodd" transform="matrix(1 0 0 1.00238 186.556 138)"/><path d="M0.997625 11.9715C0.997625 11.9715 0.997625 15.6295 0.997625 22.9454" stroke="#4A4A4A" stroke-width="0.997625" stroke-linecap="square" fill="none" fill-rule="evenodd" transform="matrix(1 0 0 1.00238 220.475 138)"/><path d="M0.997625 10.9739 17.9572 10.9739" stroke="#4A4A4A" stroke-width="0.997625" stroke-linecap="square" fill="none" fill-rule="evenodd" transform="matrix(1 0 0 1.00238 203.515 151)"/><path d="M9.97625 0 9.97625 10.4751" stroke="#4A4A4A" stroke-width="0.997625" stroke-linecap="square" fill="none" fill-rule="evenodd" transform="matrix(1 0 0 1.00238 202.518 162.5)"/><path d="M17.9572 11.9715 17.9572 22.9454" stroke="#4A4A4A" stroke-width="0.997625" stroke-linecap="square" fill="none" fill-rule="evenodd" transform="matrix(0 1.00238 -1 0 155.629 112)"/><path d="M0.997625 11.9715C0.997625 11.9715 0.997625 15.6295 0.997625 22.9454" stroke="#4A4A4A" stroke-width="0.997625" stroke-linecap="square" fill="none" fill-rule="evenodd" transform="matrix(0 1.00238 -1 0 155.629 146)"/><path d="M0.997625 10.9739 17.9572 10.9739" stroke="#4A4A4A" stroke-width="0.997625" stroke-linecap="square" fill="none" fill-rule="evenodd" transform="matrix(0 1.00238 -1 0 142.66 129)"/><path d="M9.97625 0 9.97625 10.4751" stroke="#4A4A4A" stroke-width="0.997625" stroke-linecap="square" fill="none" fill-rule="evenodd" transform="matrix(0 1.00238 -1 0 131.188 128)"/><path d="M189.019 186.556 189.019 179.419 191.245 179.419C192.19 179.419 192.895 179.558 193.359 179.834 193.824 180.11 194.056 180.569 194.056 181.212 194.056 181.316 194.05 181.418 194.037 181.519 194.024 181.62 193.994 181.734 193.949 181.862 193.903 181.991 193.843 182.107 193.769 182.211 193.694 182.315 193.59 182.416 193.457 182.515 193.324 182.614 193.168 182.691 192.989 182.747 193.431 182.854 193.769 183.059 194.002 183.363 194.236 183.666 194.353 184.041 194.353 184.486 194.353 185.158 194.115 185.671 193.64 186.025 193.164 186.379 192.505 186.556 191.664 186.556L189.019 186.556ZM190.339 185.601 191.484 185.601C192.497 185.601 193.004 185.205 193.004 184.412 193.004 184.013 192.877 183.726 192.624 183.55 192.371 183.375 191.979 183.287 191.45 183.287L190.339 183.287 190.339 185.601ZM190.339 182.367 191.469 182.367C192.343 182.367 192.78 182.034 192.78 181.368 192.78 180.995 192.654 180.738 192.402 180.598 192.151 180.459 191.75 180.389 191.201 180.389L190.339 180.389 190.339 182.367ZM195.478 186.556 195.478 179.4 198.123 179.4C198.484 179.4 198.797 179.416 199.061 179.449 199.326 179.481 199.578 179.54 199.816 179.627 200.055 179.713 200.248 179.829 200.396 179.975 200.544 180.121 200.661 180.312 200.747 180.547 200.833 180.783 200.876 181.061 200.876 181.383 200.876 182.331 200.445 182.954 199.585 183.253 199.76 183.451 199.978 183.818 200.238 184.354L201.3 186.556 199.858 186.556 199.025 184.69C198.71 184.021 198.515 183.625 198.44 183.502 198.385 183.498 198.201 183.497 197.89 183.497L196.784 183.487 196.784 186.556 195.478 186.556ZM198.24 182.542C198.747 182.542 199.111 182.452 199.332 182.272 199.552 182.091 199.663 181.802 199.663 181.402 199.663 181.051 199.551 180.793 199.327 180.628 199.103 180.462 198.76 180.379 198.299 180.379L196.784 180.379 196.784 182.537C196.833 182.537 197.075 182.538 197.51 182.54 197.945 182.541 198.188 182.542 198.24 182.542ZM201.519 186.556 204.144 179.415 205.581 179.415 208.168 186.556 206.814 186.556 206.107 184.539 203.608 184.539 202.897 186.556 201.519 186.556ZM203.94 183.555 205.771 183.555C205.187 181.681 204.886 180.714 204.87 180.652L203.94 183.555ZM211.977 186.658C210.935 186.658 210.108 186.33 209.498 185.674 208.887 185.018 208.582 184.112 208.582 182.956 208.582 181.858 208.901 180.977 209.539 180.313 210.177 179.649 211.013 179.317 212.045 179.317 212.88 179.317 213.586 179.51 214.164 179.897L213.75 180.895C213.195 180.554 212.636 180.384 212.075 180.384 211.419 180.384 210.9 180.62 210.518 181.093 210.137 181.565 209.946 182.199 209.946 182.995 209.946 183.82 210.13 184.458 210.499 184.909 210.867 185.361 211.393 185.586 212.075 185.586 212.672 185.586 213.265 185.437 213.853 185.138L214.028 186.171C213.482 186.496 212.799 186.658 211.977 186.658ZM215.197 186.556 215.197 179.419 216.522 179.419 216.522 182.634C216.753 182.329 217.224 181.759 217.937 180.925 218.65 180.09 219.075 179.588 219.211 179.419L220.775 179.419 218.076 182.63 220.945 186.556 219.396 186.556 217.068 183.355 216.522 183.813 216.522 186.556 215.197 186.556ZM221.491 186.556 221.491 179.419 225.816 179.419 225.763 180.467 222.811 180.467 222.811 182.308 225.617 182.308 225.617 183.355 222.811 183.355 222.811 185.504 225.87 185.504 225.826 186.556 221.491 186.556ZM228.481 186.556 228.481 180.477 226.401 180.477 226.401 179.419 231.876 179.419 231.876 180.477 229.806 180.477 229.806 186.556 228.481 186.556ZM234.716 186.653C233.855 186.653 233.084 186.455 232.402 186.059L232.724 185.012C233.029 185.181 233.361 185.317 233.72 185.421 234.079 185.525 234.429 185.577 234.77 185.577 235.189 185.577 235.505 185.487 235.72 185.306 235.934 185.126 236.041 184.867 236.041 184.529 236.041 184.081 235.742 183.771 235.145 183.599 235.103 183.586 234.984 183.551 234.789 183.494 234.594 183.437 234.412 183.382 234.241 183.329 234.071 183.275 233.948 183.234 233.873 183.204 232.915 182.867 232.436 182.237 232.436 181.314 232.436 180.668 232.666 180.17 233.126 179.819 233.585 179.468 234.195 179.293 234.955 179.293 235.815 179.293 236.557 179.47 237.181 179.824L236.781 180.788C236.145 180.503 235.554 180.36 235.008 180.36 234.615 180.36 234.319 180.429 234.119 180.567 233.92 180.705 233.813 180.934 233.8 181.256 233.8 181.652 233.997 181.91 234.39 182.03 234.468 182.06 234.659 182.123 234.964 182.22 235.27 182.318 235.468 182.381 235.559 182.41 236.212 182.625 236.678 182.891 236.959 183.209 237.24 183.528 237.381 183.971 237.381 184.539 237.381 185.218 237.14 185.74 236.66 186.105 236.179 186.471 235.531 186.653 234.716 186.653Z" fill="#4A4A4A" fill-rule="evenodd" transform="scale(1 1.00238)"/><path d="M272.888 107.743 272.888 100.607 274.208 100.607 274.208 107.743 272.888 107.743ZM275.787 107.743 275.787 100.607 277.19 100.607C277.443 101.003 277.958 101.802 278.734 103.004 279.51 104.205 279.982 104.936 280.151 105.196 280.2 105.271 280.284 105.396 280.402 105.573 280.521 105.75 280.604 105.876 280.653 105.951 280.63 104.837 280.619 104.259 280.619 104.217L280.619 100.607 281.822 100.607 281.822 107.743 280.4 107.743 277.18 102.726 276.946 102.341C276.972 103.199 276.985 103.801 276.985 104.149L276.985 107.743 275.787 107.743ZM284.682 106.686 285.627 106.686C286.442 106.686 287.062 106.473 287.487 106.046 287.913 105.619 288.126 104.996 288.126 104.178 288.126 103.301 287.906 102.664 287.468 102.266 287.029 101.868 286.369 101.669 285.485 101.669L284.682 101.669 284.682 106.686ZM283.361 107.743 283.361 100.607 285.427 100.607C286.05 100.607 286.609 100.679 287.103 100.821 287.596 100.964 288.021 101.18 288.376 101.467 288.732 101.754 289.005 102.125 289.195 102.578 289.385 103.031 289.48 103.554 289.48 104.149 289.48 105.301 289.132 106.189 288.437 106.811 287.742 107.433 286.779 107.743 285.549 107.743L283.361 107.743ZM290.732 107.743 290.732 100.607 295.057 100.607 295.004 101.654 292.052 101.654 292.052 103.496 294.858 103.496 294.858 104.543 292.052 104.543 292.052 106.691 295.111 106.691 295.067 107.743 290.732 107.743ZM295.52 107.743 298.019 104.09 295.705 100.607 297.191 100.607 298.871 103.267 300.601 100.607 302.008 100.607 299.646 104.11 302.135 107.743 300.61 107.743 298.808 104.967 296.967 107.743 295.52 107.743ZM305.589 107.817 305.964 105.775 304.98 105.775 305.019 104.904 306.125 104.904 306.393 103.369 305.36 103.369 305.399 102.497 306.548 102.497 306.938 100.641 307.888 100.641 307.518 102.497 308.458 102.497 308.818 100.641 309.744 100.641 309.379 102.497 310.26 102.497 310.202 103.364 309.218 103.364 308.926 104.904 309.875 104.904 309.827 105.775 308.779 105.775 308.39 107.817 307.435 107.817 307.82 105.775 306.894 105.775 306.509 107.817 305.589 107.817ZM307.05 104.904 307.995 104.904 308.292 103.364 307.352 103.364 307.05 104.904Z" fill="#4A4A4A" fill-rule="evenodd" transform="scale(1 1.00238)"/><path d="M52.3928 140.665 55.0184 133.524 56.4554 133.524 59.042 140.665 57.6878 140.665 56.9815 138.648 54.4826 138.648 53.7714 140.665 52.3928 140.665ZM54.8138 137.664 56.6454 137.664C56.0609 135.791 55.7605 134.823 55.7442 134.761L54.8138 137.664ZM59.7191 140.665 59.7191 133.509 62.3642 133.509C62.7247 133.509 63.0372 133.526 63.3019 133.558 63.5666 133.59 63.8183 133.65 64.057 133.736 64.2956 133.822 64.4889 133.938 64.6366 134.084 64.7844 134.23 64.9013 134.421 64.9874 134.656 65.0734 134.892 65.1164 135.17 65.1164 135.492 65.1164 136.44 64.6862 137.064 63.8256 137.362 64.0009 137.56 64.2185 137.927 64.4783 138.463L65.5402 140.665 64.0984 140.665 63.2654 138.799C62.9504 138.13 62.7555 137.734 62.6808 137.611 62.6256 137.608 62.4421 137.606 62.1304 137.606L61.0246 137.596 61.0246 140.665 59.7191 140.665ZM62.4811 136.651C62.9877 136.651 63.3514 136.561 63.5723 136.381 63.7931 136.201 63.9035 135.911 63.9035 135.511 63.9035 135.161 63.7915 134.902 63.5674 134.737 63.3433 134.571 63.0007 134.488 62.5396 134.488L61.0246 134.488 61.0246 136.646C61.0733 136.646 61.3153 136.647 61.7504 136.649 62.1856 136.65 62.4292 136.651 62.4811 136.651ZM66.456 140.665 66.456 133.509 69.1011 133.509C69.4616 133.509 69.7741 133.526 70.0388 133.558 70.3035 133.59 70.5552 133.65 70.7938 133.736 71.0325 133.822 71.2258 133.938 71.3735 134.084 71.5213 134.23 71.6382 134.421 71.7242 134.656 71.8103 134.892 71.8533 135.17 71.8533 135.492 71.8533 136.44 71.423 137.064 70.5625 137.362 70.7378 137.56 70.9554 137.927 71.2152 138.463L72.2771 140.665 70.8353 140.665 70.0023 138.799C69.6873 138.13 69.4924 137.734 69.4177 137.611 69.3625 137.608 69.179 137.606 68.8673 137.606L67.7615 137.596 67.7615 140.665 66.456 140.665ZM69.218 136.651C69.7246 136.651 70.0883 136.561 70.3092 136.381 70.53 136.201 70.6404 135.911 70.6404 135.511 70.6404 135.161 70.5284 134.902 70.3043 134.737 70.0802 134.571 69.7376 134.488 69.2765 134.488L67.7615 134.488 67.7615 136.646C67.8102 136.646 68.0522 136.647 68.4873 136.649 68.9225 136.65 69.166 136.651 69.218 136.651ZM72.4963 140.665 75.1219 133.524 76.5589 133.524 79.1455 140.665 77.7913 140.665 77.085 138.648 74.5861 138.648 73.8749 140.665 72.4963 140.665ZM74.9173 137.664 76.7489 137.664C76.1644 135.791 75.864 134.823 75.8477 134.761L74.9173 137.664ZM81.1086 140.665 81.1086 137.835 78.6389 133.529 80.0711 133.529 81.7711 136.617 83.4809 133.529 84.8936 133.529 82.4336 137.811 82.4336 140.665 81.1086 140.665ZM88.2352 140.665 88.2352 133.529 89.6381 133.529C89.8914 133.925 90.4062 134.724 91.1823 135.925 91.9585 137.127 92.431 137.858 92.5998 138.117 92.6485 138.192 92.7322 138.318 92.8507 138.495 92.9692 138.672 93.0529 138.798 93.1016 138.872 93.0788 137.759 93.0675 137.181 93.0675 137.138L93.0675 133.529 94.2707 133.529 94.2707 140.665 92.8483 140.665 89.6284 135.648 89.3946 135.263C89.4206 136.12 89.4335 136.723 89.4335 137.07L89.4335 140.665 88.2352 140.665ZM95.0208 140.665 97.6464 133.524 99.0834 133.524 101.67 140.665 100.316 140.665 99.6095 138.648 97.1106 138.648 96.3994 140.665 95.0208 140.665ZM97.4418 137.664 99.2734 137.664C98.6889 135.791 98.3885 134.823 98.3722 134.761L97.4418 137.664ZM102.381 140.665 102.381 133.529 103.94 133.529 106.098 138.682 108.271 133.529 109.81 133.529 109.81 140.665 108.592 140.665 108.592 137.138 108.631 135.117 108.451 135.653 106.624 140.178 105.494 140.178 103.706 135.628 103.526 135.092 103.57 137.158 103.57 140.665 102.381 140.665ZM111.349 140.665 111.349 133.529 115.675 133.529 115.621 134.576 112.669 134.576 112.669 136.417 115.475 136.417 115.475 137.465 112.669 137.465 112.669 139.613 115.728 139.613 115.685 140.665 111.349 140.665Z" fill="#4A4A4A" fill-rule="evenodd" transform="scale(1 1.00238)"/><path d="M315.283 52.8907C315.255 53.018 315.217 53.1009 315.167 53.1396 315.117 53.1782 315.035 53.1976 314.921 53.1976L313.694 53.1976C313.639 53.1976 313.595 53.1851 313.561 53.16 313.526 53.135 313.509 53.0998 313.509 53.0543 313.509 53.0453 313.513 53.0305 313.52 53.01L313.55 52.9179 315.092 49.7332C315.123 49.6695 315.161 49.6206 315.204 49.5865 315.247 49.5524 315.292 49.5354 315.337 49.5354 315.36 49.5354 315.389 49.5399 315.426 49.549 315.435 49.5581 315.444 49.5627 315.453 49.5627L315.842 49.7195C315.896 49.7422 315.941 49.7718 315.975 49.8082 316.009 49.8445 316.026 49.8855 316.026 49.9309 316.026 49.9491 316.024 49.9684 316.019 49.9889 316.015 50.0093 316.008 50.0355 315.999 50.0673L315.283 52.8907Z" fill="#F5A623" transform="scale(1 1.00238)"/><path d="M321.291 56.9007 322.143 56.9007C322.389 56.9007 322.564 56.937 322.668 57.0098 322.773 57.0825 322.825 57.203 322.825 57.3712 322.825 57.5576 322.776 57.6861 322.678 57.7565 322.581 57.827 322.366 57.8622 322.034 57.8622L320.009 57.8622C319.845 57.8622 319.722 57.8213 319.64 57.7395 319.558 57.6576 319.518 57.5349 319.518 57.3712 319.518 57.1894 319.564 57.0655 319.657 56.9995 319.751 56.9336 319.931 56.9007 320.2 56.9007L320.329 56.9007 320.329 50.7561 320.159 50.7561C319.777 50.7561 319.519 50.7197 319.385 50.647 319.25 50.5742 319.183 50.4469 319.183 50.2651 319.183 50.0969 319.241 49.9753 319.357 49.9002 319.473 49.8252 319.661 49.7877 319.92 49.7877L320.056 49.7809C320.147 49.7763 320.238 49.7741 320.329 49.7741L320.97 49.7741C321.179 49.7741 321.326 49.7979 321.41 49.8457 321.494 49.8934 321.593 50.015 321.707 50.2105L325.144 56.1437 325.144 50.7561 324.394 50.7561C324.148 50.7561 323.97 50.7163 323.858 50.6368 323.747 50.5572 323.691 50.4333 323.691 50.2651 323.691 50.0787 323.739 49.9502 323.834 49.8798 323.93 49.8093 324.13 49.7741 324.435 49.7741L326.392 49.7741C326.555 49.7741 326.677 49.815 326.757 49.8968 326.836 49.9787 326.876 50.1014 326.876 50.2651 326.876 50.4469 326.827 50.5742 326.729 50.647 326.632 50.7197 326.453 50.7561 326.194 50.7561L326.112 50.7561 326.112 57.6235C326.112 57.7554 326.082 57.8463 326.02 57.8963 325.959 57.9463 325.817 57.9713 325.594 57.9713 325.371 57.9713 325.234 57.9588 325.181 57.9338 325.129 57.9088 325.042 57.7918 324.919 57.5826L321.291 51.329 321.291 56.9007Z" fill="#F5A623" transform="scale(1 1.00238)"/><path d="M333.096 56.9961C332.723 57.3326 332.317 57.5894 331.878 57.7668 331.44 57.9441 330.988 58.0327 330.525 58.0327 329.847 58.0327 329.3 57.844 328.884 57.4667 328.468 57.0893 328.26 56.5983 328.26 55.9936 328.26 55.2753 328.537 54.7184 329.089 54.3228 329.641 53.9273 330.418 53.7295 331.418 53.7295 331.682 53.7295 331.948 53.7465 332.216 53.7806 332.484 53.8147 332.759 53.8682 333.041 53.9409L333.041 53.8932C333.041 53.3703 332.916 52.9839 332.666 52.7338 332.416 52.4838 332.027 52.3587 331.5 52.3587 331.145 52.3587 330.75 52.4542 330.313 52.6452 329.877 52.8361 329.588 52.9316 329.447 52.9316 329.315 52.9316 329.206 52.8782 329.12 52.7713 329.033 52.6645 328.99 52.527 328.99 52.3587 328.99 52.0905 329.241 51.8632 329.744 51.6768 330.246 51.4904 330.888 51.3972 331.67 51.3972 332.47 51.3972 333.075 51.6006 333.484 52.0075 333.893 52.4144 334.098 53.0157 334.098 53.8113L334.098 56.9007 334.432 56.9007C334.755 56.9007 334.971 56.9348 335.08 57.0029 335.189 57.0711 335.244 57.1939 335.244 57.3712 335.244 57.5349 335.198 57.6576 335.107 57.7395 335.016 57.8213 334.88 57.8622 334.698 57.8622L333.628 57.8622C333.5 57.8622 333.396 57.8236 333.314 57.7463 333.232 57.669 333.177 57.5576 333.15 57.4121L333.096 56.9961ZM333.041 54.8479C332.791 54.7661 332.549 54.7058 332.315 54.6672 332.081 54.6286 331.848 54.6092 331.616 54.6092 330.916 54.6092 330.363 54.7274 329.959 54.9639 329.554 55.2003 329.352 55.5185 329.352 55.9186 329.352 56.2278 329.478 56.4824 329.73 56.6824 329.982 56.8825 330.304 56.9825 330.695 56.9825 331.272 56.9825 331.808 56.8313 332.301 56.529 332.794 56.2266 333.041 55.9118 333.041 55.5845L333.041 54.8479Z" fill="#F5A623" transform="scale(1 1.00238)"/><path d="M339.281 49.5968C339.281 49.1057 339.325 48.7966 339.414 48.6693 339.503 48.542 339.693 48.4783 339.983 48.4783 340.265 48.4783 340.452 48.5317 340.543 48.6386 340.634 48.7454 340.679 48.9989 340.679 49.399 340.679 49.79 340.637 50.0321 340.553 50.1253 340.469 50.2185 340.279 50.2651 339.983 50.2651 339.693 50.2651 339.503 50.2219 339.414 50.1355 339.325 50.0491 339.281 49.8695 339.281 49.5968Z" fill="#F5A623" transform="scale(1 1.00238)"/><path d="M340.543 56.9007 342.732 56.9007C342.909 56.9007 343.04 56.9382 343.124 57.0132 343.208 57.0882 343.25 57.2075 343.25 57.3712 343.25 57.5576 343.21 57.6861 343.131 57.7565 343.051 57.827 342.905 57.8622 342.691 57.8622L337.399 57.8622C337.217 57.8622 337.081 57.8213 336.99 57.7395 336.899 57.6576 336.853 57.5349 336.853 57.3712 336.853 57.2121 336.901 57.0939 336.996 57.0166 337.092 56.9393 337.235 56.9007 337.426 56.9007L339.506 56.9007 339.506 52.5292 338.176 52.5292C337.99 52.5292 337.848 52.4872 337.75 52.4031 337.652 52.319 337.603 52.1973 337.603 52.0382 337.603 51.8791 337.649 51.7597 337.74 51.6802 337.831 51.6006 337.967 51.5608 338.149 51.5608L340.147 51.5608C340.27 51.5608 340.367 51.5858 340.437 51.6358 340.507 51.6859 340.543 51.7541 340.543 51.8404L340.543 56.9007Z" fill="#F5A623" transform="scale(1 1.00238)"/><path d="M347.622 56.9007 349.886 56.9007C350.063 56.9007 350.194 56.9382 350.278 57.0132 350.362 57.0882 350.404 57.2075 350.404 57.3712 350.404 57.5576 350.364 57.6861 350.285 57.7565 350.205 57.827 350.058 57.8622 349.845 57.8622L345.385 57.8622C345.207 57.8622 345.073 57.8213 344.982 57.7395 344.891 57.6576 344.846 57.5349 344.846 57.3712 344.846 57.2121 344.893 57.0939 344.986 57.0166 345.079 56.9393 345.223 56.9007 345.419 56.9007L346.605 56.9007 346.605 52.5292 346.142 52.5292C345.701 52.5292 345.426 52.494 345.316 52.4235 345.207 52.3531 345.153 52.2246 345.153 52.0382 345.153 51.8791 345.197 51.7597 345.286 51.6802 345.374 51.6006 345.51 51.5608 345.692 51.5608L347.246 51.5608C347.369 51.5608 347.462 51.5847 347.526 51.6324 347.59 51.6802 347.622 51.7495 347.622 51.8404L347.622 52.9998C348.053 52.4588 348.504 52.0564 348.972 51.7927 349.44 51.529 349.945 51.3972 350.486 51.3972 350.89 51.3972 351.218 51.479 351.468 51.6427 351.718 51.8063 351.843 52.0177 351.843 52.2769 351.843 52.4451 351.78 52.594 351.655 52.7236 351.53 52.8532 351.393 52.9179 351.243 52.9179 351.138 52.9179 350.962 52.8486 350.714 52.7099 350.466 52.5713 350.245 52.5019 350.049 52.5019 349.695 52.5019 349.321 52.6281 348.928 52.8804 348.534 53.1328 348.099 53.5317 347.622 54.0773L347.622 56.9007Z" fill="#F5A623" transform="scale(1 1.00238)"/><path d="M360.252 54.7183C360.252 55.6913 359.92 56.4869 359.256 57.1052 358.592 57.7236 357.731 58.0327 356.671 58.0327 355.616 58.0327 354.757 57.7236 354.093 57.1052 353.43 56.4869 353.098 55.6913 353.098 54.7183 353.098 53.7454 353.43 52.9509 354.093 52.3349 354.757 51.7188 355.616 51.4108 356.671 51.4108 357.726 51.4108 358.586 51.72 359.253 52.3383 359.919 52.9566 360.252 53.75 360.252 54.7183ZM356.671 57.078C357.371 57.078 357.945 56.8563 358.393 56.413 358.841 55.9698 359.065 55.4049 359.065 54.7183 359.065 54.0318 358.84 53.4647 358.39 53.0168 357.94 52.569 357.367 52.3451 356.671 52.3451 355.976 52.3451 355.404 52.569 354.956 53.0168 354.508 53.4647 354.284 54.0318 354.284 54.7183 354.284 55.4094 354.507 55.9754 354.953 56.4165 355.398 56.8575 355.971 57.078 356.671 57.078Z" fill="#F5A623" transform="scale(1 1.00238)"/><path d="M363.293 52.5429C363.548 52.2246 363.866 51.9814 364.248 51.8132 364.63 51.6449 365.062 51.5608 365.544 51.5608 366.458 51.5608 367.219 51.8689 367.828 52.4849 368.438 53.1009 368.742 53.8636 368.742 54.7729 368.742 55.6686 368.43 56.4278 367.804 57.0507 367.179 57.6736 366.417 57.985 365.516 57.985 365.039 57.985 364.623 57.9009 364.268 57.7327 363.914 57.5644 363.623 57.3098 363.396 56.9689L363.396 57.5144C363.396 57.6372 363.374 57.7258 363.331 57.7804 363.288 57.835 363.216 57.8622 363.116 57.8622L361.868 57.8622C361.691 57.8622 361.559 57.8213 361.472 57.7395 361.386 57.6576 361.343 57.5349 361.343 57.3712 361.343 57.1894 361.395 57.0655 361.5 56.9995 361.604 56.9336 361.811 56.9007 362.12 56.9007L362.263 56.9007 362.263 49.9173 362.134 49.9173C361.825 49.9173 361.613 49.8809 361.5 49.8082 361.386 49.7354 361.329 49.6081 361.329 49.4263 361.329 49.2626 361.375 49.1398 361.466 49.058 361.556 48.9762 361.691 48.9352 361.868 48.9352L362.904 48.9352C363.041 48.9352 363.14 48.958 363.201 49.0034 363.263 49.0489 363.293 49.1194 363.293 49.2149L363.293 52.5429ZM365.421 56.9143C366.062 56.9143 366.583 56.712 366.983 56.3073 367.383 55.9027 367.583 55.3776 367.583 54.732 367.583 54.1 367.379 53.5795 366.972 53.1703 366.566 52.7611 366.048 52.5565 365.421 52.5565 364.789 52.5565 364.272 52.76 363.869 53.1669 363.467 53.5738 363.266 54.0955 363.266 54.732 363.266 55.3685 363.467 55.8913 363.869 56.3005 364.272 56.7097 364.789 56.9143 365.421 56.9143Z" fill="#F5A623" transform="scale(1 1.00238)"/><path d="M372.807 49.5968C372.807 49.1057 372.851 48.7966 372.94 48.6693 373.028 48.542 373.218 48.4783 373.509 48.4783 373.791 48.4783 373.977 48.5317 374.068 48.6386 374.159 48.7454 374.205 48.9989 374.205 49.399 374.205 49.79 374.163 50.0321 374.079 50.1253 373.994 50.2185 373.805 50.2651 373.509 50.2651 373.218 50.2651 373.028 50.2219 372.94 50.1355 372.851 50.0491 372.807 49.8695 372.807 49.5968Z" fill="#F5A623" transform="scale(1 1.00238)"/><path d="M374.068 56.9007 376.257 56.9007C376.435 56.9007 376.565 56.9382 376.65 57.0132 376.734 57.0882 376.776 57.2075 376.776 57.3712 376.776 57.5576 376.736 57.6861 376.656 57.7565 376.577 57.827 376.43 57.8622 376.217 57.8622L370.924 57.8622C370.743 57.8622 370.606 57.8213 370.515 57.7395 370.424 57.6576 370.379 57.5349 370.379 57.3712 370.379 57.2121 370.427 57.0939 370.522 57.0166 370.618 56.9393 370.761 56.9007 370.952 56.9007L373.032 56.9007 373.032 52.5292 371.702 52.5292C371.516 52.5292 371.373 52.4872 371.276 52.4031 371.178 52.319 371.129 52.1973 371.129 52.0382 371.129 51.8791 371.174 51.7597 371.265 51.6802 371.356 51.6006 371.493 51.5608 371.675 51.5608L373.673 51.5608C373.796 51.5608 373.892 51.5858 373.963 51.6358 374.033 51.6859 374.068 51.7541 374.068 51.8404L374.068 56.9007Z" fill="#F5A623" transform="scale(1 1.00238)"/><path d="M381.372 50.081C381.404 49.9537 381.444 49.8707 381.492 49.832 381.539 49.7934 381.62 49.7741 381.734 49.7741L382.948 49.7741C383.002 49.7741 383.046 49.7866 383.081 49.8116 383.115 49.8366 383.132 49.8673 383.132 49.9036 383.132 49.9309 383.128 49.9571 383.121 49.9821 383.115 50.0071 383.104 50.0309 383.091 50.0537L381.55 53.2385C381.527 53.2976 381.495 53.343 381.454 53.3749 381.413 53.4067 381.368 53.4226 381.318 53.4226 381.286 53.4226 381.263 53.4215 381.249 53.4192 381.236 53.4169 381.22 53.4135 381.202 53.409L380.813 53.2521C380.749 53.2339 380.701 53.2078 380.666 53.1737 380.632 53.1396 380.615 53.0998 380.615 53.0543 380.615 53.0271 380.624 52.9861 380.643 52.9316L380.643 52.9043 381.372 50.081Z" fill="#F5A623" transform="scale(1 1.00238)"/><path d="M231.468 52.8907C231.441 53.018 231.402 53.1009 231.352 53.1396 231.302 53.1782 231.221 53.1976 231.107 53.1976L229.879 53.1976C229.825 53.1976 229.781 53.1851 229.746 53.16 229.712 53.135 229.695 53.0998 229.695 53.0543 229.695 53.0453 229.699 53.0305 229.706 53.01L229.736 52.9179 231.277 49.7332C231.309 49.6695 231.347 49.6206 231.39 49.5865 231.433 49.5524 231.478 49.5354 231.523 49.5354 231.546 49.5354 231.575 49.5399 231.612 49.549 231.621 49.5581 231.63 49.5627 231.639 49.5627L232.028 49.7195C232.082 49.7422 232.127 49.7718 232.161 49.8082 232.195 49.8445 232.212 49.8855 232.212 49.9309 232.212 49.9491 232.209 49.9684 232.205 49.9889 232.2 50.0093 232.194 50.0355 232.184 50.0673L231.468 52.8907Z" fill="#F5A623" transform="scale(1 1.00238)"/><path d="M239.836 57.8622 236.194 57.8622C236.035 57.8622 235.916 57.8213 235.836 57.7395 235.757 57.6576 235.717 57.5349 235.717 57.3712 235.717 57.1894 235.767 57.0655 235.867 56.9995 235.967 56.9336 236.206 56.9007 236.583 56.9007L236.808 56.9007 236.808 50.7561 236.583 50.7561C236.233 50.7561 236.008 50.7209 235.908 50.6504 235.808 50.5799 235.758 50.4515 235.758 50.2651 235.758 50.106 235.799 49.9843 235.881 49.9002 235.963 49.8161 236.081 49.7741 236.235 49.7741L239.42 49.7741C240.384 49.7741 241.118 49.9616 241.623 50.3367 242.128 50.7118 242.38 51.2562 242.38 51.97 242.38 52.3292 242.303 52.6429 242.148 52.9111 241.993 53.1794 241.764 53.3999 241.459 53.5726 241.95 53.75 242.315 53.9977 242.554 54.316 242.793 54.6342 242.912 55.0389 242.912 55.5299 242.912 55.9436 242.81 56.321 242.605 56.662 242.4 57.0029 242.112 57.2826 241.739 57.5008 241.516 57.6281 241.268 57.7202 240.996 57.777 240.723 57.8338 240.336 57.8622 239.836 57.8622ZM237.879 56.9007 239.393 56.9007C240.248 56.9007 240.85 56.7927 241.2 56.5767 241.55 56.3608 241.725 56.0027 241.725 55.5026 241.725 54.998 241.558 54.6388 241.224 54.4251 240.89 54.2114 240.302 54.1046 239.461 54.1046L237.879 54.1046 237.879 56.9007ZM237.879 53.2658 239.304 53.2658C239.95 53.2658 240.428 53.1635 240.74 52.9589 241.051 52.7543 241.207 52.4383 241.207 52.0109 241.207 51.6063 241.066 51.296 240.784 51.08 240.502 50.8641 240.098 50.7561 239.57 50.7561L237.879 50.7561 237.879 53.2658Z" fill="#F5A623" transform="scale(1 1.00238)"/><path d="M245.408 55.0116C245.444 55.6663 245.666 56.1721 246.073 56.529 246.48 56.8859 247.036 57.0643 247.74 57.0643 248.272 57.0643 248.852 56.9223 249.479 56.6381 250.107 56.3539 250.486 56.2119 250.618 56.2119 250.755 56.2119 250.868 56.2551 250.959 56.3414 251.05 56.4278 251.096 56.5347 251.096 56.662 251.096 56.7938 251.048 56.9143 250.952 57.0234 250.857 57.1325 250.705 57.2394 250.495 57.3439 250.041 57.5667 249.571 57.7372 249.087 57.8554 248.603 57.9736 248.122 58.0327 247.645 58.0327 246.608 58.0327 245.778 57.7338 245.156 57.1359 244.533 56.5381 244.221 55.7459 244.221 54.7593 244.221 53.7545 244.551 52.9407 245.21 52.3178 245.869 51.6949 246.729 51.3835 247.788 51.3835 248.747 51.3835 249.543 51.6745 250.175 52.2564 250.807 52.8384 251.123 53.5431 251.123 54.3705 251.123 54.6251 251.069 54.7956 250.963 54.882 250.856 54.9684 250.566 55.0116 250.093 55.0116L245.408 55.0116ZM245.442 54.1182 249.882 54.1182C249.813 53.5772 249.587 53.1419 249.203 52.8122 248.819 52.4826 248.347 52.3178 247.788 52.3178 247.183 52.3178 246.674 52.4769 246.26 52.7952 245.847 53.1134 245.574 53.5545 245.442 54.1182Z" fill="#F5A623" transform="scale(1 1.00238)"/><path d="M255.467 49.5968C255.467 49.1057 255.511 48.7966 255.6 48.6693 255.689 48.542 255.878 48.4783 256.169 48.4783 256.451 48.4783 256.638 48.5317 256.729 48.6386 256.82 48.7454 256.865 48.9989 256.865 49.399 256.865 49.79 256.823 50.0321 256.739 50.1253 256.655 50.2185 256.465 50.2651 256.169 50.2651 255.878 50.2651 255.689 50.2219 255.6 50.1355 255.511 50.0491 255.467 49.8695 255.467 49.5968Z" fill="#F5A623" transform="scale(1 1.00238)"/><path d="M256.729 56.9007 258.918 56.9007C259.095 56.9007 259.226 56.9382 259.31 57.0132 259.394 57.0882 259.436 57.2075 259.436 57.3712 259.436 57.5576 259.396 57.6861 259.317 57.7565 259.237 57.827 259.09 57.8622 258.877 57.8622L253.585 57.8622C253.403 57.8622 253.266 57.8213 253.176 57.7395 253.085 57.6576 253.039 57.5349 253.039 57.3712 253.039 57.2121 253.087 57.0939 253.182 57.0166 253.278 56.9393 253.421 56.9007 253.612 56.9007L255.692 56.9007 255.692 52.5292 254.362 52.5292C254.176 52.5292 254.034 52.4872 253.936 52.4031 253.838 52.319 253.789 52.1973 253.789 52.0382 253.789 51.8791 253.835 51.7597 253.926 51.6802 254.017 51.6006 254.153 51.5608 254.335 51.5608L256.333 51.5608C256.456 51.5608 256.552 51.5858 256.623 51.6358 256.693 51.6859 256.729 51.7541 256.729 51.8404L256.729 56.9007Z" fill="#F5A623" transform="scale(1 1.00238)"/><path d="M264.728 49.5968C264.728 49.1103 264.774 48.8023 264.864 48.6727 264.955 48.5431 265.149 48.4783 265.444 48.4783 265.721 48.4783 265.904 48.5306 265.993 48.6352 266.082 48.7397 266.126 48.9943 266.126 49.399 266.126 49.7991 266.085 50.0434 266.003 50.1321 265.922 50.2208 265.735 50.2651 265.444 50.2651 265.149 50.2651 264.955 50.2208 264.864 50.1321 264.774 50.0434 264.728 49.865 264.728 49.5968Z" fill="#F5A623" transform="scale(1 1.00238)"/><path d="M266.576 57.4599C266.576 58.0373 266.542 58.476 266.474 58.7761 266.406 59.0761 266.294 59.3262 266.14 59.5262 265.881 59.8627 265.521 60.1184 265.062 60.2935 264.603 60.4685 264.064 60.556 263.446 60.556 262.932 60.556 262.555 60.5037 262.314 60.3992 262.073 60.2946 261.952 60.1332 261.952 59.915 261.952 59.774 262.01 59.6501 262.126 59.5433 262.242 59.4364 262.38 59.383 262.539 59.383 262.662 59.383 262.853 59.4001 263.112 59.4342 263.371 59.4683 263.566 59.4853 263.698 59.4853 264.362 59.4853 264.835 59.3319 265.117 59.025 265.399 58.7181 265.54 58.1873 265.54 57.4326L265.54 52.5292 262.873 52.5292C262.432 52.5292 262.156 52.494 262.045 52.4235 261.933 52.3531 261.877 52.2246 261.877 52.0382 261.877 51.8791 261.923 51.7597 262.014 51.6802 262.105 51.6006 262.241 51.5608 262.423 51.5608L266.181 51.5608C266.303 51.5608 266.4 51.5858 266.471 51.6358 266.541 51.6859 266.576 51.7541 266.576 51.8404L266.576 57.4599Z" fill="#F5A623" transform="scale(1 1.00238)"/><path d="M272.23 49.5968C272.23 49.1057 272.274 48.7966 272.363 48.6693 272.451 48.542 272.641 48.4783 272.932 48.4783 273.214 48.4783 273.4 48.5317 273.491 48.6386 273.582 48.7454 273.628 48.9989 273.628 49.399 273.628 49.79 273.586 50.0321 273.502 50.1253 273.418 50.2185 273.228 50.2651 272.932 50.2651 272.641 50.2651 272.451 50.2219 272.363 50.1355 272.274 50.0491 272.23 49.8695 272.23 49.5968Z" fill="#F5A623" transform="scale(1 1.00238)"/><path d="M273.491 56.9007 275.681 56.9007C275.858 56.9007 275.989 56.9382 276.073 57.0132 276.157 57.0882 276.199 57.2075 276.199 57.3712 276.199 57.5576 276.159 57.6861 276.079 57.7565 276 57.827 275.853 57.8622 275.64 57.8622L270.348 57.8622C270.166 57.8622 270.029 57.8213 269.938 57.7395 269.847 57.6576 269.802 57.5349 269.802 57.3712 269.802 57.2121 269.85 57.0939 269.945 57.0166 270.041 56.9393 270.184 56.9007 270.375 56.9007L272.455 56.9007 272.455 52.5292 271.125 52.5292C270.939 52.5292 270.797 52.4872 270.699 52.4031 270.601 52.319 270.552 52.1973 270.552 52.0382 270.552 51.8791 270.598 51.7597 270.689 51.6802 270.779 51.6006 270.916 51.5608 271.098 51.5608L273.096 51.5608C273.219 51.5608 273.315 51.5858 273.386 51.6358 273.456 51.6859 273.491 51.7541 273.491 51.8404L273.491 56.9007Z" fill="#F5A623" transform="scale(1 1.00238)"/><path d="M278.702 56.9007 278.702 52.5292 278.572 52.5292C278.263 52.5292 278.05 52.4929 277.934 52.4201 277.819 52.3474 277.761 52.2201 277.761 52.0382 277.761 51.87 277.808 51.7484 277.904 51.6734 277.999 51.5983 278.154 51.5608 278.367 51.5608L279.343 51.5608C279.465 51.5608 279.561 51.5858 279.629 51.6358 279.697 51.6859 279.731 51.7541 279.731 51.8404L279.731 52.3042C280.063 51.995 280.392 51.7666 280.717 51.6188 281.042 51.471 281.38 51.3972 281.73 51.3972 282.416 51.3972 282.956 51.6108 283.349 52.0382 283.743 52.4656 283.939 53.0566 283.939 53.8113L283.939 56.9007 284.26 56.9007C284.487 56.9007 284.651 56.9382 284.751 57.0132 284.851 57.0882 284.901 57.2075 284.901 57.3712 284.901 57.5485 284.847 57.6747 284.741 57.7497 284.634 57.8247 284.444 57.8622 284.171 57.8622L282.664 57.8622C282.373 57.8622 282.187 57.8281 282.105 57.7599 282.023 57.6917 281.982 57.5622 281.982 57.3712 281.982 57.1939 282.03 57.0711 282.125 57.0029 282.221 56.9348 282.4 56.9007 282.664 56.9007L282.903 56.9007 282.903 54.0637C282.903 53.5317 282.782 53.1259 282.541 52.8463 282.3 52.5667 281.95 52.4269 281.491 52.4269 281.027 52.4269 280.618 52.5838 280.263 52.8975 279.909 53.2112 279.731 53.5999 279.731 54.0637L279.731 56.9007 279.97 56.9007C280.243 56.9007 280.427 56.9348 280.523 57.0029 280.618 57.0711 280.666 57.1939 280.666 57.3712 280.666 57.5622 280.625 57.6917 280.543 57.7599 280.461 57.8281 280.261 57.8622 279.943 57.8622L278.333 57.8622C278.147 57.8622 278.007 57.8225 277.914 57.7429 277.821 57.6633 277.774 57.5394 277.774 57.3712 277.774 57.1894 277.828 57.0655 277.934 56.9995 278.041 56.9336 278.249 56.9007 278.558 56.9007L278.702 56.9007Z" fill="#F5A623" transform="scale(1 1.00238)"/><path d="M292.389 57.5008C292.389 58.1373 292.357 58.5885 292.293 58.8545 292.23 59.1205 292.121 59.3535 291.966 59.5535 291.711 59.89 291.354 60.1457 290.895 60.3207 290.436 60.4958 289.895 60.5833 289.272 60.5833 288.754 60.5833 288.375 60.5333 288.137 60.4333 287.898 60.3332 287.779 60.1741 287.779 59.9559 287.779 59.8149 287.837 59.6911 287.953 59.5842 288.069 59.4774 288.206 59.4239 288.365 59.4239 288.488 59.4239 288.677 59.441 288.931 59.4751 289.186 59.5092 289.379 59.5262 289.511 59.5262 290.184 59.5262 290.661 59.3717 290.943 59.0625 291.225 58.7533 291.366 58.2237 291.366 57.4735L291.366 56.6483C291.089 56.9711 290.782 57.2075 290.445 57.3576 290.109 57.5076 289.722 57.5826 289.286 57.5826 288.436 57.5826 287.732 57.2996 287.175 56.7336 286.618 56.1675 286.34 55.4503 286.34 54.582 286.34 53.709 286.626 52.985 287.199 52.4099 287.772 51.8348 288.481 51.5472 289.327 51.5472 289.677 51.5472 290.019 51.612 290.353 51.7416 290.687 51.8711 291.025 52.0678 291.366 52.3315L291.366 51.8404C291.366 51.745 291.397 51.6745 291.458 51.629 291.519 51.5836 291.616 51.5608 291.748 51.5608L292.778 51.5608C292.959 51.5608 293.096 51.6006 293.187 51.6802 293.278 51.7597 293.323 51.8791 293.323 52.0382 293.323 52.2201 293.266 52.3474 293.153 52.4201 293.039 52.4929 292.825 52.5292 292.512 52.5292L292.389 52.5292 292.389 57.5008ZM289.429 52.5701C288.833 52.5701 288.347 52.7543 287.97 53.1225 287.592 53.4908 287.404 53.9682 287.404 54.5547 287.404 55.1321 287.592 55.606 287.97 55.9766 288.347 56.3471 288.833 56.5324 289.429 56.5324 290.02 56.5324 290.505 56.3471 290.885 55.9766 291.265 55.606 291.454 55.1321 291.454 54.5547 291.454 53.9773 291.265 53.5022 290.885 53.1294 290.505 52.7565 290.02 52.5701 289.429 52.5701Z" fill="#F5A623" transform="scale(1 1.00238)"/><path d="M297.558 50.081C297.59 49.9537 297.63 49.8707 297.677 49.832 297.725 49.7934 297.806 49.7741 297.92 49.7741L299.133 49.7741C299.188 49.7741 299.232 49.7866 299.266 49.8116 299.301 49.8366 299.318 49.8673 299.318 49.9036 299.318 49.9309 299.314 49.9571 299.307 49.9821 299.301 50.0071 299.29 50.0309 299.277 50.0537L297.735 53.2385C297.713 53.2976 297.681 53.343 297.64 53.3749 297.599 53.4067 297.554 53.4226 297.504 53.4226 297.472 53.4226 297.449 53.4215 297.435 53.4192 297.422 53.4169 297.406 53.4135 297.388 53.409L296.999 53.2521C296.935 53.2339 296.886 53.2078 296.852 53.1737 296.818 53.1396 296.801 53.0998 296.801 53.0543 296.801 53.0271 296.81 52.9861 296.828 52.9316L296.828 52.9043 297.558 50.081Z" fill="#F5A623" transform="scale(1 1.00238)"/><path d="M138.311 50.081C138.343 49.9537 138.383 49.8707 138.431 49.832 138.478 49.7934 138.559 49.7741 138.673 49.7741L139.887 49.7741C139.941 49.7741 139.986 49.7866 140.02 49.8116 140.054 49.8366 140.071 49.8673 140.071 49.9036 140.071 49.9309 140.067 49.9571 140.061 49.9821 140.054 50.0071 140.044 50.0309 140.03 50.0537L138.489 53.2385C138.466 53.2976 138.434 53.343 138.393 53.3749 138.352 53.4067 138.307 53.4226 138.257 53.4226 138.225 53.4226 138.202 53.4215 138.189 53.4192 138.175 53.4169 138.159 53.4135 138.141 53.409L137.752 53.2521C137.688 53.2339 137.64 53.2078 137.605 53.1737 137.571 53.1396 137.554 53.0998 137.554 53.0543 137.554 53.0271 137.563 52.9861 137.582 52.9316L137.582 52.9043 138.311 50.081Z" fill="#F5A623" transform="scale(1 1.00238)"/><path d="M145.281 56.9007 146.134 56.9007C146.379 56.9007 146.554 56.937 146.659 57.0098 146.763 57.0825 146.815 57.203 146.815 57.3712 146.815 57.5576 146.767 57.6861 146.669 57.7565 146.571 57.827 146.356 57.8622 146.024 57.8622L143.999 57.8622C143.835 57.8622 143.713 57.8213 143.631 57.7395 143.549 57.6576 143.508 57.5349 143.508 57.3712 143.508 57.1894 143.555 57.0655 143.648 56.9995 143.741 56.9336 143.922 56.9007 144.19 56.9007L144.319 56.9007 144.319 50.7561 144.149 50.7561C143.767 50.7561 143.509 50.7197 143.375 50.647 143.241 50.5742 143.174 50.4469 143.174 50.2651 143.174 50.0969 143.232 49.9753 143.348 49.9002 143.464 49.8252 143.651 49.7877 143.91 49.7877L144.047 49.7809C144.138 49.7763 144.229 49.7741 144.319 49.7741L144.961 49.7741C145.17 49.7741 145.316 49.7979 145.4 49.8457 145.484 49.8934 145.583 50.015 145.697 50.2105L149.134 56.1437 149.134 50.7561 148.384 50.7561C148.139 50.7561 147.96 50.7163 147.849 50.6368 147.737 50.5572 147.682 50.4333 147.682 50.2651 147.682 50.0787 147.729 49.9502 147.825 49.8798 147.92 49.8093 148.12 49.7741 148.425 49.7741L150.382 49.7741C150.546 49.7741 150.667 49.815 150.747 49.8968 150.827 49.9787 150.866 50.1014 150.866 50.2651 150.866 50.4469 150.818 50.5742 150.72 50.647 150.622 50.7197 150.444 50.7561 150.184 50.7561L150.103 50.7561 150.103 57.6235C150.103 57.7554 150.072 57.8463 150.011 57.8963 149.949 57.9463 149.807 57.9713 149.584 57.9713 149.361 57.9713 149.224 57.9588 149.172 57.9338 149.119 57.9088 149.032 57.7918 148.909 57.5826L145.281 51.329 145.281 56.9007Z" fill="#F5A623" transform="scale(1 1.00238)"/><path d="M153.212 55.0116C153.249 55.6663 153.47 56.1721 153.877 56.529 154.284 56.8859 154.84 57.0643 155.545 57.0643 156.077 57.0643 156.656 56.9223 157.284 56.6381 157.911 56.3539 158.291 56.2119 158.423 56.2119 158.559 56.2119 158.673 56.2551 158.764 56.3414 158.855 56.4278 158.9 56.5347 158.9 56.662 158.9 56.7938 158.852 56.9143 158.757 57.0234 158.661 57.1325 158.509 57.2394 158.3 57.3439 157.845 57.5667 157.376 57.7372 156.892 57.8554 156.407 57.9736 155.927 58.0327 155.449 58.0327 154.413 58.0327 153.583 57.7338 152.96 57.1359 152.337 56.5381 152.026 55.7459 152.026 54.7593 152.026 53.7545 152.355 52.9407 153.015 52.3178 153.674 51.6949 154.533 51.3835 155.592 51.3835 156.552 51.3835 157.347 51.6745 157.979 52.2564 158.611 52.8384 158.927 53.5431 158.927 54.3705 158.927 54.6251 158.874 54.7956 158.767 54.882 158.66 54.9684 158.37 55.0116 157.897 55.0116L153.212 55.0116ZM153.246 54.1182 157.686 54.1182C157.618 53.5772 157.392 53.1419 157.008 52.8122 156.623 52.4826 156.152 52.3178 155.592 52.3178 154.988 52.3178 154.479 52.4769 154.065 52.7952 153.651 53.1134 153.378 53.5545 153.246 54.1182Z" fill="#F5A623" transform="scale(1 1.00238)"/><path d="M163.858 54.3978 162.978 57.6372C162.933 57.81 162.865 57.9304 162.774 57.9986 162.683 58.0668 162.546 58.1009 162.364 58.1009 162.201 58.1009 162.073 58.0577 161.982 57.9713 161.892 57.885 161.81 57.7281 161.737 57.5008L160.175 52.5292 160.114 52.5292C159.923 52.5292 159.785 52.4917 159.701 52.4167 159.617 52.3417 159.575 52.2155 159.575 52.0382 159.575 51.8836 159.619 51.7654 159.708 51.6836 159.797 51.6017 159.927 51.5608 160.1 51.5608L161.921 51.5608C162.167 51.5608 162.333 51.5961 162.419 51.6665 162.505 51.737 162.549 51.8609 162.549 52.0382 162.549 52.1473 162.524 52.2417 162.474 52.3212 162.424 52.4008 162.36 52.4497 162.283 52.4678 162.205 52.4906 162.115 52.5065 162.013 52.5156 161.911 52.5247 161.787 52.5292 161.642 52.5292L161.246 52.5292 162.419 56.621 163.299 53.6477C163.349 53.4749 163.419 53.3544 163.51 53.2862 163.601 53.218 163.735 53.1839 163.912 53.1839 164.076 53.1839 164.205 53.2282 164.298 53.3169 164.391 53.4056 164.474 53.5613 164.547 53.784L165.399 56.621 166.524 52.5292 166.067 52.5292C165.754 52.5292 165.542 52.494 165.433 52.4235 165.324 52.3531 165.27 52.2246 165.27 52.0382 165.27 51.8563 165.311 51.7313 165.392 51.6631 165.474 51.5949 165.633 51.5608 165.87 51.5608L167.697 51.5608C167.838 51.5608 167.944 51.6017 168.015 51.6836 168.085 51.7654 168.12 51.8836 168.12 52.0382 168.12 52.211 168.079 52.3337 167.997 52.4065 167.916 52.4792 167.761 52.5201 167.534 52.5292L165.999 57.6372C165.94 57.81 165.866 57.9304 165.778 57.9986 165.689 58.0668 165.556 58.1009 165.379 58.1009 165.215 58.1009 165.085 58.0566 164.99 57.9679 164.895 57.8793 164.815 57.7236 164.751 57.5008L163.858 54.3978Z" fill="#F5A623" transform="scale(1 1.00238)"/><path d="M182.162 56.9007C182.512 56.9007 182.736 56.9336 182.834 56.9995 182.931 57.0655 182.98 57.1894 182.98 57.3712 182.98 57.5576 182.931 57.6861 182.834 57.7565 182.736 57.827 182.539 57.8622 182.244 57.8622L179.004 57.8622C178.709 57.8622 178.513 57.827 178.418 57.7565 178.322 57.6861 178.275 57.5576 178.275 57.3712 178.275 57.1894 178.328 57.0655 178.435 56.9995 178.542 56.9336 178.764 56.9007 179.1 56.9007L180.089 56.9007 180.089 54.6365 177.818 50.7561 177.702 50.7561C177.429 50.7561 177.243 50.7197 177.143 50.647 177.043 50.5742 176.993 50.4469 176.993 50.2651 176.993 50.0969 177.035 49.973 177.119 49.8934 177.203 49.8138 177.334 49.7741 177.511 49.7741L179.38 49.7741C179.648 49.7741 179.829 49.8104 179.922 49.8832 180.015 49.9559 180.062 50.0832 180.062 50.2651 180.062 50.4469 180.006 50.5742 179.894 50.647 179.783 50.7197 179.58 50.7561 179.284 50.7561L179.059 50.7561 180.709 53.7159 182.421 50.7561 182.142 50.7561C181.896 50.7561 181.726 50.7197 181.63 50.647 181.535 50.5742 181.487 50.4469 181.487 50.2651 181.487 50.0741 181.528 49.9446 181.61 49.8764 181.691 49.8082 181.898 49.7741 182.23 49.7741L183.485 49.7741C183.831 49.7741 184.052 49.8093 184.15 49.8798 184.248 49.9502 184.297 50.0787 184.297 50.2651 184.297 50.4469 184.248 50.5742 184.15 50.647 184.052 50.7197 183.867 50.7561 183.594 50.7561L183.485 50.7561 181.166 54.732 181.166 56.9007 182.162 56.9007Z" fill="#F5A623" transform="scale(1 1.00238)"/><path d="M192.623 54.7183C192.623 55.6913 192.292 56.4869 191.628 57.1052 190.964 57.7236 190.102 58.0327 189.043 58.0327 187.988 58.0327 187.129 57.7236 186.465 57.1052 185.801 56.4869 185.47 55.6913 185.47 54.7183 185.47 53.7454 185.801 52.9509 186.465 52.3349 187.129 51.7188 187.988 51.4108 189.043 51.4108 190.098 51.4108 190.958 51.72 191.624 52.3383 192.29 52.9566 192.623 53.75 192.623 54.7183ZM189.043 57.078C189.743 57.078 190.317 56.8563 190.765 56.413 191.213 55.9698 191.437 55.4049 191.437 54.7183 191.437 54.0318 191.212 53.4647 190.762 53.0168 190.312 52.569 189.739 52.3451 189.043 52.3451 188.347 52.3451 187.776 52.569 187.328 53.0168 186.88 53.4647 186.656 54.0318 186.656 54.7183 186.656 55.4094 186.879 55.9754 187.324 56.4165 187.77 56.8575 188.343 57.078 189.043 57.078Z" fill="#F5A623" transform="scale(1 1.00238)"/><path d="M196.756 56.9007 199.02 56.9007C199.198 56.9007 199.328 56.9382 199.412 57.0132 199.497 57.0882 199.539 57.2075 199.539 57.3712 199.539 57.5576 199.499 57.6861 199.419 57.7565 199.34 57.827 199.193 57.8622 198.979 57.8622L194.519 57.8622C194.342 57.8622 194.208 57.8213 194.117 57.7395 194.026 57.6576 193.981 57.5349 193.981 57.3712 193.981 57.2121 194.027 57.0939 194.12 57.0166 194.214 56.9393 194.358 56.9007 194.553 56.9007L195.74 56.9007 195.74 52.5292 195.276 52.5292C194.835 52.5292 194.56 52.494 194.451 52.4235 194.342 52.3531 194.287 52.2246 194.287 52.0382 194.287 51.8791 194.332 51.7597 194.42 51.6802 194.509 51.6006 194.644 51.5608 194.826 51.5608L196.381 51.5608C196.504 51.5608 196.597 51.5847 196.661 51.6324 196.724 51.6802 196.756 51.7495 196.756 51.8404L196.756 52.9998C197.188 52.4588 197.638 52.0564 198.106 51.7927 198.575 51.529 199.079 51.3972 199.62 51.3972 200.025 51.3972 200.352 51.479 200.602 51.6427 200.853 51.8063 200.978 52.0177 200.978 52.2769 200.978 52.4451 200.915 52.594 200.79 52.7236 200.665 52.8532 200.527 52.9179 200.377 52.9179 200.273 52.9179 200.097 52.8486 199.849 52.7099 199.601 52.5713 199.379 52.5019 199.184 52.5019 198.829 52.5019 198.455 52.6281 198.062 52.8804 197.669 53.1328 197.234 53.5317 196.756 54.0773L196.756 56.9007Z" fill="#F5A623" transform="scale(1 1.00238)"/><path d="M204.565 55.2503 204.565 57.2621C204.565 57.444 204.527 57.5894 204.452 57.6986 204.377 57.8077 204.281 57.8622 204.162 57.8622L202.901 57.8622C202.723 57.8622 202.589 57.8213 202.498 57.7395 202.407 57.6576 202.362 57.5349 202.362 57.3712 202.362 57.1894 202.415 57.0655 202.522 56.9995 202.629 56.9336 202.857 56.9007 203.208 56.9007L203.535 56.9007 203.535 49.9173 203.255 49.9173C202.864 49.9173 202.612 49.882 202.498 49.8116 202.385 49.7411 202.328 49.6127 202.328 49.4263 202.328 49.2626 202.374 49.1398 202.468 49.058 202.561 48.9762 202.696 48.9352 202.873 48.9352L204.176 48.9352C204.299 48.9352 204.394 48.9603 204.462 49.0103 204.531 49.0603 204.565 49.1285 204.565 49.2149L204.565 54.1046 206.536 52.4542C206.386 52.3906 206.275 52.3201 206.205 52.2428 206.134 52.1655 206.099 52.0746 206.099 51.97 206.099 51.8336 206.149 51.7313 206.249 51.6631 206.349 51.5949 206.495 51.5608 206.686 51.5608L208.534 51.5608C208.707 51.5608 208.838 51.5995 208.929 51.6768 209.02 51.7541 209.066 51.87 209.066 52.0246 209.066 52.2974 208.845 52.4565 208.404 52.5019 208.318 52.511 208.25 52.5201 208.2 52.5292 208.013 52.552 207.809 52.6236 207.586 52.744 207.363 52.8645 207.138 53.0248 206.911 53.2248L205.922 54.0909 208.506 56.9007 209.093 56.9007C209.288 56.9007 209.428 56.937 209.512 57.0098 209.596 57.0825 209.639 57.203 209.639 57.3712 209.639 57.5303 209.592 57.652 209.499 57.7361 209.406 57.8202 209.27 57.8622 209.093 57.8622L207.245 57.8622C207.045 57.8622 206.899 57.8281 206.808 57.7599 206.717 57.6917 206.672 57.5826 206.672 57.4326 206.672 57.3098 206.716 57.2041 206.805 57.1155 206.894 57.0268 207.027 56.9552 207.204 56.9007L205.178 54.6911 204.565 55.2503Z" fill="#F5A623" transform="scale(1 1.00238)"/><path d="M213.744 50.081C213.776 49.9537 213.816 49.8707 213.863 49.832 213.911 49.7934 213.992 49.7741 214.105 49.7741L215.319 49.7741C215.374 49.7741 215.418 49.7866 215.452 49.8116 215.486 49.8366 215.503 49.8673 215.503 49.9036 215.503 49.9309 215.5 49.9571 215.493 49.9821 215.486 50.0071 215.476 50.0309 215.463 50.0537L213.921 53.2385C213.899 53.2976 213.867 53.343 213.826 53.3749 213.785 53.4067 213.739 53.4226 213.689 53.4226 213.658 53.4226 213.635 53.4215 213.621 53.4192 213.608 53.4169 213.592 53.4135 213.574 53.409L213.185 53.2521C213.121 53.2339 213.072 53.2078 213.038 53.1737 213.004 53.1396 212.987 53.0998 212.987 53.0543 212.987 53.0271 212.996 52.9861 213.014 52.9316L213.014 52.9043 213.744 50.081Z" fill="#F5A623" transform="scale(1 1.00238)"/><path d="M20.9579 49.9173 19.7986 49.9173C19.3576 49.9173 19.0814 49.882 18.97 49.8116 18.8586 49.7411 18.8029 49.6127 18.8029 49.4263 18.8029 49.2626 18.8495 49.1398 18.9427 49.058 19.0359 48.9762 19.1712 48.9352 19.3485 48.9352L21.599 48.9352C21.7217 48.9352 21.8172 48.9603 21.8854 49.0103 21.9536 49.0603 21.9877 49.1285 21.9877 49.2149L21.9877 56.9007 24.1291 56.9007C24.3018 56.9007 24.428 56.9382 24.5076 57.0132 24.5871 57.0882 24.6269 57.2075 24.6269 57.3712 24.6269 57.5576 24.5883 57.6861 24.511 57.7565 24.4337 57.827 24.2882 57.8622 24.0745 57.8622L19.0416 57.8622C18.8643 57.8622 18.729 57.8213 18.6358 57.7395 18.5426 57.6576 18.496 57.5349 18.496 57.3712 18.496 57.2121 18.5437 57.0939 18.6392 57.0166 18.7347 56.9393 18.8779 56.9007 19.0689 56.9007L20.9579 56.9007 20.9579 49.9173Z" fill="#BD10E0" transform="scale(1 1.00238)"/><path d="M27.4912 55.0116C27.5276 55.6663 27.7492 56.1721 28.1561 56.529 28.563 56.8859 29.1188 57.0643 29.8235 57.0643 30.3555 57.0643 30.9351 56.9223 31.5625 56.6381 32.19 56.3539 32.5696 56.2119 32.7014 56.2119 32.8378 56.2119 32.9515 56.2551 33.0424 56.3414 33.1334 56.4278 33.1788 56.5347 33.1788 56.662 33.1788 56.7938 33.1311 56.9143 33.0356 57.0234 32.9401 57.1325 32.7878 57.2394 32.5787 57.3439 32.124 57.5667 31.6546 57.7372 31.1704 57.8554 30.6862 57.9736 30.2054 58.0327 29.728 58.0327 28.6914 58.0327 27.8617 57.7338 27.2389 57.1359 26.616 56.5381 26.3046 55.7459 26.3046 54.7593 26.3046 53.7545 26.6342 52.9407 27.2934 52.3178 27.9527 51.6949 28.8119 51.3835 29.8713 51.3835 30.8306 51.3835 31.6262 51.6745 32.2582 52.2564 32.8901 52.8384 33.2061 53.5431 33.2061 54.3705 33.2061 54.6251 33.1527 54.7956 33.0458 54.882 32.939 54.9684 32.6492 55.0116 32.1763 55.0116L27.4912 55.0116ZM27.5253 54.1182 31.9649 54.1182C31.8967 53.5772 31.6705 53.1419 31.2863 52.8122 30.9022 52.4826 30.4305 52.3178 29.8713 52.3178 29.2666 52.3178 28.7574 52.4769 28.3436 52.7952 27.9299 53.1134 27.6571 53.5545 27.5253 54.1182Z" fill="#BD10E0" transform="scale(1 1.00238)"/><path d="M40.0394 51.9427C40.2622 51.9427 40.4247 51.9814 40.527 52.0587 40.6293 52.136 40.6805 52.2587 40.6805 52.4269 40.6805 52.5861 40.6327 52.7054 40.5373 52.785 40.4418 52.8645 40.2986 52.9043 40.1076 52.9043L37.3457 52.9043 37.3457 55.1821C37.3457 55.9277 37.4423 56.4187 37.6355 56.6551 37.8287 56.8916 38.1595 57.0098 38.6278 57.0098 39.0415 57.0098 39.537 56.8893 40.1144 56.6483 40.6919 56.4074 41.0487 56.2869 41.1851 56.2869 41.3124 56.2869 41.4204 56.3323 41.5091 56.4233 41.5977 56.5142 41.6421 56.6256 41.6421 56.7574 41.6421 56.9075 41.5864 57.0382 41.475 57.1496 41.3636 57.261 41.1738 57.3689 40.9055 57.4735 40.46 57.6508 40.0588 57.7804 39.7019 57.8622 39.345 57.9441 39.0097 57.985 38.696 57.985 38.164 57.985 37.7173 57.8997 37.3559 57.7292 36.9944 57.5588 36.7251 57.3053 36.5477 56.9689 36.4568 56.8097 36.392 56.621 36.3534 56.4028 36.3147 56.1846 36.2954 55.8481 36.2954 55.3935L36.2954 52.9043 35.1361 52.9043C34.9451 52.9043 34.8064 52.8668 34.7201 52.7918 34.6337 52.7168 34.5905 52.5952 34.5905 52.4269 34.5905 52.2405 34.6496 52.1132 34.7678 52.045 34.886 51.9768 35.1383 51.9427 35.5248 51.9427L36.2954 51.9427 36.2954 50.1833C36.2954 49.9878 36.3375 49.8434 36.4216 49.7502 36.5057 49.657 36.6364 49.6104 36.8137 49.6104 37.0138 49.6104 37.1524 49.6672 37.2297 49.7809 37.307 49.8946 37.3457 50.1537 37.3457 50.5583L37.3457 51.9427 40.0394 51.9427Z" fill="#BD10E0" transform="scale(1 1.00238)"/><path d="M56.9932 51.97 56.9932 51.9427C56.9932 51.7927 57.0364 51.6824 57.1228 51.612 57.2092 51.5415 57.3433 51.5063 57.5251 51.5063 57.7116 51.5063 57.84 51.5608 57.9105 51.6699 57.9809 51.7791 58.0162 52.0041 58.0162 52.3451L58.0162 53.6136C58.0162 53.7818 57.973 53.9079 57.8866 53.9921 57.8002 54.0762 57.6706 54.1182 57.4979 54.1182 57.3751 54.1182 57.2694 54.083 57.1807 54.0125 57.0921 53.942 56.9841 53.7954 56.8568 53.5726 56.6386 53.2044 56.3738 52.9259 56.0623 52.7372 55.7509 52.5485 55.3929 52.4542 54.9882 52.4542 54.279 52.4542 53.7027 52.6633 53.2594 53.0816 52.8161 53.4999 52.5945 54.0409 52.5945 54.7047 52.5945 55.3821 52.807 55.9357 53.2321 56.3653 53.6572 56.795 54.2039 57.0098 54.8723 57.0098 55.1769 57.0098 55.4667 56.9677 55.7418 56.8836 56.0169 56.7995 56.2771 56.6733 56.5226 56.5051 56.609 56.4506 56.725 56.3664 56.8705 56.2528 57.166 56.0118 57.3978 55.8913 57.5661 55.8913 57.707 55.8913 57.8218 55.9357 57.9105 56.0243 57.9991 56.113 58.0434 56.2278 58.0434 56.3687 58.0434 56.7279 57.7036 57.095 57.0239 57.4701 56.3442 57.8452 55.6225 58.0327 54.8586 58.0327 53.8721 58.0327 53.0503 57.7167 52.3933 57.0848 51.7364 56.4528 51.4079 55.664 51.4079 54.7183 51.4079 53.7727 51.7352 52.9827 52.3899 52.3485 53.0446 51.7143 53.863 51.3972 54.845 51.3972 55.1905 51.3972 55.5372 51.4438 55.885 51.537 56.2328 51.6302 56.6022 51.7745 56.9932 51.97Z" fill="#6EDB76" transform="scale(1 1.00238)"/><path d="M62.6945 49.5968C62.6945 49.1057 62.7388 48.7966 62.8275 48.6693 62.9161 48.542 63.1059 48.4783 63.3969 48.4783 63.6788 48.4783 63.8652 48.5317 63.9561 48.6386 64.0471 48.7454 64.0925 48.9989 64.0925 49.399 64.0925 49.79 64.0505 50.0321 63.9664 50.1253 63.8822 50.2185 63.6924 50.2651 63.3969 50.2651 63.1059 50.2651 62.9161 50.2219 62.8275 50.1355 62.7388 50.0491 62.6945 49.8695 62.6945 49.5968Z" fill="#6EDB76" transform="scale(1 1.00238)"/><path d="M63.9561 56.9007 66.1452 56.9007C66.3226 56.9007 66.4533 56.9382 66.5374 57.0132 66.6215 57.0882 66.6635 57.2075 66.6635 57.3712 66.6635 57.5576 66.6238 57.6861 66.5442 57.7565 66.4646 57.827 66.318 57.8622 66.1043 57.8622L60.8122 57.8622C60.6304 57.8622 60.494 57.8213 60.4031 57.7395 60.3121 57.6576 60.2667 57.5349 60.2667 57.3712 60.2667 57.2121 60.3144 57.0939 60.4099 57.0166 60.5054 56.9393 60.6486 56.9007 60.8395 56.9007L62.9195 56.9007 62.9195 52.5292 61.5897 52.5292C61.4033 52.5292 61.2612 52.4872 61.1635 52.4031 61.0657 52.319 61.0168 52.1973 61.0168 52.0382 61.0168 51.8791 61.0623 51.7597 61.1532 51.6802 61.2442 51.6006 61.3805 51.5608 61.5624 51.5608L63.5606 51.5608C63.6833 51.5608 63.7799 51.5858 63.8504 51.6358 63.9209 51.6859 63.9561 51.7541 63.9561 51.8404L63.9561 56.9007Z" fill="#6EDB76" transform="scale(1 1.00238)"/><path d="M73.5651 51.9427C73.7878 51.9427 73.9504 51.9814 74.0527 52.0587 74.155 52.136 74.2061 52.2587 74.2061 52.4269 74.2061 52.5861 74.1584 52.7054 74.0629 52.785 73.9674 52.8645 73.8242 52.9043 73.6333 52.9043L70.8713 52.9043 70.8713 55.1821C70.8713 55.9277 70.9679 56.4187 71.1611 56.6551 71.3544 56.8916 71.6851 57.0098 72.1534 57.0098 72.5671 57.0098 73.0627 56.8893 73.6401 56.6483 74.2175 56.4074 74.5744 56.2869 74.7108 56.2869 74.8381 56.2869 74.9461 56.3323 75.0347 56.4233 75.1234 56.5142 75.1677 56.6256 75.1677 56.7574 75.1677 56.9075 75.112 57.0382 75.0006 57.1496 74.8892 57.261 74.6994 57.3689 74.4312 57.4735 73.9856 57.6508 73.5844 57.7804 73.2275 57.8622 72.8706 57.9441 72.5353 57.985 72.2216 57.985 71.6897 57.985 71.243 57.8997 70.8815 57.7292 70.5201 57.5588 70.2507 57.3053 70.0734 56.9689 69.9825 56.8097 69.9177 56.621 69.879 56.4028 69.8404 56.1846 69.8211 55.8481 69.8211 55.3935L69.8211 52.9043 68.6617 52.9043C68.4708 52.9043 68.3321 52.8668 68.2457 52.7918 68.1593 52.7168 68.1161 52.5952 68.1161 52.4269 68.1161 52.2405 68.1752 52.1132 68.2934 52.045 68.4117 51.9768 68.664 51.9427 69.0504 51.9427L69.8211 51.9427 69.8211 50.1833C69.8211 49.9878 69.8631 49.8434 69.9472 49.7502 70.0313 49.657 70.162 49.6104 70.3394 49.6104 70.5394 49.6104 70.6781 49.6672 70.7554 49.7809 70.8327 49.8946 70.8713 50.1537 70.8713 50.5583L70.8713 51.9427 73.5651 51.9427Z" fill="#6EDB76" transform="scale(1 1.00238)"/><path d="M79.4573 49.5968C79.4573 49.1057 79.5016 48.7966 79.5903 48.6693 79.6789 48.542 79.8688 48.4783 80.1597 48.4783 80.4416 48.4783 80.628 48.5317 80.7189 48.6386 80.8099 48.7454 80.8553 48.9989 80.8553 49.399 80.8553 49.79 80.8133 50.0321 80.7292 50.1253 80.6451 50.2185 80.4553 50.2651 80.1597 50.2651 79.8688 50.2651 79.6789 50.2219 79.5903 50.1355 79.5016 50.0491 79.4573 49.8695 79.4573 49.5968Z" fill="#6EDB76" transform="scale(1 1.00238)"/><path d="M80.7189 56.9007 82.9081 56.9007C83.0854 56.9007 83.2161 56.9382 83.3002 57.0132 83.3843 57.0882 83.4264 57.2075 83.4264 57.3712 83.4264 57.5576 83.3866 57.6861 83.307 57.7565 83.2275 57.827 83.0808 57.8622 82.8671 57.8622L77.5751 57.8622C77.3932 57.8622 77.2568 57.8213 77.1659 57.7395 77.075 57.6576 77.0295 57.5349 77.0295 57.3712 77.0295 57.2121 77.0772 57.0939 77.1727 57.0166 77.2682 56.9393 77.4114 56.9007 77.6023 56.9007L79.6824 56.9007 79.6824 52.5292 78.3525 52.5292C78.1661 52.5292 78.024 52.4872 77.9263 52.4031 77.8285 52.319 77.7797 52.1973 77.7797 52.0382 77.7797 51.8791 77.8251 51.7597 77.916 51.6802 78.007 51.6006 78.1434 51.5608 78.3252 51.5608L80.3234 51.5608C80.4462 51.5608 80.5428 51.5858 80.6132 51.6358 80.6837 51.6859 80.7189 51.7541 80.7189 51.8404L80.7189 56.9007Z" fill="#6EDB76" transform="scale(1 1.00238)"/><path d="M86.1611 55.0116C86.1974 55.6663 86.4191 56.1721 86.826 56.529 87.2329 56.8859 87.7887 57.0643 88.4934 57.0643 89.0253 57.0643 89.605 56.9223 90.2324 56.6381 90.8598 56.3539 91.2395 56.2119 91.3713 56.2119 91.5077 56.2119 91.6214 56.2551 91.7123 56.3414 91.8032 56.4278 91.8487 56.5347 91.8487 56.662 91.8487 56.7938 91.801 56.9143 91.7055 57.0234 91.61 57.1325 91.4577 57.2394 91.2486 57.3439 90.7939 57.5667 90.3245 57.7372 89.8403 57.8554 89.3561 57.9736 88.8753 58.0327 88.3979 58.0327 87.3613 58.0327 86.5316 57.7338 85.9087 57.1359 85.2859 56.5381 84.9744 55.7459 84.9744 54.7593 84.9744 53.7545 85.3041 52.9407 85.9633 52.3178 86.6225 51.6949 87.4818 51.3835 88.5411 51.3835 89.5005 51.3835 90.2961 51.6745 90.928 52.2564 91.56 52.8384 91.876 53.5431 91.876 54.3705 91.876 54.6251 91.8225 54.7956 91.7157 54.882 91.6089 54.9684 91.319 55.0116 90.8462 55.0116L86.1611 55.0116ZM86.1952 54.1182 90.6348 54.1182C90.5666 53.5772 90.3404 53.1419 89.9562 52.8122 89.5721 52.4826 89.1004 52.3178 88.5411 52.3178 87.9365 52.3178 87.4273 52.4769 87.0135 52.7952 86.5998 53.1134 86.327 53.5545 86.1952 54.1182Z" fill="#6EDB76" transform="scale(1 1.00238)"/><path d="M93.8741 57.3712 93.8741 56.1573C93.8741 55.9573 93.9117 55.814 93.9867 55.7277 94.0617 55.6413 94.1833 55.5981 94.3515 55.5981 94.5379 55.5981 94.6857 55.7254 94.7948 55.98 94.8675 56.1346 94.9335 56.2505 94.9926 56.3278 95.1835 56.5733 95.4654 56.7699 95.8382 56.9177 96.211 57.0655 96.6225 57.1393 97.0726 57.1393 97.5545 57.1393 97.941 57.0416 98.2319 56.8461 98.5229 56.6506 98.6684 56.3937 98.6684 56.0755 98.6684 55.7527 98.5513 55.5231 98.3172 55.3867 98.083 55.2503 97.6818 55.1821 97.1135 55.1821L96.7384 55.1821C95.8109 55.1821 95.104 55.0207 94.6175 54.6979 94.131 54.3751 93.8878 53.9068 93.8878 53.293 93.8878 52.6929 94.1253 52.2269 94.6004 51.895 95.0756 51.5631 95.7427 51.3972 96.602 51.3972 96.9521 51.3972 97.309 51.446 97.6727 51.5438 98.0364 51.6415 98.2274 51.6904 98.2456 51.6904 98.2956 51.6904 98.3911 51.6461 98.532 51.5574 98.6729 51.4688 98.8116 51.4244 98.948 51.4244 99.1026 51.4244 99.2174 51.4813 99.2924 51.5949 99.3674 51.7086 99.4049 51.8791 99.4049 52.1064L99.4049 52.9043C99.4049 53.1453 99.3685 53.3192 99.2958 53.426 99.2231 53.5329 99.1071 53.5863 98.948 53.5863 98.8116 53.5863 98.6434 53.4703 98.4433 53.2385 98.3024 53.0793 98.1865 52.9589 98.0955 52.877 97.8546 52.6543 97.5977 52.494 97.3249 52.3962 97.0521 52.2985 96.7316 52.2496 96.3633 52.2496 95.936 52.2496 95.5916 52.344 95.3302 52.5326 95.0687 52.7213 94.938 52.9611 94.938 53.2521 94.938 53.5385 95.0721 53.7431 95.3404 53.8659 95.6086 53.9886 96.186 54.0591 97.0726 54.0773 98.0183 54.1 98.7093 54.2648 99.1458 54.5717 99.5822 54.8786 99.8005 55.3526 99.8005 55.9936 99.8005 56.6074 99.5595 57.0984 99.0776 57.4667 98.5956 57.835 97.9455 58.0191 97.1271 58.0191 96.868 58.0191 96.5793 57.9952 96.261 57.9475 95.9428 57.8997 95.5427 57.819 95.0608 57.7054 94.9016 57.8099 94.7653 57.8884 94.6516 57.9407 94.5379 57.9929 94.4425 58.0191 94.3652 58.0191 94.206 58.0191 94.0844 57.9634 94.0003 57.852 93.9162 57.7406 93.8741 57.5804 93.8741 57.3712Z" fill="#6EDB76" transform="scale(1 1.00238)"/><path d="M212.694 141.888C211.84 141.888 211.161 141.484 210.659 140.677 210.156 139.87 209.905 138.764 209.905 137.359 209.905 135.959 210.156 134.856 210.659 134.049 211.161 133.242 211.84 132.838 212.694 132.838 213.549 132.838 214.229 133.243 214.733 134.052 215.238 134.861 215.49 135.964 215.49 137.359 215.49 138.755 215.238 139.859 214.733 140.67 214.229 141.482 213.549 141.888 212.694 141.888ZM212.694 133.813C212.171 133.813 211.765 134.122 211.474 134.741 211.183 135.359 211.037 136.232 211.037 137.359 211.037 138.492 211.183 139.368 211.474 139.988 211.765 140.609 212.171 140.919 212.694 140.919 213.222 140.919 213.631 140.609 213.922 139.988 214.213 139.368 214.358 138.492 214.358 137.359 214.358 136.232 214.213 135.359 213.922 134.741 213.631 134.122 213.222 133.813 212.694 133.813Z" fill="#F5A623" transform="scale(1 1.00238)"/><path d="M204.108 143.354 205.254 143.354C205.386 143.354 205.493 143.39 205.574 143.463 205.656 143.536 205.697 143.634 205.697 143.756 205.697 143.888 205.659 143.994 205.581 144.073 205.504 144.153 205.399 144.193 205.268 144.193L203.433 144.193C203.292 144.193 203.174 144.15 203.078 144.063 202.983 143.977 202.935 143.87 202.935 143.743L202.935 134.025C202.935 133.897 202.983 133.791 203.078 133.704 203.174 133.618 203.292 133.575 203.433 133.575L205.268 133.575C205.399 133.575 205.504 133.612 205.581 133.687 205.659 133.762 205.697 133.866 205.697 133.997 205.697 134.12 205.656 134.22 205.574 134.297 205.493 134.375 205.386 134.413 205.254 134.413L204.108 134.413 204.108 143.354Z" fill="#9B9B9B" transform="scale(1 1.00238)"/><path d="M221.287 134.413 220.141 134.413C220.005 134.413 219.897 134.376 219.817 134.301 219.738 134.226 219.698 134.125 219.698 133.997 219.698 133.866 219.736 133.762 219.811 133.687 219.886 133.612 219.991 133.575 220.128 133.575L221.955 133.575C222.101 133.575 222.221 133.618 222.317 133.704 222.412 133.791 222.46 133.897 222.46 134.025L222.46 143.743C222.46 143.87 222.412 143.977 222.317 144.063 222.221 144.15 222.101 144.193 221.955 144.193L220.128 144.193C219.996 144.193 219.891 144.153 219.814 144.073 219.737 143.994 219.698 143.888 219.698 143.756 219.698 143.629 219.738 143.53 219.817 143.46 219.897 143.389 220.005 143.354 220.141 143.354L221.287 143.354 221.287 134.413Z" fill="#9B9B9B" transform="scale(1 1.00238)"/></g></svg>