<svg width="420" height="208" xmlns="http://www.w3.org/2000/svg" xmlns:xlink="http://www.w3.org/1999/xlink" overflow="hidden"><defs><clipPath id="clip0"><rect x="0" y="0" width="420" height="208"/></clipPath></defs><g clip-path="url(#clip0)"><path d="M0 0 420 0 420 207.506 0 207.506Z" fill="#FFFFFF" fill-rule="evenodd" transform="scale(1 1.00238)"/><text fill="#BD10E0" font-family="Arial,Arial_MSFontService,sans-serif" font-weight="400" font-size="15" transform="matrix(0.997625 0 0 1 25.9382 103)">spaceship<tspan fill="#9B9B9B" font-size="15" x="81.0132" y="0">[</tspan><tspan fill="#F5A623" font-size="15" x="90.0147" y="0">‘</tspan><tspan fill="#F5A623" font-size="15" x="93.0147" y="0">Fuel Type</tspan><tspan fill="#F5A623" font-size="15" x="156.015" y="0">’</tspan><tspan fill="#9B9B9B" font-size="15" x="189.031" y="0">] = </tspan><tspan fill="#9B9B9B" font-size="15" x="210.031" y="0">‘</tspan><tspan fill="#9B9B9B" font-size="15" x="213.031" y="0">vegetable oil</tspan><tspan fill="#9B9B9B" font-size="15" x="293.031" y="0">’</tspan><tspan fill="#9B9B9B" font-size="15" x="296.031" y="0">;</tspan><tspan font-size="15" x="0" y="38">spaceship</tspan><tspan fill="#9B9B9B" font-size="15" x="81.0132" y="38">.</tspan><tspan fill="#F5A623" font-size="15" x="90.0147" y="38">color</tspan><tspan fill="#9B9B9B" font-size="15" x="135.022" y="38">= </tspan><tspan fill="#9B9B9B" font-size="15" x="148.022" y="38">‘</tspan><tspan fill="#9B9B9B" font-size="15" x="151.022" y="38">gold</tspan><tspan fill="#9B9B9B" font-size="15" x="178.022" y="38">’</tspan><tspan fill="#9B9B9B" font-size="15" x="181.022" y="38">;</tspan></text><path d="M138.391 50.8789 138.391 43.0075 141.006 43.0075C141.624 43.0075 142.152 43.0869 142.592 43.2459 143.031 43.4049 143.378 43.663 143.634 44.0202 143.889 44.3774 144.017 44.8257 144.017 45.3651 144.017 45.7402 143.969 46.0733 143.872 46.3645 143.776 46.6556 143.617 46.9199 143.395 47.1575 143.174 47.3951 142.862 47.5781 142.46 47.7067 142.058 47.8353 141.574 47.8996 141.006 47.8996 140.52 47.8996 140.125 47.8853 139.821 47.8568L139.821 50.8789 138.391 50.8789ZM140.85 46.8494C141.147 46.8494 141.405 46.8208 141.624 46.7637 141.844 46.7065 142.016 46.6333 142.139 46.544 142.262 46.4547 142.36 46.3439 142.434 46.2118 142.507 46.0796 142.555 45.9519 142.578 45.8286 142.601 45.7054 142.613 45.567 142.613 45.4134 142.613 44.9811 142.474 44.6525 142.195 44.4274 141.917 44.2024 141.524 44.0898 141.016 44.0898L139.821 44.0898 139.821 46.8387C139.864 46.8458 140.207 46.8494 140.85 46.8494ZM145.062 50.8789 145.062 43.0075 147.971 43.0075C148.368 43.0075 148.712 43.0253 149.003 43.061 149.294 43.0968 149.571 43.162 149.833 43.2566 150.096 43.3513 150.309 43.479 150.471 43.6397 150.634 43.8005 150.762 44.0104 150.857 44.2694 150.952 44.5283 150.999 44.8347 150.999 45.1883 150.999 46.2314 150.526 46.9173 149.579 47.2459 149.772 47.4638 150.011 47.8675 150.297 48.4569L151.465 50.8789 149.879 50.8789 148.963 48.8266C148.616 48.0907 148.402 47.6549 148.32 47.5192 148.259 47.5156 148.057 47.5138 147.714 47.5138L146.498 47.5031 146.498 50.8789 145.062 50.8789ZM148.1 46.4636C148.657 46.4636 149.057 46.3645 149.3 46.1662 149.543 45.9679 149.665 45.6491 149.665 45.2097 149.665 44.8239 149.541 44.5399 149.295 44.3578 149.048 44.1756 148.672 44.0845 148.164 44.0845L146.498 44.0845 146.498 46.4582C146.551 46.4582 146.818 46.4591 147.296 46.4609 147.775 46.4627 148.043 46.4636 148.1 46.4636ZM156.062 49.8072C156.823 49.8072 157.398 49.5598 157.785 49.0651 158.173 48.5703 158.367 47.8711 158.367 46.9673 158.367 46.0528 158.173 45.3437 157.785 44.84 157.398 44.3363 156.825 44.0845 156.068 44.0845 155.307 44.0845 154.731 44.3372 154.34 44.8427 153.949 45.3482 153.753 46.0564 153.753 46.9673 153.753 47.8675 153.948 48.5658 154.337 49.0624 154.727 49.5589 155.302 49.8072 156.062 49.8072ZM156.057 50.9914C154.875 50.9914 153.941 50.6333 153.257 49.917 152.573 49.2008 152.231 48.2122 152.231 46.9512 152.231 45.6831 152.574 44.6936 153.26 43.9827 153.946 43.2718 154.88 42.9164 156.062 42.9164 157.245 42.9164 158.177 43.2727 158.86 43.9854 159.542 44.698 159.883 45.6884 159.883 46.9566 159.883 48.2104 159.54 49.1963 158.854 49.9144 158.168 50.6324 157.236 50.9914 156.057 50.9914ZM161.223 50.8789 161.223 43.0075 163.837 43.0075C164.455 43.0075 164.984 43.0869 165.424 43.2459 165.863 43.4049 166.21 43.663 166.466 44.0202 166.721 44.3774 166.849 44.8257 166.849 45.3651 166.849 45.7402 166.801 46.0733 166.704 46.3645 166.608 46.6556 166.449 46.9199 166.227 47.1575 166.006 47.3951 165.694 47.5781 165.292 47.7067 164.89 47.8353 164.405 47.8996 163.837 47.8996 163.352 47.8996 162.957 47.8853 162.653 47.8568L162.653 50.8789 161.223 50.8789ZM163.682 46.8494C163.979 46.8494 164.237 46.8208 164.456 46.7637 164.676 46.7065 164.847 46.6333 164.971 46.544 165.094 46.4547 165.192 46.3439 165.265 46.2118 165.339 46.0796 165.387 45.9519 165.41 45.8286 165.433 45.7054 165.445 45.567 165.445 45.4134 165.445 44.9811 165.306 44.6525 165.027 44.4274 164.748 44.2024 164.355 44.0898 163.848 44.0898L162.653 44.0898 162.653 46.8387C162.696 46.8458 163.039 46.8494 163.682 46.8494ZM167.931 50.8789 167.931 43.0289 172.689 43.0289 172.63 44.1809 169.383 44.1809 169.383 46.2064 172.47 46.2064 172.47 47.3584 169.383 47.3584 169.383 49.7215 172.748 49.7215 172.7 50.8789 167.931 50.8789ZM174.067 50.8789 174.067 43.0075 176.976 43.0075C177.373 43.0075 177.716 43.0253 178.008 43.061 178.299 43.0968 178.576 43.162 178.838 43.2566 179.101 43.3513 179.313 43.479 179.476 43.6397 179.638 43.8005 179.767 44.0104 179.862 44.2694 179.956 44.5283 180.004 44.8347 180.004 45.1883 180.004 46.2314 179.53 46.9173 178.584 47.2459 178.776 47.4638 179.016 47.8675 179.302 48.4569L180.47 50.8789 178.884 50.8789 177.967 48.8266C177.621 48.0907 177.407 47.6549 177.324 47.5192 177.264 47.5156 177.062 47.5138 176.719 47.5138L175.503 47.5031 175.503 50.8789 174.067 50.8789ZM177.105 46.4636C177.662 46.4636 178.062 46.3645 178.305 46.1662 178.548 45.9679 178.669 45.6491 178.669 45.2097 178.669 44.8239 178.546 44.5399 178.3 44.3578 178.053 44.1756 177.676 44.0845 177.169 44.0845L175.503 44.0845 175.503 46.4582C175.556 46.4582 175.822 46.4591 176.301 46.4609 176.78 46.4627 177.048 46.4636 177.105 46.4636ZM183.09 50.8789 183.09 44.1917 180.802 44.1917 180.802 43.0289 186.825 43.0289 186.825 44.1917 184.547 44.1917 184.547 50.8789 183.09 50.8789ZM189.536 50.8789 189.536 47.7657 186.819 43.0289 188.395 43.0289 190.265 46.4261 192.146 43.0289 193.699 43.0289 190.993 47.7389 190.993 50.8789 189.536 50.8789ZM150.653 65.8432 150.653 57.9933 152.196 57.9933C152.475 58.4291 153.041 59.3078 153.895 60.6296 154.749 61.9513 155.269 62.755 155.454 63.0408 155.508 63.123 155.6 63.2614 155.73 63.4561 155.861 63.6508 155.953 63.7892 156.006 63.8714 155.981 62.6461 155.969 62.0102 155.969 61.9638L155.969 57.9933 157.292 57.9933 157.292 65.8432 155.728 65.8432 152.186 60.3241 151.929 59.9008C151.957 60.8439 151.971 61.5065 151.971 61.8888L151.971 65.8432 150.653 65.8432ZM158.117 65.8432 161.006 57.9879 162.586 57.9879 165.432 65.8432 163.942 65.8432 163.165 63.6249 160.416 63.6249 159.634 65.8432 158.117 65.8432ZM160.781 62.5425 162.795 62.5425C162.152 60.4813 161.822 59.4168 161.804 59.3489L160.781 62.5425ZM166.214 65.8432 166.214 57.9933 167.929 57.9933 170.302 63.6624 172.692 57.9933 174.385 57.9933 174.385 65.8432 173.046 65.8432 173.046 61.9638 173.089 59.7401 172.89 60.3295 170.881 65.3074 169.638 65.3074 167.671 60.3027 167.473 59.7133 167.521 61.9852 167.521 65.8432 166.214 65.8432ZM176.079 65.8432 176.079 57.9933 180.837 57.9933 180.778 59.1453 177.531 59.1453 177.531 61.1708 180.617 61.1708 180.617 62.3228 177.531 62.3228 177.531 64.6858 180.896 64.6858 180.847 65.8432 176.079 65.8432Z" fill="#4A4A4A" fill-rule="evenodd" transform="scale(1 1.00238)"/><path d="M305.306 65.8432 302.45 57.9933 303.945 57.9933 305.606 62.8426C305.67 63.0105 305.818 63.5016 306.05 64.3161 306.065 64.2589 306.131 64.0241 306.249 63.6115 306.366 63.1989 306.443 62.9462 306.479 62.8533 306.522 62.7318 306.793 61.9254 307.293 60.434 307.794 58.9426 308.067 58.129 308.113 57.9933L309.592 57.9933 306.774 65.8432 305.306 65.8432ZM308.971 65.8432 311.859 57.9879 313.44 57.9879 316.285 65.8432 314.795 65.8432 314.018 63.6249 311.269 63.6249 310.487 65.8432 308.971 65.8432ZM311.634 62.5425 313.648 62.5425C313.005 60.4813 312.675 59.4168 312.657 59.3489L311.634 62.5425ZM317.067 65.8432 317.067 57.9933 318.519 57.9933 318.519 64.6858 321.804 64.6858 321.761 65.8432 317.067 65.8432ZM325.871 65.9558C324.842 65.9558 324.062 65.6995 323.529 65.1868 322.997 64.6742 322.731 63.9517 322.731 63.0194L322.731 57.9933 324.188 57.9933 324.188 62.8961C324.188 63.5499 324.321 64.0268 324.588 64.3268 324.854 64.6269 325.29 64.7769 325.898 64.7769 326.494 64.7769 326.926 64.626 327.194 64.3241 327.462 64.0223 327.596 63.5445 327.596 62.8908L327.596 57.9933 329.048 57.9933 329.048 63.0301C329.048 63.9553 328.777 64.6742 328.234 65.1868 327.691 65.6995 326.903 65.9558 325.871 65.9558ZM330.672 65.8432 330.672 57.9933 335.43 57.9933 335.371 59.1453 332.124 59.1453 332.124 61.1708 335.21 61.1708 335.21 62.3228 332.124 62.3228 332.124 64.6858 335.489 64.6858 335.441 65.8432 330.672 65.8432Z" fill="#4A4A4A" fill-rule="evenodd" transform="scale(1 1.00238)"/><path d="M49.4265 64.7716C50.1874 64.7716 50.7616 64.5242 51.1492 64.0294 51.5368 63.5347 51.7306 62.8354 51.7306 61.9316 51.7306 61.0172 51.5368 60.3081 51.1492 59.8044 50.7616 59.3007 50.1892 59.0489 49.4319 59.0489 48.671 59.0489 48.095 59.3016 47.7038 59.8071 47.3126 60.3125 47.1171 61.0207 47.1171 61.9316 47.1171 62.8318 47.3117 63.5302 47.7011 64.0268 48.0905 64.5233 48.6656 64.7716 49.4265 64.7716ZM49.4212 65.9558C48.2387 65.9558 47.3055 65.5976 46.6214 64.8814 45.9373 64.1652 45.5953 63.1766 45.5953 61.9156 45.5953 60.6474 45.9382 59.6579 46.6241 58.9471 47.31 58.2362 48.2441 57.8807 49.4265 57.8807 50.6089 57.8807 51.5413 58.2371 52.2236 58.9497 52.9059 59.6624 53.247 60.6528 53.247 61.9209 53.247 63.1748 52.9041 64.1607 52.2182 64.8787 51.5323 65.5967 50.6 65.9558 49.4212 65.9558ZM54.6241 65.8432 54.6241 57.9933 57.0729 57.9933C58.1124 57.9933 58.8875 58.1451 59.3984 58.4487 59.9092 58.7524 60.1646 59.2578 60.1646 59.9651 60.1646 60.0794 60.1575 60.192 60.1432 60.3027 60.1289 60.4135 60.0967 60.5394 60.0467 60.6805 59.9967 60.8216 59.9306 60.9493 59.8485 61.0636 59.7663 61.1779 59.652 61.2895 59.5055 61.3985 59.3591 61.5074 59.1876 61.5923 58.9911 61.653 59.477 61.7709 59.8485 61.9968 60.1057 62.3308 60.3629 62.6648 60.4915 63.0765 60.4915 63.5659 60.4915 64.3054 60.2298 64.8698 59.7065 65.2592 59.1831 65.6486 58.4589 65.8432 57.5337 65.8432L54.6241 65.8432ZM56.0762 64.793 57.3354 64.793C58.4499 64.793 59.0072 64.3572 59.0072 63.4856 59.0072 63.0462 58.8679 62.73 58.5893 62.5371 58.3106 62.3442 57.8802 62.2478 57.2979 62.2478L56.0762 62.2478 56.0762 64.793ZM56.0762 61.2351 57.3193 61.2351C58.2803 61.2351 58.7607 60.8689 58.7607 60.1366 58.7607 59.7258 58.6223 59.4436 58.3455 59.29 58.0686 59.1364 57.6283 59.0596 57.0246 59.0596L56.0762 59.0596 56.0762 61.2351ZM60.529 67.5633 60.47 66.4219C60.6415 66.4505 60.829 66.4648 61.0327 66.4648 61.4292 66.4648 61.6971 66.363 61.8364 66.1594 61.9757 65.9558 62.0454 65.62 62.0454 65.152L62.0454 57.9718 63.5029 57.9718 63.5029 65.0556C63.5029 65.5057 63.4627 65.8852 63.3823 66.1942 63.3019 66.5032 63.1662 66.7658 62.9751 66.9819 62.7839 67.198 62.5303 67.3561 62.2142 67.4561 61.898 67.5561 61.506 67.6061 61.038 67.6061 60.8415 67.6061 60.6719 67.5918 60.529 67.5633ZM65.1586 65.8432 65.1586 57.9933 69.9168 57.9933 69.8578 59.1453 66.6107 59.1453 66.6107 61.1708 69.6971 61.1708 69.6971 62.3228 66.6107 62.3228 66.6107 64.6858 69.9757 64.6858 69.9275 65.8432 65.1586 65.8432ZM74.7554 65.9558C73.6087 65.9558 72.6995 65.595 72.028 64.8734 71.3564 64.1518 71.0206 63.1551 71.0206 61.8834 71.0206 60.676 71.3716 59.707 72.0735 58.9765 72.7755 58.246 73.6944 57.8807 74.8304 57.8807 75.7484 57.8807 76.5254 58.0933 77.1613 58.5184L76.7058 59.6168C76.0949 59.2418 75.4805 59.0542 74.8625 59.0542 74.1409 59.0542 73.5703 59.3141 73.1505 59.8339 72.7308 60.3536 72.5209 61.0511 72.5209 61.9263 72.5209 62.8336 72.7237 63.5356 73.1291 64.0321 73.5346 64.5287 74.1124 64.7769 74.8625 64.7769 75.5198 64.7769 76.1717 64.6126 76.8183 64.284L77.0112 65.4199C76.4111 65.7771 75.6591 65.9558 74.7554 65.9558ZM79.819 65.8432 79.819 59.156 77.531 59.156 77.531 57.9933 83.5537 57.9933 83.5537 59.156 81.2765 59.156 81.2765 65.8432 79.819 65.8432Z" fill="#4A4A4A" fill-rule="evenodd" transform="scale(1 1.00238)"/><path d="M205.427 50.8789 208.315 43.0235 209.896 43.0235 212.741 50.8789 211.251 50.8789 210.474 48.6605 207.726 48.6605 206.943 50.8789 205.427 50.8789ZM208.09 47.5781 210.105 47.5781C209.462 45.5169 209.131 44.4524 209.113 44.3846L208.09 47.5781ZM215.774 50.986C214.827 50.986 213.979 50.7681 213.229 50.3323L213.582 49.1803C213.918 49.366 214.283 49.5161 214.678 49.6304 215.073 49.7447 215.458 49.8018 215.833 49.8018 216.294 49.8018 216.642 49.7027 216.878 49.5044 217.113 49.3062 217.231 49.0213 217.231 48.6498 217.231 48.1568 216.903 47.8157 216.245 47.6264 216.199 47.6121 216.069 47.5737 215.854 47.5111 215.64 47.4486 215.439 47.3879 215.251 47.329 215.064 47.27 214.929 47.2245 214.847 47.1923 213.793 46.8208 213.266 46.1278 213.266 45.1133 213.266 44.4024 213.519 43.8541 214.024 43.4683 214.53 43.0825 215.201 42.8896 216.036 42.8896 216.983 42.8896 217.799 43.0843 218.485 43.4736L218.046 44.5346C217.346 44.2202 216.695 44.0631 216.095 44.0631 215.663 44.0631 215.337 44.139 215.117 44.2908 214.898 44.4426 214.781 44.6953 214.766 45.049 214.766 45.4848 214.983 45.7688 215.415 45.901 215.501 45.9331 215.711 46.0028 216.047 46.1099 216.383 46.2171 216.601 46.2868 216.701 46.3189 217.419 46.5547 217.932 46.8476 218.241 47.1977 218.55 47.5478 218.705 48.0354 218.705 48.6605 218.705 49.4071 218.441 49.9813 217.912 50.3832 217.383 50.7851 216.67 50.986 215.774 50.986ZM222.145 50.986C221.198 50.986 220.35 50.7681 219.6 50.3323L219.953 49.1803C220.289 49.366 220.654 49.5161 221.049 49.6304 221.444 49.7447 221.829 49.8018 222.204 49.8018 222.665 49.8018 223.013 49.7027 223.249 49.5044 223.484 49.3062 223.602 49.0213 223.602 48.6498 223.602 48.1568 223.274 47.8157 222.616 47.6264 222.57 47.6121 222.44 47.5737 222.225 47.5111 222.011 47.4486 221.81 47.3879 221.622 47.329 221.435 47.27 221.3 47.2245 221.218 47.1923 220.164 46.8208 219.637 46.1278 219.637 45.1133 219.637 44.4024 219.89 43.8541 220.395 43.4683 220.901 43.0825 221.572 42.8896 222.407 42.8896 223.354 42.8896 224.17 43.0843 224.856 43.4736L224.417 44.5346C223.717 44.2202 223.067 44.0631 222.466 44.0631 222.034 44.0631 221.708 44.139 221.489 44.2908 221.269 44.4426 221.152 44.6953 221.138 45.049 221.138 45.4848 221.354 45.7688 221.786 45.901 221.872 45.9331 222.082 46.0028 222.418 46.1099 222.754 46.2171 222.972 46.2868 223.072 46.3189 223.79 46.5547 224.303 46.8476 224.612 47.1977 224.921 47.5478 225.076 48.0354 225.076 48.6605 225.076 49.4071 224.812 49.9813 224.283 50.3832 223.754 50.7851 223.042 50.986 222.145 50.986ZM226.351 50.8789 226.351 43.0289 227.803 43.0289 227.803 50.8789 226.351 50.8789ZM233.044 50.9914C231.847 50.9914 230.912 50.6306 230.239 49.909 229.565 49.1874 229.229 48.1997 229.229 46.9458 229.229 46.1492 229.386 45.4482 229.7 44.8427 230.015 44.2372 230.477 43.7648 231.088 43.4254 231.699 43.0861 232.42 42.9164 233.253 42.9164 234.207 42.9164 235.025 43.1218 235.707 43.5326L235.235 44.615C234.585 44.2649 233.933 44.0898 233.28 44.0898 232.486 44.0898 231.863 44.347 231.409 44.8615 230.956 45.3759 230.729 46.076 230.729 46.9619 230.729 47.8407 230.931 48.5355 231.334 49.0463 231.738 49.5571 232.329 49.8125 233.108 49.8125 233.608 49.8125 234.062 49.734 234.469 49.5768L234.469 47.755 232.824 47.755 232.835 46.6136 235.835 46.6136 235.835 50.402C235.35 50.602 234.89 50.7503 234.456 50.8467 234.022 50.9432 233.551 50.9914 233.044 50.9914ZM237.395 50.8789 237.395 43.0289 238.938 43.0289C239.217 43.4647 239.783 44.3435 240.637 45.6652 241.49 46.9869 242.01 47.7907 242.196 48.0765 242.249 48.1586 242.341 48.297 242.472 48.4917 242.602 48.6864 242.694 48.8248 242.748 48.907 242.723 47.6817 242.71 47.0459 242.71 46.9994L242.71 43.0289 244.034 43.0289 244.034 50.8789 242.469 50.8789 238.927 45.3598 238.67 44.9365C238.699 45.8795 238.713 46.5422 238.713 46.9244L238.713 50.8789 237.395 50.8789ZM245.722 50.8789 245.722 43.0289 247.436 43.0289 249.81 48.698 252.2 43.0289 253.893 43.0289 253.893 50.8789 252.553 50.8789 252.553 46.9994 252.596 44.7757 252.398 45.3651 250.389 50.343 249.146 50.343 247.179 45.3383 246.981 44.7489 247.029 47.0209 247.029 50.8789 245.722 50.8789ZM255.586 50.8789 255.586 43.0289 260.344 43.0289 260.286 44.1809 257.038 44.1809 257.038 46.2064 260.125 46.2064 260.125 47.3584 257.038 47.3584 257.038 49.7215 260.403 49.7215 260.355 50.8789 255.586 50.8789ZM261.759 50.8789 261.759 43.0289 263.302 43.0289C263.581 43.4647 264.147 44.3435 265.001 45.6652 265.855 46.9869 266.374 47.7907 266.56 48.0765 266.614 48.1586 266.706 48.297 266.836 48.4917 266.966 48.6864 267.058 48.8248 267.112 48.907 267.087 47.6817 267.075 47.0459 267.075 46.9994L267.075 43.0289 268.398 43.0289 268.398 50.8789 266.833 50.8789 263.292 45.3598 263.034 44.9365C263.063 45.8795 263.077 46.5422 263.077 46.9244L263.077 50.8789 261.759 50.8789ZM271.602 50.8789 271.602 44.1917 269.314 44.1917 269.314 43.0289 275.337 43.0289 275.337 44.1917 273.06 44.1917 273.06 50.8789 271.602 50.8789ZM215.712 64.7716C216.473 64.7716 217.047 64.5242 217.435 64.0294 217.823 63.5347 218.016 62.8354 218.016 61.9316 218.016 61.0172 217.823 60.3081 217.435 59.8044 217.047 59.3007 216.475 59.0489 215.718 59.0489 214.957 59.0489 214.381 59.3016 213.99 59.8071 213.598 60.3125 213.403 61.0207 213.403 61.9316 213.403 62.8318 213.597 63.5302 213.987 64.0268 214.376 64.5233 214.951 64.7716 215.712 64.7716ZM215.707 65.9558C214.524 65.9558 213.591 65.5976 212.907 64.8814 212.223 64.1652 211.881 63.1766 211.881 61.9156 211.881 60.6474 212.224 59.6579 212.91 58.9471 213.596 58.2362 214.53 57.8807 215.712 57.8807 216.895 57.8807 217.827 58.2371 218.509 58.9497 219.192 59.6624 219.533 60.6528 219.533 61.9209 219.533 63.1748 219.19 64.1607 218.504 64.8787 217.818 65.5967 216.886 65.9558 215.707 65.9558ZM220.872 65.8432 220.872 57.9718 223.487 57.9718C224.105 57.9718 224.634 58.0513 225.073 58.2103 225.513 58.3692 225.86 58.6273 226.115 58.9846 226.371 59.3418 226.499 59.7901 226.499 60.3295 226.499 60.7046 226.45 61.0377 226.354 61.3288 226.257 61.62 226.098 61.8843 225.877 62.1219 225.656 62.3594 225.344 62.5425 224.942 62.6711 224.54 62.7997 224.055 62.864 223.487 62.864 223.001 62.864 222.607 62.8497 222.303 62.8211L222.303 65.8432 220.872 65.8432ZM223.332 61.8138C223.628 61.8138 223.886 61.7852 224.106 61.728 224.326 61.6709 224.497 61.5976 224.62 61.5083 224.744 61.419 224.842 61.3083 224.915 61.1761 224.988 61.0439 225.037 60.9162 225.06 60.793 225.083 60.6698 225.095 60.5313 225.095 60.3777 225.095 59.9455 224.955 59.6168 224.677 59.3918 224.398 59.1667 224.005 59.0542 223.498 59.0542L222.303 59.0542 222.303 61.803C222.346 61.8102 222.689 61.8138 223.332 61.8138ZM227.581 65.8432 227.581 57.9933 232.339 57.9933 232.28 59.1453 229.033 59.1453 229.033 61.1708 232.119 61.1708 232.119 62.3228 229.033 62.3228 229.033 64.6858 232.398 64.6858 232.35 65.8432 227.581 65.8432ZM233.716 65.8432 233.716 57.9718 236.626 57.9718C237.022 57.9718 237.366 57.9897 237.657 58.0254 237.948 58.0611 238.225 58.1263 238.488 58.221 238.75 58.3157 238.963 58.4434 239.125 58.6041 239.288 58.7649 239.417 58.9747 239.511 59.2337 239.606 59.4927 239.653 59.799 239.653 60.1527 239.653 61.1958 239.18 61.8816 238.233 62.2103 238.426 62.4282 238.666 62.8318 238.951 63.4213L240.119 65.8432 238.533 65.8432 237.617 63.791C237.271 63.0551 237.056 62.6193 236.974 62.4836 236.913 62.48 236.712 62.4782 236.369 62.4782L235.152 62.4675 235.152 65.8432 233.716 65.8432ZM236.754 61.428C237.312 61.428 237.712 61.3288 237.955 61.1306 238.198 60.9323 238.319 60.6135 238.319 60.1741 238.319 59.7883 238.196 59.5043 237.949 59.3221 237.703 59.14 237.326 59.0489 236.819 59.0489L235.152 59.0489 235.152 61.4226C235.206 61.4226 235.472 61.4235 235.951 61.4253 236.429 61.4271 236.697 61.428 236.754 61.428ZM240.361 65.8432 243.249 57.9879 244.829 57.9879 247.675 65.8432 246.185 65.8432 245.408 63.6249 242.659 63.6249 241.877 65.8432 240.361 65.8432ZM243.024 62.5425 245.038 62.5425C244.395 60.4813 244.065 59.4168 244.047 59.3489L243.024 62.5425ZM249.545 65.8432 249.545 59.156 247.257 59.156 247.257 57.9933 253.28 57.9933 253.28 59.156 251.002 59.156 251.002 65.8432 249.545 65.8432ZM257.684 64.7716C258.445 64.7716 259.019 64.5242 259.407 64.0294 259.794 63.5347 259.988 62.8354 259.988 61.9316 259.988 61.0172 259.794 60.3081 259.407 59.8044 259.019 59.3007 258.447 59.0489 257.689 59.0489 256.929 59.0489 256.353 59.3016 255.961 59.8071 255.57 60.3125 255.375 61.0207 255.375 61.9316 255.375 62.8318 255.569 63.5302 255.959 64.0268 256.348 64.5233 256.923 64.7716 257.684 64.7716ZM257.679 65.9558C256.496 65.9558 255.563 65.5976 254.879 64.8814 254.195 64.1652 253.853 63.1766 253.853 61.9156 253.853 60.6474 254.196 59.6579 254.882 58.9471 255.568 58.2362 256.502 57.8807 257.684 57.8807 258.866 57.8807 259.799 58.2371 260.481 58.9497 261.163 59.6624 261.505 60.6528 261.505 61.9209 261.505 63.1748 261.162 64.1607 260.476 64.8787 259.79 65.5967 258.858 65.9558 257.679 65.9558ZM262.844 65.8432 262.844 57.9718 265.754 57.9718C266.15 57.9718 266.494 57.9897 266.785 58.0254 267.076 58.0611 267.353 58.1263 267.616 58.221 267.878 58.3157 268.091 58.4434 268.253 58.6041 268.416 58.7649 268.545 58.9747 268.639 59.2337 268.734 59.4927 268.781 59.799 268.781 60.1527 268.781 61.1958 268.308 61.8816 267.361 62.2103 267.554 62.4282 267.793 62.8318 268.079 63.4213L269.247 65.8432 267.661 65.8432 266.745 63.791C266.399 63.0551 266.184 62.6193 266.102 62.4836 266.041 62.48 265.839 62.4782 265.497 62.4782L264.28 62.4675 264.28 65.8432 262.844 65.8432ZM265.882 61.428C266.44 61.428 266.84 61.3288 267.083 61.1306 267.326 60.9323 267.447 60.6135 267.447 60.1741 267.447 59.7883 267.324 59.5043 267.077 59.3221 266.831 59.14 266.454 59.0489 265.947 59.0489L264.28 59.0489 264.28 61.4226C264.334 61.4226 264.6 61.4235 265.079 61.4253 265.557 61.4271 265.825 61.428 265.882 61.428Z" fill="#4A4A4A" fill-rule="evenodd" transform="scale(1 1.00238)"/><path d="M99.7625 11.9715 99.7625 22.4466" stroke="#4A4A4A" stroke-width="0.997625" stroke-linecap="square" fill="none" fill-rule="evenodd" transform="matrix(-1 0 0 -1.00238 315.249 106.5)"/><path d="M0.997625 11.9715 0.997625 22.4466" stroke="#4A4A4A" stroke-width="0.997625" stroke-linecap="square" fill="none" fill-rule="evenodd" transform="matrix(-1 0 0 -1.00238 117.72 106.5)"/><path d="M0.997625 10.9739 100.261 10.9739" stroke="#4A4A4A" stroke-width="0.997625" stroke-linecap="square" fill="none" fill-rule="evenodd" transform="matrix(-1 0 0 -1.00238 216.983 94)"/><path d="M50.8789 0.498812 50.8789 10.9739" stroke="#4A4A4A" stroke-width="0.997625" stroke-linecap="square" fill="none" fill-rule="evenodd" transform="matrix(-1 0 0 -1.00238 217.482 83.5)"/><path d="M129.691 11.9715 129.691 22.4466" stroke="#4A4A4A" stroke-width="0.997625" stroke-linecap="square" fill="none" fill-rule="evenodd" transform="matrix(-1 0 0 -1.00238 513.777 106.5)"/><path d="M0.997625 11.9715 0.997625 22.4466" stroke="#4A4A4A" stroke-width="0.997625" stroke-linecap="square" fill="none" fill-rule="evenodd" transform="matrix(-1 0 0 -1.00238 256.39 106.5)"/><path d="M0.997625 10.9739 130.19 10.9739" stroke="#4A4A4A" stroke-width="0.997625" stroke-linecap="square" fill="none" fill-rule="evenodd" transform="matrix(-1 0 0 -1.00238 385.582 94)"/><path d="M65.8432 0.498812 65.8432 10.9739" stroke="#4A4A4A" stroke-width="0.997625" stroke-linecap="square" fill="none" fill-rule="evenodd" transform="matrix(-1 0 0 -1.00238 386.081 83.5)"/><path d="M81.8052 11.9715 81.8052 22.4466" stroke="#4A4A4A" stroke-width="0.997625" stroke-linecap="square" fill="none" fill-rule="evenodd" transform="matrix(-1 0 0 -1.00238 188.551 106.5)"/><path d="M0.997625 11.9715 0.997625 22.4466" stroke="#4A4A4A" stroke-width="0.997625" stroke-linecap="square" fill="none" fill-rule="evenodd" transform="matrix(-1 0 0 -1.00238 26.9359 106.5)"/><path d="M0.498812 10.9739 82.304 10.9739" stroke="#4A4A4A" stroke-width="0.997625" stroke-linecap="square" fill="none" fill-rule="evenodd" transform="matrix(-1 0 0 -1.00238 107.743 94)"/><path d="M40.9026 0.498812 40.9026 10.9739" stroke="#4A4A4A" stroke-width="0.997625" stroke-linecap="square" fill="none" fill-rule="evenodd" transform="matrix(-1 0 0 -1.00238 106.746 83.5)"/><path d="M22.9454 10.9739 22.9454 21.4489" stroke="#4A4A4A" stroke-width="0.997625" stroke-linecap="square" fill="none" fill-rule="evenodd" transform="matrix(-1 0 0 -1.00238 270.356 105.5)"/><path d="M0.997625 10.9739 0.997625 21.4489" stroke="#4A4A4A" stroke-width="0.997625" stroke-linecap="square" fill="none" fill-rule="evenodd" transform="matrix(-1 0 0 -1.00238 226.461 105.5)"/><path d="M0.997625 9.97625 22.9454 9.97625" stroke="#4A4A4A" stroke-width="0.997625" stroke-linecap="square" fill="none" fill-rule="evenodd" transform="matrix(-1 0 0 -1.00238 248.409 93)"/><path d="M11.9715 0 11.9715 10.4751" stroke="#4A4A4A" stroke-width="0.997625" stroke-linecap="square" fill="none" fill-rule="evenodd" transform="matrix(-1 0 0 -1.00238 248.409 83.5)"/></g></svg>