<svg width="420" height="239" xmlns="http://www.w3.org/2000/svg" xmlns:xlink="http://www.w3.org/1999/xlink" overflow="hidden"><defs><clipPath id="clip0"><rect x="0" y="0" width="420" height="239"/></clipPath></defs><g clip-path="url(#clip0)"><path d="M0 0 420 0 420 238.432 0 238.432Z" fill="#FFFFFF" fill-rule="evenodd" transform="scale(1 1.00238)"/><path d="M103.127 206.434C103.887 206.434 104.462 206.187 104.849 205.692 105.237 205.197 105.431 204.498 105.431 203.594 105.431 202.68 105.237 201.971 104.849 201.467 104.462 200.963 103.889 200.712 103.132 200.712 102.371 200.712 101.795 200.964 101.404 201.47 101.013 201.975 100.817 202.683 100.817 203.594 100.817 204.495 101.012 205.193 101.401 205.689 101.791 206.186 102.366 206.434 103.127 206.434ZM103.121 207.618C101.939 207.618 101.006 207.26 100.321 206.544 99.6374 205.828 99.2953 204.839 99.2953 203.578 99.2953 202.31 99.6383 201.321 100.324 200.61 101.01 199.899 101.944 199.543 103.127 199.543 104.309 199.543 105.241 199.9 105.924 200.612 106.606 201.325 106.947 202.315 106.947 203.584 106.947 204.837 106.604 205.823 105.918 206.541 105.232 207.259 104.3 207.618 103.121 207.618ZM108.324 207.506 108.324 199.656 110.773 199.656C111.812 199.656 112.588 199.808 113.098 200.111 113.609 200.415 113.865 200.921 113.865 201.628 113.865 201.742 113.857 201.855 113.843 201.965 113.829 202.076 113.797 202.202 113.747 202.343 113.697 202.484 113.631 202.612 113.548 202.726 113.466 202.841 113.352 202.952 113.206 203.061 113.059 203.17 112.888 203.255 112.691 203.316 113.177 203.434 113.548 203.66 113.806 203.994 114.063 204.328 114.191 204.739 114.191 205.229 114.191 205.968 113.93 206.533 113.406 206.922 112.883 207.311 112.159 207.506 111.234 207.506L108.324 207.506ZM109.776 206.456 111.035 206.456C112.15 206.456 112.707 206.02 112.707 205.148 112.707 204.709 112.568 204.393 112.289 204.2 112.011 204.007 111.58 203.91 110.998 203.91L109.776 203.91 109.776 206.456ZM109.776 202.898 111.019 202.898C111.98 202.898 112.461 202.532 112.461 201.799 112.461 201.389 112.322 201.106 112.045 200.953 111.769 200.799 111.328 200.722 110.725 200.722L109.776 200.722 109.776 202.898ZM114.229 209.226 114.17 208.085C114.342 208.113 114.529 208.128 114.733 208.128 115.129 208.128 115.397 208.026 115.536 207.822 115.676 207.618 115.745 207.283 115.745 206.815L115.745 199.635 117.203 199.635 117.203 206.718C117.203 207.168 117.163 207.548 117.082 207.857 117.002 208.166 116.866 208.428 116.675 208.645 116.484 208.861 116.23 209.019 115.914 209.119 115.598 209.219 115.206 209.269 114.738 209.269 114.542 209.269 114.372 209.255 114.229 209.226ZM118.859 207.506 118.859 199.656 123.617 199.656 123.558 200.808 120.311 200.808 120.311 202.833 123.397 202.833 123.397 203.986 120.311 203.986 120.311 206.349 123.676 206.349 123.628 207.506 118.859 207.506ZM128.455 207.618C127.309 207.618 126.4 207.258 125.728 206.536 125.056 205.814 124.721 204.818 124.721 203.546 124.721 202.339 125.072 201.37 125.774 200.639 126.475 199.909 127.394 199.543 128.53 199.543 129.448 199.543 130.225 199.756 130.861 200.181L130.406 201.28C129.795 200.904 129.181 200.717 128.563 200.717 127.841 200.717 127.27 200.977 126.851 201.497 126.431 202.016 126.221 202.714 126.221 203.589 126.221 204.496 126.424 205.198 126.829 205.695 127.235 206.191 127.812 206.44 128.563 206.44 129.22 206.44 129.872 206.275 130.518 205.947L130.711 207.083C130.111 207.44 129.359 207.618 128.455 207.618ZM133.519 207.506 133.519 200.819 131.231 200.819 131.231 199.656 137.254 199.656 137.254 200.819 134.976 200.819 134.976 207.506 133.519 207.506Z" fill="#4A4A4A" fill-rule="evenodd" transform="scale(1 1.00238)"/><path d="M192.385 207.506 192.385 199.656 193.843 199.656 193.843 203.192C194.096 202.857 194.615 202.23 195.399 201.312 196.183 200.394 196.65 199.842 196.8 199.656L198.52 199.656 195.552 203.187 198.708 207.506 197.004 207.506 194.443 203.986 193.843 204.489 193.843 207.506 192.385 207.506ZM199.308 207.506 199.308 199.656 204.066 199.656 204.007 200.808 200.76 200.808 200.76 202.833 203.847 202.833 203.847 203.986 200.76 203.986 200.76 206.349 204.125 206.349 204.077 207.506 199.308 207.506ZM207.271 207.506 207.271 204.393 204.554 199.656 206.129 199.656 207.999 203.053 209.88 199.656 211.434 199.656 208.728 204.366 208.728 207.506 207.271 207.506Z" fill="#4A4A4A" fill-rule="evenodd" transform="scale(1 1.00238)"/><path d="M285.152 207.506 282.296 199.656 283.791 199.656 285.452 204.505C285.516 204.673 285.664 205.164 285.896 205.979 285.911 205.922 285.977 205.687 286.095 205.274 286.213 204.862 286.289 204.609 286.325 204.516 286.368 204.395 286.639 203.588 287.14 202.097 287.64 200.605 287.913 199.792 287.959 199.656L289.438 199.656 286.62 207.506 285.152 207.506ZM288.817 207.506 291.705 199.651 293.286 199.651 296.131 207.506 294.641 207.506 293.864 205.288 291.115 205.288 290.333 207.506 288.817 207.506ZM291.48 204.205 293.495 204.205C292.852 202.144 292.521 201.08 292.503 201.012L291.48 204.205ZM296.913 207.506 296.913 199.656 298.365 199.656 298.365 206.349 301.65 206.349 301.607 207.506 296.913 207.506ZM305.717 207.618C304.688 207.618 303.908 207.362 303.375 206.85 302.843 206.337 302.577 205.614 302.577 204.682L302.577 199.656 304.034 199.656 304.034 204.559C304.034 205.213 304.167 205.689 304.434 205.99 304.7 206.29 305.136 206.44 305.744 206.44 306.34 206.44 306.773 206.289 307.04 205.987 307.308 205.685 307.442 205.207 307.442 204.553L307.442 199.656 308.894 199.656 308.894 204.693C308.894 205.618 308.623 206.337 308.08 206.85 307.537 207.362 306.749 207.618 305.717 207.618ZM310.518 207.506 310.518 199.656 315.276 199.656 315.217 200.808 311.97 200.808 311.97 202.833 315.057 202.833 315.057 203.986 311.97 203.986 311.97 206.349 315.335 206.349 315.287 207.506 310.518 207.506Z" fill="#4A4A4A" fill-rule="evenodd" transform="scale(1 1.00238)"/><path d="M94.7743 203.017C94.7743 205.496 92.7644 207.506 90.285 207.506 87.8057 207.506 85.7957 205.496 85.7957 203.017 85.7957 200.537 87.8057 198.527 90.285 198.527 92.7644 198.527 94.7743 200.537 94.7743 203.017Z" fill="#BD10E0" transform="scale(1 1.00238)"/><path d="M187.553 203.017C187.553 205.496 185.544 207.506 183.064 207.506 180.585 207.506 178.575 205.496 178.575 203.017 178.575 200.537 180.585 198.527 183.064 198.527 185.544 198.527 187.553 200.537 187.553 203.017Z" fill="#F5A623" transform="scale(1 1.00238)"/><path d="M278.337 203.017C278.337 205.496 276.327 207.506 273.848 207.506 271.369 207.506 269.359 205.496 269.359 203.017 269.359 200.537 271.369 198.527 273.848 198.527 276.327 198.527 278.337 200.537 278.337 203.017Z" fill="#6EDB76" transform="scale(1 1.00238)"/><path d="M60.8614 40.3712 59.6193 40.3712C59.1468 40.3712 58.8508 40.3334 58.7315 40.2579 58.6122 40.1824 58.5525 40.0448 58.5525 39.8451 58.5525 39.6697 58.6024 39.5382 58.7023 39.4505 58.8021 39.3628 58.9471 39.319 59.137 39.319L61.5483 39.319C61.6798 39.319 61.7821 39.3458 61.8552 39.3994 61.9282 39.4529 61.9648 39.526 61.9648 39.6186L61.9648 47.8533 64.2591 47.8533C64.4442 47.8533 64.5794 47.8935 64.6646 47.9739 64.7499 48.0543 64.7925 48.1822 64.7925 48.3575 64.7925 48.5572 64.7511 48.6949 64.6683 48.7704 64.5855 48.8459 64.4296 48.8836 64.2007 48.8836L58.8082 48.8836C58.6182 48.8836 58.4733 48.8398 58.3735 48.7521 58.2736 48.6644 58.2237 48.5329 58.2237 48.3575 58.2237 48.187 58.2748 48.0604 58.3771 47.9776 58.4794 47.8948 58.6329 47.8533 58.8374 47.8533L60.8614 47.8533 60.8614 40.3712ZM67.8614 45.8294C67.9003 46.5308 68.1378 47.0727 68.5738 47.4551 69.0098 47.8375 69.6053 48.0287 70.3603 48.0287 70.9302 48.0287 71.5513 47.8765 72.2235 47.572 72.8958 47.2676 73.3025 47.1154 73.4438 47.1154 73.5899 47.1154 73.7117 47.1616 73.8091 47.2542 73.9065 47.3467 73.9553 47.4612 73.9553 47.5976 73.9553 47.7389 73.9041 47.868 73.8018 47.9849 73.6995 48.1018 73.5363 48.2163 73.3123 48.3283 72.8251 48.567 72.3222 48.7497 71.8034 48.8763 71.2846 49.003 70.7695 49.0663 70.258 49.0663 69.1474 49.0663 68.2584 48.746 67.591 48.1054 66.9237 47.4649 66.59 46.6161 66.59 45.559 66.59 44.4825 66.9432 43.6105 67.6495 42.9432 68.3558 42.2758 69.2765 41.9421 70.4115 41.9421 71.4393 41.9421 72.2917 42.2539 72.9688 42.8774 73.6459 43.5009 73.9845 44.256 73.9845 45.1425 73.9845 45.4153 73.9273 45.598 73.8128 45.6905 73.6983 45.7831 73.3878 45.8294 72.8812 45.8294L67.8614 45.8294ZM67.8979 44.8722 72.6546 44.8722C72.5816 44.2925 72.3392 43.8261 71.9276 43.4729 71.516 43.1197 71.0106 42.9432 70.4115 42.9432 69.7636 42.9432 69.218 43.1137 68.7747 43.4546 68.3314 43.7956 68.0392 44.2681 67.8979 44.8722ZM81.3059 42.5413C81.5446 42.5413 81.7188 42.5827 81.8284 42.6655 81.938 42.7483 81.9928 42.8798 81.9928 43.0601 81.9928 43.2306 81.9416 43.3584 81.8393 43.4437 81.737 43.5289 81.5836 43.5716 81.379 43.5716L78.4197 43.5716 78.4197 46.012C78.4197 46.8109 78.5232 47.337 78.7303 47.5903 78.9373 47.8436 79.2917 47.9703 79.7934 47.9703 80.2367 47.9703 80.7677 47.8412 81.3863 47.583 82.0049 47.3248 82.3873 47.1957 82.5335 47.1957 82.6699 47.1957 82.7856 47.2444 82.8805 47.3419 82.9755 47.4393 83.023 47.5586 83.023 47.6999 83.023 47.8607 82.9634 48.0007 82.844 48.12 82.7247 48.2394 82.5213 48.3551 82.2339 48.4671 81.7565 48.6571 81.3266 48.7959 80.9442 48.8836 80.5618 48.9713 80.2026 49.0151 79.8665 49.0151 79.2965 49.0151 78.818 48.9238 78.4307 48.7411 78.0434 48.5585 77.7548 48.2869 77.5648 47.9264 77.4674 47.7559 77.398 47.5538 77.3566 47.32 77.3152 47.0861 77.2945 46.7257 77.2945 46.2385L77.2945 43.5716 76.0523 43.5716C75.8477 43.5716 75.6992 43.5314 75.6066 43.451 75.5141 43.3706 75.4678 43.2403 75.4678 43.0601 75.4678 42.8604 75.5311 42.724 75.6578 42.6509 75.7844 42.5778 76.0548 42.5413 76.4688 42.5413L77.2945 42.5413 77.2945 40.6561C77.2945 40.4467 77.3395 40.292 77.4297 40.1921 77.5198 40.0923 77.6598 40.0424 77.8498 40.0424 78.0641 40.0424 78.2127 40.1032 78.2955 40.225 78.3783 40.3468 78.4197 40.6245 78.4197 41.058L78.4197 42.5413 81.3059 42.5413ZM94.0856 48.3575 94.0856 47.0569C94.0856 46.8426 94.1257 46.6891 94.2061 46.5966 94.2865 46.504 94.4168 46.4577 94.597 46.4577 94.7968 46.4577 94.9551 46.5941 95.072 46.8669 95.1499 47.0325 95.2206 47.1568 95.2839 47.2396 95.4885 47.5026 95.7905 47.7133 96.1899 47.8716 96.5894 48.0299 97.0302 48.1091 97.5125 48.1091 98.0288 48.1091 98.4429 48.0044 98.7546 47.7949 99.0664 47.5854 99.2223 47.3102 99.2223 46.9692 99.2223 46.6234 99.0968 46.3774 98.8459 46.2312 98.5951 46.0851 98.1652 46.012 97.5563 46.012L97.1544 46.012C96.1607 46.012 95.4032 45.8391 94.882 45.4932 94.3608 45.1474 94.1002 44.6457 94.1002 43.988 94.1002 43.345 94.3547 42.8457 94.8637 42.4901 95.3728 42.1345 96.0876 41.9567 97.0083 41.9567 97.3834 41.9567 97.7658 42.0091 98.1555 42.1138 98.5452 42.2186 98.7497 42.2709 98.7692 42.2709 98.8228 42.2709 98.9251 42.2234 99.0761 42.1285 99.2271 42.0335 99.3757 41.986 99.5218 41.986 99.6875 41.986 99.8104 42.0469 99.8908 42.1686 99.9712 42.2904 100.011 42.4731 100.011 42.7167L100.011 43.5716C100.011 43.8297 99.9724 44.016 99.8945 44.1305 99.8165 44.245 99.6923 44.3022 99.5218 44.3022 99.3757 44.3022 99.1955 44.178 98.9811 43.9296 98.8301 43.7591 98.7059 43.63 98.6085 43.5423 98.3503 43.3036 98.0751 43.1319 97.7828 43.0272 97.4905 42.9225 97.1471 42.8701 96.7525 42.8701 96.2947 42.8701 95.9257 42.9712 95.6456 43.1733 95.3655 43.3755 95.2254 43.6324 95.2254 43.9442 95.2254 44.2511 95.3691 44.4703 95.6565 44.6018 95.9439 44.7333 96.5626 44.8088 97.5125 44.8283 98.5257 44.8527 99.2661 45.0293 99.7337 45.3581 100.201 45.6869 100.435 46.1947 100.435 46.8815 100.435 47.5392 100.177 48.0652 99.6607 48.4598 99.1443 48.8544 98.4477 49.0517 97.5709 49.0517 97.2933 49.0517 96.9839 49.0261 96.6429 48.9749 96.302 48.9238 95.8733 48.8373 95.3569 48.7156 95.1864 48.8276 95.0403 48.9116 94.9185 48.9676 94.7968 49.0237 94.6945 49.0517 94.6116 49.0517 94.4412 49.0517 94.3109 48.992 94.2207 48.8727 94.1306 48.7533 94.0856 48.5816 94.0856 48.3575ZM104.366 50.7542 106.12 50.7542C106.305 50.7542 106.444 50.798 106.536 50.8857 106.629 50.9734 106.675 51.1049 106.675 51.2802 106.675 51.4702 106.63 51.6042 106.54 51.6821 106.45 51.7601 106.29 51.799 106.061 51.799L102.839 51.799C102.644 51.799 102.497 51.7552 102.397 51.6675 102.297 51.5798 102.247 51.4507 102.247 51.2802 102.247 51.0854 102.309 50.949 102.434 50.8711 102.558 50.7931 102.788 50.7542 103.124 50.7542L103.263 50.7542 103.263 43.1697 103.124 43.1697C102.788 43.1697 102.558 43.1307 102.434 43.0528 102.309 42.9748 102.247 42.8384 102.247 42.6436 102.247 42.4731 102.297 42.3452 102.397 42.26 102.497 42.1747 102.644 42.1321 102.839 42.1321L103.95 42.1321C104.096 42.1321 104.202 42.1565 104.268 42.2052 104.333 42.2539 104.366 42.3294 104.366 42.4317L104.366 43.1404C104.697 42.7995 105.064 42.5437 105.466 42.3732 105.868 42.2027 106.3 42.1175 106.763 42.1175 107.742 42.1175 108.56 42.4487 109.218 43.1112 109.876 43.7737 110.204 44.6042 110.204 45.6028 110.204 46.5625 109.893 47.3516 109.269 47.9703 108.646 48.5889 107.849 48.8982 106.88 48.8982 106.363 48.8982 105.889 48.8069 105.455 48.6242 105.021 48.4415 104.659 48.1797 104.366 47.8387L104.366 50.7542ZM106.631 47.8241C107.308 47.8241 107.864 47.611 108.297 47.1848 108.731 46.7585 108.948 46.2069 108.948 45.5298 108.948 44.8673 108.73 44.3205 108.294 43.8894 107.858 43.4583 107.304 43.2427 106.631 43.2427 105.959 43.2427 105.409 43.4571 104.98 43.8857 104.551 44.3144 104.337 44.8624 104.337 45.5298 104.337 46.202 104.55 46.7524 104.976 47.1811 105.403 47.6098 105.954 47.8241 106.631 47.8241ZM116.854 45.654C116.586 45.5663 116.326 45.5018 116.075 45.4604 115.825 45.419 115.575 45.3983 115.326 45.3983 114.576 45.3983 113.984 45.5249 113.551 45.7782 113.117 46.0315 112.901 46.3725 112.901 46.8012 112.901 47.1324 113.036 47.4052 113.306 47.6195 113.576 47.8339 113.921 47.941 114.34 47.941 114.959 47.941 115.532 47.7791 116.061 47.4551 116.589 47.1312 116.854 46.7939 116.854 46.4431L116.854 45.654ZM116.912 47.9556C116.513 48.3161 116.078 48.5913 115.608 48.7813 115.138 48.9713 114.654 49.0663 114.157 49.0663 113.432 49.0663 112.846 48.8641 112.4 48.4598 111.954 48.0555 111.732 47.5294 111.732 46.8815 111.732 46.1119 112.027 45.5152 112.619 45.0914 113.211 44.6676 114.043 44.4557 115.115 44.4557 115.397 44.4557 115.682 44.4739 115.969 44.5105 116.257 44.547 116.552 44.6042 116.854 44.6822L116.854 44.631C116.854 44.0708 116.72 43.6568 116.452 43.3889 116.184 43.121 115.767 42.987 115.202 42.987 114.822 42.987 114.399 43.0893 113.931 43.2939 113.463 43.4985 113.154 43.6008 113.003 43.6008 112.862 43.6008 112.745 43.5435 112.652 43.4291 112.56 43.3146 112.513 43.1672 112.513 42.987 112.513 42.6996 112.782 42.456 113.321 42.2563 113.859 42.0566 114.547 41.9567 115.385 41.9567 116.242 41.9567 116.89 42.1747 117.329 42.6107 117.767 43.0467 117.986 43.6909 117.986 44.5434L117.986 47.8533 118.344 47.8533C118.69 47.8533 118.921 47.8899 119.038 47.963 119.155 48.036 119.214 48.1675 119.214 48.3575 119.214 48.5329 119.165 48.6644 119.068 48.7521 118.97 48.8398 118.824 48.8836 118.629 48.8836L117.482 48.8836C117.346 48.8836 117.234 48.8422 117.146 48.7594 117.058 48.6766 117 48.5572 116.971 48.4014L116.912 47.9556ZM126.411 42.5705 126.411 42.5413C126.411 42.3805 126.457 42.2624 126.55 42.1869 126.642 42.1114 126.786 42.0737 126.981 42.0737 127.181 42.0737 127.318 42.1321 127.394 42.249 127.469 42.3659 127.507 42.6071 127.507 42.9724L127.507 44.3315C127.507 44.5117 127.461 44.6469 127.368 44.737 127.276 44.8271 127.137 44.8722 126.952 44.8722 126.82 44.8722 126.707 44.8344 126.612 44.7589 126.517 44.6834 126.401 44.5263 126.265 44.2876 126.031 43.893 125.747 43.5947 125.414 43.3925 125.08 43.1904 124.696 43.0893 124.263 43.0893 123.503 43.0893 122.885 43.3134 122.41 43.7615 121.936 44.2097 121.698 44.7894 121.698 45.5006 121.698 46.2264 121.926 46.8194 122.381 47.2798 122.837 47.7401 123.422 47.9703 124.139 47.9703 124.465 47.9703 124.775 47.9252 125.07 47.8351 125.365 47.745 125.644 47.6098 125.907 47.4296 125.999 47.3711 126.124 47.281 126.279 47.1592 126.596 46.901 126.844 46.7719 127.025 46.7719 127.176 46.7719 127.299 46.8194 127.394 46.9144 127.489 47.0094 127.536 47.1324 127.536 47.2834 127.536 47.6682 127.172 48.0616 126.444 48.4635 125.716 48.8653 124.942 49.0663 124.124 49.0663 123.067 49.0663 122.186 48.7277 121.482 48.0506 120.779 47.3735 120.427 46.5284 120.427 45.5152 120.427 44.5019 120.777 43.6556 121.479 42.976 122.18 42.2965 123.057 41.9567 124.109 41.9567 124.479 41.9567 124.851 42.0067 125.224 42.1065 125.596 42.2064 125.992 42.3611 126.411 42.5705ZM130.722 45.8294C130.761 46.5308 130.998 47.0727 131.434 47.4551 131.87 47.8375 132.466 48.0287 133.221 48.0287 133.791 48.0287 134.412 47.8765 135.084 47.572 135.756 47.2676 136.163 47.1154 136.304 47.1154 136.451 47.1154 136.572 47.1616 136.67 47.2542 136.767 47.3467 136.816 47.4612 136.816 47.5976 136.816 47.7389 136.765 47.868 136.662 47.9849 136.56 48.1018 136.397 48.2163 136.173 48.3283 135.686 48.567 135.183 48.7497 134.664 48.8763 134.145 49.003 133.63 49.0663 133.119 49.0663 132.008 49.0663 131.119 48.746 130.452 48.1054 129.784 47.4649 129.451 46.6161 129.451 45.559 129.451 44.4825 129.804 43.6105 130.51 42.9432 131.216 42.2758 132.137 41.9421 133.272 41.9421 134.3 41.9421 135.152 42.2539 135.829 42.8774 136.507 43.5009 136.845 44.256 136.845 45.1425 136.845 45.4153 136.788 45.598 136.673 45.6905 136.559 45.7831 136.248 45.8294 135.742 45.8294L130.722 45.8294ZM130.758 44.8722 135.515 44.8722C135.442 44.2925 135.2 43.8261 134.788 43.4729 134.377 43.1197 133.871 42.9432 133.272 42.9432 132.624 42.9432 132.079 43.1137 131.635 43.4546 131.192 43.7956 130.9 44.2681 130.758 44.8722ZM138.986 48.3575 138.986 47.0569C138.986 46.8426 139.026 46.6891 139.107 46.5966 139.187 46.504 139.317 46.4577 139.497 46.4577 139.697 46.4577 139.855 46.5941 139.972 46.8669 140.05 47.0325 140.121 47.1568 140.184 47.2396 140.389 47.5026 140.691 47.7133 141.09 47.8716 141.49 48.0299 141.931 48.1091 142.413 48.1091 142.929 48.1091 143.343 48.0044 143.655 47.7949 143.967 47.5854 144.123 47.3102 144.123 46.9692 144.123 46.6234 143.997 46.3774 143.746 46.2312 143.495 46.0851 143.066 46.012 142.457 46.012L142.055 46.012C141.061 46.012 140.304 45.8391 139.782 45.4932 139.261 45.1474 139.001 44.6457 139.001 43.988 139.001 43.345 139.255 42.8457 139.764 42.4901 140.273 42.1345 140.988 41.9567 141.909 41.9567 142.284 41.9567 142.666 42.0091 143.056 42.1138 143.446 42.2186 143.65 42.2709 143.67 42.2709 143.723 42.2709 143.826 42.2234 143.977 42.1285 144.128 42.0335 144.276 41.986 144.422 41.986 144.588 41.986 144.711 42.0469 144.791 42.1686 144.872 42.2904 144.912 42.4731 144.912 42.7167L144.912 43.5716C144.912 43.8297 144.873 44.016 144.795 44.1305 144.717 44.245 144.593 44.3022 144.422 44.3022 144.276 44.3022 144.096 44.178 143.882 43.9296 143.731 43.7591 143.606 43.63 143.509 43.5423 143.251 43.3036 142.975 43.1319 142.683 43.0272 142.391 42.9225 142.048 42.8701 141.653 42.8701 141.195 42.8701 140.826 42.9712 140.546 43.1733 140.266 43.3755 140.126 43.6324 140.126 43.9442 140.126 44.2511 140.27 44.4703 140.557 44.6018 140.844 44.7333 141.463 44.8088 142.413 44.8283 143.426 44.8527 144.167 45.0293 144.634 45.3581 145.102 45.6869 145.336 46.1947 145.336 46.8815 145.336 47.5392 145.077 48.0652 144.561 48.4598 144.045 48.8544 143.348 49.0517 142.471 49.0517 142.194 49.0517 141.884 49.0261 141.543 48.9749 141.202 48.9238 140.774 48.8373 140.257 48.7156 140.087 48.8276 139.941 48.9116 139.819 48.9676 139.697 49.0237 139.595 49.0517 139.512 49.0517 139.342 49.0517 139.211 48.992 139.121 48.8727 139.031 48.7533 138.986 48.5816 138.986 48.3575ZM148.404 47.8533 148.404 40.3712 148.266 40.3712C147.934 40.3712 147.707 40.3322 147.582 40.2543 147.458 40.1763 147.396 40.0399 147.396 39.8451 147.396 39.6697 147.446 39.5382 147.546 39.4505 147.646 39.3628 147.791 39.319 147.981 39.319L149.091 39.319C149.223 39.319 149.325 39.3458 149.398 39.3994 149.471 39.4529 149.508 39.526 149.508 39.6186L149.508 42.9286C149.863 42.5973 150.215 42.3525 150.564 42.1942 150.912 42.0359 151.274 41.9567 151.649 41.9567 152.384 41.9567 152.963 42.1857 153.384 42.6436 153.805 43.1015 154.016 43.7347 154.016 44.5434L154.016 47.8533 154.36 47.8533C154.603 47.8533 154.778 47.8935 154.886 47.9739 154.993 48.0543 155.046 48.1822 155.046 48.3575 155.046 48.5329 154.998 48.6644 154.9 48.7521 154.803 48.8398 154.657 48.8836 154.462 48.8836L152.518 48.8836C152.289 48.8836 152.135 48.8459 152.054 48.7704 151.974 48.6949 151.934 48.5572 151.934 48.3575 151.934 48.1627 151.984 48.0299 152.083 47.9593 152.183 47.8887 152.372 47.8533 152.65 47.8533L152.905 47.8533 152.905 44.8137C152.905 44.2438 152.776 43.809 152.518 43.5094 152.26 43.2099 151.885 43.0601 151.393 43.0601 150.891 43.0601 150.452 43.2281 150.074 43.5642 149.697 43.9004 149.508 44.3168 149.508 44.8137L149.508 47.8533 149.764 47.8533C150.056 47.8533 150.253 47.8899 150.355 47.963 150.458 48.036 150.509 48.1675 150.509 48.3575 150.509 48.5572 150.469 48.6949 150.388 48.7704 150.308 48.8459 150.153 48.8836 149.924 48.8836L147.981 48.8836C147.791 48.8836 147.648 48.8398 147.553 48.7521 147.458 48.6644 147.411 48.5329 147.411 48.3575 147.411 48.1627 147.468 48.0299 147.582 47.9593 147.697 47.8887 147.92 47.8533 148.251 47.8533L148.404 47.8533ZM159.46 40.0277C159.46 39.5016 159.507 39.1704 159.602 39.034 159.697 38.8976 159.901 38.8294 160.212 38.8294 160.514 38.8294 160.714 38.8867 160.811 39.0011 160.909 39.1156 160.958 39.3872 160.958 39.8158 160.958 40.2348 160.913 40.4942 160.822 40.594 160.732 40.6939 160.529 40.7438 160.212 40.7438 159.901 40.7438 159.697 40.6975 159.602 40.605 159.507 40.5124 159.46 40.32 159.46 40.0277ZM160.811 47.8533 163.157 47.8533C163.347 47.8533 163.487 47.8935 163.577 47.9739 163.667 48.0543 163.712 48.1822 163.712 48.3575 163.712 48.5572 163.67 48.6949 163.584 48.7704 163.499 48.8459 163.342 48.8836 163.113 48.8836L157.443 48.8836C157.248 48.8836 157.102 48.8398 157.005 48.7521 156.907 48.6644 156.858 48.5329 156.858 48.3575 156.858 48.187 156.91 48.0604 157.012 47.9776 157.114 47.8948 157.268 47.8533 157.472 47.8533L159.701 47.8533 159.701 43.1697 158.276 43.1697C158.076 43.1697 157.924 43.1246 157.819 43.0345 157.715 42.9444 157.662 42.8141 157.662 42.6436 157.662 42.4731 157.711 42.3452 157.808 42.26 157.906 42.1747 158.052 42.1321 158.247 42.1321L160.388 42.1321C160.519 42.1321 160.623 42.1589 160.698 42.2125 160.774 42.2661 160.811 42.3391 160.811 42.4317L160.811 47.8533ZM167.227 50.7542 168.98 50.7542C169.166 50.7542 169.304 50.798 169.397 50.8857 169.49 50.9734 169.536 51.1049 169.536 51.2802 169.536 51.4702 169.491 51.6042 169.401 51.6821 169.311 51.7601 169.151 51.799 168.922 51.799L165.7 51.799C165.505 51.799 165.358 51.7552 165.258 51.6675 165.158 51.5798 165.108 51.4507 165.108 51.2802 165.108 51.0854 165.17 50.949 165.294 50.8711 165.418 50.7931 165.649 50.7542 165.985 50.7542L166.124 50.7542 166.124 43.1697 165.985 43.1697C165.649 43.1697 165.418 43.1307 165.294 43.0528 165.17 42.9748 165.108 42.8384 165.108 42.6436 165.108 42.4731 165.158 42.3452 165.258 42.26 165.358 42.1747 165.505 42.1321 165.7 42.1321L166.81 42.1321C166.956 42.1321 167.062 42.1565 167.128 42.2052 167.194 42.2539 167.227 42.3294 167.227 42.4317L167.227 43.1404C167.558 42.7995 167.925 42.5437 168.327 42.3732 168.728 42.2027 169.161 42.1175 169.623 42.1175 170.603 42.1175 171.421 42.4487 172.079 43.1112 172.736 43.7737 173.065 44.6042 173.065 45.6028 173.065 46.5625 172.753 47.3516 172.13 47.9703 171.506 48.5889 170.71 48.8982 169.74 48.8982 169.224 48.8982 168.749 48.8069 168.316 48.6242 167.882 48.4415 167.519 48.1797 167.227 47.8387L167.227 50.7542ZM169.492 47.8241C170.169 47.8241 170.724 47.611 171.158 47.1848 171.591 46.7585 171.808 46.2069 171.808 45.5298 171.808 44.8673 171.59 44.3205 171.154 43.8894 170.718 43.4583 170.164 43.2427 169.492 43.2427 168.82 43.2427 168.269 43.4571 167.841 43.8857 167.412 44.3144 167.198 44.8624 167.198 45.5298 167.198 46.202 167.411 46.7524 167.837 47.1811 168.263 47.6098 168.815 47.8241 169.492 47.8241Z" fill="#BD10E0" fill-rule="evenodd" transform="scale(1 1.00238)"/><path d="M307.268 107.025 307.268 99.8696 309.646 99.8696C310.207 99.8696 310.688 99.9419 311.087 100.086 311.487 100.231 311.803 100.466 312.035 100.79 312.267 101.115 312.383 101.523 312.383 102.013 312.383 102.354 312.339 102.657 312.252 102.921 312.164 103.186 312.019 103.426 311.818 103.642 311.617 103.858 311.333 104.025 310.968 104.142 310.603 104.259 310.162 104.317 309.646 104.317 309.204 104.317 308.845 104.304 308.569 104.278L308.569 107.025 307.268 107.025ZM309.504 103.362C309.774 103.362 310.008 103.336 310.208 103.284 310.408 103.232 310.564 103.166 310.676 103.085 310.788 103.003 310.877 102.903 310.944 102.783 311.01 102.662 311.054 102.546 311.075 102.434 311.096 102.322 311.107 102.196 311.107 102.057 311.107 101.664 310.98 101.365 310.727 101.161 310.474 100.956 310.116 100.854 309.655 100.854L308.569 100.854 308.569 103.353C308.608 103.359 308.92 103.362 309.504 103.362ZM313.333 107.025 313.333 99.8696 315.978 99.8696C316.339 99.8696 316.651 99.8859 316.916 99.9184 317.181 99.9508 317.432 100.01 317.671 100.096 317.91 100.182 318.103 100.298 318.251 100.444 318.398 100.591 318.515 100.781 318.601 101.017 318.687 101.252 318.73 101.531 318.73 101.852 318.73 102.8 318.3 103.424 317.44 103.723 317.615 103.921 317.832 104.288 318.092 104.824L319.154 107.025 317.712 107.025 316.879 105.16C316.564 104.491 316.369 104.095 316.295 103.971 316.24 103.968 316.056 103.966 315.744 103.966L314.639 103.957 314.639 107.025 313.333 107.025ZM316.095 103.012C316.602 103.012 316.965 102.921 317.186 102.741 317.407 102.561 317.517 102.271 317.517 101.872 317.517 101.521 317.405 101.263 317.181 101.097 316.957 100.932 316.615 100.849 316.154 100.849L314.639 100.849 314.639 103.007C314.687 103.007 314.929 103.008 315.364 103.009 315.8 103.011 316.043 103.012 316.095 103.012ZM323.334 106.051C324.025 106.051 324.547 105.826 324.9 105.377 325.252 104.927 325.428 104.291 325.428 103.469 325.428 102.638 325.252 101.993 324.9 101.536 324.547 101.078 324.027 100.849 323.339 100.849 322.647 100.849 322.123 101.079 321.768 101.538 321.412 101.998 321.234 102.641 321.234 103.469 321.234 104.288 321.411 104.923 321.765 105.374 322.119 105.826 322.642 106.051 323.334 106.051ZM323.329 107.128C322.254 107.128 321.405 106.802 320.784 106.151 320.162 105.5 319.851 104.601 319.851 103.455 319.851 102.302 320.163 101.402 320.786 100.756 321.41 100.11 322.259 99.7868 323.334 99.7868 324.409 99.7868 325.256 100.111 325.876 100.759 326.497 101.407 326.807 102.307 326.807 103.46 326.807 104.6 326.495 105.496 325.872 106.149 325.248 106.801 324.4 107.128 323.329 107.128ZM328.025 107.025 328.025 99.8696 330.402 99.8696C330.964 99.8696 331.444 99.9419 331.844 100.086 332.243 100.231 332.559 100.466 332.791 100.79 333.023 101.115 333.139 101.523 333.139 102.013 333.139 102.354 333.096 102.657 333.008 102.921 332.92 103.186 332.776 103.426 332.574 103.642 332.373 103.858 332.09 104.025 331.724 104.142 331.359 104.259 330.918 104.317 330.402 104.317 329.96 104.317 329.601 104.304 329.325 104.278L329.325 107.025 328.025 107.025ZM330.261 103.362C330.53 103.362 330.765 103.336 330.964 103.284 331.164 103.232 331.32 103.166 331.432 103.085 331.544 103.003 331.633 102.903 331.7 102.783 331.767 102.662 331.81 102.546 331.832 102.434 331.853 102.322 331.863 102.196 331.863 102.057 331.863 101.664 331.737 101.365 331.483 101.161 331.23 100.956 330.873 100.854 330.412 100.854L329.325 100.854 329.325 103.353C329.364 103.359 329.676 103.362 330.261 103.362ZM334.123 107.025 334.123 99.8891 338.449 99.8891 338.395 100.936 335.444 100.936 335.444 102.778 338.249 102.778 338.249 103.825 335.444 103.825 335.444 105.973 338.503 105.973 338.459 107.025 334.123 107.025ZM339.701 107.025 339.701 99.8696 342.346 99.8696C342.706 99.8696 343.019 99.8859 343.284 99.9184 343.548 99.9508 343.8 100.01 344.039 100.096 344.277 100.182 344.471 100.298 344.618 100.444 344.766 100.591 344.883 100.781 344.969 101.017 345.055 101.252 345.098 101.531 345.098 101.852 345.098 102.8 344.668 103.424 343.807 103.723 343.983 103.921 344.2 104.288 344.46 104.824L345.522 107.025 344.08 107.025 343.247 105.16C342.932 104.491 342.737 104.095 342.663 103.971 342.607 103.968 342.424 103.966 342.112 103.966L341.006 103.957 341.006 107.025 339.701 107.025ZM342.463 103.012C342.97 103.012 343.333 102.921 343.554 102.741 343.775 102.561 343.885 102.271 343.885 101.872 343.885 101.521 343.773 101.263 343.549 101.097 343.325 100.932 342.983 100.849 342.521 100.849L341.006 100.849 341.006 103.007C341.055 103.007 341.297 103.008 341.732 103.009 342.167 103.011 342.411 103.012 342.463 103.012ZM347.904 107.025 347.904 100.946 345.824 100.946 345.824 99.8891 351.299 99.8891 351.299 100.946 349.229 100.946 349.229 107.025 347.904 107.025ZM352.171 107.025 352.171 99.8891 353.491 99.8891 353.491 107.025 352.171 107.025ZM355.07 107.025 355.07 99.8891 359.395 99.8891 359.342 100.936 356.39 100.936 356.39 102.778 359.196 102.778 359.196 103.825 356.39 103.825 356.39 105.973 359.449 105.973 359.405 107.025 355.07 107.025ZM362.683 107.123C361.823 107.123 361.051 106.925 360.37 106.529L360.691 105.481C360.996 105.65 361.328 105.787 361.687 105.89 362.046 105.994 362.396 106.046 362.737 106.046 363.156 106.046 363.472 105.956 363.687 105.776 363.901 105.596 364.008 105.337 364.008 104.999 364.008 104.551 363.71 104.241 363.112 104.069 363.07 104.056 362.951 104.021 362.756 103.964 362.562 103.907 362.379 103.852 362.208 103.798 362.038 103.745 361.915 103.703 361.841 103.674 360.883 103.336 360.404 102.706 360.404 101.784 360.404 101.138 360.633 100.639 361.093 100.289 361.552 99.9378 362.162 99.7625 362.922 99.7625 363.783 99.7625 364.525 99.9395 365.148 100.293L364.749 101.258C364.112 100.972 363.521 100.829 362.976 100.829 362.583 100.829 362.286 100.898 362.087 101.036 361.887 101.174 361.781 101.404 361.768 101.726 361.768 102.122 361.964 102.38 362.357 102.5 362.435 102.529 362.626 102.593 362.932 102.69 363.237 102.787 363.435 102.851 363.526 102.88 364.179 103.094 364.646 103.361 364.927 103.679 365.207 103.997 365.348 104.44 365.348 105.009 365.348 105.687 365.108 106.21 364.627 106.575 364.146 106.94 363.498 107.123 362.683 107.123Z" fill="#4A4A4A" fill-rule="evenodd" transform="scale(1 1.00238)"/><path d="M47.886 10.9739 47.886 21.4489" stroke="#4A4A4A" stroke-width="0.997625" stroke-linecap="square" fill="none" fill-rule="evenodd" transform="matrix(0 -1.00238 1 0 269.857 174)"/><path d="M0.997625 10.9739 0.997625 21.4489" stroke="#4A4A4A" stroke-width="0.997625" stroke-linecap="square" fill="none" fill-rule="evenodd" transform="matrix(0 -1.00238 1 0 269.857 80)"/><path d="M0.997625 9.97625 47.886 9.97625" stroke="#4A4A4A" stroke-width="0.997625" stroke-linecap="square" fill="none" fill-rule="evenodd" transform="matrix(0 -1.00238 1 0 282.328 127)"/><path d="M24.9406 0.498812 24.9406 9.97625" stroke="#4A4A4A" stroke-width="0.997625" stroke-linecap="square" fill="none" fill-rule="evenodd" transform="matrix(0 -1.00238 1 0 291.805 128)"/><path d="M183.799 44.9598 190.353 44.9598C190.499 44.9598 190.612 45.0073 190.693 45.1023 190.773 45.1973 190.813 45.3301 190.813 45.5006 190.813 45.6759 190.773 45.8099 190.693 45.9024 190.612 45.995 190.499 46.0413 190.353 46.0413L183.799 46.0413C183.648 46.0413 183.532 45.995 183.452 45.9024 183.371 45.8099 183.331 45.6759 183.331 45.5006 183.331 45.3252 183.371 45.1912 183.452 45.0987 183.532 45.0061 183.648 44.9598 183.799 44.9598Z" fill="#9B9B9B" transform="scale(1 1.00238)"/><path d="M183.799 42.5121 190.353 42.5121C190.499 42.5121 190.612 42.5583 190.693 42.6509 190.773 42.7434 190.813 42.875 190.813 43.0455 190.813 43.2208 190.773 43.3548 190.693 43.4473 190.612 43.5399 190.499 43.5862 190.353 43.5862L183.799 43.5862C183.648 43.5862 183.532 43.5411 183.452 43.451 183.371 43.3609 183.331 43.2257 183.331 43.0455 183.331 42.8701 183.371 42.7374 183.452 42.6472 183.532 42.5571 183.648 42.5121 183.799 42.5121Z" fill="#9B9B9B" transform="scale(1 1.00238)"/><path d="M204.484 45.5152C204.971 45.6662 205.312 45.9134 205.507 46.2568 205.702 46.6002 205.8 47.1762 205.8 47.9849L205.8 49.0663C205.8 49.5729 205.853 49.9114 205.96 50.0819 206.067 50.2524 206.262 50.3718 206.545 50.44 206.608 50.4546 206.698 50.4692 206.815 50.4838 207.244 50.5423 207.458 50.742 207.458 51.083 207.458 51.2486 207.402 51.3777 207.29 51.4702 207.178 51.5628 207.02 51.6091 206.815 51.6091 205.992 51.6091 205.412 51.4045 205.076 50.9953 204.74 50.5861 204.572 49.8165 204.572 48.6863L204.572 47.8387C204.572 47.2688 204.492 46.8657 204.331 46.6295 204.17 46.3932 203.776 46.2215 203.147 46.1143 202.957 46.0851 202.821 46.0254 202.738 45.9353 202.655 45.8452 202.614 45.7051 202.614 45.5152 202.614 45.3593 202.648 45.2375 202.716 45.1498 202.784 45.0621 202.894 44.9988 203.045 44.9598 203.118 44.9452 203.223 44.9209 203.359 44.8868 204.168 44.7163 204.572 44.1585 204.572 43.2135L204.572 42.344C204.572 41.2188 204.742 40.4491 205.083 40.035 205.424 39.621 206.007 39.414 206.83 39.414 207.03 39.414 207.184 39.4615 207.294 39.5565 207.403 39.6514 207.458 39.7817 207.458 39.9474 207.458 40.2835 207.244 40.4783 206.815 40.5319 206.732 40.5465 206.667 40.5563 206.618 40.5611 206.311 40.6196 206.098 40.7402 205.979 40.9228 205.859 41.1055 205.8 41.4599 205.8 41.986L205.8 43.0601C205.8 43.8736 205.702 44.4508 205.507 44.7918 205.312 45.1328 204.971 45.3739 204.484 45.5152Z" fill="#9B9B9B" transform="scale(1 1.00238)"/><path d="M89.8398 88.4501C89.8106 88.5864 89.7692 88.6753 89.7156 88.7168 89.662 88.7582 89.5743 88.7789 89.4525 88.7789L88.1373 88.7789C88.0789 88.7789 88.0314 88.7655 87.9948 88.7387 87.9583 88.7119 87.94 88.6741 87.94 88.6254 87.94 88.6157 87.9437 88.5998 87.951 88.5779L87.9839 88.4793 89.6352 85.067C89.6693 84.9988 89.7095 84.9464 89.7558 84.9099 89.8021 84.8734 89.8495 84.8551 89.8983 84.8551 89.9226 84.8551 89.9543 84.86 89.9932 84.8697 90.003 84.8794 90.0127 84.8843 90.0225 84.8843L90.439 85.0524C90.4974 85.0767 90.5449 85.1084 90.5815 85.1474 90.618 85.1863 90.6362 85.2302 90.6362 85.2789 90.6362 85.2984 90.6338 85.3191 90.6289 85.341 90.6241 85.3629 90.6168 85.3909 90.607 85.425L89.8398 88.4501Z" fill="#F5A623" transform="scale(1 1.00238)"/><path d="M96.9347 92.7465 98.4911 92.7465C98.6957 92.7465 98.8442 92.7866 98.9368 92.867 99.0294 92.9474 99.0756 93.0753 99.0756 93.2506 99.0756 93.4211 99.0318 93.5514 98.9441 93.6415 98.8564 93.7317 98.7298 93.7767 98.5641 93.7767L94.9619 93.7767C94.7963 93.7767 94.6696 93.7317 94.5819 93.6415 94.4942 93.5514 94.4504 93.4211 94.4504 93.2506 94.4504 93.0704 94.4979 92.9413 94.5929 92.8634 94.6879 92.7854 94.8499 92.7465 95.0788 92.7465L95.7803 92.7465 95.7803 86.163 95.3199 86.163C94.9497 86.163 94.7122 86.1253 94.6075 86.0498 94.5028 85.9743 94.4504 85.8366 94.4504 85.6369 94.4504 85.4664 94.4942 85.3361 94.5819 85.246 94.6696 85.1559 94.7963 85.1108 94.9619 85.1108L101.428 85.1108C101.594 85.1108 101.719 85.1608 101.805 85.2606 101.89 85.3605 101.933 85.5054 101.933 85.6954L101.933 87.5805C101.933 87.751 101.89 87.8789 101.805 87.9641 101.719 88.0494 101.594 88.092 101.428 88.092 101.224 88.092 101.085 88.0384 101.012 87.9313 100.939 87.8241 100.902 87.583 100.902 87.2079L100.902 86.163 96.9347 86.163 96.9347 88.6254 98.8637 88.6254 98.8637 88.4354C98.8637 88.0798 98.8978 87.8411 98.966 87.7194 99.0342 87.5976 99.156 87.5367 99.3314 87.5367 99.4872 87.5367 99.6005 87.583 99.6711 87.6755 99.7418 87.7681 99.7771 87.9166 99.7771 88.1212L99.7771 89.9772C99.7771 90.2207 99.7442 90.3888 99.6784 90.4813 99.6127 90.5739 99.497 90.6202 99.3314 90.6202 99.156 90.6202 99.0342 90.5593 98.966 90.4375 98.8978 90.3157 98.8637 90.077 98.8637 89.7214L98.8637 89.5095 96.9347 89.5095 96.9347 92.7465Z" fill="#F5A623" transform="scale(1 1.00238)"/><path d="M105.425 91.0805C105.425 91.6943 105.554 92.1424 105.813 92.425 106.071 92.7075 106.48 92.8488 107.04 92.8488 107.571 92.8488 108.025 92.6807 108.403 92.3446 108.78 92.0085 108.969 91.5871 108.969 91.0805L108.969 88.0628 107.968 88.0628C107.778 88.0628 107.64 88.0226 107.555 87.9422 107.47 87.8618 107.427 87.7364 107.427 87.5659 107.427 87.3808 107.474 87.2444 107.566 87.1567 107.659 87.0691 107.807 87.0252 108.012 87.0252L109.568 87.0252C109.753 87.0252 109.884 87.0654 109.959 87.1458 110.035 87.2262 110.072 87.4222 110.072 87.734L110.072 92.7465 110.409 92.7465C110.647 92.7465 110.819 92.7854 110.924 92.8634 111.028 92.9413 111.081 93.0704 111.081 93.2506 111.081 93.426 111.031 93.5575 110.931 93.6452 110.831 93.7329 110.686 93.7767 110.496 93.7767L109.386 93.7767C109.254 93.7767 109.152 93.7499 109.079 93.6964 109.006 93.6428 108.969 93.5697 108.969 93.4771L108.969 92.9803C108.501 93.3407 108.101 93.588 107.767 93.7219 107.433 93.8559 107.081 93.9229 106.711 93.9229 105.908 93.9229 105.305 93.7097 104.903 93.2835 104.501 92.8573 104.3 92.2131 104.3 91.3509L104.3 88.0628 104.147 88.0628C103.815 88.0628 103.589 88.0238 103.467 87.9459 103.345 87.8679 103.284 87.7315 103.284 87.5367 103.284 87.3662 103.332 87.2383 103.427 87.1531 103.522 87.0678 103.669 87.0252 103.869 87.0252L104.972 87.0252C105.143 87.0252 105.261 87.0593 105.327 87.1275 105.392 87.1957 105.425 87.3467 105.425 87.5805L105.425 91.0805Z" fill="#F5A623" transform="scale(1 1.00238)"/><path d="M113.755 90.7225C113.794 91.4239 114.031 91.9659 114.467 92.3482 114.903 92.7306 115.499 92.9218 116.254 92.9218 116.824 92.9218 117.445 92.7696 118.117 92.4651 118.789 92.1607 119.196 92.0085 119.337 92.0085 119.484 92.0085 119.605 92.0547 119.703 92.1473 119.8 92.2399 119.849 92.3543 119.849 92.4907 119.849 92.632 119.798 92.7611 119.695 92.878 119.593 92.9949 119.43 93.1094 119.206 93.2214 118.719 93.4601 118.216 93.6428 117.697 93.7694 117.178 93.8961 116.663 93.9594 116.152 93.9594 115.041 93.9594 114.152 93.6391 113.485 92.9985 112.817 92.358 112.484 91.5092 112.484 90.4521 112.484 89.3756 112.837 88.5036 113.543 87.8363 114.249 87.1689 115.17 86.8352 116.305 86.8352 117.333 86.8352 118.185 87.147 118.863 87.7705 119.54 88.394 119.878 89.1491 119.878 90.0356 119.878 90.3084 119.821 90.4911 119.706 90.5836 119.592 90.6762 119.281 90.7225 118.775 90.7225L113.755 90.7225ZM113.792 89.7653 118.548 89.7653C118.475 89.1856 118.233 88.7192 117.821 88.366 117.41 88.0129 116.904 87.8363 116.305 87.8363 115.657 87.8363 115.112 88.0068 114.668 88.3478 114.225 88.6887 113.933 89.1612 113.792 89.7653Z" fill="#F5A623" transform="scale(1 1.00238)"/><path d="M124.715 85.2643 123.473 85.2643C123.001 85.2643 122.705 85.2265 122.585 85.151 122.466 85.0755 122.406 84.9379 122.406 84.7382 122.406 84.5628 122.456 84.4313 122.556 84.3436 122.656 84.2559 122.801 84.2121 122.991 84.2121L125.402 84.2121C125.534 84.2121 125.636 84.2389 125.709 84.2925 125.782 84.3461 125.819 84.4191 125.819 84.5117L125.819 92.7465 128.113 92.7465C128.298 92.7465 128.433 92.7866 128.518 92.867 128.604 92.9474 128.646 93.0753 128.646 93.2506 128.646 93.4503 128.605 93.588 128.522 93.6635 128.439 93.739 128.283 93.7767 128.054 93.7767L122.662 93.7767C122.472 93.7767 122.327 93.7329 122.227 93.6452 122.127 93.5575 122.077 93.426 122.077 93.2506 122.077 93.0801 122.129 92.9535 122.231 92.8707 122.333 92.7879 122.487 92.7465 122.691 92.7465L124.715 92.7465 124.715 85.2643Z" fill="#F5A623" transform="scale(1 1.00238)"/><path d="M140.432 88.0628C140.423 88.4281 140.38 88.6607 140.304 88.7606 140.229 88.8605 140.082 88.9104 139.862 88.9104 139.692 88.9104 139.564 88.8653 139.479 88.7752 139.393 88.6851 139.351 88.5523 139.351 88.377L139.358 88.2637C139.363 88.1882 139.365 88.1115 139.365 88.0336L139.439 85.6223C139.448 85.4421 139.497 85.3118 139.585 85.2314 139.672 85.151 139.809 85.1108 139.994 85.1108L146.343 85.1108C146.529 85.1108 146.665 85.151 146.753 85.2314 146.84 85.3118 146.887 85.4421 146.891 85.6223L146.972 88.0336C146.972 88.1212 146.974 88.2041 146.979 88.282 146.984 88.3599 146.986 88.3965 146.986 88.3916 146.986 88.567 146.94 88.6973 146.848 88.7825 146.755 88.8678 146.616 88.9104 146.431 88.9104 146.236 88.9104 146.102 88.8605 146.029 88.7606 145.956 88.6607 145.915 88.4281 145.905 88.0628L145.832 86.163 143.735 86.163 143.735 92.7465 145.145 92.7465C145.35 92.7465 145.498 92.7866 145.591 92.867 145.683 92.9474 145.73 93.0753 145.73 93.2506 145.73 93.4211 145.686 93.5514 145.598 93.6415 145.51 93.7317 145.384 93.7767 145.218 93.7767L141.119 93.7767C140.953 93.7767 140.827 93.7317 140.739 93.6415 140.651 93.5514 140.608 93.4211 140.608 93.2506 140.608 93.0704 140.655 92.9413 140.75 92.8634 140.845 92.7854 141.007 92.7465 141.236 92.7465L142.602 92.7465 142.602 86.163 140.505 86.163 140.432 88.0628Z" fill="#F5A623" transform="scale(1 1.00238)"/><path d="M151.597 95.6473 151.911 95.6473C152.267 95.6473 152.508 95.685 152.635 95.7605 152.761 95.836 152.825 95.9736 152.825 96.1734 152.825 96.3438 152.775 96.4729 152.675 96.5606 152.575 96.6483 152.43 96.6921 152.24 96.6921L148.872 96.6921C148.643 96.6921 148.483 96.6532 148.393 96.5752 148.303 96.4973 148.258 96.3633 148.258 96.1734 148.258 95.998 148.305 95.8665 148.4 95.7788 148.495 95.6911 148.638 95.6473 148.828 95.6473L150.413 95.6473 151.597 93.3164 148.915 88.0628C148.594 88.0628 148.374 88.0238 148.254 87.9459 148.135 87.8679 148.075 87.7315 148.075 87.5367 148.075 87.3662 148.124 87.2383 148.221 87.1531 148.319 87.0678 148.465 87.0252 148.66 87.0252L150.698 87.0252C150.971 87.0252 151.154 87.063 151.246 87.1385 151.339 87.214 151.385 87.3467 151.385 87.5367 151.385 87.7315 151.324 87.8679 151.202 87.9459 151.081 88.0238 150.857 88.0628 150.53 88.0628L150.26 88.0628 152.24 92.0888 154.257 88.0628 153.972 88.0628C153.636 88.0628 153.404 88.0238 153.278 87.9459 153.151 87.8679 153.088 87.7315 153.088 87.5367 153.088 87.3467 153.134 87.214 153.226 87.1385 153.319 87.063 153.504 87.0252 153.782 87.0252L155.587 87.0252C155.786 87.0252 155.934 87.0678 156.029 87.1531 156.124 87.2383 156.171 87.3662 156.171 87.5367 156.171 87.7218 156.118 87.8533 156.01 87.9313 155.903 88.0092 155.713 88.053 155.44 88.0628L151.597 95.6473Z" fill="#F5A623" transform="scale(1 1.00238)"/><path d="M159.24 95.6473 160.994 95.6473C161.179 95.6473 161.318 95.6911 161.41 95.7788 161.503 95.8665 161.549 95.998 161.549 96.1734 161.549 96.3633 161.504 96.4973 161.414 96.5752 161.324 96.6532 161.164 96.6921 160.935 96.6921L157.713 96.6921C157.518 96.6921 157.371 96.6483 157.271 96.5606 157.171 96.4729 157.121 96.3438 157.121 96.1734 157.121 95.9785 157.183 95.8421 157.307 95.7642 157.432 95.6862 157.662 95.6473 157.998 95.6473L158.137 95.6473 158.137 88.0628 157.998 88.0628C157.662 88.0628 157.432 88.0238 157.307 87.9459 157.183 87.8679 157.121 87.7315 157.121 87.5367 157.121 87.3662 157.171 87.2383 157.271 87.1531 157.371 87.0678 157.518 87.0252 157.713 87.0252L158.824 87.0252C158.97 87.0252 159.076 87.0496 159.141 87.0983 159.207 87.147 159.24 87.2225 159.24 87.3248L159.24 88.0336C159.571 87.6926 159.938 87.4368 160.34 87.2663 160.742 87.0958 161.174 87.0106 161.637 87.0106 162.616 87.0106 163.434 87.3419 164.092 88.0043 164.749 88.6668 165.078 89.4974 165.078 90.496 165.078 91.4556 164.766 92.2447 164.143 92.8634 163.519 93.482 162.723 93.7913 161.754 93.7913 161.237 93.7913 160.762 93.7 160.329 93.5173 159.895 93.3347 159.532 93.0728 159.24 92.7318L159.24 95.6473ZM161.505 92.7172C162.182 92.7172 162.738 92.5041 163.171 92.0779 163.605 91.6517 163.821 91.1 163.821 90.4229 163.821 89.7604 163.603 89.2136 163.167 88.7825 162.731 88.3514 162.177 88.1359 161.505 88.1359 160.833 88.1359 160.282 88.3502 159.854 88.7789 159.425 89.2075 159.211 89.7555 159.211 90.4229 159.211 91.0951 159.424 91.6456 159.85 92.0742 160.276 92.5029 160.828 92.7172 161.505 92.7172Z" fill="#F5A623" transform="scale(1 1.00238)"/><path d="M167.636 90.7225C167.674 91.4239 167.912 91.9659 168.348 92.3482 168.784 92.7306 169.379 92.9218 170.134 92.9218 170.704 92.9218 171.325 92.7696 171.998 92.4651 172.67 92.1607 173.077 92.0085 173.218 92.0085 173.364 92.0085 173.486 92.0547 173.583 92.1473 173.681 92.2399 173.729 92.3543 173.729 92.4907 173.729 92.632 173.678 92.7611 173.576 92.878 173.474 92.9949 173.311 93.1094 173.086 93.2214 172.599 93.4601 172.096 93.6428 171.578 93.7694 171.059 93.8961 170.544 93.9594 170.032 93.9594 168.922 93.9594 168.033 93.6391 167.365 92.9985 166.698 92.358 166.364 91.5092 166.364 90.4521 166.364 89.3756 166.717 88.5036 167.424 87.8363 168.13 87.1689 169.051 86.8352 170.186 86.8352 171.213 86.8352 172.066 87.147 172.743 87.7705 173.42 88.394 173.759 89.1491 173.759 90.0356 173.759 90.3084 173.701 90.4911 173.587 90.5836 173.472 90.6762 173.162 90.7225 172.655 90.7225L167.636 90.7225ZM167.672 89.7653 172.429 89.7653C172.356 89.1856 172.113 88.7192 171.702 88.366 171.29 88.0129 170.785 87.8363 170.186 87.8363 169.538 87.8363 168.992 88.0068 168.549 88.3478 168.106 88.6887 167.813 89.1612 167.672 89.7653Z" fill="#F5A623" transform="scale(1 1.00238)"/><path d="M178.61 85.4396C178.644 85.3032 178.687 85.2143 178.738 85.1729 178.789 85.1315 178.876 85.1108 178.998 85.1108L180.298 85.1108C180.357 85.1108 180.404 85.1242 180.441 85.151 180.477 85.1778 180.496 85.2107 180.496 85.2497 180.496 85.2789 180.492 85.3069 180.485 85.3337 180.477 85.3605 180.466 85.3861 180.452 85.4104L178.8 88.8227C178.776 88.886 178.742 88.9347 178.698 88.9688 178.654 89.0029 178.606 89.02 178.552 89.02 178.518 89.02 178.493 89.0188 178.479 89.0163 178.464 89.0139 178.447 89.0102 178.428 89.0054L178.011 88.8373C177.943 88.8178 177.891 88.7898 177.854 88.7533 177.818 88.7168 177.799 88.6741 177.799 88.6254 177.799 88.5962 177.809 88.5523 177.829 88.4939L177.829 88.4647 178.61 85.4396Z" fill="#F5A623" transform="scale(1 1.00238)"/><path d="M186.633 88.5377C186.633 88.1578 186.766 87.846 187.031 87.6025 187.297 87.3589 187.642 87.2371 188.065 87.2371 188.499 87.2371 188.847 87.3565 189.11 87.5952 189.373 87.8338 189.505 88.148 189.505 88.5377 189.505 88.9274 189.372 89.2416 189.107 89.4803 188.841 89.719 188.494 89.8383 188.065 89.8383 187.637 89.8383 187.291 89.719 187.028 89.4803 186.765 89.2416 186.633 88.9274 186.633 88.5377Z" fill="#9B9B9B" transform="scale(1 1.00238)"/><path d="M186.633 92.5784C186.633 92.1984 186.766 91.8867 187.031 91.6431 187.297 91.3996 187.642 91.2778 188.065 91.2778 188.499 91.2778 188.847 91.3971 189.11 91.6358 189.373 91.8745 189.505 92.1887 189.505 92.5784 189.505 92.9681 189.372 93.2823 189.107 93.521 188.841 93.7597 188.494 93.879 188.065 93.879 187.637 93.879 187.291 93.7597 187.028 93.521 186.765 93.2823 186.633 92.9681 186.633 92.5784Z" fill="#9B9B9B" transform="scale(1 1.00238)"/><path d="M206.581 88.4501C206.552 88.5864 206.51 88.6753 206.457 88.7168 206.403 88.7582 206.315 88.7789 206.194 88.7789L204.878 88.7789C204.82 88.7789 204.772 88.7655 204.736 88.7387 204.699 88.7119 204.681 88.6741 204.681 88.6254 204.681 88.6157 204.685 88.5998 204.692 88.5779L204.725 88.4793 206.376 85.067C206.41 84.9988 206.451 84.9464 206.497 84.9099 206.543 84.8734 206.591 84.8551 206.639 84.8551 206.664 84.8551 206.695 84.86 206.734 84.8697 206.744 84.8794 206.754 84.8843 206.764 84.8843L207.18 85.0524C207.239 85.0767 207.286 85.1084 207.323 85.1474 207.359 85.1863 207.377 85.2302 207.377 85.2789 207.377 85.2984 207.375 85.3191 207.37 85.341 207.365 85.3629 207.358 85.3909 207.348 85.425L206.581 88.4501Z" fill="#6EDB76" transform="scale(1 1.00238)"/><path d="M217.205 93.7767C217.103 93.7767 217.031 93.7511 216.989 93.7 216.948 93.6488 216.927 93.5502 216.927 93.4041L216.927 92.8049C216.635 93.1703 216.27 93.454 215.831 93.6562 215.393 93.8583 214.918 93.9594 214.406 93.9594 213.486 93.9594 212.715 93.6318 212.094 92.9766 211.473 92.3214 211.162 91.5067 211.162 90.5325 211.162 89.5241 211.494 88.6851 212.156 88.0153 212.818 87.3455 213.644 87.0106 214.633 87.0106 215.135 87.0106 215.585 87.0995 215.985 87.2773 216.384 87.4551 216.728 87.7169 217.015 88.0628L217.015 85.2643 216.628 85.2643C216.204 85.2643 215.93 85.2265 215.806 85.151 215.682 85.0755 215.619 84.9379 215.619 84.7382 215.619 84.5628 215.669 84.4313 215.769 84.3436 215.869 84.2559 216.014 84.2121 216.204 84.2121L217.702 84.2121C217.848 84.2121 217.954 84.2365 218.02 84.2852 218.085 84.3339 218.118 84.4094 218.118 84.5117L218.118 92.7465 218.447 92.7465C218.686 92.7465 218.859 92.7866 218.966 92.867 219.073 92.9474 219.127 93.0753 219.127 93.2506 219.127 93.4163 219.08 93.5453 218.988 93.6379 218.895 93.7304 218.771 93.7767 218.615 93.7767L217.205 93.7767ZM212.419 90.496C212.419 91.1682 212.636 91.7186 213.069 92.1473 213.503 92.576 214.053 92.7903 214.721 92.7903 215.393 92.7903 215.946 92.5674 216.379 92.1217 216.813 91.676 217.03 91.1097 217.03 90.4229 217.03 89.7458 216.814 89.188 216.383 88.7496 215.952 88.3112 215.398 88.092 214.721 88.092 214.034 88.092 213.479 88.3137 213.055 88.7569 212.631 89.2002 212.419 89.7799 212.419 90.496Z" fill="#6EDB76" transform="scale(1 1.00238)"/><path d="M223.314 84.9209C223.314 84.3948 223.361 84.0635 223.456 83.9271 223.551 83.7907 223.754 83.7225 224.066 83.7225 224.368 83.7225 224.568 83.7798 224.665 83.8942 224.763 84.0087 224.811 84.2803 224.811 84.709 224.811 85.1279 224.766 85.3873 224.676 85.4871 224.586 85.587 224.383 85.6369 224.066 85.6369 223.754 85.6369 223.551 85.5906 223.456 85.4981 223.361 85.4055 223.314 85.2131 223.314 84.9209Z" fill="#6EDB76" transform="scale(1 1.00238)"/><path d="M224.665 92.7465 227.011 92.7465C227.201 92.7465 227.341 92.7866 227.431 92.867 227.521 92.9474 227.566 93.0753 227.566 93.2506 227.566 93.4503 227.523 93.588 227.438 93.6635 227.353 93.739 227.196 93.7767 226.967 93.7767L221.297 93.7767C221.102 93.7767 220.956 93.7329 220.858 93.6452 220.761 93.5575 220.712 93.426 220.712 93.2506 220.712 93.0801 220.763 92.9535 220.866 92.8707 220.968 92.7879 221.121 92.7465 221.326 92.7465L223.555 92.7465 223.555 88.0628 222.13 88.0628C221.93 88.0628 221.778 88.0177 221.673 87.9276 221.568 87.8375 221.516 87.7072 221.516 87.5367 221.516 87.3662 221.565 87.2383 221.662 87.1531 221.76 87.0678 221.906 87.0252 222.101 87.0252L224.241 87.0252C224.373 87.0252 224.477 87.052 224.552 87.1056 224.628 87.1592 224.665 87.2322 224.665 87.3248L224.665 92.7465Z" fill="#6EDB76" transform="scale(1 1.00238)"/><path d="M230.496 90.7225C230.535 91.4239 230.773 91.9659 231.209 92.3482 231.645 92.7306 232.24 92.9218 232.995 92.9218 233.565 92.9218 234.186 92.7696 234.858 92.4651 235.531 92.1607 235.937 92.0085 236.079 92.0085 236.225 92.0085 236.346 92.0547 236.444 92.1473 236.541 92.2399 236.59 92.3543 236.59 92.4907 236.59 92.632 236.539 92.7611 236.437 92.878 236.334 92.9949 236.171 93.1094 235.947 93.2214 235.46 93.4601 234.957 93.6428 234.438 93.7694 233.919 93.8961 233.404 93.9594 232.893 93.9594 231.782 93.9594 230.893 93.6391 230.226 92.9985 229.558 92.358 229.225 91.5092 229.225 90.4521 229.225 89.3756 229.578 88.5036 230.284 87.8363 230.991 87.1689 231.911 86.8352 233.046 86.8352 234.074 86.8352 234.926 87.147 235.604 87.7705 236.281 88.394 236.619 89.1491 236.619 90.0356 236.619 90.3084 236.562 90.4911 236.448 90.5836 236.333 90.6762 236.023 90.7225 235.516 90.7225L230.496 90.7225ZM230.533 89.7653 235.289 89.7653C235.216 89.1856 234.974 88.7192 234.562 88.366 234.151 88.0129 233.645 87.8363 233.046 87.8363 232.398 87.8363 231.853 88.0068 231.409 88.3478 230.966 88.6887 230.674 89.1612 230.533 89.7653Z" fill="#6EDB76" transform="scale(1 1.00238)"/><path d="M238.76 93.2506 238.76 91.95C238.76 91.7357 238.8 91.5822 238.881 91.4897 238.961 91.3971 239.091 91.3509 239.272 91.3509 239.471 91.3509 239.63 91.4873 239.747 91.76 239.824 91.9257 239.895 92.0499 239.958 92.1327 240.163 92.3957 240.465 92.6064 240.865 92.7647 241.264 92.923 241.705 93.0022 242.187 93.0022 242.703 93.0022 243.117 92.8975 243.429 92.688 243.741 92.4785 243.897 92.2033 243.897 91.8623 243.897 91.5165 243.771 91.2705 243.521 91.1243 243.27 90.9782 242.84 90.9051 242.231 90.9051L241.829 90.9051C240.835 90.9051 240.078 90.7322 239.557 90.3864 239.035 90.0405 238.775 89.5388 238.775 88.8811 238.775 88.2382 239.029 87.7389 239.538 87.3833 240.047 87.0277 240.762 86.8499 241.683 86.8499 242.058 86.8499 242.44 86.9022 242.83 87.007 243.22 87.1117 243.424 87.164 243.444 87.164 243.497 87.164 243.6 87.1166 243.751 87.0216 243.902 86.9266 244.05 86.8791 244.196 86.8791 244.362 86.8791 244.485 86.94 244.565 87.0618 244.646 87.1835 244.686 87.3662 244.686 87.6098L244.686 88.4647C244.686 88.7228 244.647 88.9092 244.569 89.0236 244.491 89.1381 244.367 89.1953 244.196 89.1953 244.05 89.1953 243.87 89.0711 243.656 88.8227 243.505 88.6522 243.38 88.5231 243.283 88.4354 243.025 88.1967 242.75 88.025 242.457 87.9203 242.165 87.8156 241.822 87.7632 241.427 87.7632 240.969 87.7632 240.6 87.8643 240.32 88.0664 240.04 88.2686 239.9 88.5256 239.9 88.8373 239.9 89.1442 240.044 89.3634 240.331 89.4949 240.618 89.6264 241.237 89.702 242.187 89.7214 243.2 89.7458 243.941 89.9224 244.408 90.2512 244.876 90.58 245.11 91.0878 245.11 91.7747 245.11 92.4323 244.852 92.9584 244.335 93.3529 243.819 93.7475 243.122 93.9448 242.245 93.9448 241.968 93.9448 241.659 93.9192 241.318 93.8681 240.977 93.8169 240.548 93.7304 240.032 93.6087 239.861 93.7207 239.715 93.8047 239.593 93.8607 239.471 93.9168 239.369 93.9448 239.286 93.9448 239.116 93.9448 238.985 93.8851 238.895 93.7658 238.805 93.6464 238.76 93.4747 238.76 93.2506Z" fill="#6EDB76" transform="scale(1 1.00238)"/><path d="M248.456 90.7225C248.495 91.4239 248.733 91.9659 249.169 92.3482 249.605 92.7306 250.2 92.9218 250.955 92.9218 251.525 92.9218 252.146 92.7696 252.818 92.4651 253.491 92.1607 253.897 92.0085 254.039 92.0085 254.185 92.0085 254.307 92.0547 254.404 92.1473 254.501 92.2399 254.55 92.3543 254.55 92.4907 254.55 92.632 254.499 92.7611 254.397 92.878 254.294 92.9949 254.131 93.1094 253.907 93.2214 253.42 93.4601 252.917 93.6428 252.398 93.7694 251.88 93.8961 251.364 93.9594 250.853 93.9594 249.742 93.9594 248.853 93.6391 248.186 92.9985 247.519 92.358 247.185 91.5092 247.185 90.4521 247.185 89.3756 247.538 88.5036 248.244 87.8363 248.951 87.1689 249.871 86.8352 251.006 86.8352 252.034 86.8352 252.887 87.147 253.564 87.7705 254.241 88.394 254.579 89.1491 254.579 90.0356 254.579 90.3084 254.522 90.4911 254.408 90.5836 254.293 90.6762 253.983 90.7225 253.476 90.7225L248.456 90.7225ZM248.493 89.7653 253.25 89.7653C253.176 89.1856 252.934 88.7192 252.523 88.366 252.111 88.0129 251.606 87.8363 251.006 87.8363 250.358 87.8363 249.813 88.0068 249.37 88.3478 248.926 88.6887 248.634 89.1612 248.493 89.7653Z" fill="#6EDB76" transform="scale(1 1.00238)"/><path d="M259.417 85.2643 258.174 85.2643C257.702 85.2643 257.406 85.2265 257.287 85.151 257.167 85.0755 257.108 84.9379 257.108 84.7382 257.108 84.5628 257.158 84.4313 257.257 84.3436 257.357 84.2559 257.502 84.2121 257.692 84.2121L260.103 84.2121C260.235 84.2121 260.337 84.2389 260.41 84.2925 260.483 84.3461 260.52 84.4191 260.52 84.5117L260.52 92.7465 262.814 92.7465C262.999 92.7465 263.134 92.7866 263.22 92.867 263.305 92.9474 263.348 93.0753 263.348 93.2506 263.348 93.4503 263.306 93.588 263.223 93.6635 263.141 93.739 262.985 93.7767 262.756 93.7767L257.363 93.7767C257.173 93.7767 257.028 93.7329 256.929 93.6452 256.829 93.5575 256.779 93.426 256.779 93.2506 256.779 93.0801 256.83 92.9535 256.932 92.8707 257.034 92.7879 257.188 92.7465 257.393 92.7465L259.417 92.7465 259.417 85.2643Z" fill="#6EDB76" transform="scale(1 1.00238)"/><path d="M268.411 85.4396C268.445 85.3032 268.488 85.2143 268.539 85.1729 268.59 85.1315 268.677 85.1108 268.798 85.1108L270.099 85.1108C270.158 85.1108 270.205 85.1242 270.242 85.151 270.278 85.1778 270.296 85.2107 270.296 85.2497 270.296 85.2789 270.293 85.3069 270.285 85.3337 270.278 85.3605 270.267 85.3861 270.253 85.4104L268.601 88.8227C268.577 88.886 268.543 88.9347 268.499 88.9688 268.455 89.0029 268.406 89.02 268.353 89.02 268.319 89.02 268.294 89.0188 268.28 89.0163 268.265 89.0139 268.248 89.0102 268.229 89.0054L267.812 88.8373C267.744 88.8178 267.691 88.7898 267.655 88.7533 267.618 88.7168 267.6 88.6741 267.6 88.6254 267.6 88.5962 267.61 88.5523 267.629 88.4939L267.629 88.4647 268.411 85.4396Z" fill="#6EDB76" transform="scale(1 1.00238)"/><path d="M277.004 91.7381C277.043 91.5725 277.094 91.4665 277.157 91.4203 277.221 91.374 277.328 91.3509 277.479 91.3509L279.079 91.3509C279.152 91.3509 279.211 91.3655 279.255 91.3947 279.298 91.4239 279.32 91.4605 279.32 91.5043 279.32 91.5287 279.315 91.5603 279.306 91.5993 279.296 91.6383 279.281 91.6748 279.262 91.7089L277.252 95.8884C277.218 95.9615 277.172 96.0199 277.114 96.0638 277.055 96.1076 276.992 96.1295 276.924 96.1295 276.909 96.1295 276.893 96.1271 276.876 96.1222 276.859 96.1173 276.831 96.1076 276.792 96.093L276.281 95.903C276.203 95.8689 276.144 95.8299 276.105 95.7861 276.066 95.7423 276.047 95.6911 276.047 95.6327L276.047 95.5194C276.047 95.4975 276.052 95.4743 276.061 95.45L277.004 91.7381Z" fill="#9B9B9B" transform="scale(1 1.00238)"/><path d="M91.4838 112.404 91.4838 112.375C91.4838 112.214 91.5301 112.096 91.6227 112.021 91.7152 111.945 91.8589 111.907 92.0538 111.907 92.2535 111.907 92.3911 111.966 92.4666 112.083 92.5421 112.2 92.5799 112.441 92.5799 112.806L92.5799 114.165C92.5799 114.345 92.5336 114.481 92.441 114.571 92.3485 114.661 92.2096 114.706 92.0245 114.706 91.893 114.706 91.7798 114.668 91.6848 114.593 91.5898 114.517 91.4741 114.36 91.3377 114.121 91.1039 113.727 90.8201 113.428 90.4865 113.226 90.1528 113.024 89.7692 112.923 89.3356 112.923 88.5757 112.923 87.9583 113.147 87.4834 113.595 87.0084 114.043 86.7709 114.623 86.7709 115.334 86.7709 116.06 86.9987 116.653 87.4541 117.113 87.9096 117.574 88.4954 117.804 89.2114 117.804 89.5378 117.804 89.8483 117.759 90.143 117.669 90.4377 117.579 90.7166 117.444 90.9797 117.263 91.0722 117.205 91.1964 117.115 91.3523 116.993 91.6689 116.735 91.9174 116.606 92.0976 116.606 92.2486 116.606 92.3716 116.653 92.4666 116.748 92.5616 116.843 92.6091 116.966 92.6091 117.117 92.6091 117.502 92.245 117.895 91.5167 118.297 90.7885 118.699 90.0152 118.9 89.1968 118.9 88.1397 118.9 87.2593 118.561 86.5554 117.884 85.8515 117.207 85.4996 116.362 85.4996 115.349 85.4996 114.336 85.8503 113.489 86.5517 112.81 87.2532 112.13 88.13 111.79 89.1822 111.79 89.5524 111.79 89.9238 111.84 90.2965 111.94 90.6691 112.04 91.0649 112.195 91.4838 112.404Z" fill="#F5A623" transform="scale(1 1.00238)"/><path d="M102.101 115.349C102.101 116.391 101.745 117.244 101.034 117.906 100.323 118.569 99.3996 118.9 98.2646 118.9 97.1344 118.9 96.2138 118.569 95.5026 117.906 94.7914 117.244 94.4358 116.391 94.4358 115.349 94.4358 114.306 94.7914 113.455 95.5026 112.795 96.2138 112.135 97.1344 111.805 98.2646 111.805 99.3947 111.805 100.317 112.136 101.03 112.799 101.744 113.461 102.101 114.311 102.101 115.349ZM98.2646 117.877C99.0147 117.877 99.6297 117.64 100.11 117.165 100.589 116.69 100.829 116.084 100.829 115.349 100.829 114.613 100.588 114.006 100.106 113.526 99.6236 113.046 99.0099 112.806 98.2646 112.806 97.5193 112.806 96.9067 113.046 96.4269 113.526 95.9471 114.006 95.7072 114.613 95.7072 115.349 95.7072 116.089 95.9459 116.696 96.4232 117.168 96.9006 117.641 97.5144 117.877 98.2646 117.877Z" fill="#F5A623" transform="scale(1 1.00238)"/><path d="M106.755 110.205 105.513 110.205C105.04 110.205 104.745 110.167 104.625 110.092 104.506 110.016 104.446 109.879 104.446 109.679 104.446 109.503 104.496 109.372 104.596 109.284 104.696 109.197 104.841 109.153 105.031 109.153L107.442 109.153C107.573 109.153 107.676 109.18 107.749 109.233 107.822 109.287 107.858 109.36 107.858 109.452L107.858 117.687 110.153 117.687C110.338 117.687 110.473 117.727 110.558 117.808 110.644 117.888 110.686 118.016 110.686 118.191 110.686 118.391 110.645 118.529 110.562 118.604 110.479 118.68 110.323 118.717 110.094 118.717L104.702 118.717C104.512 118.717 104.367 118.674 104.267 118.586 104.167 118.498 104.117 118.367 104.117 118.191 104.117 118.021 104.168 117.894 104.271 117.811 104.373 117.728 104.527 117.687 104.731 117.687L106.755 117.687 106.755 110.205Z" fill="#F5A623" transform="scale(1 1.00238)"/><path d="M120.061 115.349C120.061 116.391 119.705 117.244 118.994 117.906 118.283 118.569 117.36 118.9 116.225 118.9 115.095 118.9 114.174 118.569 113.463 117.906 112.752 117.244 112.396 116.391 112.396 115.349 112.396 114.306 112.752 113.455 113.463 112.795 114.174 112.135 115.095 111.805 116.225 111.805 117.355 111.805 118.277 112.136 118.99 112.799 119.704 113.461 120.061 114.311 120.061 115.349ZM116.225 117.877C116.975 117.877 117.59 117.64 118.07 117.165 118.55 116.69 118.789 116.084 118.789 115.349 118.789 114.613 118.548 114.006 118.066 113.526 117.584 113.046 116.97 112.806 116.225 112.806 115.479 112.806 114.867 113.046 114.387 113.526 113.907 114.006 113.667 114.613 113.667 115.349 113.667 116.089 113.906 116.696 114.383 117.168 114.861 117.641 115.475 117.877 116.225 117.877Z" fill="#F5A623" transform="scale(1 1.00238)"/><path d="M124.489 117.687 126.915 117.687C127.105 117.687 127.245 117.727 127.335 117.808 127.425 117.888 127.47 118.016 127.47 118.191 127.47 118.391 127.427 118.529 127.342 118.604 127.257 118.68 127.1 118.717 126.871 118.717L122.092 118.717C121.902 118.717 121.758 118.674 121.661 118.586 121.564 118.498 121.515 118.367 121.515 118.191 121.515 118.021 121.565 117.894 121.665 117.811 121.765 117.728 121.919 117.687 122.129 117.687L123.4 117.687 123.4 113.003 122.903 113.003C122.431 113.003 122.136 112.966 122.019 112.89 121.902 112.815 121.844 112.677 121.844 112.477 121.844 112.307 121.891 112.179 121.986 112.094 122.081 112.008 122.226 111.966 122.421 111.966L124.087 111.966C124.218 111.966 124.318 111.991 124.386 112.043 124.455 112.094 124.489 112.168 124.489 112.265L124.489 113.508C124.952 112.928 125.434 112.497 125.936 112.214 126.437 111.932 126.978 111.79 127.558 111.79 127.991 111.79 128.342 111.878 128.61 112.054 128.878 112.229 129.012 112.455 129.012 112.733 129.012 112.913 128.945 113.073 128.811 113.212 128.677 113.35 128.529 113.42 128.369 113.42 128.257 113.42 128.068 113.346 127.802 113.197 127.537 113.048 127.299 112.974 127.09 112.974 126.71 112.974 126.309 113.109 125.888 113.38 125.467 113.65 125 114.078 124.489 114.662L124.489 117.687Z" fill="#F5A623" transform="scale(1 1.00238)"/><path d="M132.753 113.478C132.753 113.098 132.886 112.787 133.151 112.543 133.416 112.3 133.761 112.178 134.185 112.178 134.618 112.178 134.967 112.297 135.23 112.536 135.493 112.774 135.624 113.089 135.624 113.478 135.624 113.868 135.492 114.182 135.226 114.421 134.961 114.66 134.614 114.779 134.185 114.779 133.756 114.779 133.41 114.66 133.147 114.421 132.884 114.182 132.753 113.868 132.753 113.478Z" fill="#9B9B9B" transform="scale(1 1.00238)"/><path d="M132.753 117.519C132.753 117.139 132.886 116.827 133.151 116.584 133.416 116.34 133.761 116.218 134.185 116.218 134.618 116.218 134.967 116.338 135.23 116.576 135.493 116.815 135.624 117.129 135.624 117.519 135.624 117.909 135.492 118.223 135.226 118.462 134.961 118.7 134.614 118.82 134.185 118.82 133.756 118.82 133.41 118.7 133.147 118.462 132.884 118.223 132.753 117.909 132.753 117.519Z" fill="#9B9B9B" transform="scale(1 1.00238)"/><path d="M152.7 113.391C152.671 113.527 152.63 113.616 152.576 113.657 152.523 113.699 152.435 113.719 152.313 113.719L150.998 113.719C150.939 113.719 150.892 113.706 150.855 113.679 150.819 113.652 150.801 113.615 150.801 113.566 150.801 113.556 150.804 113.54 150.812 113.519L150.844 113.42 152.496 110.008C152.53 109.939 152.57 109.887 152.616 109.851 152.663 109.814 152.71 109.796 152.759 109.796 152.783 109.796 152.815 109.801 152.854 109.81 152.864 109.82 152.873 109.825 152.883 109.825L153.3 109.993C153.358 110.017 153.406 110.049 153.442 110.088 153.479 110.127 153.497 110.171 153.497 110.22 153.497 110.239 153.494 110.26 153.49 110.282 153.485 110.304 153.477 110.332 153.468 110.366L152.7 113.391Z" fill="#6EDB76" transform="scale(1 1.00238)"/><path d="M157.939 118.191 157.939 116.891C157.939 116.676 157.98 116.523 158.06 116.43 158.14 116.338 158.271 116.291 158.451 116.291 158.651 116.291 158.809 116.428 158.926 116.701 159.004 116.866 159.074 116.99 159.138 117.073 159.342 117.336 159.644 117.547 160.044 117.705 160.443 117.864 160.884 117.943 161.366 117.943 161.883 117.943 162.297 117.838 162.608 117.629 162.92 117.419 163.076 117.144 163.076 116.803 163.076 116.457 162.951 116.211 162.7 116.065 162.449 115.919 162.019 115.846 161.41 115.846L161.008 115.846C160.015 115.846 159.257 115.673 158.736 115.327 158.215 114.981 157.954 114.479 157.954 113.822 157.954 113.179 158.209 112.679 158.718 112.324 159.227 111.968 159.941 111.79 160.862 111.79 161.237 111.79 161.62 111.843 162.009 111.948 162.399 112.052 162.604 112.105 162.623 112.105 162.677 112.105 162.779 112.057 162.93 111.962 163.081 111.867 163.23 111.82 163.376 111.82 163.541 111.82 163.664 111.881 163.745 112.002 163.825 112.124 163.865 112.307 163.865 112.55L163.865 113.405C163.865 113.663 163.826 113.85 163.748 113.964 163.67 114.079 163.546 114.136 163.376 114.136 163.23 114.136 163.049 114.012 162.835 113.763 162.684 113.593 162.56 113.464 162.462 113.376 162.204 113.137 161.929 112.966 161.637 112.861 161.344 112.756 161.001 112.704 160.606 112.704 160.148 112.704 159.779 112.805 159.499 113.007 159.219 113.209 159.079 113.466 159.079 113.778 159.079 114.085 159.223 114.304 159.51 114.436 159.798 114.567 160.416 114.643 161.366 114.662 162.38 114.686 163.12 114.863 163.588 115.192 164.055 115.521 164.289 116.028 164.289 116.715 164.289 117.373 164.031 117.899 163.514 118.294 162.998 118.688 162.302 118.885 161.425 118.885 161.147 118.885 160.838 118.86 160.497 118.809 160.156 118.758 159.727 118.671 159.211 118.549 159.04 118.661 158.894 118.745 158.772 118.801 158.651 118.857 158.548 118.885 158.465 118.885 158.295 118.885 158.165 118.826 158.075 118.706 157.984 118.587 157.939 118.415 157.939 118.191Z" fill="#6EDB76" transform="scale(1 1.00238)"/><path d="M169.433 109.861C169.433 109.335 169.48 109.004 169.576 108.868 169.67 108.731 169.874 108.663 170.186 108.663 170.488 108.663 170.687 108.72 170.785 108.835 170.882 108.949 170.931 109.221 170.931 109.65 170.931 110.068 170.886 110.328 170.796 110.428 170.706 110.528 170.502 110.578 170.186 110.578 169.874 110.578 169.67 110.531 169.576 110.439 169.48 110.346 169.433 110.154 169.433 109.861Z" fill="#6EDB76" transform="scale(1 1.00238)"/><path d="M170.785 117.687 173.13 117.687C173.32 117.687 173.46 117.727 173.55 117.808 173.641 117.888 173.686 118.016 173.686 118.191 173.686 118.391 173.643 118.529 173.558 118.604 173.472 118.68 173.315 118.717 173.086 118.717L167.416 118.717C167.221 118.717 167.075 118.674 166.978 118.586 166.88 118.498 166.832 118.367 166.832 118.191 166.832 118.021 166.883 117.894 166.985 117.811 167.088 117.728 167.241 117.687 167.446 117.687L169.674 117.687 169.674 113.003 168.249 113.003C168.05 113.003 167.897 112.958 167.793 112.868 167.688 112.778 167.636 112.648 167.636 112.477 167.636 112.307 167.684 112.179 167.782 112.094 167.879 112.008 168.025 111.966 168.22 111.966L170.361 111.966C170.493 111.966 170.596 111.993 170.672 112.046 170.747 112.1 170.785 112.173 170.785 112.265L170.785 117.687Z" fill="#6EDB76" transform="scale(1 1.00238)"/><path d="M178.596 110.205 177.354 110.205C176.881 110.205 176.585 110.167 176.466 110.092 176.346 110.016 176.287 109.879 176.287 109.679 176.287 109.503 176.337 109.372 176.437 109.284 176.536 109.197 176.681 109.153 176.871 109.153L179.283 109.153C179.414 109.153 179.516 109.18 179.589 109.233 179.663 109.287 179.699 109.36 179.699 109.452L179.699 117.687 181.993 117.687C182.179 117.687 182.314 117.727 182.399 117.808 182.484 117.888 182.527 118.016 182.527 118.191 182.527 118.391 182.485 118.529 182.403 118.604 182.32 118.68 182.164 118.717 181.935 118.717L176.543 118.717C176.353 118.717 176.208 118.674 176.108 118.586 176.008 118.498 175.958 118.367 175.958 118.191 175.958 118.021 176.009 117.894 176.111 117.811 176.214 117.728 176.367 117.687 176.572 117.687L178.596 117.687 178.596 110.205Z" fill="#6EDB76" transform="scale(1 1.00238)"/><path d="M184.719 113.003C184.397 113.003 184.177 112.964 184.058 112.886 183.938 112.809 183.879 112.672 183.879 112.477 183.879 112.307 183.927 112.179 184.025 112.094 184.122 112.008 184.268 111.966 184.463 111.966L186.509 111.966C186.787 111.966 186.972 112.004 187.064 112.079 187.157 112.155 187.203 112.287 187.203 112.477 187.203 112.672 187.142 112.809 187.021 112.886 186.899 112.964 186.675 113.003 186.348 113.003L186.078 113.003 187.978 117.731 190.089 113.003 189.651 113.003C189.276 113.003 189.023 112.966 188.891 112.89 188.76 112.815 188.694 112.677 188.694 112.477 188.694 112.287 188.74 112.155 188.833 112.079 188.925 112.004 189.11 111.966 189.388 111.966L191.646 111.966C191.841 111.966 191.987 112.008 192.084 112.094 192.182 112.179 192.23 112.307 192.23 112.477 192.23 112.672 192.171 112.809 192.051 112.886 191.932 112.964 191.712 113.003 191.39 113.003L191.258 113.003 188.847 118.33C188.725 118.598 188.605 118.772 188.486 118.853 188.366 118.933 188.192 118.973 187.963 118.973 187.754 118.973 187.592 118.934 187.477 118.856 187.363 118.778 187.245 118.603 187.123 118.33L184.719 113.003Z" fill="#6EDB76" transform="scale(1 1.00238)"/><path d="M194.576 115.663C194.615 116.365 194.852 116.906 195.288 117.289 195.724 117.671 196.32 117.862 197.075 117.862 197.645 117.862 198.266 117.71 198.938 117.406 199.61 117.101 200.017 116.949 200.158 116.949 200.304 116.949 200.426 116.995 200.524 117.088 200.621 117.18 200.67 117.295 200.67 117.431 200.67 117.573 200.619 117.702 200.516 117.819 200.414 117.936 200.251 118.05 200.027 118.162 199.54 118.401 199.037 118.583 198.518 118.71 197.999 118.837 197.484 118.9 196.972 118.9 195.862 118.9 194.973 118.58 194.305 117.939 193.638 117.299 193.304 116.45 193.304 115.393 193.304 114.316 193.658 113.444 194.364 112.777 195.07 112.11 195.991 111.776 197.126 111.776 198.154 111.776 199.006 112.088 199.683 112.711 200.36 113.335 200.699 114.09 200.699 114.976 200.699 115.249 200.642 115.432 200.527 115.524 200.413 115.617 200.102 115.663 199.596 115.663L194.576 115.663ZM194.612 114.706 199.369 114.706C199.296 114.126 199.054 113.66 198.642 113.307 198.23 112.953 197.725 112.777 197.126 112.777 196.478 112.777 195.932 112.947 195.489 113.288 195.046 113.629 194.754 114.102 194.612 114.706Z" fill="#6EDB76" transform="scale(1 1.00238)"/><path d="M205.31 117.687 207.735 117.687C207.925 117.687 208.065 117.727 208.156 117.808 208.246 117.888 208.291 118.016 208.291 118.191 208.291 118.391 208.248 118.529 208.163 118.604 208.078 118.68 207.92 118.717 207.692 118.717L202.913 118.717C202.723 118.717 202.579 118.674 202.482 118.586 202.384 118.498 202.336 118.367 202.336 118.191 202.336 118.021 202.386 117.894 202.485 117.811 202.585 117.728 202.74 117.687 202.949 117.687L204.221 117.687 204.221 113.003 203.724 113.003C203.251 113.003 202.957 112.966 202.84 112.89 202.723 112.815 202.664 112.677 202.664 112.477 202.664 112.307 202.712 112.179 202.807 112.094 202.902 112.008 203.047 111.966 203.242 111.966L204.908 111.966C205.039 111.966 205.139 111.991 205.207 112.043 205.275 112.094 205.31 112.168 205.31 112.265L205.31 113.508C205.772 112.928 206.255 112.497 206.756 112.214 207.258 111.932 207.799 111.79 208.378 111.79 208.812 111.79 209.163 111.878 209.431 112.054 209.698 112.229 209.832 112.455 209.832 112.733 209.832 112.913 209.765 113.073 209.631 113.212 209.498 113.35 209.35 113.42 209.189 113.42 209.077 113.42 208.889 113.346 208.623 113.197 208.358 113.048 208.12 112.974 207.911 112.974 207.531 112.974 207.13 113.109 206.709 113.38 206.287 113.65 205.821 114.078 205.31 114.662L205.31 117.687Z" fill="#6EDB76" transform="scale(1 1.00238)"/><path d="M214.531 110.38C214.565 110.244 214.607 110.155 214.659 110.114 214.71 110.072 214.796 110.051 214.918 110.051L216.219 110.051C216.277 110.051 216.325 110.065 216.361 110.092 216.398 110.118 216.416 110.151 216.416 110.19 216.416 110.22 216.412 110.248 216.405 110.274 216.398 110.301 216.387 110.327 216.372 110.351L214.721 113.763C214.696 113.827 214.662 113.875 214.618 113.909 214.575 113.944 214.526 113.961 214.472 113.961 214.438 113.961 214.414 113.959 214.399 113.957 214.385 113.955 214.368 113.951 214.348 113.946L213.932 113.778C213.863 113.758 213.811 113.73 213.774 113.694 213.738 113.657 213.72 113.615 213.72 113.566 213.72 113.537 213.729 113.493 213.749 113.435L213.749 113.405 214.531 110.38Z" fill="#6EDB76" transform="scale(1 1.00238)"/><path d="M61.9063 157.249C61.4143 157.108 61.0697 156.866 60.8724 156.522 60.6751 156.179 60.5765 155.603 60.5765 154.794L60.5765 153.72C60.5765 153.204 60.5229 152.857 60.4157 152.679 60.3086 152.501 60.1186 152.378 59.8458 152.31 59.7825 152.295 59.6875 152.28 59.5608 152.266 59.1419 152.207 58.9324 152.022 58.9324 151.711 58.9324 151.525 58.9836 151.385 59.0859 151.29 59.1882 151.195 59.3416 151.148 59.5462 151.148 60.3694 151.148 60.9516 151.355 61.2925 151.769 61.6335 152.183 61.804 152.953 61.804 154.078L61.804 154.947C61.804 155.897 62.1986 156.455 62.9877 156.621 63.1387 156.65 63.2532 156.674 63.3311 156.694 63.487 156.738 63.6003 156.802 63.6709 156.887 63.7415 156.973 63.7769 157.093 63.7769 157.249 63.7769 157.415 63.7391 157.546 63.6636 157.644 63.5881 157.741 63.4724 157.804 63.3165 157.834 63.2629 157.843 63.1874 157.858 63.09 157.878 62.2327 158.043 61.804 158.608 61.804 159.573L61.804 160.42C61.804 161.55 61.636 162.32 61.2998 162.729 60.9637 163.138 60.3841 163.343 59.5608 163.343 59.3514 163.343 59.1943 163.296 59.0895 163.201 58.9848 163.106 58.9324 162.963 58.9324 162.773 58.9324 162.461 59.1419 162.276 59.5608 162.218 59.6485 162.208 59.7118 162.198 59.7508 162.189 60.0674 162.135 60.2842 162.023 60.4011 161.852 60.518 161.682 60.5765 161.331 60.5765 160.8L60.5765 159.719C60.5765 158.92 60.6751 158.346 60.8724 157.998 61.0697 157.65 61.4143 157.4 61.9063 157.249Z" fill="#9B9B9B" transform="scale(1 1.00238)"/><path d="M69.4177 158.835C69.4616 158.674 69.5127 158.572 69.5712 158.528 69.6296 158.484 69.7295 158.462 69.8708 158.462L71.3833 158.462C71.4466 158.462 71.499 158.477 71.5404 158.506 71.5818 158.535 71.6025 158.572 71.6025 158.616 71.6025 158.63 71.5976 158.657 71.5879 158.696 71.5781 158.735 71.5635 158.771 71.544 158.805L69.6589 162.729C69.6199 162.807 69.5773 162.863 69.531 162.897 69.4847 162.931 69.4275 162.948 69.3593 162.948 69.3203 162.948 69.2899 162.947 69.2679 162.945 69.246 162.942 69.2278 162.939 69.2131 162.934L68.7309 162.758C68.6578 162.729 68.603 162.693 68.5665 162.649 68.5299 162.605 68.5117 162.556 68.5117 162.503 68.5117 162.483 68.5129 162.461 68.5153 162.437 68.5178 162.413 68.5263 162.374 68.5409 162.32L69.4177 158.835Z" fill="#9B9B9B" transform="scale(1 1.00238)"/><path d="M68.8551 155.379C68.8551 154.999 68.9878 154.687 69.2533 154.443 69.5188 154.2 69.8634 154.078 70.2872 154.078 70.7208 154.078 71.0715 154.199 71.3394 154.44 71.6073 154.681 71.7413 154.994 71.7413 155.379 71.7413 155.763 71.6073 156.076 71.3394 156.318 71.0715 156.559 70.7208 156.679 70.2872 156.679 69.8586 156.679 69.5127 156.56 69.2497 156.321 68.9866 156.082 68.8551 155.768 68.8551 155.379Z" fill="#9B9B9B" transform="scale(1 1.00238)"/></g></svg>