<svg width="420" height="208" xmlns="http://www.w3.org/2000/svg" xmlns:xlink="http://www.w3.org/1999/xlink" overflow="hidden"><defs><clipPath id="clip0"><rect x="0" y="0" width="420" height="208"/></clipPath></defs><g clip-path="url(#clip0)"><path d="M0 0 420 0 420 207.506 0 207.506Z" fill="#FFFFFF" fill-rule="evenodd" transform="scale(1 1.00238)"/><text fill="#BD10E0" font-family="Arial,Arial_MSFontService,sans-serif" font-weight="400" font-size="15" transform="matrix(0.997625 0 0 1 106.729 129)">spaceship<tspan fill="#9B9B9B" font-size="15" x="81.0132" y="0">[</tspan><tspan fill="#F5A623" font-size="15" x="90.0147" y="0">‘</tspan><tspan fill="#F5A623" font-size="15" x="93.0147" y="0">Fuel Type</tspan><tspan fill="#F5A623" font-size="15" x="156.015" y="0">’</tspan><tspan fill="#9B9B9B" font-size="15" x="189.031" y="0">]</tspan><tspan fill="#9B9B9B" font-size="15" x="193.031" y="0">;</tspan></text><path d="M202.947 82.8028 202.947 74.9315 205.562 74.9315C206.18 74.9315 206.709 75.0109 207.148 75.1699 207.588 75.3289 207.935 75.587 208.191 75.9442 208.446 76.3014 208.574 76.7497 208.574 77.2891 208.574 77.6642 208.525 77.9973 208.429 78.2885 208.333 78.5796 208.174 78.8439 207.952 79.0815 207.731 79.319 207.419 79.5021 207.017 79.6307 206.615 79.7593 206.13 79.8236 205.562 79.8236 205.076 79.8236 204.682 79.8093 204.378 79.7807L204.378 82.8028 202.947 82.8028ZM205.407 78.7734C205.703 78.7734 205.962 78.7448 206.181 78.6876 206.401 78.6305 206.572 78.5573 206.696 78.468 206.819 78.3787 206.917 78.2679 206.99 78.1357 207.064 78.0036 207.112 77.8759 207.135 77.7526 207.158 77.6294 207.17 77.491 207.17 77.3373 207.17 76.9051 207.031 76.5765 206.752 76.3514 206.473 76.1264 206.08 76.0138 205.573 76.0138L204.378 76.0138 204.378 78.7627C204.421 78.7698 204.764 78.7734 205.407 78.7734ZM209.619 82.8028 209.619 74.9315 212.528 74.9315C212.925 74.9315 213.269 74.9493 213.56 74.985 213.851 75.0208 214.128 75.086 214.39 75.1806 214.653 75.2753 214.865 75.403 215.028 75.5637 215.19 75.7245 215.319 75.9344 215.414 76.1933 215.508 76.4523 215.556 76.7586 215.556 77.1123 215.556 78.1554 215.082 78.8412 214.136 79.1699 214.329 79.3878 214.568 79.7915 214.854 80.3809L216.022 82.8028 214.436 82.8028 213.519 80.7506C213.173 80.0147 212.959 79.5789 212.876 79.4432 212.816 79.4396 212.614 79.4378 212.271 79.4378L211.055 79.4271 211.055 82.8028 209.619 82.8028ZM212.657 78.3876C213.214 78.3876 213.614 78.2885 213.857 78.0902 214.1 77.8919 214.221 77.5731 214.221 77.1337 214.221 76.7479 214.098 76.4639 213.852 76.2818 213.605 76.0996 213.228 76.0085 212.721 76.0085L211.055 76.0085 211.055 78.3822C211.108 78.3822 211.374 78.3831 211.853 78.3849 212.332 78.3867 212.6 78.3876 212.657 78.3876ZM220.619 81.7312C221.38 81.7312 221.954 81.4838 222.342 80.9891 222.73 80.4943 222.923 79.795 222.923 78.8913 222.923 77.9768 222.73 77.2677 222.342 76.764 221.954 76.2603 221.382 76.0085 220.625 76.0085 219.864 76.0085 219.288 76.2612 218.897 76.7667 218.505 77.2722 218.31 77.9803 218.31 78.8913 218.31 79.7915 218.504 80.4898 218.894 80.9864 219.283 81.4829 219.858 81.7312 220.619 81.7312ZM220.614 82.9154C219.431 82.9154 218.498 82.5573 217.814 81.841 217.13 81.1248 216.788 80.1362 216.788 78.8752 216.788 77.607 217.131 76.6175 217.817 75.9067 218.503 75.1958 219.437 74.8404 220.619 74.8404 221.802 74.8404 222.734 75.1967 223.416 75.9093 224.099 76.622 224.44 77.6124 224.44 78.8805 224.44 80.1344 224.097 81.1203 223.411 81.8383 222.725 82.5564 221.793 82.9154 220.614 82.9154ZM225.779 82.8028 225.779 74.9315 228.394 74.9315C229.012 74.9315 229.541 75.0109 229.98 75.1699 230.42 75.3289 230.767 75.587 231.022 75.9442 231.278 76.3014 231.406 76.7497 231.406 77.2891 231.406 77.6642 231.357 77.9973 231.261 78.2885 231.164 78.5796 231.005 78.8439 230.784 79.0815 230.563 79.319 230.251 79.5021 229.849 79.6307 229.447 79.7593 228.962 79.8236 228.394 79.8236 227.908 79.8236 227.514 79.8093 227.21 79.7807L227.21 82.8028 225.779 82.8028ZM228.239 78.7734C228.535 78.7734 228.793 78.7448 229.013 78.6876 229.233 78.6305 229.404 78.5573 229.527 78.468 229.651 78.3787 229.749 78.2679 229.822 78.1357 229.895 78.0036 229.944 77.8759 229.967 77.7526 229.99 77.6294 230.002 77.491 230.002 77.3373 230.002 76.9051 229.862 76.5765 229.584 76.3514 229.305 76.1264 228.912 76.0138 228.405 76.0138L227.21 76.0138 227.21 78.7627C227.253 78.7698 227.596 78.7734 228.239 78.7734ZM232.488 82.8028 232.488 74.9529 237.246 74.9529 237.187 76.1049 233.94 76.1049 233.94 78.1304 237.026 78.1304 237.026 79.2824 233.94 79.2824 233.94 81.6454 237.305 81.6454 237.257 82.8028 232.488 82.8028ZM238.623 82.8028 238.623 74.9315 241.533 74.9315C241.929 74.9315 242.273 74.9493 242.564 74.985 242.855 75.0208 243.132 75.086 243.395 75.1806 243.657 75.2753 243.87 75.403 244.033 75.5637 244.195 75.7245 244.324 75.9344 244.418 76.1933 244.513 76.4523 244.56 76.7586 244.56 77.1123 244.56 78.1554 244.087 78.8412 243.14 79.1699 243.333 79.3878 243.573 79.7915 243.858 80.3809L245.026 82.8028 243.44 82.8028 242.524 80.7506C242.178 80.0147 241.963 79.5789 241.881 79.4432 241.82 79.4396 241.619 79.4378 241.276 79.4378L240.059 79.4271 240.059 82.8028 238.623 82.8028ZM241.661 78.3876C242.219 78.3876 242.619 78.2885 242.862 78.0902 243.105 77.8919 243.226 77.5731 243.226 77.1337 243.226 76.7479 243.103 76.4639 242.856 76.2818 242.61 76.0996 242.233 76.0085 241.726 76.0085L240.059 76.0085 240.059 78.3822C240.113 78.3822 240.379 78.3831 240.858 78.3849 241.336 78.3867 241.604 78.3876 241.661 78.3876ZM247.647 82.8028 247.647 76.1156 245.359 76.1156 245.359 74.9529 251.381 74.9529 251.381 76.1156 249.104 76.1156 249.104 82.8028 247.647 82.8028ZM254.093 82.8028 254.093 79.6897 251.376 74.9529 252.951 74.9529 254.822 78.3501 256.702 74.9529 258.256 74.9529 255.55 79.6629 255.55 82.8028 254.093 82.8028ZM261.932 82.8028 261.932 74.9529 263.475 74.9529C263.754 75.3887 264.32 76.2675 265.174 77.5892 266.028 78.9109 266.547 79.7147 266.733 80.0004 266.787 80.0826 266.879 80.221 267.009 80.4157 267.139 80.6104 267.231 80.7488 267.285 80.831 267.26 79.6057 267.247 78.9698 267.247 78.9234L267.247 74.9529 268.571 74.9529 268.571 82.8028 267.006 82.8028 263.465 77.2838 263.207 76.8605C263.236 77.8035 263.25 78.4662 263.25 78.8484L263.25 82.8028 261.932 82.8028ZM269.396 82.8028 272.284 74.9475 273.865 74.9475 276.71 82.8028 275.221 82.8028 274.444 80.5845 271.695 80.5845 270.913 82.8028 269.396 82.8028ZM272.059 79.5021 274.074 79.5021C273.431 77.4409 273.101 76.3764 273.083 76.3085L272.059 79.5021ZM277.493 82.8028 277.493 74.9529 279.207 74.9529 281.581 80.622 283.971 74.9529 285.664 74.9529 285.664 82.8028 284.324 82.8028 284.324 78.9234 284.367 76.6997 284.169 77.2891 282.16 82.267 280.917 82.267 278.95 77.2623 278.752 76.6729 278.8 78.9448 278.8 82.8028 277.493 82.8028ZM287.357 82.8028 287.357 74.9529 292.116 74.9529 292.057 76.1049 288.809 76.1049 288.809 78.1304 291.896 78.1304 291.896 79.2824 288.809 79.2824 288.809 81.6454 292.174 81.6454 292.126 82.8028 287.357 82.8028Z" fill="#4A4A4A" fill-rule="evenodd" transform="scale(1 1.00238)"/><path d="M132.229 81.7312C132.99 81.7312 133.564 81.4838 133.952 80.9891 134.34 80.4943 134.533 79.795 134.533 78.8913 134.533 77.9768 134.34 77.2677 133.952 76.764 133.564 76.2603 132.992 76.0085 132.235 76.0085 131.474 76.0085 130.898 76.2612 130.507 76.7667 130.115 77.2722 129.92 77.9803 129.92 78.8913 129.92 79.7915 130.115 80.4898 130.504 80.9864 130.893 81.4829 131.468 81.7312 132.229 81.7312ZM132.224 82.9154C131.042 82.9154 130.108 82.5573 129.424 81.841 128.74 81.1248 128.398 80.1362 128.398 78.8752 128.398 77.607 128.741 76.6175 129.427 75.9067 130.113 75.1958 131.047 74.8404 132.229 74.8404 133.412 74.8404 134.344 75.1967 135.026 75.9093 135.709 76.622 136.05 77.6124 136.05 78.8805 136.05 80.1344 135.707 81.1203 135.021 81.8383 134.335 82.5564 133.403 82.9154 132.224 82.9154ZM137.427 82.8028 137.427 74.9529 139.876 74.9529C140.915 74.9529 141.69 75.1047 142.201 75.4083 142.712 75.712 142.967 76.2175 142.967 76.9248 142.967 77.0391 142.96 77.1516 142.946 77.2623 142.932 77.3731 142.9 77.499 142.85 77.6401 142.8 77.7812 142.733 77.9089 142.651 78.0232 142.569 78.1375 142.455 78.2492 142.308 78.3581 142.162 78.4671 141.99 78.5519 141.794 78.6126 142.28 78.7305 142.651 78.9565 142.909 79.2905 143.166 79.6245 143.294 80.0362 143.294 80.5256 143.294 81.265 143.033 81.8294 142.509 82.2188 141.986 82.6082 141.262 82.8028 140.337 82.8028L137.427 82.8028ZM138.879 81.7526 140.138 81.7526C141.253 81.7526 141.81 81.3168 141.81 80.4452 141.81 80.0058 141.671 79.6897 141.392 79.4968 141.113 79.3039 140.683 79.2074 140.101 79.2074L138.879 79.2074 138.879 81.7526ZM138.879 78.1947 140.122 78.1947C141.083 78.1947 141.564 77.8285 141.564 77.0962 141.564 76.6854 141.425 76.4032 141.148 76.2496 140.871 76.096 140.431 76.0192 139.827 76.0192L138.879 76.0192 138.879 78.1947ZM143.332 84.5229 143.273 83.3816C143.444 83.4101 143.632 83.4244 143.836 83.4244 144.232 83.4244 144.5 83.3226 144.639 83.119 144.779 82.9154 144.848 82.5796 144.848 82.1116L144.848 74.9315 146.306 74.9315 146.306 82.0152C146.306 82.4653 146.266 82.8448 146.185 83.1538 146.105 83.4628 145.969 83.7254 145.778 83.9415 145.587 84.1576 145.333 84.3157 145.017 84.4157 144.701 84.5157 144.309 84.5657 143.841 84.5657 143.644 84.5657 143.475 84.5515 143.332 84.5229ZM147.961 82.8028 147.961 74.9529 152.72 74.9529 152.661 76.1049 149.414 76.1049 149.414 78.1304 152.5 78.1304 152.5 79.2824 149.414 79.2824 149.414 81.6454 152.779 81.6454 152.73 82.8028 147.961 82.8028ZM157.558 82.9154C156.412 82.9154 155.502 82.5546 154.831 81.833 154.159 81.1114 153.823 80.1148 153.823 78.843 153.823 77.6356 154.174 76.6667 154.876 75.9361 155.578 75.2056 156.497 74.8404 157.633 74.8404 158.551 74.8404 159.328 75.0529 159.964 75.478L159.509 76.5765C158.898 76.2014 158.283 76.0138 157.665 76.0138 156.944 76.0138 156.373 76.2737 155.953 76.7935 155.534 77.3132 155.324 78.0107 155.324 78.8859 155.324 79.7933 155.527 80.4952 155.932 80.9917 156.337 81.4883 156.915 81.7365 157.665 81.7365 158.323 81.7365 158.975 81.5722 159.621 81.2436L159.814 82.3795C159.214 82.7368 158.462 82.9154 157.558 82.9154ZM162.622 82.8028 162.622 76.1156 160.334 76.1156 160.334 74.9529 166.357 74.9529 166.357 76.1156 164.079 76.1156 164.079 82.8028 162.622 82.8028Z" fill="#4A4A4A" fill-rule="evenodd" transform="scale(1 1.00238)"/><path d="M99.7625 11.9715 99.7625 22.4466" stroke="#4A4A4A" stroke-width="0.997625" stroke-linecap="square" fill="none" fill-rule="evenodd" transform="matrix(-1 0 0 -1.00238 396.057 123.5)"/><path d="M0.997625 11.9715 0.997625 22.4466" stroke="#4A4A4A" stroke-width="0.997625" stroke-linecap="square" fill="none" fill-rule="evenodd" transform="matrix(-1 0 0 -1.00238 198.527 123.5)"/><path d="M0.997625 10.9739 100.261 10.9739" stroke="#4A4A4A" stroke-width="0.997625" stroke-linecap="square" fill="none" fill-rule="evenodd" transform="matrix(-1 0 0 -1.00238 297.791 111)"/><path d="M50.8789 0.498812 50.8789 10.9739" stroke="#4A4A4A" stroke-width="0.997625" stroke-linecap="square" fill="none" fill-rule="evenodd" transform="matrix(-1 0 0 -1.00238 298.29 100.5)"/><path d="M81.8052 11.9715 81.8052 22.4466" stroke="#4A4A4A" stroke-width="0.997625" stroke-linecap="square" fill="none" fill-rule="evenodd" transform="matrix(-1 0 0 -1.00238 271.354 123.5)"/><path d="M0.997625 11.9715 0.997625 22.4466" stroke="#4A4A4A" stroke-width="0.997625" stroke-linecap="square" fill="none" fill-rule="evenodd" transform="matrix(-1 0 0 -1.00238 109.739 123.5)"/><path d="M0.498812 10.9739 82.304 10.9739" stroke="#4A4A4A" stroke-width="0.997625" stroke-linecap="square" fill="none" fill-rule="evenodd" transform="matrix(-1 0 0 -1.00238 190.546 111)"/><path d="M40.9026 0.498812 40.9026 10.9739" stroke="#4A4A4A" stroke-width="0.997625" stroke-linecap="square" fill="none" fill-rule="evenodd" transform="matrix(-1 0 0 -1.00238 189.549 100.5)"/></g></svg>