<svg width="420" height="165" xmlns="http://www.w3.org/2000/svg" xmlns:xlink="http://www.w3.org/1999/xlink" overflow="hidden"><defs><clipPath id="clip0"><rect x="0" y="0" width="420" height="165"/></clipPath></defs><g clip-path="url(#clip0)"><path d="M0 0 418.464 0 418.464 165 0 165Z" fill="#FFFFFF" fill-rule="evenodd" transform="scale(1.00367 1)"/><text fill="#BD10E0" font-family="Arial,Arial_MSFontService,sans-serif" font-weight="400" font-size="15" transform="matrix(0.997625 0 0 0.993976 127.684 87)">spaceship<tspan fill="#9B9B9B" font-size="15" x="81.0132" y="0">.</tspan><tspan fill="#F5A623" font-size="15" x="90.0146" y="0">color</tspan><tspan fill="#9B9B9B" font-size="15" x="135.022" y="0">;</tspan></text><path d="M194.253 41.747 194.253 33.9044 196.859 33.9044C197.474 33.9044 198.001 33.9836 198.439 34.142 198.877 34.3003 199.223 34.5575 199.477 34.9134 199.732 35.2693 199.859 35.716 199.859 36.2534 199.859 36.6271 199.811 36.959 199.715 37.2491 199.619 37.5392 199.46 37.8025 199.24 38.0392 199.019 38.2759 198.709 38.4583 198.308 38.5865 197.908 38.7146 197.425 38.7786 196.859 38.7786 196.375 38.7786 195.981 38.7644 195.679 38.7359L195.679 41.747 194.253 41.747ZM196.704 37.7323C196.999 37.7323 197.256 37.7038 197.475 37.6468 197.694 37.5899 197.865 37.5169 197.988 37.4279 198.111 37.339 198.208 37.2286 198.281 37.0969 198.354 36.9653 198.402 36.838 198.426 36.7152 198.449 36.5924 198.46 36.4545 198.46 36.3015 198.46 35.8708 198.321 35.5434 198.044 35.3191 197.766 35.0949 197.375 34.9828 196.869 34.9828L195.679 34.9828 195.679 37.7216C195.722 37.7287 196.063 37.7323 196.704 37.7323ZM200.9 41.747 200.9 33.9044 203.799 33.9044C204.194 33.9044 204.537 33.9222 204.827 33.9578 205.117 33.9934 205.393 34.0583 205.654 34.1526 205.916 34.247 206.128 34.3742 206.29 34.5344 206.451 34.6945 206.58 34.9036 206.674 35.1617 206.768 35.4197 206.815 35.7249 206.815 36.0772 206.815 37.1165 206.344 37.7999 205.401 38.1273 205.593 38.3444 205.831 38.7466 206.116 39.3339L207.28 41.747 205.7 41.747 204.787 39.7023C204.441 38.9691 204.228 38.5348 204.146 38.3996 204.086 38.396 203.884 38.3943 203.543 38.3943L202.331 38.3836 202.331 41.747 200.9 41.747ZM203.927 37.3479C204.482 37.3479 204.881 37.2491 205.123 37.0516 205.365 36.854 205.486 36.5364 205.486 36.0986 205.486 35.7142 205.363 35.4313 205.118 35.2497 204.872 35.0682 204.497 34.9775 203.991 34.9775L202.331 34.9775 202.331 37.3425C202.384 37.3425 202.649 37.3434 203.126 37.3452 203.603 37.347 203.87 37.3479 203.927 37.3479ZM211.861 40.6792C212.619 40.6792 213.191 40.4328 213.577 39.9398 213.963 39.4469 214.156 38.7502 214.156 37.8497 214.156 36.9386 213.963 36.2321 213.577 35.7302 213.191 35.2284 212.62 34.9775 211.866 34.9775 211.108 34.9775 210.534 35.2293 210.144 35.7329 209.754 36.2365 209.56 36.9421 209.56 37.8497 209.56 38.7466 209.753 39.4424 210.141 39.9372 210.529 40.4319 211.102 40.6792 211.861 40.6792ZM211.855 41.8591C210.677 41.8591 209.747 41.5023 209.066 40.7887 208.384 40.0751 208.043 39.0901 208.043 37.8337 208.043 36.5702 208.385 35.5843 209.068 34.876 209.752 34.1678 210.682 33.8136 211.861 33.8136 213.039 33.8136 213.968 34.1686 214.647 34.8787 215.327 35.5888 215.667 36.5755 215.667 37.839 215.667 39.0883 215.325 40.0706 214.642 40.786 213.959 41.5014 213.03 41.8591 211.855 41.8591ZM217.002 41.747 217.002 33.9044 219.607 33.9044C220.223 33.9044 220.75 33.9836 221.187 34.142 221.625 34.3003 221.971 34.5575 222.226 34.9134 222.48 35.2693 222.607 35.716 222.607 36.2534 222.607 36.6271 222.559 36.959 222.463 37.2491 222.367 37.5392 222.209 37.8025 221.988 38.0392 221.767 38.2759 221.457 38.4583 221.057 38.5865 220.656 38.7146 220.173 38.7786 219.607 38.7786 219.123 38.7786 218.73 38.7644 218.427 38.7359L218.427 41.747 217.002 41.747ZM219.452 37.7323C219.748 37.7323 220.005 37.7038 220.224 37.6468 220.443 37.5899 220.613 37.5169 220.736 37.4279 220.859 37.339 220.957 37.2286 221.03 37.0969 221.103 36.9653 221.151 36.838 221.174 36.7152 221.197 36.5924 221.209 36.4545 221.209 36.3015 221.209 35.8708 221.07 35.5434 220.792 35.3191 220.515 35.0949 220.123 34.9828 219.618 34.9828L218.427 34.9828 218.427 37.7216C218.47 37.7287 218.812 37.7323 219.452 37.7323ZM223.686 41.747 223.686 33.9257 228.427 33.9257 228.368 35.0736 225.133 35.0736 225.133 37.0916 228.208 37.0916 228.208 38.2394 225.133 38.2394 225.133 40.5938 228.485 40.5938 228.437 41.747 223.686 41.747ZM229.799 41.747 229.799 33.9044 232.698 33.9044C233.093 33.9044 233.435 33.9222 233.725 33.9578 234.015 33.9934 234.291 34.0583 234.553 34.1526 234.814 34.247 235.026 34.3742 235.188 34.5344 235.35 34.6945 235.478 34.9036 235.573 35.1617 235.667 35.4197 235.714 35.7249 235.714 36.0772 235.714 37.1165 235.242 37.7999 234.299 38.1273 234.491 38.3444 234.73 38.7466 235.015 39.3339L236.178 41.747 234.598 41.747 233.685 39.7023C233.34 38.9691 233.126 38.5348 233.045 38.3996 232.984 38.396 232.783 38.3943 232.441 38.3943L231.229 38.3836 231.229 41.747 229.799 41.747ZM232.826 37.3479C233.381 37.3479 233.78 37.2491 234.022 37.0516 234.264 36.854 234.385 36.5364 234.385 36.0986 234.385 35.7142 234.262 35.4313 234.016 35.2497 233.771 35.0682 233.395 34.9775 232.89 34.9775L231.229 34.9775 231.229 37.3425C231.283 37.3425 231.548 37.3434 232.025 37.3452 232.502 37.347 232.769 37.3479 232.826 37.3479ZM238.789 41.747 238.789 35.0842 236.509 35.0842 236.509 33.9257 242.51 33.9257 242.51 35.0842 240.241 35.0842 240.241 41.747 238.789 41.747ZM245.212 41.747 245.212 38.6452 242.505 33.9257 244.074 33.9257 245.938 37.3105 247.812 33.9257 249.36 33.9257 246.664 38.6185 246.664 41.747 245.212 41.747ZM253.022 41.747 253.022 33.9257 254.56 33.9257C254.837 34.36 255.401 35.2355 256.252 36.5524 257.103 37.8693 257.621 38.6701 257.806 38.9548 257.859 39.0367 257.951 39.1746 258.081 39.3686 258.211 39.5626 258.302 39.7005 258.356 39.7823 258.331 38.5615 258.318 37.928 258.318 37.8817L258.318 33.9257 259.637 33.9257 259.637 41.747 258.078 41.747 254.549 36.2481 254.293 35.8263C254.321 36.7659 254.336 37.4262 254.336 37.807L254.336 41.747 253.022 41.747ZM260.459 41.747 263.337 33.9204 264.912 33.9204 267.746 41.747 266.262 41.747 265.488 39.5368 262.749 39.5368 261.97 41.747 260.459 41.747ZM263.112 38.4583 265.12 38.4583C264.479 36.4047 264.15 35.3441 264.132 35.2764L263.112 38.4583ZM268.526 41.747 268.526 33.9257 270.234 33.9257 272.599 39.5741 274.98 33.9257 276.667 33.9257 276.667 41.747 275.333 41.747 275.333 37.8817 275.375 35.6662 275.178 36.2534 273.176 41.2131 271.937 41.2131 269.978 36.2267 269.78 35.6395 269.829 37.9031 269.829 41.747 268.526 41.747ZM278.354 41.747 278.354 33.9257 283.095 33.9257 283.037 35.0736 279.801 35.0736 279.801 37.0916 282.876 37.0916 282.876 38.2394 279.801 38.2394 279.801 40.5938 283.154 40.5938 283.106 41.747 278.354 41.747Z" fill="#4A4A4A" fill-rule="evenodd" transform="scale(1.00367 1)"/><path d="M149.637 40.6792C150.395 40.6792 150.968 40.4328 151.354 39.9398 151.74 39.4469 151.933 38.7502 151.933 37.8497 151.933 36.9386 151.74 36.2321 151.354 35.7302 150.968 35.2284 150.397 34.9775 149.643 34.9775 148.885 34.9775 148.311 35.2293 147.921 35.7329 147.531 36.2365 147.336 36.9421 147.336 37.8497 147.336 38.7466 147.53 39.4424 147.918 39.9372 148.306 40.4319 148.879 40.6792 149.637 40.6792ZM149.632 41.8591C148.454 41.8591 147.524 41.5023 146.842 40.7887 146.161 40.0751 145.82 39.0901 145.82 37.8337 145.82 36.5702 146.162 35.5843 146.845 34.876 147.528 34.1678 148.459 33.8136 149.637 33.8136 150.815 33.8136 151.744 34.1686 152.424 34.8787 153.104 35.5888 153.444 36.5755 153.444 37.839 153.444 39.0883 153.102 40.0706 152.419 40.786 151.735 41.5014 150.806 41.8591 149.632 41.8591ZM154.816 41.747 154.816 33.9257 157.256 33.9257C158.291 33.9257 159.064 34.077 159.573 34.3795 160.082 34.6821 160.336 35.1857 160.336 35.8904 160.336 36.0043 160.329 36.1164 160.315 36.2267 160.301 36.3371 160.268 36.4625 160.219 36.6031 160.169 36.7437 160.103 36.8709 160.021 36.9848 159.939 37.0987 159.825 37.2099 159.679 37.3185 159.534 37.4271 159.363 37.5116 159.167 37.5721 159.651 37.6895 160.021 37.9147 160.277 38.2474 160.534 38.5802 160.662 38.9904 160.662 39.478 160.662 40.2148 160.401 40.7771 159.88 41.1651 159.358 41.553 158.637 41.747 157.715 41.747L154.816 41.747ZM156.263 40.7006 157.517 40.7006C158.628 40.7006 159.183 40.2664 159.183 39.3979 159.183 38.9602 159.044 38.6452 158.767 38.453 158.489 38.2608 158.06 38.1647 157.48 38.1647L156.263 38.1647 156.263 40.7006ZM156.263 37.1557 157.501 37.1557C158.459 37.1557 158.937 36.7909 158.937 36.0612 158.937 35.6519 158.799 35.3708 158.524 35.2177 158.248 35.0647 157.809 34.9881 157.208 34.9881L156.263 34.9881 156.263 37.1557ZM160.699 43.4607 160.64 42.3236C160.811 42.352 160.998 42.3663 161.201 42.3663 161.596 42.3663 161.863 42.2648 162.002 42.062 162.141 41.8591 162.21 41.5245 162.21 41.0583L162.21 33.9044 163.662 33.9044 163.662 40.9622C163.662 41.4106 163.622 41.7888 163.542 42.0967 163.462 42.4045 163.327 42.6661 163.136 42.8815 162.946 43.0968 162.693 43.2543 162.378 43.3539 162.063 43.4536 161.673 43.5034 161.206 43.5034 161.011 43.5034 160.842 43.4892 160.699 43.4607ZM165.312 41.747 165.312 33.9257 170.053 33.9257 169.994 35.0736 166.759 35.0736 166.759 37.0916 169.834 37.0916 169.834 38.2394 166.759 38.2394 166.759 40.5938 170.111 40.5938 170.063 41.747 165.312 41.747ZM174.874 41.8591C173.731 41.8591 172.825 41.4996 172.156 40.7807 171.487 40.0617 171.152 39.0687 171.152 37.8017 171.152 36.5987 171.502 35.6332 172.201 34.9054 172.901 34.1775 173.816 33.8136 174.948 33.8136 175.863 33.8136 176.637 34.0254 177.271 34.4489L176.817 35.5434C176.208 35.1697 175.596 34.9828 174.98 34.9828 174.261 34.9828 173.693 35.2417 173.275 35.7596 172.856 36.2775 172.647 36.9724 172.647 37.8444 172.647 38.7484 172.849 39.4478 173.253 39.9425 173.657 40.4372 174.233 40.6846 174.98 40.6846 175.635 40.6846 176.285 40.5209 176.929 40.1934L177.121 41.3252C176.523 41.6811 175.774 41.8591 174.874 41.8591ZM179.919 41.747 179.919 35.0842 177.639 35.0842 177.639 33.9257 183.64 33.9257 183.64 35.0842 181.371 35.0842 181.371 41.747 179.919 41.747Z" fill="#4A4A4A" fill-rule="evenodd" transform="scale(1.00367 1)"/><path d="M43.7349 11.9277 43.7349 22.3645" stroke="#4A4A4A" stroke-width="0.993976" stroke-linecap="square" fill="none" fill-rule="evenodd" transform="matrix(-1.00367 0 0 -1 304.276 82.003)"/><path d="M0.993976 11.9277 0.993976 22.3645" stroke="#4A4A4A" stroke-width="0.993976" stroke-linecap="square" fill="none" fill-rule="evenodd" transform="matrix(-1.00367 0 0 -1 218.48 82.003)"/><path d="M0.993976 10.9337 43.7349 10.9337" stroke="#4A4A4A" stroke-width="0.993976" stroke-linecap="square" fill="none" fill-rule="evenodd" transform="matrix(-1.00367 0 0 -1 261.378 69.5783)"/><path d="M22.8614 0.496988 22.8614 10.9337" stroke="#4A4A4A" stroke-width="0.993976" stroke-linecap="square" fill="none" fill-rule="evenodd" transform="matrix(-1.00367 0 0 -1 262.375 59.1416)"/><path d="M81.506 11.9277 81.506 22.3645" stroke="#4A4A4A" stroke-width="0.993976" stroke-linecap="square" fill="none" fill-rule="evenodd" transform="matrix(-1.00367 0 0 -1 289.311 82.003)"/><path d="M0.993976 11.9277 0.993976 22.3645" stroke="#4A4A4A" stroke-width="0.993976" stroke-linecap="square" fill="none" fill-rule="evenodd" transform="matrix(-1.00367 0 0 -1 127.696 82.003)"/><path d="M0.496988 10.9337 82.003 10.9337" stroke="#4A4A4A" stroke-width="0.993976" stroke-linecap="square" fill="none" fill-rule="evenodd" transform="matrix(-1.00367 0 0 -1 208.504 69.5783)"/><path d="M40.753 0.496988 40.753 10.9337" stroke="#4A4A4A" stroke-width="0.993976" stroke-linecap="square" fill="none" fill-rule="evenodd" transform="matrix(-1.00367 0 0 -1 207.506 59.1416)"/><path d="M14.9096 12.9217 14.9096 23.8554" stroke="#4A4A4A" stroke-width="0.993976" stroke-linecap="square" fill="none" fill-rule="evenodd" transform="matrix(1.00367 0 0 1 191.544 81.506)"/><path d="M0.993976 12.9217C0.993976 12.9217 0.993976 16.5663 0.993976 23.8554" stroke="#4A4A4A" stroke-width="0.993976" stroke-linecap="square" fill="none" fill-rule="evenodd" transform="matrix(1.00367 0 0 1 219.477 81.506)"/><path d="M0.993976 11.9277 14.9096 11.9277" stroke="#4A4A4A" stroke-width="0.993976" stroke-linecap="square" fill="none" fill-rule="evenodd" transform="matrix(1.00367 0 0 1 205.511 94.4277)"/><path d="M7.95181 0 7.95181 11.9277" stroke="#4A4A4A" stroke-width="0.993976" stroke-linecap="square" fill="none" fill-rule="evenodd" transform="matrix(1.00367 0 0 1 205.511 106.355)"/><path d="M172.713 131.04 173.748 131.04C174.642 131.04 175.321 130.806 175.788 130.338 176.254 129.87 176.487 129.188 176.487 128.291 176.487 127.33 176.247 126.631 175.766 126.195 175.286 125.759 174.562 125.541 173.593 125.541L172.713 125.541 172.713 131.04ZM171.266 132.199 171.266 124.378 173.529 124.378C174.213 124.378 174.825 124.456 175.366 124.612 175.907 124.769 176.372 125.005 176.762 125.32 177.152 125.635 177.451 126.041 177.659 126.537 177.867 127.034 177.971 127.607 177.971 128.259 177.971 129.522 177.59 130.495 176.829 131.176 176.067 131.858 175.012 132.199 173.663 132.199L171.266 132.199ZM182.845 131.131C183.604 131.131 184.176 130.885 184.562 130.392 184.948 129.899 185.141 129.202 185.141 128.302 185.141 127.39 184.948 126.684 184.562 126.182 184.176 125.68 183.605 125.429 182.851 125.429 182.093 125.429 181.519 125.681 181.129 126.185 180.739 126.688 180.544 127.394 180.544 128.302 180.544 129.198 180.738 129.894 181.126 130.389 181.514 130.884 182.087 131.131 182.845 131.131ZM182.84 132.311C181.662 132.311 180.732 131.954 180.051 131.24 179.369 130.527 179.028 129.542 179.028 128.285 179.028 127.022 179.37 126.036 180.053 125.328 180.737 124.62 181.667 124.265 182.845 124.265 184.024 124.265 184.952 124.62 185.632 125.331 186.312 126.041 186.652 127.027 186.652 128.291 186.652 129.54 186.31 130.522 185.627 131.238 184.944 131.953 184.015 132.311 182.84 132.311ZM189.385 132.199 189.385 125.536 187.106 125.536 187.106 124.378 193.107 124.378 193.107 125.536 190.838 125.536 190.838 132.199 189.385 132.199ZM200.415 131.131C201.173 131.131 201.745 130.885 202.132 130.392 202.518 129.899 202.711 129.202 202.711 128.302 202.711 127.39 202.518 126.684 202.132 126.182 201.745 125.68 201.175 125.429 200.421 125.429 199.662 125.429 199.089 125.681 198.699 126.185 198.309 126.688 198.114 127.394 198.114 128.302 198.114 129.198 198.308 129.894 198.696 130.389 199.084 130.884 199.657 131.131 200.415 131.131ZM200.41 132.311C199.232 132.311 198.302 131.954 197.62 131.24 196.939 130.527 196.598 129.542 196.598 128.285 196.598 127.022 196.94 126.036 197.623 125.328 198.306 124.62 199.237 124.265 200.415 124.265 201.593 124.265 202.522 124.62 203.202 125.331 203.882 126.041 204.222 127.027 204.222 128.291 204.222 129.54 203.88 130.522 203.197 131.238 202.513 131.953 201.584 132.311 200.41 132.311ZM205.556 132.199 205.556 124.356 208.162 124.356C208.777 124.356 209.304 124.435 209.742 124.594 210.18 124.752 210.526 125.009 210.78 125.365 211.035 125.721 211.162 126.168 211.162 126.705 211.162 127.079 211.114 127.411 211.018 127.701 210.922 127.991 210.763 128.254 210.543 128.491 210.322 128.728 210.012 128.91 209.611 129.038 209.211 129.166 208.728 129.23 208.162 129.23 207.678 129.23 207.284 129.216 206.982 129.188L206.982 132.199 205.556 132.199ZM208.007 128.184C208.302 128.184 208.559 128.156 208.778 128.099 208.997 128.042 209.168 127.969 209.291 127.88 209.414 127.791 209.512 127.68 209.585 127.549 209.657 127.417 209.706 127.29 209.729 127.167 209.752 127.044 209.763 126.906 209.763 126.753 209.763 126.323 209.625 125.995 209.347 125.771 209.069 125.547 208.678 125.435 208.172 125.435L206.982 125.435 206.982 128.173C207.025 128.18 207.366 128.184 208.007 128.184ZM212.241 132.199 212.241 124.378 216.981 124.378 216.923 125.525 213.687 125.525 213.687 127.543 216.762 127.543 216.762 128.691 213.687 128.691 213.687 131.046 217.04 131.046 216.992 132.199 212.241 132.199ZM218.353 132.199 218.353 124.356 221.252 124.356C221.647 124.356 221.99 124.374 222.28 124.41 222.57 124.445 222.846 124.51 223.108 124.604 223.369 124.699 223.581 124.826 223.743 124.986 223.905 125.146 224.033 125.355 224.127 125.613 224.222 125.871 224.269 126.177 224.269 126.529 224.269 127.568 223.797 128.252 222.854 128.579 223.046 128.796 223.285 129.198 223.569 129.786L224.733 132.199 223.153 132.199 222.24 130.154C221.895 129.421 221.681 128.987 221.599 128.851 221.539 128.848 221.338 128.846 220.996 128.846L219.784 128.835 219.784 132.199 218.353 132.199ZM221.38 127.8C221.936 127.8 222.334 127.701 222.576 127.503 222.818 127.306 222.939 126.988 222.939 126.55 222.939 126.166 222.817 125.883 222.571 125.702 222.325 125.52 221.95 125.429 221.445 125.429L219.784 125.429 219.784 127.794C219.838 127.794 220.103 127.795 220.58 127.797 221.057 127.799 221.324 127.8 221.38 127.8ZM224.973 132.199 227.851 124.372 229.426 124.372 232.261 132.199 230.777 132.199 230.003 129.989 227.264 129.989 226.484 132.199 224.973 132.199ZM227.627 128.91 229.634 128.91C228.993 126.856 228.664 125.796 228.646 125.728L227.627 128.91ZM234.124 132.199 234.124 125.536 231.844 125.536 231.844 124.378 237.845 124.378 237.845 125.536 235.576 125.536 235.576 132.199 234.124 132.199ZM242.234 131.131C242.992 131.131 243.564 130.885 243.95 130.392 244.336 129.899 244.529 129.202 244.529 128.302 244.529 127.39 244.336 126.684 243.95 126.182 243.564 125.68 242.993 125.429 242.239 125.429 241.481 125.429 240.907 125.681 240.517 126.185 240.127 126.688 239.933 127.394 239.933 128.302 239.933 129.198 240.127 129.894 240.514 130.389 240.902 130.884 241.475 131.131 242.234 131.131ZM242.228 132.311C241.05 132.311 240.12 131.954 239.439 131.24 238.757 130.527 238.416 129.542 238.416 128.285 238.416 127.022 238.758 126.036 239.441 125.328 240.125 124.62 241.055 124.265 242.234 124.265 243.412 124.265 244.341 124.62 245.02 125.331 245.7 126.041 246.04 127.027 246.04 128.291 246.04 129.54 245.698 130.522 245.015 131.238 244.332 131.953 243.403 132.311 242.228 132.311ZM247.375 132.199 247.375 124.356 250.274 124.356C250.669 124.356 251.011 124.374 251.301 124.41 251.591 124.445 251.867 124.51 252.129 124.604 252.391 124.699 252.602 124.826 252.764 124.986 252.926 125.146 253.054 125.355 253.149 125.613 253.243 125.871 253.29 126.177 253.29 126.529 253.29 127.568 252.819 128.252 251.875 128.579 252.068 128.796 252.306 129.198 252.591 129.786L253.755 132.199 252.174 132.199 251.261 130.154C250.916 129.421 250.703 128.987 250.621 128.851 250.56 128.848 250.359 128.846 250.017 128.846L248.806 128.835 248.806 132.199 247.375 132.199ZM250.402 127.8C250.957 127.8 251.356 127.701 251.598 127.503 251.84 127.306 251.961 126.988 251.961 126.55 251.961 126.166 251.838 125.883 251.592 125.702 251.347 125.52 250.971 125.429 250.466 125.429L248.806 125.429 248.806 127.794C248.859 127.794 249.124 127.795 249.601 127.797 250.078 127.799 250.345 127.8 250.402 127.8Z" fill="#4A4A4A" fill-rule="evenodd" transform="scale(1.00367 1)"/></g></svg>