<svg width="420" height="152" xmlns="http://www.w3.org/2000/svg" xmlns:xlink="http://www.w3.org/1999/xlink" overflow="hidden"><defs><clipPath id="clip0"><rect x="0" y="0" width="420" height="152"/></clipPath></defs><g clip-path="url(#clip0)"><path d="M0 0 418.248 0 418.248 152 0 152Z" fill="#FFFFFF" fill-rule="evenodd" transform="scale(1.00419 1)"/><path d="M20.476 35.0367 20.476-5.91528" stroke="#4C7EF3" stroke-width="8.94118" stroke-linecap="square" fill="none" transform="matrix(0 -1 1.00419 0 174.539 79.7426)"/><path d="M52.7825 6.82533 38.2218 22.7511 23.6611 6.82533" stroke="#4C7EF3" stroke-width="8.94118" fill="none" fill-rule="evenodd" transform="matrix(0 -1 1.00419 0 192.13 97.7159)"/><path d="M124.055 56.8131 124.055 62.0179 122.26 64.3336 122.91 65.3461 120.164 67.3334 124.055 69.8047 124.055 73.8438 122.224 76.1557 124.055 78.6301 121.995 80.2843 121.995 81.8953 119.481 84.2267 124.055 86.6781 124.055 88.8235 122.436 89.9792 124.055 91.2437 124.055 94.2984 115.742 103.32 110.554 98.6177 110.554 57.0025C108.895 55.6714 107.829 53.6316 107.816 51.3424 101.036 48.0577 96.366 41.1443 96.366 33.1472 96.366 21.9733 105.484 12.915 116.732 12.915 127.98 12.915 137.098 21.9733 137.098 33.1472 137.098 40.7835 132.84 47.4316 126.553 50.8758 126.688 53.1648 125.732 55.3511 124.055 56.8131ZM116.732 32.9199C119.639 32.9199 121.995 30.579 121.995 27.6913 121.995 24.8037 119.639 22.4628 116.732 22.4628 113.825 22.4628 111.469 24.8037 111.469 27.6913 111.469 30.579 113.825 32.9199 116.732 32.9199Z" fill="#4C7EF3" transform="scale(1.00419 1)"/><path d="M102.202 136.105 102.202 123.313 104.577 123.313 104.577 129.076C104.99 128.528 105.835 127.507 107.113 126.011 108.391 124.515 109.152 123.615 109.396 123.313L112.199 123.313 107.362 129.067 112.505 136.105 109.728 136.105 105.555 130.368 104.577 131.189 104.577 136.105 102.202 136.105ZM113.981 136.105 113.981 123.313 121.734 123.313 121.638 125.19 116.347 125.19 116.347 128.491 121.376 128.491 121.376 130.368 116.347 130.368 116.347 134.219 121.83 134.219 121.752 136.105 113.981 136.105ZM126.956 136.105 126.956 131.032 122.529 123.313 125.096 123.313 128.143 128.849 131.208 123.313 133.74 123.313 129.331 130.988 129.331 136.105 126.956 136.105Z" fill="#4C7EF3" fill-rule="evenodd" transform="scale(1.00419 1)"/><path d="M264.892 136.105 260.238 123.313 262.674 123.313 265.381 131.215C265.485 131.488 265.727 132.289 266.105 133.616 266.129 133.523 266.236 133.14 266.428 132.468 266.62 131.796 266.746 131.384 266.804 131.232 266.874 131.034 267.316 129.72 268.131 127.29 268.946 124.86 269.391 123.534 269.467 123.313L271.877 123.313 267.284 136.105 264.892 136.105ZM271.798 136.105 276.505 123.304 279.08 123.304 283.717 136.105 281.29 136.105 280.023 132.49 275.544 132.49 274.269 136.105 271.798 136.105ZM276.138 130.726 279.421 130.726C278.373 127.367 277.835 125.632 277.806 125.522L276.138 130.726ZM285.07 136.105 285.07 123.313 287.437 123.313 287.437 134.219 292.789 134.219 292.719 136.105 285.07 136.105ZM299.416 136.288C297.74 136.288 296.468 135.87 295.601 135.035 294.733 134.2 294.3 133.022 294.3 131.503L294.3 123.313 296.675 123.313 296.675 131.302C296.675 132.367 296.891 133.145 297.325 133.634 297.759 134.122 298.47 134.367 299.46 134.367 300.432 134.367 301.137 134.121 301.573 133.629 302.01 133.137 302.228 132.359 302.228 131.293L302.228 123.313 304.594 123.313 304.594 131.52C304.594 133.028 304.152 134.2 303.267 135.035 302.382 135.87 301.099 136.288 299.416 136.288ZM307.24 136.105 307.24 123.313 314.994 123.313 314.898 125.19 309.606 125.19 309.606 128.491 314.636 128.491 314.636 130.368 309.606 130.368 309.606 134.219 315.09 134.219 315.011 136.105 307.24 136.105Z" fill="#4C7EF3" fill-rule="evenodd" transform="scale(1.00419 1)"/><path d="M45.9662 71.6676 45.9662 89.7943 91.4701 71.8043 92.1549 55.1595Z" fill="#4C7EF3" transform="matrix(1.00419 0 0 1 242.423 14.902)"/><path d="M12.7684 50.0521 45.8994 71.5424 45.8994 89.0022 13.6901 66.2346Z" fill="#4C7EF3" transform="matrix(1.00419 0 0 1 242.423 14.902)"/><path d="M27.069 56.2937 55.7294 49.0307 75.3101 58.5643 47.1353 68.6516Z" fill="#7098F5" transform="matrix(1.00419 0 0 1 242.423 14.902)"/><path d="M28.1344 57.377 55.5645 49.8118 57.0573 40.3481 17.8758 50.9178Z" fill="#4C7EF3" transform="matrix(1.00419 0 0 1 242.423 14.902)"/><path d="M55.1595 49.7145 55.9521 39.8374 86.3298 54.5806 74.4211 58.9476Z" fill="#4C7EF3" transform="matrix(1.00419 0 0 1 242.423 14.902)"/><path d="M12.7684 50.4912 57.8909 38.8159 92.4791 55.3605 46.2416 72.0936 12.7684 50.4912ZM18.703 50.9471 47.1793 68.5873 86.4946 54.7334 57.9753 40.7661 18.703 50.9471Z" fill="#7098F5" transform="matrix(1.00419 0 0 1 242.423 14.902)"/><path d="M2.82437 4.59662 0 5.72783 9.69739 49.4975 13.132 50.519Z" fill="#7098F5" transform="matrix(1.00419 0 0 1 242.423 14.902)"/><path d="M7.1503 7.61926 45.6813 3.06442 51.4651 35.1974 14.9002 43.5392Z" fill="#7098F5" transform="matrix(1.00419 0 0 1 242.423 14.902)"/><path d="M54.3216 36.4972 50.3733 35.2408 14.8113 43.3123 15.4523 46.2825Z" fill="#4C7EF3" transform="matrix(1.00419 0 0 1 242.423 14.902)"/><path d="M44.434 3.77815 47.7792 3.06442 54.7869 36.6418 50.2881 35.2672Z" fill="#4C7EF3" transform="matrix(1.00419 0 0 1 242.423 14.902)"/><path d="M12.9834 50.716 2.55368 4.79413 49.7608 0 57.2743 38.999 12.9834 50.716ZM7.2331 8.23362 15.4149 45.6725 54.1465 36.3121 47.7064 3.28986 7.2331 8.23362Z" fill="#4C7EF3" transform="matrix(1.00419 0 0 1 242.423 14.902)"/><path d="M69.9708 70.7143C69.9708 69.6667 70.8129 68.4829 71.8517 68.0703 72.8905 67.6576 73.7326 68.1724 73.7326 69.2201 73.7326 69.9671 73.3044 70.7834 72.6821 71.3399 72.6874 71.376 72.6902 71.4139 72.6902 71.4537L72.6902 73.5756C72.6902 74.0373 72.3159 74.5602 71.8542 74.7436 71.3926 74.927 71.0183 74.7014 71.0183 74.2397L71.0183 72.1178C71.0183 72.0789 71.021 72.0395 71.0261 72 70.4012 71.9398 69.9708 71.4632 69.9708 70.7143Z" fill="#DBE5FD" transform="matrix(1.00419 0 0 1 242.423 14.902)"/></g></svg>